<svg xmlns="http://www.w3.org/2000/svg" viewBox="0 0 337.26 354.42"><defs><style>.cls-1{fill:#aedff4;}.cls-2,.cls-26,.cls-35{fill:#fff;}.cls-2,.cls-20{opacity:0.3;}.cls-3{fill:#93c13d;}.cls-4{fill:#8fc7e4;}.cls-5{fill:#ebebeb;}.cls-6{fill:#f84910;}.cls-7{fill:#2d2d2d;}.cls-8{fill:#ffebca;}.cls-9{fill:#f7d419;}.cls-10,.cls-33{fill:#c18420;}.cls-10,.cls-15,.cls-35{opacity:0.2;}.cls-11{fill:#474747;}.cls-12{fill:#e5e5e5;}.cls-13{fill:#b6b6b6;}.cls-14{fill:#536061;}.cls-16{fill:#5e5e5e;}.cls-17{fill:#ffcc0f;}.cls-18{fill:#354445;}.cls-19{fill:#e7ecf7;}.cls-21{fill:#dbe0eb;}.cls-22{fill:#e0e1e6;}.cls-23{fill:#b2b2b2;}.cls-24{fill:#975e2e;}.cls-25{fill:#b2813f;}.cls-27{fill:#e4e4e4;}.cls-28{fill:#989898;}.cls-29{fill:#c6c7cc;}.cls-30{fill:#468ebb;}.cls-31{fill:#7a7a7a;}.cls-32{fill:#d3d4d6;}.cls-34{fill:#c33a0d;}.cls-36{fill:#fdbc1b;}.cls-37{fill:#616161;}.cls-38{fill:#d6d5da;}.cls-39{fill:#4fa0cb;}.cls-40{fill:#fdd52c;}.cls-41{fill:#2181b8;}.cls-42{fill:#f2f2f2;}.cls-43{fill:#d2d2d2;}.cls-44{fill:#faae1c;}.cls-45{fill:#f94910;}.cls-46{fill:#a18cc2;}.cls-47{fill:#60100e;}.cls-48{opacity:0.15;}.cls-49{fill:#ff9000;}.cls-50{fill:#b4e5fa;}.cls-51{fill:#69ab1d;}.cls-52{fill:#fcecdb;}.cls-53{fill:#699dee;}.cls-54{fill:#548ee2;}.cls-55{fill:#f4d2b8;}.cls-56{fill:#2b478b;}.cls-57{fill:#568cdb;}.cls-58{fill:#b5453c;}.cls-59{fill:#f99746;}.cls-60{fill:#ed7d2b;}.cls-61{fill:#233862;}.cls-62{fill:#ffb27d;}.cls-63{fill:#ed975d;}.cls-64{fill:#ebf3ff;}</style></defs><title>Ресурс 11</title><g id="Слой_2" data-name="Слой 2"><g id="Текст"><path class="cls-1" d="M290.6,138.2h-8.7V135.6h8.7Zm-13.92,0H268V135.6h8.7Zm-13.92,0h-8.7V135.6h8.7Zm-13.92,0h-8.7V135.6h8.7Zm-13.92,0h-8.7V135.6h8.7Zm-13.92,0h-8.7V135.6H221Zm-13.92,0h-8.7V135.6h8.7Zm-13.92,0h-8.7V135.6h8.7Zm-13.92,0h-8.7V135.6h8.7Zm-13.92,0h-8.7V135.6h8.7Zm-13.92,0h-8.7V135.6h8.7Zm-13.92,0h-8.7V135.6h8.7Zm-13.92,0h-8.1V135.6h8.1Z"/><rect class="cls-1" x="178.45" y="172.45" width="4.35" height="2.61"/><rect class="cls-1" x="188.48" y="172.45" width="9.46" height="2.61"/><polygon class="cls-1" points="209.27 178.1 206.66 178.1 206.66 175.06 203.62 175.06 203.62 172.45 209.27 172.45 209.27 178.1"/><path class="cls-1" d="M209.27,207.74h-2.61v-9.26h2.61Zm0-14.82h-2.61v-9.26h2.61Z"/><rect class="cls-1" x="206.66" y="213.3" width="2.61" height="4.35"/><rect class="cls-1" x="328.23" y="177.58" width="2.61" height="4.35"/><path class="cls-1" d="M330.84,252.81h-2.61v-8.86h2.61Zm0-14.18h-2.61v-8.86h2.61Zm0-14.18h-2.61v-8.86h2.61Zm0-14.18h-2.61v-8.86h2.61Zm0-14.18h-2.61v-8.86h2.61Z"/><polygon class="cls-1" points="330.84 263.78 325.18 263.78 325.18 261.17 328.23 261.17 328.23 258.12 330.84 258.12 330.84 263.78"/><rect class="cls-1" x="314" y="261.17" width="6.99" height="2.61"/><polygon class="cls-1" points="306.76 266.82 304.15 266.82 304.15 261.17 309.8 261.17 309.8 263.78 306.76 263.78 306.76 266.82"/><path class="cls-1" d="M306.76,318h-2.61v-8h2.61Zm0-12.8h-2.61v-8h2.61Zm0-12.8h-2.61v-8h2.61Zm0-12.8h-2.61v-8h2.61Z"/><polygon class="cls-1" points="306.76 328.47 301.11 328.47 301.11 325.87 304.15 325.87 304.15 322.82 306.76 322.82 306.76 328.47"/><path class="cls-1" d="M295.83,328.47H287v-2.61h8.79Zm-14.07,0H273v-2.61h8.79Zm-14.07,0h-8.79v-2.61h8.79Z"/><rect class="cls-1" x="249.28" y="325.86" width="4.35" height="2.61"/><path class="cls-1" d="M136.53,113.93a16.39,16.39,0,1,1,16.39-16.39A16.41,16.41,0,0,1,136.53,113.93Zm0-30.17a13.78,13.78,0,1,0,13.78,13.78A13.8,13.8,0,0,0,136.53,83.76Z"/><path class="cls-1" d="M317.11,163.41A16.42,16.42,0,1,1,333.53,147,16.44,16.44,0,0,1,317.11,163.41Zm0-30.24A13.81,13.81,0,1,0,330.92,147,13.83,13.83,0,0,0,317.11,133.18Z"/><path class="cls-1" d="M238.36,71.54a17.75,17.75,0,1,1,17.76-17.75A17.77,17.77,0,0,1,238.36,71.54Zm0-32.9A15.14,15.14,0,1,0,253.5,53.79,15.16,15.16,0,0,0,238.36,38.64Z"/><circle class="cls-1" cx="257.16" cy="285.18" r="4.18"/><circle class="cls-1" cx="239.84" cy="151.84" r="4.18"/><circle class="cls-1" cx="141.64" cy="4.19" r="4.18"/><circle class="cls-1" cx="317.02" cy="282.07" r="3.4"/><circle class="cls-1" cx="198.17" cy="166.28" r="3.4"/><circle class="cls-2" cx="306.37" cy="239.35" r="10.79"/><circle class="cls-2" cx="28.33" cy="204.97" r="7.88"/><path class="cls-1" d="M226,192.29a8.56,8.56,0,1,1,8.56-8.56A8.57,8.57,0,0,1,226,192.29Zm0-14.52a6,6,0,1,0,6,6A6,6,0,0,0,226,177.77Z"/><path class="cls-1" d="M282.12,315a5.53,5.53,0,1,1,5.53-5.53A5.54,5.54,0,0,1,282.12,315Zm0-8.45a2.92,2.92,0,1,0,2.92,2.92A2.93,2.93,0,0,0,282.12,306.56Z"/><path class="cls-1" d="M327.42,324.25a9.85,9.85,0,1,1,9.85-9.85A9.86,9.86,0,0,1,327.42,324.25Zm0-17.1a7.24,7.24,0,1,0,7.24,7.24A7.25,7.25,0,0,0,327.42,307.15Z"/><path class="cls-1" d="M118.74,26.24a6.07,6.07,0,1,1,6.07-6.07A6.08,6.08,0,0,1,118.74,26.24Zm0-9.53a3.46,3.46,0,1,0,3.46,3.46A3.46,3.46,0,0,0,118.74,16.71Z"/><path class="cls-1" d="M174.11,44.71a7.37,7.37,0,1,1,7.37-7.37A7.38,7.38,0,0,1,174.11,44.71Zm0-12.13a4.76,4.76,0,1,0,4.76,4.76A4.77,4.77,0,0,0,174.11,32.58Z"/><circle class="cls-3" cx="92.96" cy="83.23" r="36.2"/><path class="cls-1" d="M93,120.73a37.5,37.5,0,1,1,37.5-37.5A37.55,37.55,0,0,1,93,120.73Zm0-72.4a34.9,34.9,0,1,0,34.89,34.9A34.94,34.94,0,0,0,93,48.33Z"/><rect class="cls-4" x="103.78" y="67.12" width="2.47" height="42.56"/><rect class="cls-2" x="103.78" y="67.12" width="1.23" height="42.56"/><rect class="cls-5" x="103.78" y="109.68" width="2.47" height="2.44"/><path class="cls-6" d="M105.6,113.81h-1.18a.66.66,0,0,1-.65-.67v-1h2.47v1A.66.66,0,0,1,105.6,113.81Z"/><polygon class="cls-7" points="105.64 64.65 104.39 64.65 105.02 62.15 105.64 64.65"/><polygon class="cls-8" points="106.25 67.12 103.78 67.12 104.39 64.65 105.64 64.65 106.25 67.12"/><path class="cls-2" d="M104.74,113.13v-46H104v46a.62.62,0,0,0,.54.67h.55C104.89,113.81,104.74,113.51,104.74,113.13Z"/><path class="cls-9" d="M91.88,52.65v61.16h7.5V52.65Zm2.6,3.05a1.15,1.15,0,1,1,1.15,1.16A1.15,1.15,0,0,1,94.48,55.7Z"/><rect class="cls-10" x="98.4" y="52.65" width="0.99" height="61.16"/><rect class="cls-11" x="91.88" y="57.95" width="2.2" height="0.66"/><rect class="cls-11" x="91.88" y="66.43" width="2.2" height="0.66"/><rect class="cls-11" x="91.88" y="74.91" width="2.2" height="0.66"/><rect class="cls-11" x="91.88" y="83.39" width="2.2" height="0.66"/><rect class="cls-11" x="91.88" y="91.87" width="2.2" height="0.66"/><rect class="cls-11" x="91.88" y="100.35" width="2.2" height="0.66"/><rect class="cls-11" x="91.88" y="108.83" width="2.2" height="0.66"/><rect class="cls-11" x="91.88" y="59.39" width="1.24" height="0.43"/><rect class="cls-11" x="91.88" y="60.55" width="1.24" height="0.43"/><rect class="cls-11" x="91.88" y="61.72" width="1.24" height="0.43"/><rect class="cls-11" x="91.88" y="62.89" width="1.24" height="0.43"/><rect class="cls-11" x="91.88" y="64.06" width="1.24" height="0.43"/><rect class="cls-11" x="91.88" y="65.23" width="1.24" height="0.43"/><rect class="cls-11" x="91.88" y="67.87" width="1.24" height="0.43"/><rect class="cls-11" x="91.88" y="69.03" width="1.24" height="0.43"/><rect class="cls-11" x="91.88" y="70.2" width="1.24" height="0.43"/><rect class="cls-11" x="91.88" y="71.37" width="1.24" height="0.43"/><rect class="cls-11" x="91.88" y="72.54" width="1.24" height="0.43"/><rect class="cls-11" x="91.88" y="73.71" width="1.24" height="0.43"/><rect class="cls-11" x="91.88" y="76.34" width="1.24" height="0.43"/><rect class="cls-11" x="91.88" y="77.51" width="1.24" height="0.43"/><rect class="cls-11" x="91.88" y="78.68" width="1.24" height="0.43"/><rect class="cls-11" x="91.88" y="79.85" width="1.24" height="0.43"/><rect class="cls-11" x="91.88" y="81.02" width="1.24" height="0.43"/><rect class="cls-11" x="91.88" y="82.19" width="1.24" height="0.43"/><rect class="cls-11" x="91.88" y="84.82" width="1.24" height="0.43"/><rect class="cls-11" x="91.88" y="85.99" width="1.24" height="0.43"/><rect class="cls-11" x="91.88" y="87.16" width="1.24" height="0.43"/><rect class="cls-11" x="91.88" y="88.33" width="1.24" height="0.43"/><rect class="cls-11" x="91.88" y="89.5" width="1.24" height="0.43"/><rect class="cls-11" x="91.88" y="90.67" width="1.24" height="0.43"/><rect class="cls-11" x="91.88" y="93.3" width="1.24" height="0.43"/><rect class="cls-11" x="91.88" y="94.47" width="1.24" height="0.43"/><rect class="cls-11" x="91.88" y="95.64" width="1.24" height="0.43"/><rect class="cls-11" x="91.88" y="96.81" width="1.24" height="0.43"/><rect class="cls-11" x="91.88" y="97.98" width="1.24" height="0.43"/><rect class="cls-11" x="91.88" y="99.14" width="1.24" height="0.43"/><rect class="cls-11" x="91.88" y="101.78" width="1.24" height="0.43"/><rect class="cls-11" x="91.88" y="102.95" width="1.24" height="0.43"/><rect class="cls-11" x="91.88" y="104.12" width="1.24" height="0.43"/><rect class="cls-11" x="91.88" y="105.28" width="1.24" height="0.43"/><rect class="cls-11" x="91.88" y="106.45" width="1.24" height="0.43"/><rect class="cls-11" x="91.88" y="107.62" width="1.24" height="0.43"/><path class="cls-12" d="M86.24,102.34l-1.9-1.17L82.5,100l-1.29-.8V61.92l4.63,3a1,1,0,0,1,.4.73Z"/><polygon class="cls-13" points="81.15 65.34 81.28 65.14 86.31 68.34 86.18 68.55 81.15 65.34"/><polygon class="cls-13" points="81.15 68.66 81.28 68.45 86.31 71.66 86.18 71.86 81.15 68.66"/><polygon class="cls-13" points="81.15 71.97 81.28 71.77 86.31 74.98 86.18 75.18 81.15 71.97"/><polygon class="cls-13" points="81.15 75.29 81.28 75.09 86.31 78.3 86.18 78.5 81.15 75.29"/><polygon class="cls-13" points="81.15 78.61 81.28 78.41 86.31 81.61 86.18 81.81 81.15 78.61"/><polygon class="cls-13" points="81.15 81.92 81.28 81.72 86.31 84.93 86.18 85.13 81.15 81.92"/><polygon class="cls-13" points="81.15 85.24 81.28 85.04 86.31 88.24 86.18 88.44 81.15 85.24"/><rect class="cls-14" x="80.78" y="61.92" width="0.44" height="37.32"/><path class="cls-15" d="M83.93,72.27a.92.92,0,0,1,.41.71v28.18l1.9,1.17V70.8s0,0,0,0l-5-3.07-.2-.12-.24-.13V99.24h.44l1.29.8V71.92c0-.27.18-.37.41-.24Z"/><circle class="cls-16" cx="83.73" cy="92.64" r="0.91"/><path class="cls-6" d="M87.49,72.22a1.89,1.89,0,0,0-.81-1.45L81.5,67.58c-1.11-.68-2-.18-2,1.13V94.66a11.15,11.15,0,0,1-1.65,5.92,3.48,3.48,0,0,0-.61,1.69v1.62l10.28,6ZM83,71.92c0-.27.18-.37.41-.24l1,.59a.92.92,0,0,1,.41.71v34.56L83,106.48Z"/><polygon class="cls-7" points="82.98 106.48 82.98 95.09 84.82 96.17 84.82 107.55 82.98 106.48"/><path class="cls-7" d="M85.87,113.57,78,108.81a1.9,1.9,0,0,1-.81-1.44v-3.48l10.28,6v2.75C87.49,113.7,86.76,114.11,85.87,113.57Z"/><path class="cls-15" d="M78.5,108.81a1.89,1.89,0,0,1-.81-1.44v-5.11a3.48,3.48,0,0,1,.61-1.69,11.15,11.15,0,0,0,1.65-5.92V68.71c0-.8.34-1.3.85-1.41-.77-.15-1.33.38-1.33,1.41V94.66a11.15,11.15,0,0,1-1.65,5.92,3.48,3.48,0,0,0-.61,1.69v5.11a1.9,1.9,0,0,0,.81,1.44l7.84,4.75C86.23,113.79,78.5,108.81,78.5,108.81Z"/><path class="cls-2" d="M86.2,70.56A1.9,1.9,0,0,1,87,72v40.63c0,.62-.26,1-.65,1.12.65.15,1.12-.28,1.12-1.12V72.22a1.89,1.89,0,0,0-.81-1.45L81.5,67.58a2.3,2.3,0,0,0-.47-.22Z"/><rect class="cls-11" x="82.61" y="98.42" width="2.57" height="2.97"/><path class="cls-15" d="M81.81,99.53v5.66a2.05,2.05,0,0,0,.85,1.53l2.22,1.44c.47.31.85.11.85-.43v-5.78a1,1,0,0,0-.43-.76L82.24,99.3C82,99.16,81.81,99.25,81.81,99.53Z"/><path class="cls-14" d="M82.08,99.52V105a2,2,0,0,0,.79,1.48l2.07,1.39c.43.29.79.11.79-.42v-5.58a1,1,0,0,0-.4-.73L82.47,99.3C82.25,99.16,82.08,99.25,82.08,99.52Z"/><path class="cls-15" d="M85.41,107.85l-2.07-1.39a2,2,0,0,1-.79-1.48V99.52a.38.38,0,0,1,0-.15l-.11-.07c-.22-.14-.4,0-.4.22V105a2,2,0,0,0,.79,1.48l2.07,1.39a.51.51,0,0,0,.59.07Z"/><path class="cls-17" d="M243.54,197v72.34h55.33Zm8.06,23.42,31.77,41.53H251.61Z"/><polygon class="cls-15" points="243.54 196.99 244.82 198.66 244.82 269.33 243.54 269.33 243.54 196.99"/><polygon class="cls-11" points="290.26 262.91 292.74 261.31 292.25 260.68 289.77 262.27 290.26 262.91"/><polygon class="cls-11" points="283.54 254.13 286.02 252.53 285.54 251.89 283.05 253.49 283.54 254.13"/><polygon class="cls-11" points="276.82 245.34 279.3 243.74 278.82 243.1 276.33 244.7 276.82 245.34"/><polygon class="cls-11" points="270.1 236.56 272.58 234.96 272.1 234.32 269.62 235.92 270.1 236.56"/><polygon class="cls-11" points="263.38 227.77 265.86 226.18 265.38 225.54 262.89 227.13 263.38 227.77"/><polygon class="cls-11" points="256.66 218.99 259.15 217.39 258.66 216.75 256.18 218.35 256.66 218.99"/><polygon class="cls-11" points="249.95 210.2 252.43 208.6 251.94 207.97 249.46 209.56 249.95 210.2"/><polygon class="cls-11" points="290.21 260.73 291.61 259.83 291.29 259.42 289.9 260.32 290.21 260.73"/><polygon class="cls-11" points="289.29 259.52 290.69 258.63 290.37 258.21 288.97 259.11 289.29 259.52"/><polygon class="cls-11" points="288.36 258.31 289.76 257.42 289.44 257 288.05 257.9 288.36 258.31"/><polygon class="cls-11" points="287.44 257.1 288.83 256.2 288.52 255.79 287.12 256.69 287.44 257.1"/><polygon class="cls-11" points="286.51 255.89 287.91 255 287.59 254.58 286.19 255.48 286.51 255.89"/><polygon class="cls-11" points="285.59 254.68 286.98 253.78 286.66 253.37 285.27 254.26 285.59 254.68"/><polygon class="cls-11" points="283.5 251.95 284.89 251.05 284.58 250.63 283.18 251.53 283.5 251.95"/><polygon class="cls-11" points="282.57 250.74 283.97 249.84 283.65 249.43 282.25 250.32 282.57 250.74"/><polygon class="cls-11" points="281.64 249.53 283.04 248.63 282.72 248.22 281.33 249.11 281.64 249.53"/><polygon class="cls-11" points="280.72 248.32 282.12 247.42 281.8 247 280.4 247.9 280.72 248.32"/><polygon class="cls-11" points="279.79 247.11 281.19 246.21 280.87 245.79 279.48 246.69 279.79 247.11"/><polygon class="cls-11" points="278.87 245.9 280.26 245 279.94 244.58 278.55 245.48 278.87 245.9"/><polygon class="cls-11" points="276.78 243.16 278.18 242.26 277.85 241.85 276.46 242.75 276.78 243.16"/><polygon class="cls-11" points="275.85 241.95 277.25 241.06 276.93 240.64 275.53 241.54 275.85 241.95"/><polygon class="cls-11" points="274.92 240.74 276.32 239.85 276 239.43 274.61 240.33 274.92 240.74"/><polygon class="cls-11" points="274 239.53 275.4 238.63 275.08 238.22 273.68 239.12 274 239.53"/><polygon class="cls-11" points="273.07 238.32 274.47 237.42 274.15 237.01 272.75 237.91 273.07 238.32"/><polygon class="cls-11" points="272.15 237.11 273.55 236.21 273.23 235.8 271.83 236.7 272.15 237.11"/><polygon class="cls-11" points="270.06 234.38 271.46 233.48 271.14 233.07 269.75 233.97 270.06 234.38"/><polygon class="cls-11" points="269.13 233.17 270.53 232.27 270.21 231.86 268.82 232.75 269.13 233.17"/><polygon class="cls-11" points="268.21 231.96 269.61 231.06 269.29 230.65 267.89 231.54 268.21 231.96"/><polygon class="cls-11" points="267.28 230.75 268.68 229.85 268.36 229.44 266.96 230.33 267.28 230.75"/><polygon class="cls-11" points="266.36 229.54 267.75 228.64 267.44 228.22 266.04 229.12 266.36 229.54"/><polygon class="cls-11" points="265.43 228.32 266.82 227.43 266.51 227.01 265.11 227.91 265.43 228.32"/><polygon class="cls-11" points="263.34 225.6 264.74 224.7 264.42 224.28 263.02 225.18 263.34 225.6"/><polygon class="cls-11" points="262.41 224.38 263.81 223.49 263.49 223.07 262.1 223.97 262.41 224.38"/><polygon class="cls-11" points="261.49 223.17 262.88 222.28 262.57 221.86 261.17 222.76 261.49 223.17"/><polygon class="cls-11" points="260.56 221.96 261.96 221.07 261.64 220.65 260.25 221.55 260.56 221.96"/><polygon class="cls-11" points="259.64 220.75 261.03 219.85 260.72 219.44 259.32 220.34 259.64 220.75"/><polygon class="cls-11" points="258.71 219.54 260.11 218.65 259.79 218.23 258.39 219.13 258.71 219.54"/><polygon class="cls-11" points="256.62 216.81 258.02 215.91 257.7 215.5 256.31 216.4 256.62 216.81"/><polygon class="cls-11" points="255.69 215.6 257.09 214.7 256.77 214.29 255.38 215.18 255.69 215.6"/><polygon class="cls-11" points="254.77 214.39 256.17 213.49 255.85 213.08 254.45 213.97 254.77 214.39"/><polygon class="cls-11" points="253.84 213.18 255.24 212.28 254.92 211.86 253.53 212.76 253.84 213.18"/><polygon class="cls-11" points="252.92 211.97 254.31 211.07 254 210.65 252.6 211.56 252.92 211.97"/><polygon class="cls-11" points="251.99 210.76 253.39 209.86 253.07 209.44 251.68 210.34 251.99 210.76"/><circle class="cls-3" cx="290.6" cy="175.83" r="38.93"/><path class="cls-1" d="M290.6,216.07a40.24,40.24,0,1,1,40.24-40.24A40.28,40.28,0,0,1,290.6,216.07Zm0-77.87a37.63,37.63,0,1,0,37.63,37.63A37.67,37.67,0,0,0,290.6,138.2Z"/><path class="cls-7" d="M310.08,206.14a141.43,141.43,0,0,1-15.81.13c-2.63-.12-5.26-.31-7.88-.62-1.31-.16-2.62-.35-3.91-.61a18.3,18.3,0,0,1-1.91-.49,6.24,6.24,0,0,1-.92-.37c-.27-.15-.63-.34-.66-.68,0,.35.39.52.67.66a6.48,6.48,0,0,0,.92.34,18.89,18.89,0,0,0,1.92.43c1.29.23,2.6.38,3.91.51,2.62.24,5.24.36,7.87.41a140.84,140.84,0,0,0,15.73-.54Z"/><rect class="cls-18" x="289" y="154.3" width="0.62" height="7.22"/><path class="cls-14" d="M290.34,153.39h-2.06a1.26,1.26,0,0,0,0-1.16h2.06A1.3,1.3,0,0,0,290.34,153.39Z"/><rect class="cls-14" x="288.28" y="153.39" width="2.06" height="0.91"/><path class="cls-19" d="M289.31,162.38a4.29,4.29,0,1,1,4.29-4.29A4.3,4.3,0,0,1,289.31,162.38Zm0-7.59a3.3,3.3,0,1,0,3.3,3.3A3.31,3.31,0,0,0,289.31,154.79Z"/><path class="cls-20" d="M289.41,161.76a3.3,3.3,0,0,0,3.14-4.33,3.21,3.21,0,0,1,.07.67,3.3,3.3,0,0,1-6.44,1A3.31,3.31,0,0,0,289.41,161.76Z"/><path class="cls-2" d="M285.12,158.46a4.29,4.29,0,0,1,8.37-1.32,4.29,4.29,0,0,0-8.47,1,4.25,4.25,0,0,0,.21,1.32A4.35,4.35,0,0,1,285.12,158.46Z"/><path class="cls-18" d="M289.31,141.75c-.57,0-1,.3-1,.66h0v9.82h2.06v-9.82C290.34,142,289.88,141.75,289.31,141.75Z"/><rect class="cls-14" x="289.71" y="142.8" width="0.2" height="9.04"/><rect class="cls-14" x="289.21" y="142.8" width="0.2" height="9.04"/><rect class="cls-14" x="288.72" y="142.8" width="0.2" height="9.04"/><rect class="cls-18" x="282.25" y="172.59" width="14.12" height="1"/><ellipse class="cls-18" cx="282.25" cy="173.09" rx="0.29" ry="0.5"/><ellipse class="cls-18" cx="296.37" cy="173.09" rx="0.3" ry="0.5"/><path class="cls-14" d="M283.25,173.75a.17.17,0,0,1-.15-.07l-.65-1.12c0-.05,0-.11.1-.13a.2.2,0,0,1,.21.06l.65,1.12c0,.05,0,.11-.1.13Z"/><path class="cls-14" d="M284,173.75a.18.18,0,0,1-.15-.07l-.65-1.12c0-.05,0-.11.1-.13a.2.2,0,0,1,.2.06l.65,1.12c0,.05,0,.11-.09.13Z"/><path class="cls-14" d="M284.67,173.75a.18.18,0,0,1-.15-.07l-.65-1.12c0-.05,0-.11.1-.13a.2.2,0,0,1,.2.06l.65,1.12c0,.05,0,.11-.1.13Z"/><path class="cls-14" d="M285.38,173.75a.19.19,0,0,1-.15-.07l-.65-1.12c0-.05,0-.11.1-.13a.21.21,0,0,1,.21.06l.65,1.12c0,.05,0,.11-.1.13Z"/><path class="cls-14" d="M286.09,173.75a.17.17,0,0,1-.15-.07l-.65-1.12c0-.05,0-.11.09-.13a.21.21,0,0,1,.21.06l.65,1.12c0,.05,0,.11-.1.13Z"/><path class="cls-14" d="M286.8,173.75a.18.18,0,0,1-.15-.07l-.65-1.12c0-.05,0-.11.1-.13a.2.2,0,0,1,.21.06l.65,1.12c0,.05,0,.11-.1.13Z"/><path class="cls-14" d="M287.51,173.75a.18.18,0,0,1-.15-.07l-.65-1.12c0-.05,0-.11.1-.13a.2.2,0,0,1,.21.06l.65,1.12c0,.05,0,.11-.1.13Z"/><path class="cls-14" d="M288.22,173.75a.18.18,0,0,1-.15-.07l-.65-1.12c0-.05,0-.11.1-.13a.2.2,0,0,1,.21.06l.65,1.12c0,.05,0,.11-.1.13Z"/><path class="cls-14" d="M288.92,173.75a.17.17,0,0,1-.15-.07l-.65-1.12c0-.05,0-.11.1-.13a.21.21,0,0,1,.21.06l.64,1.12c0,.05,0,.11-.09.13Z"/><path class="cls-14" d="M289.63,173.75a.18.18,0,0,1-.15-.07l-.65-1.12c0-.05,0-.11.1-.13a.2.2,0,0,1,.21.06l.65,1.12c0,.05,0,.11-.1.13Z"/><path class="cls-14" d="M290.34,173.75a.18.18,0,0,1-.15-.07l-.65-1.12c0-.05,0-.11.1-.13a.21.21,0,0,1,.21.06l.65,1.12c0,.05,0,.11-.1.13Z"/><path class="cls-14" d="M291.05,173.75a.17.17,0,0,1-.15-.07l-.65-1.12c0-.05,0-.11.1-.13a.2.2,0,0,1,.2.06l.65,1.12c0,.05,0,.11-.1.13Z"/><path class="cls-14" d="M291.76,173.75a.17.17,0,0,1-.15-.07l-.65-1.12c0-.05,0-.11.1-.13a.21.21,0,0,1,.21.06l.65,1.12c0,.05,0,.11-.1.13Z"/><path class="cls-14" d="M292.47,173.75a.17.17,0,0,1-.15-.07l-.65-1.12c0-.05,0-.11.1-.13a.2.2,0,0,1,.2.06l.65,1.12c0,.05,0,.11-.1.13Z"/><path class="cls-14" d="M293.18,173.75a.18.18,0,0,1-.15-.07l-.64-1.12c0-.05,0-.11.09-.13a.21.21,0,0,1,.21.06l.65,1.12c0,.05,0,.11-.1.13Z"/><path class="cls-14" d="M293.89,173.75a.18.18,0,0,1-.15-.07l-.65-1.12c0-.05,0-.11.1-.13a.21.21,0,0,1,.21.06l.64,1.12c0,.05,0,.11-.1.13Z"/><path class="cls-14" d="M294.6,173.75a.18.18,0,0,1-.15-.07l-.65-1.12c0-.05,0-.11.1-.13a.2.2,0,0,1,.2.06l.65,1.12c0,.05,0,.11-.09.13Z"/><path class="cls-14" d="M295.31,173.75a.19.19,0,0,1-.15-.07l-.65-1.12c0-.05,0-.11.1-.13a.2.2,0,0,1,.2.06l.65,1.12c0,.05,0,.11-.1.13Z"/><path class="cls-14" d="M296,173.75a.17.17,0,0,1-.15-.07l-.65-1.12c0-.05,0-.11.09-.13a.2.2,0,0,1,.21.06l.65,1.12c0,.05,0,.11-.1.13Z"/><path class="cls-2" d="M288.91,142.41a.65.65,0,0,1,.55-.65h-.13c-.49,0-.88.3-.88.66h0v9.82h.46v-9.82Z"/><rect class="cls-19" x="288.76" y="170.12" width="1.1" height="5.94"/><path class="cls-19" d="M299.75,200.59h-1.12l-.57-2.17-1-4-.37-1.43s-3.47-16.22-3.78-17.21c.31-.12.25-.68.06-1.61s-.68-3.15-.86-3.84a1,1,0,0,0-.76-.77l-1.6-7.77,1.49-2.17s9,35.41,9.1,36.64A27.47,27.47,0,0,1,299.75,200.59Z"/><path class="cls-15" d="M293.37,175.83c.31-.12.25-.68.06-1.61s-.68-3.16-.86-3.84a1,1,0,0,0-.76-.77l-2.09-7.77,1.6,7.77a1,1,0,0,1,.76.77c.18.68.68,2.91.86,3.84s.25,1.49-.06,1.61c.31,1,3.78,17.21,3.78,17.21l2,7.55L297.15,193S293.68,176.83,293.37,175.83Z"/><polygon class="cls-18" points="299.56 200.59 299.19 203.5 298.82 200.59 299.56 200.59"/><path class="cls-15" d="M300.12,196.32a2.1,2.1,0,0,1-2.05,2.1l-1-4a2,2,0,0,1,1-.25A2.11,2.11,0,0,1,300.12,196.32Z"/><circle class="cls-14" cx="298.01" cy="196.32" r="1.86"/><circle class="cls-18" cx="298.02" cy="196.32" r="0.49"/><rect class="cls-14" x="280.48" y="185.21" width="0.5" height="1.26" transform="translate(45.11 426.3) rotate(-79.09)"/><path class="cls-19" d="M283.09,187.81h0C282.46,190.74,282,193,282,193l-.37,1.43-1,4-.57,2.17h-1.12a27,27,0,0,1-.56-4.27c0-.39.91-4.09,2.12-9l2.18.42Z"/><path class="cls-19" d="M288.9,161.85l-1.59,7.77h0a1,1,0,0,0-.76.77c-.11.43-.35,1.46-.55,2.39-.13.57-.24,1.1-.31,1.44,0,.06,0,.12,0,.17a.61.61,0,0,0,0,.16c0,.11,0,.2-.05.3a2.52,2.52,0,0,0,0,.67.21.21,0,0,0,0,.08.41.41,0,0,0,.09.17.23.23,0,0,0,.1.07c0,.1-.08.32-.16.65l-.14.58-.11.47-.18.81c0,.19-.09.39-.13.6l-.14.64-.07.34-.15.7c0,.24-.11.48-.16.72-.41,1.87-.86,4-1.27,5.84h0l-.47-.09-2.15-.4c2.7-10.87,6.81-27,6.81-27Z"/><path class="cls-15" d="M282.62,187.72l.48.09C282.46,190.74,282,193,282,193l-2,7.55,1.48-7.55S282,190.69,282.62,187.72Z"/><path class="cls-15" d="M288.9,161.85l-1.6,7.77a1,1,0,0,0-.76.77c-.11.43-.35,1.46-.55,2.39-.13.57-.24,1.1-.31,1.44l0,.17a.61.61,0,0,0,0,.16c0,.11,0,.2-.05.3a2.1,2.1,0,0,0,0,.67.21.21,0,0,0,0,.08.41.41,0,0,0,.09.17.23.23,0,0,0,.1.07c0,.1-.08.32-.16.65l-.14.58-.11.47-.18.81c0,.19-.09.39-.13.6s-.1.42-.14.64l-.07.34c0,.23-.11.46-.15.7s-.11.48-.16.72c-.41,1.87-.86,4-1.27,5.84h0l-.47-.09c1-4.73,2.32-10.67,2.5-11.25-.31-.12-.25-.68-.06-1.61s.68-3.15.87-3.84a1,1,0,0,1,.75-.77Z"/><path class="cls-15" d="M278.5,196.32a2.1,2.1,0,0,0,2.06,2.1l1-4a2.06,2.06,0,0,0-1-.25A2.11,2.11,0,0,0,278.5,196.32Z"/><circle class="cls-14" cx="280.61" cy="196.32" r="1.86"/><circle class="cls-18" cx="280.61" cy="196.32" r="0.5"/><polygon class="cls-18" points="279.02 200.59 279.02 203.5 279.86 202.54 279.86 200.59 279.02 200.59"/><path class="cls-18" d="M279.79,187.55h-.08a.37.37,0,0,1-.28-.44l.65-2.92a.37.37,0,0,1,.44-.28.37.37,0,0,1,.28.44l-.65,2.93A.37.37,0,0,1,279.79,187.55Z"/><rect class="cls-14" x="280.66" y="187.01" width="2.21" height="0.5" transform="translate(39.83 423.74) rotate(-77.95)"/><circle class="cls-15" cx="289.31" cy="161.14" r="1.86"/><circle class="cls-19" cx="289.31" cy="161.14" r="1.61"/><path class="cls-2" d="M288.36,161.57a1.48,1.48,0,0,1,1.48-1.48h0a1.15,1.15,0,0,0-.75-.28,1.16,1.16,0,0,0-.74,2.07A1.42,1.42,0,0,1,288.36,161.57Z"/><ellipse class="cls-21" cx="293.91" cy="173.09" rx="0.36" ry="0.66" transform="translate(-23.62 48.52) rotate(-9.07)"/><ellipse class="cls-19" cx="293.79" cy="172.86" rx="0.12" ry="0.23"/><ellipse class="cls-21" cx="284.75" cy="173.09" rx="0.66" ry="0.36" transform="translate(33.76 392.29) rotate(-72.43)"/><ellipse class="cls-19" cx="284.75" cy="172.84" rx="0.23" ry="0.12" transform="translate(1.19 347.61) rotate(-62.9)"/><rect class="cls-22" x="160.01" y="258.98" width="5.99" height="64"/><rect class="cls-2" x="163.01" y="258.98" width="2.17" height="64"/><polygon class="cls-22" points="169.49 350.13 160.01 322.98 166.01 322.98 175.34 350.13 169.49 350.13"/><polygon class="cls-2" points="165.18 322.98 163.01 322.98 172.34 350.13 174.42 350.13 165.18 322.98"/><polygon class="cls-7" points="169.49 348.8 160.47 322.98 160.01 322.98 169.49 350.13 175.34 350.13 174.88 348.8 169.49 348.8"/><rect class="cls-22" x="65.59" y="258.98" width="6" height="64"/><rect class="cls-2" x="66.42" y="258.98" width="2.17" height="64"/><polygon class="cls-22" points="62.11 350.13 71.58 322.98 65.59 322.98 56.26 350.13 62.11 350.13"/><polygon class="cls-2" points="66.42 322.98 68.58 322.98 59.25 350.13 57.17 350.13 66.42 322.98"/><polygon class="cls-7" points="62.11 348.8 71.12 322.98 71.58 322.98 62.11 350.13 56.26 350.13 56.71 348.8 62.11 348.8"/><polygon class="cls-23" points="153.5 300.99 149.18 300.99 152.02 256.76 158.98 257.54 153.5 300.99"/><polygon class="cls-23" points="78.86 300.99 83.19 300.99 80.35 256.76 73.38 257.54 78.86 300.99"/><rect class="cls-24" x="51.21" y="155.21" width="129.18" height="98.69"/><rect class="cls-25" x="51.21" y="155.21" width="3.87" height="98.69"/><rect class="cls-25" x="176.51" y="155.21" width="3.88" height="98.69"/><rect class="cls-26" x="58.83" y="168.39" width="114.2" height="79.57"/><path class="cls-7" d="M169.83,244.77H62V171.59H169.83ZM63.38,243.41H168.47V172.95H63.38Z"/><path class="cls-7" d="M169.83,244.77H136.68v-9.89h33.14ZM138,243.41h30.42v-7.16H138Z"/><rect class="cls-27" x="53.53" y="164.9" width="2.73" height="84.59" transform="translate(-113.56 74.66) rotate(-36.97)"/><polygon class="cls-28" points="94.09 226.87 94.09 191.77 89.27 191.77 89.27 226.87 89.27 231.69 94.09 231.69 162.04 231.69 162.04 226.87 94.09 226.87"/><polygon class="cls-29" points="90.2 230.75 90.2 191.77 93.16 191.77 93.16 227.8 162.04 227.8 162.04 230.75 90.2 230.75"/><rect class="cls-27" x="62.77" y="165.34" width="2.73" height="76.87" transform="translate(-111.43 82.07) rotate(-37.8)"/><polygon class="cls-30" points="85.27 238.47 82.69 235.89 90.68 227.85 93.37 230.04 85.27 238.47"/><circle class="cls-31" cx="84.27" cy="237.57" r="6.52"/><circle class="cls-30" cx="84.28" cy="237.57" r="3.42"/><path class="cls-30" d="M98.74,230.3H90.68v-6.76a1,1,0,0,1,2,0v4.76h6.06a1,1,0,0,1,0,2Z"/><rect class="cls-27" x="29.36" y="147.82" width="86.85" height="2.73" transform="translate(-49.16 36.56) rotate(-21.27)"/><path class="cls-27" d="M35,178.21a7.59,7.59,0,1,1,7.59-7.58A7.59,7.59,0,0,1,35,178.21Zm0-12.44a4.86,4.86,0,1,0,4.86,4.86A4.86,4.86,0,0,0,35,165.77Z"/><rect class="cls-27" x="38.37" y="154.62" width="77.71" height="2.73" transform="translate(-53.12 40.64) rotate(-22.15)"/><path class="cls-7" d="M177.8,251.82h-124c-1.47,0-2.67.8-2.67,1.79v1.79a3.81,3.81,0,0,0,4,3.59H176.46a3.81,3.81,0,0,0,4-3.59v-1.79C180.46,252.62,179.27,251.82,177.8,251.82Z"/><path class="cls-2" d="M176.46,256.32H55.13a3.87,3.87,0,0,1-3.94-3.08,1.22,1.22,0,0,0-.06.37v1.79a3.81,3.81,0,0,0,4,3.59H176.46a3.81,3.81,0,0,0,4-3.59v-1.79a1.27,1.27,0,0,0-.06-.37A3.87,3.87,0,0,1,176.46,256.32Z"/><polygon class="cls-22" points="115.8 317.95 70.3 317.95 70.3 326.12 115.8 326.12 161.3 326.12 161.3 317.95 115.8 317.95"/><polygon class="cls-2" points="115.8 318.63 70.3 318.63 70.3 321.19 115.8 321.19 161.3 321.19 161.3 318.63 115.8 318.63"/><path class="cls-7" d="M160.12,317.95a.82.82,0,0,1,.7,0,2.18,2.18,0,0,1,.59.42,3.83,3.83,0,0,1,.75,1.13,5.93,5.93,0,0,1,.53,2.51,6,6,0,0,1-.52,2.51,4,4,0,0,1-.75,1.13c-.32.31-.85.67-1.3.44a6.12,6.12,0,0,0,1-2,10.26,10.26,0,0,0,0-4.22A5.91,5.91,0,0,0,160.12,317.95Z"/><path class="cls-7" d="M71.47,318a.81.81,0,0,0-.7,0,2.13,2.13,0,0,0-.59.42,3.93,3.93,0,0,0-.75,1.13,6,6,0,0,0-.52,2.51,6,6,0,0,0,.52,2.51,4,4,0,0,0,.75,1.13c.32.31.85.67,1.3.45a6.12,6.12,0,0,1-1-2,10.26,10.26,0,0,1,0-4.22A6,6,0,0,1,71.47,318Z"/><polygon class="cls-22" points="149.57 329.52 65.75 329.52 65.75 332.44 149.57 332.44 165.84 332.44 165.84 329.52 149.57 329.52"/><polygon class="cls-2" points="149.57 329.77 65.75 329.77 65.75 330.68 149.57 330.68 165.84 330.68 165.84 329.77 149.57 329.77"/><path class="cls-7" d="M165.42,329.52a.3.3,0,0,1,.25,0,.68.68,0,0,1,.21.15,1.37,1.37,0,0,1,.27.41,2.15,2.15,0,0,1,.19.89,2.09,2.09,0,0,1-.19.9,1.54,1.54,0,0,1-.26.41c-.12.11-.31.24-.47.16a2.23,2.23,0,0,0,.34-.7,3.59,3.59,0,0,0,0-1.51A2.12,2.12,0,0,0,165.42,329.52Z"/><path class="cls-7" d="M66.17,329.55a.29.29,0,0,0-.26,0,.66.66,0,0,0-.21.15,1.45,1.45,0,0,0-.27.4,2.23,2.23,0,0,0-.19.9,2.1,2.1,0,0,0,.19.9,1.54,1.54,0,0,0,.27.4c.12.11.3.24.47.16a2.23,2.23,0,0,1-.34-.7,3.64,3.64,0,0,1,0-1.51A2.12,2.12,0,0,1,66.17,329.55Z"/><path class="cls-22" d="M147.66,290.32H84.32a4,4,0,0,0-4,4v11.17a4,4,0,0,0,4,4h63.34a4,4,0,0,0,4-4V294.32A4,4,0,0,0,147.66,290.32Z"/><path class="cls-2" d="M147.66,293H84.32c-2.21,0-4,1.3-4,2.91v4.25c0-1.61,1.79-2.91,4-2.91h63.34c2.2,0,4,1.3,4,2.91V295.9C151.66,294.29,149.87,293,147.66,293Z"/><path class="cls-7" d="M147.66,309.23a2.88,2.88,0,0,0,1.61-1.84,12.18,12.18,0,0,0,.66-2.42,29.26,29.26,0,0,0,.39-5.07,29.61,29.61,0,0,0-.39-5.09,12.12,12.12,0,0,0-.66-2.41,2.91,2.91,0,0,0-1.61-1.84,2,2,0,0,1,1.47.18,4.33,4.33,0,0,1,1.22.94,8.37,8.37,0,0,1,1.56,2.54,15.58,15.58,0,0,1,0,11.36,8.53,8.53,0,0,1-1.56,2.54,4.39,4.39,0,0,1-1.23.94A2,2,0,0,1,147.66,309.23Z"/><path class="cls-7" d="M83.93,309.23a2.87,2.87,0,0,1-1.61-1.84,12.06,12.06,0,0,1-.66-2.42,33.28,33.28,0,0,1,0-10.16,11.9,11.9,0,0,1,.65-2.41,2.9,2.9,0,0,1,1.61-1.84,2,2,0,0,0-1.47.18,4.34,4.34,0,0,0-1.23.94,8.4,8.4,0,0,0-1.56,2.54,15.56,15.56,0,0,0,0,11.36,8.51,8.51,0,0,0,1.56,2.54,4.46,4.46,0,0,0,1.23.94A2,2,0,0,0,83.93,309.23Z"/><rect class="cls-32" x="112.02" y="131.96" width="7.56" height="24.89"/><rect class="cls-2" x="115.52" y="131.96" width="2.44" height="24.89"/><circle class="cls-7" cx="91.71" cy="223.64" r="0.67"/><circle class="cls-7" cx="98.58" cy="229.3" r="0.67"/><polygon class="cls-33" points="251.95 343.28 213.34 233.72 215.24 233.43 240.74 305.79 219.19 233.69 221.12 233.45 253.86 343.02 251.95 343.28"/><polygon class="cls-33" points="212.82 339.71 210.87 339.7 213.31 233.57 215.26 233.58 212.82 339.71"/><polygon class="cls-34" points="248.38 336.02 252.17 335.3 252.91 337.06 256.08 337.06 254.5 340.74 254.13 348.34 250.95 342.26 248.38 336.02"/><rect class="cls-33" x="225.82" y="265.65" width="4.11" height="1.28"/><polygon class="cls-33" points="167.58 343.28 165.67 343.02 198.42 233.45 200.33 233.69 178.79 305.79 204.29 233.43 206.19 233.72 167.58 343.28"/><polygon class="cls-33" points="206.71 339.71 204.27 233.58 206.22 233.57 208.67 339.7 206.71 339.71"/><polygon class="cls-34" points="209.76 339.3 205.85 339.3 205.85 348.02 209.76 354.42 213.68 348.02 213.68 339.3 209.76 339.3"/><polygon class="cls-34" points="171.15 336.02 167.36 335.3 166.63 337.06 163.45 337.06 165.04 340.74 165.4 348.34 168.58 342.26 171.15 336.02"/><rect class="cls-33" x="189.6" y="265.65" width="4.11" height="1.28"/><polygon class="cls-33" points="209.76 306.35 206.8 306.35 206.8 307.63 209.76 307.63 212.73 307.63 212.73 306.35 209.76 306.35"/><polygon class="cls-33" points="209.76 267.32 205.98 267.32 205.98 268.6 209.76 268.6 213.56 268.6 213.56 267.32 209.76 267.32"/><rect class="cls-34" x="200.03" y="227.15" width="19.47" height="2.32"/><g class="cls-20"><rect class="cls-1" x="202.94" y="227.15" width="4.77" height="2.32"/></g><g class="cls-15"><rect x="200.03" y="228.57" width="19.47" height="0.9"/></g><polygon class="cls-34" points="221.23 234.11 198.31 234.11 199.34 229.47 220.2 229.47 221.23 234.11"/><g class="cls-20"><polygon class="cls-1" points="203.25 229.47 202.41 234.11 207.06 234.11 207.7 229.47 203.25 229.47"/></g><rect class="cls-11" x="227.13" y="207.42" width="1.04" height="4.5"/><path class="cls-7" d="M196.05,205.61v7.58h-1.76c-1,0-1.76-1.7-1.76-3.79,0-.28,0-.56,0-.81a5.57,5.57,0,0,1,.49-1.88c.32-.68.76-1.09,1.24-1.09Z"/><path class="cls-35" d="M196.05,206.34v1.54H194a1.84,1.84,0,0,0-1.41.71,5.57,5.57,0,0,1,.49-1.88,1.38,1.38,0,0,1,.92-.37Z"/><path class="cls-36" d="M219.14,216.61l-18.32-2.28h-3.69a1.08,1.08,0,0,1-1.08-1.08v-7.72a1.08,1.08,0,0,1,1.08-1.07h26.64a1.07,1.07,0,0,1,1.08,1.07v10a1.07,1.07,0,0,1-1.08,1.08Z"/><path class="cls-7" d="M206.39,204.46v-1.14a.54.54,0,0,1,.54-.54h6a.54.54,0,0,1,.54.54v1.14Z"/><path class="cls-7" d="M226,213.56h-1.14V205.8H226c.62,0,1.14.73,1.14,1.61v4.53C227.13,212.83,226.61,213.56,226,213.56Z"/><polygon class="cls-36" points="219.11 217.65 200.49 217.65 200.43 214.34 219.06 214.34 219.11 217.65"/><rect class="cls-7" x="200.48" y="217.65" width="18.62" height="2.08"/><rect class="cls-37" x="201.37" y="219.73" width="3.08" height="1.17"/><rect class="cls-2" x="201.91" y="219.73" width="0.79" height="1.17"/><rect class="cls-11" x="200.92" y="220.91" width="4" height="0.37"/><rect class="cls-2" x="201.37" y="220.91" width="1.08" height="0.37"/><rect class="cls-7" x="200.01" y="221.28" width="5.8" height="1.94"/><rect class="cls-2" x="201.09" y="221.28" width="1.36" height="1.94"/><rect class="cls-11" x="201.93" y="223.22" width="1.98" height="0.33"/><rect class="cls-2" x="202.16" y="223.22" width="0.76" height="0.33"/><rect class="cls-37" x="202.16" y="223.56" width="1.51" height="0.37"/><rect class="cls-2" x="202.45" y="223.56" width="0.47" height="0.37"/><rect class="cls-37" x="208.25" y="219.73" width="3.09" height="1.17"/><rect class="cls-2" x="208.79" y="219.73" width="0.79" height="1.17"/><rect class="cls-11" x="207.8" y="220.91" width="3.99" height="0.37"/><rect class="cls-2" x="208.25" y="220.91" width="1.07" height="0.37"/><rect class="cls-7" x="206.89" y="221.28" width="5.81" height="1.94"/><rect class="cls-2" x="207.97" y="221.28" width="1.36" height="1.94"/><rect class="cls-11" x="208.81" y="223.22" width="1.97" height="0.33"/><rect class="cls-2" x="209.04" y="223.22" width="0.75" height="0.33"/><rect class="cls-37" x="209.04" y="223.56" width="1.51" height="0.37"/><rect class="cls-2" x="209.33" y="223.56" width="0.47" height="0.37"/><rect class="cls-37" x="215.13" y="219.73" width="3.09" height="1.17"/><rect class="cls-2" x="215.67" y="219.73" width="0.79" height="1.17"/><rect class="cls-11" x="214.68" y="220.91" width="3.99" height="0.37"/><rect class="cls-2" x="215.13" y="220.91" width="1.08" height="0.37"/><rect class="cls-7" x="213.77" y="221.28" width="5.81" height="1.94"/><rect class="cls-2" x="214.85" y="221.28" width="1.36" height="1.94"/><rect class="cls-11" x="215.69" y="223.22" width="1.98" height="0.33"/><rect class="cls-2" x="215.92" y="223.22" width="0.75" height="0.33"/><rect class="cls-37" x="215.92" y="223.56" width="1.51" height="0.37"/><rect class="cls-2" x="216.21" y="223.56" width="0.47" height="0.37"/><path class="cls-11" d="M200.5,226v-1a1.06,1.06,0,0,1,1.08-1H218a1.06,1.06,0,0,1,1.07,1v1Z"/><rect class="cls-7" x="200.07" y="226.01" width="19.46" height="1.14"/><rect class="cls-35" x="200.96" y="226.01" width="3.82" height="1.14"/><path class="cls-2" d="M198.31,208.21a10.45,10.45,0,0,1,2.67-1.85,15.62,15.62,0,0,1,3.06-1.1,28.3,28.3,0,0,1,6.41-.8c-2.1.46-4.22.8-6.28,1.32A19.13,19.13,0,0,0,198.31,208.21Z"/><polygon class="cls-15" points="201.19 214.38 201.19 209.4 199.74 214.38 201.19 214.38"/><rect class="cls-7" x="196.05" y="208.76" width="28.8" height="0.22"/><rect class="cls-7" x="220.53" y="216.56" width="1.88" height="0.33"/><rect class="cls-16" x="220.91" y="216.89" width="1.12" height="1.03"/><path class="cls-2" d="M202.48,214.53a33.4,33.4,0,0,1,4.11-.69,39,39,0,0,1,8.35,0q1,.12,2.07.28c.68.13,1.37.25,2,.42l-2.07-.15-2.07-.13c-1.38-.06-2.76-.1-4.14-.1s-2.76,0-4.14.1S203.87,214.43,202.48,214.53Z"/><path class="cls-37" d="M203.55,215.37a2.06,2.06,0,1,1-2.06-2.06A2.06,2.06,0,0,1,203.55,215.37Z"/><path class="cls-7" d="M201.49,217.56a2.19,2.19,0,1,1,2.19-2.19A2.19,2.19,0,0,1,201.49,217.56Zm0-4.11a1.92,1.92,0,1,0,1.93,1.92A1.92,1.92,0,0,0,201.49,213.45Z"/><rect class="cls-15" x="200.48" y="225.83" width="18.61" height="0.18"/><polygon class="cls-15" points="219.11 214.53 218.34 217.65 219.11 217.65 219.11 214.53"/><rect class="cls-38" x="218.85" y="217.65" width="0.23" height="0.78"/><rect class="cls-38" x="215.79" y="217.65" width="0.24" height="0.78"/><rect class="cls-38" x="212.73" y="217.65" width="0.24" height="0.78"/><rect class="cls-38" x="209.68" y="217.65" width="0.24" height="0.78"/><rect class="cls-38" x="206.62" y="217.65" width="0.24" height="0.78"/><rect class="cls-38" x="203.57" y="217.65" width="0.23" height="0.78"/><rect class="cls-38" x="200.51" y="217.65" width="0.23" height="0.78"/><rect class="cls-38" x="218.41" y="217.65" width="0.16" height="0.44"/><rect class="cls-38" x="217.99" y="217.65" width="0.15" height="0.44"/><rect class="cls-38" x="217.57" y="217.65" width="0.15" height="0.44"/><rect class="cls-38" x="217.15" y="217.65" width="0.16" height="0.44"/><rect class="cls-38" x="216.73" y="217.65" width="0.16" height="0.44"/><rect class="cls-38" x="216.31" y="217.65" width="0.15" height="0.44"/><rect class="cls-38" x="215.35" y="217.65" width="0.16" height="0.44"/><rect class="cls-38" x="214.93" y="217.65" width="0.16" height="0.44"/><rect class="cls-38" x="214.52" y="217.65" width="0.15" height="0.44"/><rect class="cls-38" x="214.09" y="217.65" width="0.15" height="0.44"/><rect class="cls-38" x="213.67" y="217.65" width="0.15" height="0.44"/><rect class="cls-38" x="213.25" y="217.65" width="0.16" height="0.44"/><rect class="cls-38" x="212.3" y="217.65" width="0.16" height="0.44"/><rect class="cls-38" x="211.88" y="217.65" width="0.16" height="0.44"/><rect class="cls-38" x="211.46" y="217.65" width="0.15" height="0.44"/><rect class="cls-38" x="211.04" y="217.65" width="0.15" height="0.44"/><rect class="cls-38" x="210.61" y="217.65" width="0.16" height="0.44"/><rect class="cls-38" x="210.19" y="217.65" width="0.16" height="0.44"/><rect class="cls-38" x="209.24" y="217.65" width="0.15" height="0.44"/><rect class="cls-38" x="208.82" y="217.65" width="0.16" height="0.44"/><rect class="cls-38" x="208.4" y="217.65" width="0.16" height="0.44"/><rect class="cls-38" x="207.98" y="217.65" width="0.15" height="0.44"/><rect class="cls-38" x="207.56" y="217.65" width="0.15" height="0.44"/><rect class="cls-38" x="207.14" y="217.65" width="0.15" height="0.44"/><rect class="cls-38" x="206.19" y="217.65" width="0.15" height="0.44"/><rect class="cls-38" x="205.77" y="217.65" width="0.15" height="0.44"/><rect class="cls-38" x="205.34" y="217.65" width="0.16" height="0.44"/><rect class="cls-38" x="204.92" y="217.65" width="0.16" height="0.44"/><rect class="cls-38" x="204.51" y="217.65" width="0.15" height="0.44"/><rect class="cls-38" x="204.08" y="217.65" width="0.16" height="0.44"/><rect class="cls-38" x="203.13" y="217.65" width="0.16" height="0.44"/><rect class="cls-38" x="202.71" y="217.65" width="0.15" height="0.44"/><rect class="cls-38" x="202.29" y="217.65" width="0.16" height="0.44"/><rect class="cls-38" x="201.87" y="217.65" width="0.16" height="0.44"/><rect class="cls-38" x="201.45" y="217.65" width="0.16" height="0.44"/><rect class="cls-38" x="201.03" y="217.65" width="0.15" height="0.44"/><path class="cls-7" d="M209,210.13h-2.62a1.56,1.56,0,1,1,0-3.11H209a1.56,1.56,0,1,1,0,3.11Z"/><path class="cls-35" d="M206.12,209.26a1.26,1.26,0,0,1,1-1.46l2-.4a1.39,1.39,0,0,0-.41-.07h-2.09a1.24,1.24,0,0,0-.26,2.45A1.24,1.24,0,0,1,206.12,209.26Z"/><rect class="cls-15" x="224.85" y="205.8" width="0.37" height="7.75"/><rect class="cls-15" x="227.13" y="207.42" width="0.19" height="4.5"/><circle class="cls-3" cx="207.8" cy="77.8" r="36.56"/><path class="cls-1" d="M207.8,115.67A37.87,37.87,0,1,1,245.67,77.8,37.91,37.91,0,0,1,207.8,115.67Zm0-73.13A35.26,35.26,0,1,0,243.06,77.8,35.3,35.3,0,0,0,207.8,42.54Z"/><path class="cls-39" d="M229.39,75.4l-.05.2H188.26l-.05-.2a16.74,16.74,0,0,1,.05-8.55h41.08A16.72,16.72,0,0,1,229.39,75.4Z"/><rect class="cls-40" x="223.84" y="66.85" width="2.13" height="8.75"/><rect class="cls-40" x="221.55" y="66.85" width="1" height="8.75"/><rect class="cls-40" x="189.72" y="66.85" width="1.12" height="8.75"/><path class="cls-41" d="M224.52,62.43c0,.07,0,.13,0,.2s0,.14,0,.21a1.11,1.11,0,0,0,0,.21,9.26,9.26,0,0,0,.19,1.87,3.74,3.74,0,0,0,.18.63,1,1,0,0,0,.17.33.28.28,0,0,0,.21.13v.85H190.65a5.82,5.82,0,0,1-2.52-.65,4.07,4.07,0,0,1-2.44-3.56c0-2.19,2-4,4.65-4.19h0l.54,0h34.39v.84l-.07,0a.36.36,0,0,0-.16.14.67.67,0,0,0-.12.19.53.53,0,0,0-.05.15,1.64,1.64,0,0,0-.1.35v0l0,.1a.22.22,0,0,0,0,.08,1.73,1.73,0,0,0,0,.22,9.07,9.07,0,0,0-.16,1.67A1.09,1.09,0,0,0,224.52,62.43Z"/><path class="cls-42" d="M225.26,66H190.87c-2.44,0-4.41-1.5-4.41-3.38s2-3.38,4.41-3.38h34.39c-.39,0-.7,1.29-.73,3a2.19,2.19,0,0,0,0,.42,2.16,2.16,0,0,0,0,.42C224.56,64.73,224.87,66,225.26,66Z"/><path class="cls-43" d="M187.26,62.64c0-1.87,2-3.38,4.41-3.38h-.79c-2.44,0-4.41,1.51-4.41,3.38s2,3.38,4.41,3.38h.79C189.23,66,187.26,64.51,187.26,62.64Z"/><path class="cls-43" d="M224.51,62.64a2.16,2.16,0,0,0,0,.42l-36.69-.42,36.69-.42A2.19,2.19,0,0,0,224.51,62.64Z"/><polygon class="cls-44" points="223.18 64.39 221.84 65.77 220.36 64.39 220.36 62.26 223.18 62.26 223.18 64.39"/><path class="cls-45" d="M228.41,54.21a4.18,4.18,0,0,1-4.14,4.22H196.83v-.84c.06,0,.12-.05.18-.15a1.6,1.6,0,0,0,.16-.43c0-.14.07-.3.1-.48s0-.27.07-.43a1.66,1.66,0,0,1,0-.29,11.48,11.48,0,0,0,.06-1.18c0-.13,0-.28,0-.42s0-.28,0-.42c0-.36,0-.7,0-1,0-.05,0-.11,0-.15a1.36,1.36,0,0,1,0-.25c0-.17,0-.33-.07-.47a2.7,2.7,0,0,0-.08-.4A1.67,1.67,0,0,0,197,51c-.05-.1-.12-.15-.18-.15V50h27.44A4.16,4.16,0,0,1,228.41,54.21Z"/><path class="cls-42" d="M227.79,54.21a3.45,3.45,0,0,1-3.52,3.38H196.83c.06,0,.12-.05.18-.15a2.43,2.43,0,0,0,.16-.43c0-.14.07-.3.1-.48s0-.27.07-.43a1.66,1.66,0,0,1,0-.29c0-.36,0-.76.05-1.18a3.34,3.34,0,0,0,0-.42,3.51,3.51,0,0,0,0-.42c0-.36,0-.7,0-1,0,0,0-.1,0-.15a1.36,1.36,0,0,1,0-.25c0-.17,0-.33-.07-.47a2.7,2.7,0,0,0-.08-.4A2.28,2.28,0,0,0,197,51c-.05-.1-.12-.15-.18-.15h27.44A3.45,3.45,0,0,1,227.79,54.21Z"/><path class="cls-43" d="M227.15,54.21a3.44,3.44,0,0,0-3.52-3.38h.64a3.38,3.38,0,1,1,0,6.75h-.64A3.44,3.44,0,0,0,227.15,54.21Z"/><path class="cls-43" d="M226.69,54.21l-18.07.26-7.87.11-2.26,0-1.07,0h0a3.34,3.34,0,0,0,0-.42,3.51,3.51,0,0,0,0-.42h0l3,0h.28l7.49.11Z"/><polygon class="cls-46" points="198.5 58.75 199.56 60.13 200.74 58.75 200.74 53.84 198.5 53.84 198.5 58.75"/><rect class="cls-45" x="180.97" y="84.46" width="53.67" height="11.65"/><rect class="cls-40" x="187.11" y="84.46" width="1.05" height="11.65"/><rect class="cls-40" x="227.45" y="84.46" width="1.06" height="11.66"/><rect class="cls-47" x="195.45" y="87.16" width="26.79" height="6.26"/><rect class="cls-48" x="180.97" y="84.46" width="53.67" height="1.04"/><rect class="cls-48" x="180.97" y="95.08" width="53.67" height="1.04"/><rect class="cls-49" x="188.64" y="96.11" width="38.32" height="9.48"/><rect class="cls-50" x="193.03" y="96.11" width="0.76" height="9.48"/><rect class="cls-50" x="221.83" y="96.12" width="0.75" height="9.48"/><rect class="cls-50" x="211" y="98.31" width="7.12" height="5.09"/><rect class="cls-48" x="188.64" y="96.11" width="38.32" height="0.85"/><rect class="cls-48" x="188.64" y="104.75" width="38.32" height="0.85"/><rect class="cls-9" x="184.57" y="75.4" width="46.48" height="9.07"/><rect class="cls-51" x="189.88" y="75.39" width="0.92" height="9.07"/><rect class="cls-51" x="224.82" y="75.39" width="0.92" height="9.07"/><ellipse class="cls-51" cx="207.81" cy="79.93" rx="11.7" ry="2.61"/><rect class="cls-48" x="184.57" y="75.4" width="46.48" height="0.81"/><rect class="cls-48" x="184.57" y="83.65" width="46.48" height="0.81"/><path class="cls-52" d="M3.15,310.65H62.23a8.9,8.9,0,0,1,8.9,8.9v3A9.11,9.11,0,0,1,62,331.63H3.15a0,0,0,0,1,0,0v-21a0,0,0,0,1,0,0Z"/><path class="cls-53" d="M121.83,319.28v3.16a9.19,9.19,0,0,1-9.19,9.19H1.33A1.33,1.33,0,0,1,0,330.3v-.47a1.33,1.33,0,0,1,1.33-1.33H69.19A8.57,8.57,0,0,0,71.13,323v-4a8.35,8.35,0,0,0-1.85-5.25h-68A1.33,1.33,0,0,1,0,312.45V312a1.33,1.33,0,0,1,1.33-1.33H113.2a8.63,8.63,0,0,1,8.63,8.63Z"/><path class="cls-54" d="M121.5,316.9H70.86a8.37,8.37,0,0,0-1.57-3.12h-68A1.33,1.33,0,0,1,0,312.45V312a1.33,1.33,0,0,1,1.33-1.33H113.2A8.63,8.63,0,0,1,121.5,316.9Z"/><polygon class="cls-55" points="3.15 321.14 11.4 321.49 3.15 321.7 3.15 321.14"/><polygon class="cls-55" points="3.15 324.43 22.76 324.78 3.15 325 3.15 324.43"/><path class="cls-56" d="M8.9,331.58H73.33a7.22,7.22,0,0,1,7.22,7.22v2.31a6.78,6.78,0,0,1-6.78,6.78H8.9a0,0,0,0,1,0,0V331.58a0,0,0,0,1,0,0Z" transform="translate(89.46 679.49) rotate(-180)"/><path class="cls-52" d="M68.71,331.58h73.1a7.08,7.08,0,0,1,7.08,7.08V341A6.93,6.93,0,0,1,142,347.9H68.71a0,0,0,0,1,0,0V331.58a0,0,0,0,1,0,0Z" transform="translate(217.6 679.49) rotate(-180)"/><path class="cls-56" d="M63.9,347.9h87.49a1.22,1.22,0,0,0,1.22-1.22h0a1.22,1.22,0,0,0-1.22-1.22H63.9a1.22,1.22,0,0,0-1.22,1.22h0A1.22,1.22,0,0,0,63.9,347.9Z"/><path class="cls-56" d="M63.9,334h87.49a1.22,1.22,0,0,0,1.22-1.22h0a1.22,1.22,0,0,0-1.22-1.22H63.9a1.22,1.22,0,0,0-1.22,1.22h0A1.22,1.22,0,0,0,63.9,334Z"/><polygon class="cls-55" points="148.89 339.74 139.17 340.02 148.89 340.18 148.89 339.74"/><polygon class="cls-55" points="148.89 335.99 125.76 336.26 148.89 336.43 148.89 335.99"/><path class="cls-53" d="M126,336.21a3.81,3.81,0,0,1,1.32,1.85,2.64,2.64,0,0,1,.1.64c.05,1.53,0,5,0,5l2.93-1.73,2.92,1.73V339a3.73,3.73,0,0,0-.72-2.32,1.11,1.11,0,0,0-.81-.48Z"/><path class="cls-57" d="M126,336.21a3.81,3.81,0,0,1,1.32,1.85l5.86.07s-.23-1.65-1.44-1.92Z"/><path class="cls-52" d="M60,286.72h63.78a10.41,10.41,0,0,1,10.41,10.41v3.39A10.18,10.18,0,0,1,124,310.69H60a0,0,0,0,1,0,0v-24A0,0,0,0,1,60,286.72Z" transform="translate(194.16 597.41) rotate(180)"/><path class="cls-58" d="M61.5,296v5.16a6,6,0,0,0,3,5.14,6,6,0,0,0,3,.79h70.16a1.49,1.49,0,0,1,1.49,1.49v.61a1.49,1.49,0,0,1-1.49,1.49H16.47A10.26,10.26,0,0,1,6.21,300.43v-4.07a9.63,9.63,0,0,1,9.64-9.64H137.68a1.49,1.49,0,0,1,1.49,1.49v.61a1.49,1.49,0,0,1-1.49,1.49H67.3A5.81,5.81,0,0,0,63,292.16,5.7,5.7,0,0,0,61.5,296Z"/><polygon class="cls-55" points="134.17 298.7 125.18 299.11 134.17 299.35 134.17 298.7"/><polygon class="cls-55" points="134.17 293.19 112.77 293.59 134.17 293.83 134.17 293.19"/><path class="cls-59" d="M113,293.51a4.49,4.49,0,0,1,1.88,2,2.25,2.25,0,0,1,.15.7c.08,1.66,0,5.42,0,5.42l4.17-1.88,4.16,1.88v-5.09a3.43,3.43,0,0,0-1-2.51,1.72,1.72,0,0,0-1.15-.52Z"/><path class="cls-60" d="M113,293.51a4.49,4.49,0,0,1,1.88,2l8.36.07a2.67,2.67,0,0,0-2.05-2.08Z"/><path class="cls-61" d="M70.69,277.83A24,24,0,0,0,79,286.75H98.39S67.87,272.92,70.69,277.83Z"/><path class="cls-62" d="M85.55,327.63a1.79,1.79,0,0,1,.32,1.91h0c-.46,1.28-2,2.7-3.76,4.12l-.6.5-.14.12-.1.09c-1.65,1.52-1,1.87-4,5-3.38,3.52-5.71,3.58-6.38,3.26s.58-2.14,1.84-4.24l.18-.31.5-.84c1.48-2.53,1.1-3.71.75-7.47-.28-3.05-4.75-17.06-4.75-17.06l6.48-1.12s2,11.16,4.1,12.87c1.15.92,2.44.93,3.54,1.61l.23.15A8.51,8.51,0,0,1,85.55,327.63Z"/><path class="cls-61" d="M85.55,327.63a1.79,1.79,0,0,1,.32,1.91h0a13.77,13.77,0,0,1-3.76,4.11l-.6.52-.14.12-.1.09c-1.65,1.52-1,1.87-4,5-3.38,3.52-5.71,3.58-6.38,3.26s.58-2.14,1.84-4.24a14.42,14.42,0,0,0,6-4.44c2-2.6,3.4-5.94,4.78-7.87l.23.15A8.51,8.51,0,0,1,85.55,327.63Z"/><path class="cls-62" d="M33.27,323.58c-.4,2-3.25,1.67-6.44.89s-2.43.15-7-.36-5.91-2.19-6-2.87,2.12-.81,4.52-1.09l.91-.11c2.71-.34,4.7-2.09,7.17-3.53s5.82-6.91,5.82-6.91l6.22.49s-3.26,5-4.53,7.11a7.52,7.52,0,0,0-.61,4.24A8,8,0,0,1,33.27,323.58Z"/><path class="cls-61" d="M26.83,324.47c-3.19-.78-2.43.15-7-.36s-5.91-2.19-6-2.87,2.12-.81,4.52-1.09l0,0a12.79,12.79,0,0,0,6.5,2c3.08.07,6.34-.81,8.46-.77a8,8,0,0,1,0,2.13C32.87,325.58,30,325.24,26.83,324.47Z"/><path class="cls-61" d="M57.11,283.8l5.82,15.65,7.59,20.43a12.3,12.3,0,0,0,4-.37,17.49,17.49,0,0,0,3.9-1.9s-2.11-21.94-6-34.53A22.42,22.42,0,0,0,69,275.76C62.93,268.56,57.11,283.8,57.11,283.8Z"/><path class="cls-56" d="M63,258.95c3.81-1.23,14.68.35,25.59,2.49l2.29-3.77,23.58-1.84s7.78,17.25,3.52,28.25a4,4,0,0,1-4,2.69H95.07c-11.72,0-24.81-8.06-26.51-8.4-2.77-.55-3.88,5-6.65,10.81s-26.05,25.77-26.05,25.77a20.5,20.5,0,0,1-5.06-.52A5,5,0,0,1,28.63,313S54.43,261.72,63,258.95Z"/><path class="cls-61" d="M91,225.2c8.4,4.62,25.43,14.21,25.52,14.14s6.26,2.36,9.81,0c5.92-3.93,9.09-14.51-1.73-23.62-5.4-4.54-9.23-5.65-9.82-12.9-.32-3.93-5.69-16.92-14.63-15.72-.75.1-5.34.31-8.36,1.9C84.13,193.05,78.45,223.41,91,225.2Z"/><path class="cls-62" d="M98.07,221.26s4.13,1.45,6.92.21c2.62-1.16,4.61-5.47,4.57-5.47-1.19-.06-2.5-1.1-3.51-7.94l-.51.18L97,211.31s.62,2.74,1,5.35C98.36,218.85,98.54,221,98.07,221.26Z"/><path class="cls-63" d="M97,211.31s.62,2.74,1,5.35c4.9-.88,6.83-5.77,7.52-8.42Z"/><path class="cls-62" d="M95.73,214s11.68-1.57,10.59-8.83-.31-12.35-7.82-11.66-8.54,3.68-8.76,6.19S92.67,214.25,95.73,214Z"/><path class="cls-61" d="M90.17,195.76s7.48,6.44,12.57,7,7-1.11,7-1.11a19.87,19.87,0,0,1-4.8-6.51A3.58,3.58,0,0,0,102,193C98.37,192.68,91.48,192.54,90.17,195.76Z"/><path class="cls-61" d="M94.85,195.18a18.42,18.42,0,0,0-3.29,4.21,14.14,14.14,0,0,0-.38,7.52s-3.9-7.58-1.69-11.26C91.82,191.75,94.85,195.18,94.85,195.18Z"/><path class="cls-26" d="M88.24,238.47c.35,23.65.1,18.71,2.68,21,.62.54,2.38.86,4.68,1,7.25.48,20-.71,20.48-2.05,1.67-4.64.49-6.08,1.89-13.18.15-.75.33-1.57.54-2.46,1.16-4.88,2.3-6.53-1.83-14.37-3.74-7.1-7.63-12.85-8-12.65-9.88,5.86-10.67.93-10.67.93S88.06,226.94,88.24,238.47Z"/><path class="cls-56" d="M62.92,299.45l7.59,20.43a12.3,12.3,0,0,0,4-.37,17.49,17.49,0,0,0,3.9-1.9s-2.11-21.94-6-34.53Z"/><path class="cls-26" d="M98,216.66s-10.16,1.72-11.36,6.1l-8.22,30.1s5.17.93,7.55-1.46,8.3-22.14,8.3-22.14Z"/><path class="cls-64" d="M95.6,260.44c7.25.48,20-.71,20.48-2.05,1.67-4.64.49-6.08,1.89-13.18l-3.5-9.85s.58,11-2.66,13.85-13.24,5.57-14.81,8A8.82,8.82,0,0,0,95.6,260.44Z"/><path class="cls-62" d="M103.91,255.82s-7.15-1.59-8.31-1-4,2.95-4.33,3.75,2.57-.61,3.52-.87a8.47,8.47,0,0,1,3,.67,10.1,10.1,0,0,0,5.45.55Z"/><path class="cls-26" d="M108.7,215.72s9.61.59,12.93,5.23c4.68,6.53,14,34.35,8.65,38.06-6,4.18-27.28,1.09-27.28,1.09s-.71-3.31.28-4.91,17-4.19,17.74-4.93-9.24-14.41-9.24-16.63S108.7,215.72,108.7,215.72Z"/><path class="cls-62" d="M95.26,256.86a13.84,13.84,0,0,1-2,2.16,1.47,1.47,0,0,1-.81.17l1-1.82Z"/><path class="cls-62" d="M95.6,254.87,91.24,257a.78.78,0,0,0,.72.28,10.39,10.39,0,0,0,1.89-.52Z"/><polygon class="cls-59" points="93.27 261.98 58.79 261.98 48.42 236.19 82.84 236.19 93.27 261.98"/><polygon class="cls-60" points="58.39 260.98 103.91 260.98 103.91 261.98 58.79 261.98 58.39 260.98"/><path class="cls-1" d="M67.49,249.09a1.19,1.19,0,0,1,1.17-1.64,2.35,2.35,0,0,1,2.11,1.64,1.19,1.19,0,0,1-1.17,1.64A2.35,2.35,0,0,1,67.49,249.09Z"/></g></g></svg>