<svg xmlns="http://www.w3.org/2000/svg" viewBox="0 0 485.64 292.04"><defs><style>.cls-1{isolation:isolate;}.cls-2{fill:#e8eef3;}.cls-3{fill:#1c432c;}.cls-4{fill:#488e52;}.cls-5{fill:#b3bfd2;}.cls-6{fill:#34376b;}.cls-7{fill:#ccd6e5;}.cls-8{fill:#7589a4;}.cls-9{fill:#9e7eb8;}.cls-10{fill:#282864;}.cls-11{fill:#fff;}.cls-12{fill:#98a5ae;}.cls-13{fill:#e3e9f1;}.cls-14{fill:#cbd4e2;}.cls-15{fill:#9faabc;}.cls-16{fill:#798288;}.cls-17,.cls-27{fill:#f9ad7b;}.cls-18,.cls-23{fill:#323569;}.cls-19,.cls-37{fill:#0f1423;}.cls-20{fill:#837a80;}.cls-20,.cls-23,.cls-25,.cls-27,.cls-33,.cls-37{mix-blend-mode:multiply;}.cls-21{fill:#0f1734;}.cls-22{fill:#7d92ca;}.cls-24{fill:#2f1639;}.cls-25{fill:#552d63;}.cls-25,.cls-33{opacity:0.7;}.cls-26{fill:#ff5b7e;}.cls-28{fill:#9aa0d0;}.cls-29{fill:#832e68;}.cls-30,.cls-33{fill:#fdd247;}.cls-31{fill:#d7a829;}.cls-32{fill:#0d101a;}.cls-34{fill:#192749;}.cls-35{fill:#637aad;}.cls-36{fill:#7b889a;}</style></defs><title>Ресурс 13</title><g class="cls-1"><g id="Слой_2" data-name="Слой 2"><g id="Текст"><path class="cls-2" d="M441.12,289.08c-.49,1-1,2-1.5,3H29.41c-.76-1-1.5-2-2.23-3C5.3,259.5-6.52,229.2,3.75,211.86c23.46-39.6,138.66,28.06,217-32,52.68-40.42,36.92-99,80.59-113.65,50.38-16.93,134.47,39.77,153.95,115.72C465.94,223.58,454.74,261.67,441.12,289.08Z"/><path class="cls-3" d="M73.85,253.23c1.48,2,9-3.75,11.3-9.51s7.88-9.9,8.44-12.16-1.5-3.19-.36-7.12,1.35-11.21-2.47-11.94-3,11.22-11.25,14.46S67.85,245.3,73.85,253.23Z"/><path class="cls-4" d="M70.27,275.57a78.23,78.23,0,0,1,.39-8l.11-1c0-.33.07-.66.12-1l.27-2,.33-2,.08-.49.1-.49.2-1,.2-1,.23-1,.23-1,.12-.48.13-.48.52-1.92.58-1.9a71.21,71.21,0,0,1,2.85-7.41,61.26,61.26,0,0,1,3.75-7c1.39-2.24,2.89-4.41,4.29-6.63a44.28,44.28,0,0,0,3.69-6.94,24.57,24.57,0,0,0,1.74-7.65,24.66,24.66,0,0,1-1.57,7.72,44.54,44.54,0,0,1-3.55,7.06c-1.36,2.26-2.8,4.46-4.13,6.73a60.64,60.64,0,0,0-3.55,7,70.42,70.42,0,0,0-2.65,7.38l-.53,1.89-.47,1.9-.12.48-.1.48-.2,1-.2,1-.17,1-.17,1-.09.48-.07.48-.28,1.94-.22,1.95c0,.32-.06.65-.09,1l-.08,1a76.93,76.93,0,0,0-.21,7.82Z"/><path class="cls-5" d="M73.85,253.23c1.48,2,9-3.75,11.3-9.51s7.88-9.9,8.44-12.16-1.5-3.19-.36-7.12,1.35-11.21-2.47-11.94-3,11.22-11.25,14.46S67.85,245.3,73.85,253.23Z"/><path class="cls-6" d="M70.27,275.57a78.23,78.23,0,0,1,.39-8l.11-1c0-.33.07-.66.12-1l.27-2,.33-2,.08-.49.1-.49.2-1,.2-1,.23-1,.23-1,.12-.48.13-.48.52-1.92.58-1.9a71.21,71.21,0,0,1,2.85-7.41,61.26,61.26,0,0,1,3.75-7c1.39-2.24,2.89-4.41,4.29-6.63a44.28,44.28,0,0,0,3.69-6.94,24.57,24.57,0,0,0,1.74-7.65,24.66,24.66,0,0,1-1.57,7.72,44.54,44.54,0,0,1-3.55,7.06c-1.36,2.26-2.8,4.46-4.13,6.73a60.64,60.64,0,0,0-3.55,7,70.42,70.42,0,0,0-2.65,7.38l-.53,1.89-.47,1.9-.12.48-.1.48-.2,1-.2,1-.17,1-.17,1-.09.48-.07.48-.28,1.94-.22,1.95c0,.32-.06.65-.09,1l-.08,1a76.93,76.93,0,0,0-.21,7.82Z"/><path class="cls-3" d="M59,252.85c-.87,2.3-9.71-1.06-13.52-5.94S35.14,239.63,34,237.61s.54-3.48-1.66-6.93-4.45-10.38-1-12.15,6,9.93,14.87,10.71S62.53,243.55,59,252.85Z"/><path class="cls-4" d="M68.73,273.28a78.25,78.25,0,0,0-2.61-7.52l-.38-.92c-.13-.31-.25-.61-.39-.92l-.82-1.81-.87-1.79-.22-.45-.23-.44-.46-.88-.46-.88-.49-.86L61.3,256l-.25-.43-.26-.42-1-1.69-1.09-1.66a71.21,71.21,0,0,0-4.82-6.31,61.26,61.26,0,0,0-5.56-5.65c-2-1.76-4-3.42-6-5.16a44.28,44.28,0,0,1-5.5-5.62A24.57,24.57,0,0,1,33,222.15a24.66,24.66,0,0,0,3.68,7,44.54,44.54,0,0,0,5.4,5.78c1.94,1.79,3.94,3.49,5.86,5.29a60.63,60.63,0,0,1,5.38,5.72,70.41,70.41,0,0,1,4.62,6.34l1,1.66,1,1.69.25.42.23.43.47.86.47.86.44.88.44.88.22.44.2.45.82,1.78.76,1.8c.13.3.25.6.36.91l.35.91a76.92,76.92,0,0,1,2.4,7.44Z"/><path class="cls-7" d="M59,252.85c-.87,2.3-9.71-1.06-13.52-5.94S35.14,239.63,34,237.61s.54-3.48-1.66-6.93-4.45-10.38-1-12.15,6,9.93,14.87,10.71S62.53,243.55,59,252.85Z"/><path class="cls-6" d="M68.73,273.28a78.25,78.25,0,0,0-2.61-7.52l-.38-.92c-.13-.31-.25-.61-.39-.92l-.82-1.81-.87-1.79-.22-.45-.23-.44-.46-.88-.46-.88-.49-.86L61.3,256l-.25-.43-.26-.42-1-1.69-1.09-1.66a71.21,71.21,0,0,0-4.82-6.31,61.26,61.26,0,0,0-5.56-5.65c-2-1.76-4-3.42-6-5.16a44.28,44.28,0,0,1-5.5-5.62A24.57,24.57,0,0,1,33,222.15a24.66,24.66,0,0,0,3.68,7,44.54,44.54,0,0,0,5.4,5.78c1.94,1.79,3.94,3.49,5.86,5.29a60.63,60.63,0,0,1,5.38,5.72,70.41,70.41,0,0,1,4.62,6.34l1,1.66,1,1.69.25.42.23.43.47.86.47.86.44.88.44.88.22.44.2.45.82,1.78.76,1.8c.13.3.25.6.36.91l.35.91a76.92,76.92,0,0,1,2.4,7.44Z"/><path class="cls-3" d="M68.24,249.58c-1.71,1.77-8.5-4.81-10.07-10.8S51.53,228,51.24,225.69s1.87-3,1.21-7,0-11.29,3.89-11.55,1.62,11.5,9.43,15.71S75.15,242.43,68.24,249.58Z"/><path class="cls-4" d="M69.1,272.19a78.25,78.25,0,0,0,.57-7.94v-1c0-.33,0-.66,0-1l0-2-.09-2,0-.5,0-.5-.08-1-.08-1-.11-1-.11-1-.06-.49-.07-.49-.29-2-.35-2a71.21,71.21,0,0,0-1.94-7.7,61.26,61.26,0,0,0-2.88-7.39c-1.11-2.4-2.33-4.73-3.46-7.1a44.29,44.29,0,0,1-2.83-7.34,24.57,24.57,0,0,1-.8-7.81,24.66,24.66,0,0,0,.63,7.85,44.54,44.54,0,0,0,2.68,7.44c1.07,2.41,2.24,4.77,3.29,7.17a60.63,60.63,0,0,1,2.69,7.38,70.42,70.42,0,0,1,1.74,7.65l.3,1.94.24,1.95.06.49,0,.49.09,1,.09,1,.06,1,.06,1,0,.49v.49l0,2v2c0,.33,0,.65,0,1l0,1a76.92,76.92,0,0,1-.74,7.79Z"/><path class="cls-8" d="M68.24,249.58c-1.71,1.77-8.5-4.81-10.07-10.8S51.53,228,51.24,225.69s1.87-3,1.21-7,0-11.29,3.89-11.55,1.62,11.5,9.43,15.71S75.15,242.43,68.24,249.58Z"/><path class="cls-6" d="M69.1,272.19a78.25,78.25,0,0,0,.57-7.94v-1c0-.33,0-.66,0-1l0-2-.09-2,0-.5,0-.5-.08-1-.08-1-.11-1-.11-1-.06-.49-.07-.49-.29-2-.35-2a71.21,71.21,0,0,0-1.94-7.7,61.26,61.26,0,0,0-2.88-7.39c-1.11-2.4-2.33-4.73-3.46-7.1a44.29,44.29,0,0,1-2.83-7.34,24.57,24.57,0,0,1-.8-7.81,24.66,24.66,0,0,0,.63,7.85,44.54,44.54,0,0,0,2.68,7.44c1.07,2.41,2.24,4.77,3.29,7.17a60.63,60.63,0,0,1,2.69,7.38,70.42,70.42,0,0,1,1.74,7.65l.3,1.94.24,1.95.06.49,0,.49.09,1,.09,1,.06,1,.06,1,0,.49v.49l0,2v2c0,.33,0,.65,0,1l0,1a76.92,76.92,0,0,1-.74,7.79Z"/><path class="cls-9" d="M138.88,159.2s-6.32-77.72-98.23-79.75C40.65,79.45,42.22,204.75,138.88,159.2Z"/><path class="cls-10" d="M125.13,201.19S107.44,129,8.48,153.28c2.76-.68,11.44,7.72,13.23,9.29,14.65,12.84,22.3,34.51,40.88,43.13C83,215.19,106,212.45,125.13,201.19Z"/><path class="cls-11" d="M144.5,173.42l-4.26-6c-.72-1-1.4-2-2.15-3l-2.3-2.87-2.3-2.88-1.15-1.44-.58-.72-.61-.69-4.88-5.54a270.1,270.1,0,0,0-21.09-20.81q-11.12-9.85-23.11-18.75c-2-1.46-4-2.93-6-4.37s-4.06-2.87-6.14-4.24c-4.12-2.79-8.31-5.48-12.59-8,4.42,2.29,8.77,4.74,13.05,7.29,2.16,1.25,4.26,2.59,6.39,3.89s4.2,2.69,6.31,4q12.53,8.2,24.35,17.51a274.45,274.45,0,0,1,22.63,19.86l5.32,5.37.67.67.63.7,1.27,1.41,2.53,2.82L143,160.5c.83,1,1.6,2,2.4,2.94l4.77,5.93Z"/><path class="cls-11" d="M140.38,216.32l-5.72-4.93c-1.91-1.64-3.79-3.33-5.81-4.84l-6-4.65-1.5-1.16-1.55-1.09-3.09-2.19A253.15,253.15,0,0,0,91,181.38a256.17,256.17,0,0,0-27.51-13.07,204.29,204.29,0,0,0-29-9.56,205.13,205.13,0,0,1,29.62,7.92,258.78,258.78,0,0,1,28.49,11.6,257.52,257.52,0,0,1,27.06,14.84l3.28,2.05,1.64,1,1.59,1.1,6.37,4.4c2.16,1.43,4.17,3,6.23,4.61l6.16,4.72Z"/><path class="cls-9" d="M355.23,216.71S361.55,139,453.46,137C453.46,137,451.89,262.26,355.23,216.71Z"/><path class="cls-10" d="M369,258.69s17.69-72.16,116.65-47.9c-2.76-.68-11.44,7.72-13.23,9.29-14.65,12.84-22.3,34.51-40.88,43.13C411.09,272.7,388.13,270,369,258.69Z"/><path class="cls-11" d="M349.61,230.93l4.26-6c.72-1,1.4-2,2.15-3l2.3-2.87,2.3-2.88,1.15-1.44.58-.72.61-.69,4.88-5.54A270.08,270.08,0,0,1,388.93,187Q400,177.18,412,168.28c2-1.46,4-2.93,6-4.37s4.06-2.87,6.14-4.24c4.12-2.79,8.31-5.48,12.59-8-4.42,2.29-8.77,4.74-13.05,7.29-2.16,1.25-4.26,2.59-6.39,3.89s-4.2,2.69-6.31,4q-12.53,8.2-24.35,17.51a274.43,274.43,0,0,0-22.63,19.86l-5.32,5.37-.67.67-.63.7-1.27,1.41-2.53,2.82L351.1,218c-.83,1-1.6,2-2.4,2.94l-4.77,5.93Z"/><path class="cls-11" d="M353.73,273.83l5.72-4.93c1.91-1.64,3.79-3.33,5.81-4.84l6-4.65,1.5-1.16,1.55-1.09,3.09-2.19a253.16,253.16,0,0,1,25.75-16.09,256.17,256.17,0,0,1,27.51-13.07,204.29,204.29,0,0,1,29-9.56A205.14,205.14,0,0,0,430,224.18a268.33,268.33,0,0,0-55.55,26.44l-3.28,2.05-1.64,1-1.59,1.1-6.37,4.4c-2.16,1.43-4.17,3-6.23,4.61l-6.16,4.72Z"/><path class="cls-12" d="M393.81,101.13A14.77,14.77,0,0,0,379,86.47l-256,1.59a14.77,14.77,0,0,0-14.66,14.85l1,158a14.78,14.78,0,0,0,14.85,14.66l256-1.59a14.77,14.77,0,0,0,14.66-14.85ZM380.07,264.42l-256,1.59a5.18,5.18,0,0,1-5.2-5.14l-1-158a5.18,5.18,0,0,1,5.14-5.2l256-1.59a5.18,5.18,0,0,1,5.2,5.14l1,158A5.18,5.18,0,0,1,380.07,264.42Z"/><path class="cls-11" d="M385.2,259.21a5.18,5.18,0,0,1-5.14,5.2l-256,1.59a5.18,5.18,0,0,1-5.2-5.14l-1-158a5.18,5.18,0,0,1,5.14-5.2l256-1.59a5.18,5.18,0,0,1,5.2,5.14Z"/><path class="cls-11" d="M221.51,142.22a36.78,36.78,0,1,1-36.79-36.79A36.67,36.67,0,0,1,221.51,142.22Z"/><path class="cls-13" d="M219.26,142.22a34.54,34.54,0,1,1-34.55-34.55A34.43,34.43,0,0,1,219.26,142.22Z"/><path class="cls-14" d="M184.71,107.68v34.55L165,113.89A34.31,34.31,0,0,1,184.71,107.68Z"/><path class="cls-5" d="M219.26,142.22H184.71V107.68A34.55,34.55,0,0,1,219.26,142.22Z"/><path class="cls-15" d="M219.26,142.22a34.43,34.43,0,0,1-9.72,24l-24.83-24Z"/><path class="cls-16" d="M405.84,289.08H97.23a9.54,9.54,0,0,1-9.54-9.54h0A9.54,9.54,0,0,1,97.23,270H405.84a9.54,9.54,0,0,1,9.54,9.54h0a9.54,9.54,0,0,1-9.54,9.54Z"/><path class="cls-17" d="M182.45,184.18s8.16-2.26,8.2,2c.05,5.83-8.49,2.18-8.49,2.18Z"/><path class="cls-18" d="M184.26,189.41h-.15c-1.6-.09-16-.9-22.79-2.12a12.32,12.32,0,0,1-3.19-.87c-3.81-2.12-11.35-14.21-11.94-22.3l9.91-5.57,8,19.46,21,5.27A8.66,8.66,0,0,1,184.26,189.41Z"/><path class="cls-19" d="M165.53,238.44c-.26,10.87-2.38,43.07-2.38,43.07a10.63,10.63,0,0,1-9.63.55l-2.12-24.6-.55-6.4-1-11.61-6.38-20.11-3-9.31-4-12.47,1.86-.2,2.85-.32,11.86-1.31,4.49-.5s.67,2.66,1.63,6.71,2.1,9.12,3.19,14.48c.6,3,1.18,6,1.67,8.83A79.49,79.49,0,0,1,165.53,238.44Z"/><path class="cls-20" d="M159.14,224.84c-.74,7.77-2.74,22.2-7.75,32.62l-.55-6.4-1-11.61-6.38-20.11,7.26-3.84Z"/><path class="cls-21" d="M153.71,197.49s-.09,3.16-.29,7.85c0,.41,0,.84-.07,1.27-.5,10.66-1.59,27.71-3.72,34.62C146.44,251.62,135.69,282,135.69,282a10.63,10.63,0,0,1-9.42-2.08l8-42-.57-17.32-.6-18.21-.24-7.48,0-.91Z"/><path class="cls-20" d="M126.27,280l8-42-.57-17.32-.6-18.21h12.84S135.39,265.68,126.27,280Z"/><path class="cls-22" d="M138.64,274.43a.76.76,0,0,1-.72-1c.1-.27,9.71-26.79,11.72-35.37s2.34-23.7,2.34-23.85a.75.75,0,0,1,.78-.75.76.76,0,0,1,.75.78c0,.63-.34,15.47-2.38,24.17s-11.37,34.44-11.77,35.54A.76.76,0,0,1,138.64,274.43Z"/><path class="cls-23" d="M184.12,189.4c-1.6-.09-16-.9-22.79-2.12l-.53-4.7,3.36-4.57S166.22,188.09,184.12,189.4Z"/><path class="cls-24" d="M155.07,139.91l-.18.21a8.51,8.51,0,0,0-1.39,7,18.69,18.69,0,0,1-1.07,8.89,25.93,25.93,0,0,1-8.7,12.12c-8.33,6.39-24.5,6.59-21.21-.68s-4.26-14.23,3.39-15.69,7.65-4.07,10.75-13.65,13.85-9.59,16.75-6.59S155.07,139.91,155.07,139.91Z"/><path class="cls-25" d="M153.5,147.09a18.69,18.69,0,0,1-1.07,8.89c-4.3,3.72-12.11,10.14-17.23,12.47-7.38,3.36-9.28-8.26-3.08-11.24s5.68-3.09,5.84-9.81,7.42-10,7.42-10l2.61-3.05,6.89,5.76A8.51,8.51,0,0,0,153.5,147.09Z"/><path class="cls-26" d="M161.7,200.81a14.54,14.54,0,0,1-2.46,1.13c-.46.16-.94.31-1.42.44a26,26,0,0,1-5.6.79,41.53,41.53,0,0,1-6-.22,52.6,52.6,0,0,1-8.22-1.52l.45-4.08,4.24-38.15.4-3.61.18,0a28.93,28.93,0,0,1,9.49.21h0l.09.18.11.22,1.3,2.58c2.77,5.52,6.84,13.7,6.84,14C161.07,173.23,161.7,200.81,161.7,200.81Z"/><path class="cls-20" d="M164.1,225.25a23.08,23.08,0,0,1-5-.41l-8.42-9.33c.36-3,.89-7.42,1.49-12.33.29-2.4.6-4.93.91-7.45.92-7.51,1.84-15,2.41-19.34a37.12,37.12,0,0,0-3.27-20.18l.56-.24.11.22,1.3,2.58c2.77,5.52,6.84,13.7,6.84,14,0,.47.62,28,.62,28a14.54,14.54,0,0,1-2.46,1.13c.92,3.91,2.1,9.12,3.19,14.48C163,219.37,163.61,222.39,164.1,225.25Z"/><path class="cls-18" d="M150.26,173.56c0,1.88-.2,4.55-.55,7.67-.69,6.36-2,14.57-3.53,21.72-1.8,8.37-3.92,15.27-5.8,16a5.56,5.56,0,0,1-3.73.18c-2.61-.75-5.16-3.13-10.76-4.27,0,0,7.82-18.81,7.94-30.85.06-5.55-.29-10.43-.5-14.38-.25-4.61-.32-7.94.62-9.58a3.26,3.26,0,0,1,.36-.5c1.3-1.61,4.15-2.8,6.25-3.5.86-.18,1.69-.32,2.49-.43l.18,0c.29.54,1,1.85,1.82,3.55,1.77,3.57,4.23,8.83,5,12.13A10.89,10.89,0,0,1,150.26,173.56Z"/><path class="cls-22" d="M164,275.2a.76.76,0,0,1-1-.79c0-.28,2.09-28.42,1.7-37.22s-4.17-23.45-4.21-23.6a.75.75,0,0,1,.55-.93.76.76,0,0,1,.93.55c.16.61,3.86,15,4.25,23.91s-1.62,36.24-1.7,37.4A.76.76,0,0,1,164,275.2Z"/><path class="cls-18" d="M166.37,214.52a15,15,0,0,1-9,1.4s.23-5.95.49-13.54c.41-12.16.89-28.57.61-31.64-.27-2.88-2.46-8.08-4.26-12-.45-1-.87-1.84-1.23-2.58l-.19-.4h0a5.12,5.12,0,0,1,3.35,2.36l.32.53c2.69,4.41,6,10.59,6.82,15.33C164.66,182.27,166.37,214.52,166.37,214.52Z"/><path class="cls-17" d="M152.27,156.2c-3.36,2.37-8.54-.16-8.54-.16l.56-8.21v0l.07-1.06,6.78-2.4.26,2.81.7,7.41Z"/><path class="cls-23" d="M163.63,176.69s-3.92,4-13.92,4.54a46.17,46.17,0,0,1-6-.1c-14.31-1.13-3.38,29.27-7.07,38-2.61-.75-5.16-3.13-10.76-4.27,0,0,7.82-18.81,7.94-30.85.06-5.55-.29-10.43-.5-14.38l16.92,4Z"/><path class="cls-17" d="M179.37,158.79s4.13-6.84,7.17-3.57c4.19,4.51-4.43,7-4.43,7Z"/><path class="cls-18" d="M137.24,157.48l21.64,10.85L180.33,157a7.45,7.45,0,0,1,3.54,5.12s-20,16.18-24,17.09c-4.77,1.08-20.13-3.34-26.68-9.65Z"/><path class="cls-27" d="M152.11,154.54c-7.43.1-7.8-6.13-7.82-6.71v0h0l5.08-1.61s.86.37,2,1Z"/><path class="cls-17" d="M153.66,133.17s2.79,10.54,1.58,14.15-10.36,6-12.79-3.53,4-11.68,4-11.68Z"/><path class="cls-24" d="M143.73,137.41s3.26,5.66.56,10.38-8.55.13-8.55.13l4.1-8Z"/><path class="cls-27" d="M153.73,133.45s.43,6.56-7.19,8.15l-2.25-2.18,1.82-2.87,4-2.2Z"/><path class="cls-24" d="M153.89,132.86a11.85,11.85,0,0,1-9,8.44c-7.72,1.92-4.23-6-4.23-6.31s4.93-4,4.93-4Z"/><circle class="cls-17" cx="144.86" cy="142.23" r="2.32" transform="translate(-19.8 23.48) rotate(-8.68)"/><path class="cls-28" d="M158.89,168.9l-17.22-8.63a.51.51,0,0,1,.46-.91l16.75,8.4,18.81-9.94a.51.51,0,0,1,.48.9Z"/><path class="cls-28" d="M182.95,183.24l-.12,0-17.17-4.31a.51.51,0,1,1,.25-1l17.17,4.31a.51.51,0,0,1-.12,1Z"/><rect class="cls-5" x="237.82" y="107.68" width="134.61" height="16.64"/><rect class="cls-13" x="237.82" y="133.55" width="134.61" height="4.51"/><rect class="cls-13" x="237.82" y="148.65" width="134.61" height="4.51"/><rect class="cls-13" x="237.82" y="163.74" width="134.61" height="4.51"/><rect class="cls-26" x="183.76" y="225.99" width="14.08" height="32.94"/><rect class="cls-29" x="197.84" y="217.63" width="14.08" height="41.3"/><rect class="cls-26" x="211.92" y="223.07" width="14.08" height="35.86"/><rect class="cls-29" x="226" y="206.6" width="14.08" height="52.33"/><rect class="cls-26" x="240.08" y="215.1" width="14.08" height="43.83"/><rect class="cls-29" x="254.16" y="198.12" width="14.08" height="60.81"/><rect class="cls-6" x="177.19" y="196.75" width="79.06" height="4.9" transform="translate(-52.43 80) rotate(-18.7)"/><polygon class="cls-6" points="254.6 196.59 253.82 185.96 245.72 179.02 266.37 179.62 254.6 196.59"/><path class="cls-30" d="M362.3,221.55a38.15,38.15,0,0,1-67.36,24.55c-.34-.4-.67-.81-1-1.22a38.14,38.14,0,0,1,51.84-54.72c.57.39,1.13.8,1.68,1.23s1.32,1.05,2,1.61A38,38,0,0,1,362.3,221.55Z"/><path class="cls-31" d="M292.37,230.68h-1.86a34.53,34.53,0,0,0,2.12,5.74h2A32.64,32.64,0,0,1,292.37,230.68Zm66-15.85a33.11,33.11,0,0,0-1.05-4c-.06-.21-.14-.42-.21-.63s-.08-.25-.13-.36a33.43,33.43,0,0,0-2-4.54c-.42-.8-.87-1.57-1.35-2.33a34.83,34.83,0,0,0-29.44-16.23,33.74,33.74,0,0,0-4,.23l-1.1.14c-.82.12-1.64.27-2.45.45s-1.38.32-2.06.52a34.42,34.42,0,0,0-5.67,2.19,35,35,0,0,0-6.5,4.14c-.76.6-1.49,1.24-2.19,1.92a35.29,35.29,0,0,0-6.29,8,35.17,35.17,0,0,0-3.06,7.09c-.21.67-.39,1.36-.56,2.05a34.89,34.89,0,0,0-.76,4.42c0,.44-.08.88-.11,1.32-.06.78-.08,1.56-.08,2.34,0,.48,0,1,0,1.44,0,.65.07,1.31.13,2a34.63,34.63,0,0,0,6.11,16.53,35.3,35.3,0,0,0,7.09,7.5,33.46,33.46,0,0,0,2.86,2l.85.52a34.8,34.8,0,0,0,47.07-11.17c.56-.85,1.07-1.73,1.54-2.64a34.08,34.08,0,0,0,1.54-3.33A34.63,34.63,0,0,0,359,221.55,35,35,0,0,0,358.33,214.83Zm-3.61,19.26c0,.1-.08.21-.13.31h0a32.77,32.77,0,0,1-1.43,3,33.2,33.2,0,0,1-19.73,15.89,31.07,31.07,0,0,1-3.59.85,33.11,33.11,0,0,1-34.25-16c-.34-.57-.65-1.15-.95-1.74A32.94,32.94,0,0,1,291.26,225c0-.27-.05-.56-.08-.84-.06-.85-.1-1.7-.1-2.56s0-1.57.08-2.34c0-.05,0-.1,0-.15a31.8,31.8,0,0,1,.91-5.59c.23-.93.51-1.85.82-2.75s.76-2,1.21-3A33.23,33.23,0,0,1,314.31,190c.74-.23,1.5-.43,2.26-.61s1.5-.32,2.27-.45c.41-.07.82-.13,1.24-.18A33.08,33.08,0,0,1,354,207.44c.41.87.79,1.76,1.13,2.67.17.47.34.94.48,1.42.09.25.16.51.23.76a31.07,31.07,0,0,1,.89,3.93c0,.18.06.36.09.55a33.27,33.27,0,0,1,.34,4.78A32.84,32.84,0,0,1,354.72,234.09Z"/><polygon class="cls-32" points="75.34 289.08 61.76 289.08 56.67 270.01 80.43 270.01 75.34 289.08"/><path class="cls-30" d="M196.61,47.72a26,26,0,0,1-45.85,16.71c-.23-.27-.45-.55-.67-.83s-.66-.87-1-1.32a26,26,0,0,1,36.08-36l.17.11c.39.27.77.55,1.14.84s.9.72,1.33,1.1A25.9,25.9,0,0,1,196.61,47.72Z"/><path class="cls-31" d="M149,53.94h-1.26a23.51,23.51,0,0,0,1.44,3.91h1.36A22.22,22.22,0,0,1,149,53.94Zm44.89-10.79a22.53,22.53,0,0,0-.72-2.75c0-.14-.09-.29-.14-.43s-.06-.17-.09-.25a22.76,22.76,0,0,0-1.37-3.09c-.29-.54-.59-1.07-.92-1.59a23.71,23.71,0,0,0-20-11,23,23,0,0,0-2.73.16l-.75.1c-.56.08-1.12.18-1.67.31s-.94.22-1.4.36a23.43,23.43,0,0,0-3.86,1.49,23.8,23.8,0,0,0-4.43,2.82c-.51.41-1,.85-1.49,1.31A24,24,0,0,0,150,36a23.94,23.94,0,0,0-2.08,4.83c-.14.46-.27.93-.38,1.4a23.75,23.75,0,0,0-.51,3c0,.3-.06.6-.07.9,0,.53-.06,1.06-.06,1.6,0,.33,0,.65,0,1s0,.89.09,1.33a23.57,23.57,0,0,0,4.16,11.25,24,24,0,0,0,4.83,5.1A22.79,22.79,0,0,0,158,67.77l.58.36a23.69,23.69,0,0,0,32-7.6c.38-.58.73-1.18,1-1.8a23.19,23.19,0,0,0,1-2.27,23.57,23.57,0,0,0,1.67-8.73A23.82,23.82,0,0,0,193.91,43.15Zm-2.46,13.11-.09.21h0a22.31,22.31,0,0,1-1,2A22.6,22.6,0,0,1,177,69.31a21.16,21.16,0,0,1-2.45.58A22.54,22.54,0,0,1,151.19,59c-.23-.39-.44-.78-.65-1.18A22.42,22.42,0,0,1,148.26,50c0-.19,0-.38-.05-.57,0-.58-.07-1.16-.07-1.74s0-1.07.06-1.6c0,0,0-.07,0-.1a21.65,21.65,0,0,1,.62-3.8c.16-.64.35-1.26.56-1.87s.51-1.37.82-2a22.62,22.62,0,0,1,13.74-12.08c.51-.15,1-.29,1.54-.42s1-.22,1.54-.3l.85-.12A22.51,22.51,0,0,1,191,38.12c.28.59.54,1.2.77,1.81.12.32.23.64.33,1s.11.35.16.52a21.14,21.14,0,0,1,.61,2.68c0,.12,0,.25.06.37a22.65,22.65,0,0,1,.23,3.26A22.35,22.35,0,0,1,191.45,56.26Z"/><path class="cls-33" d="M196.61,47.72a26,26,0,0,1-45.85,16.71c-.23-.27-.45-.55-.67-.83s-.66-.87-1-1.32a26,26,0,0,0,36.08-36l.17.11c.39.27.77.55,1.14.84s.9.72,1.33,1.1A25.9,25.9,0,0,1,196.61,47.72Z"/><path class="cls-30" d="M220.33,73.7a26,26,0,0,1-45.85,16.71c-.23-.27-.45-.55-.67-.83s-.66-.87-1-1.32a26,26,0,0,1,36.08-36l.17.11c.39.27.77.55,1.14.84s.9.72,1.33,1.1A25.9,25.9,0,0,1,220.33,73.7Z"/><path class="cls-31" d="M172.73,79.92h-1.26a23.51,23.51,0,0,0,1.44,3.91h1.36A22.22,22.22,0,0,1,172.73,79.92Zm44.89-10.79a22.53,22.53,0,0,0-.72-2.75c0-.14-.09-.29-.14-.43s-.06-.17-.09-.25a22.76,22.76,0,0,0-1.37-3.09c-.29-.54-.59-1.07-.92-1.59a23.71,23.71,0,0,0-20-11,23,23,0,0,0-2.73.16l-.75.1c-.56.08-1.12.18-1.67.31s-.94.22-1.4.36a23.43,23.43,0,0,0-3.86,1.49,23.8,23.8,0,0,0-4.43,2.82c-.51.41-1,.85-1.49,1.31A24,24,0,0,0,173.75,62a23.94,23.94,0,0,0-2.08,4.83c-.14.46-.27.93-.38,1.4a23.76,23.76,0,0,0-.51,3c0,.3-.06.6-.07.9,0,.53-.06,1.06-.06,1.6,0,.33,0,.65,0,1s0,.89.09,1.33a23.57,23.57,0,0,0,4.16,11.25,24,24,0,0,0,4.83,5.1,22.78,22.78,0,0,0,1.95,1.38l.58.36a23.69,23.69,0,0,0,32-7.6c.38-.58.73-1.18,1-1.8a23.19,23.19,0,0,0,1-2.27,23.57,23.57,0,0,0,1.67-8.73A23.82,23.82,0,0,0,217.63,69.13Zm-2.46,13.11-.09.21h0a22.31,22.31,0,0,1-1,2,22.6,22.6,0,0,1-13.43,10.81,21.15,21.15,0,0,1-2.45.58A22.54,22.54,0,0,1,174.91,85c-.23-.39-.44-.78-.65-1.18A22.42,22.42,0,0,1,172,76c0-.19,0-.38-.05-.57,0-.58-.07-1.16-.07-1.74s0-1.07.06-1.6c0,0,0-.07,0-.1a21.65,21.65,0,0,1,.62-3.8c.16-.64.35-1.26.56-1.87s.51-1.37.82-2a22.62,22.62,0,0,1,13.74-12.08c.51-.15,1-.29,1.54-.42s1-.22,1.54-.3l.85-.12A22.51,22.51,0,0,1,214.7,64.1c.28.59.54,1.2.77,1.81.12.32.23.64.33,1s.11.35.16.52a21.14,21.14,0,0,1,.61,2.68c0,.12,0,.25.06.37a22.65,22.65,0,0,1,.23,3.26A22.35,22.35,0,0,1,215.17,82.24Z"/><path class="cls-33" d="M220.33,73.7a26,26,0,0,1-45.85,16.71c-.23-.27-.45-.55-.67-.83s-.66-.87-1-1.32a26,26,0,0,0,36.08-36l.17.11c.39.27.77.55,1.14.84s.9.72,1.33,1.1A25.9,25.9,0,0,1,220.33,73.7Z"/><path class="cls-30" d="M188,82a26,26,0,0,1-45.85,16.71c-.23-.27-.45-.55-.67-.83s-.66-.87-1-1.32a26,26,0,0,1,36.08-36l.17.11c.39.27.77.55,1.14.84s.9.72,1.33,1.1A25.9,25.9,0,0,1,188,82Z"/><path class="cls-31" d="M140.43,88.22h-1.26a23.51,23.51,0,0,0,1.44,3.91H142A22.22,22.22,0,0,1,140.43,88.22Zm44.89-10.79a22.53,22.53,0,0,0-.72-2.75c0-.14-.09-.29-.14-.43s-.06-.17-.09-.25A22.76,22.76,0,0,0,183,70.92c-.29-.54-.59-1.07-.92-1.59a23.71,23.71,0,0,0-20-11,23,23,0,0,0-2.73.16l-.75.1c-.56.08-1.12.18-1.67.31s-.94.22-1.4.36a23.43,23.43,0,0,0-3.86,1.49,23.81,23.81,0,0,0-4.43,2.82c-.51.41-1,.85-1.49,1.31a24,24,0,0,0-4.28,5.45,23.94,23.94,0,0,0-2.08,4.83c-.14.46-.27.93-.38,1.4a23.76,23.76,0,0,0-.51,3c0,.3-.06.6-.07.9,0,.53-.06,1.06-.06,1.6,0,.33,0,.65,0,1s0,.89.09,1.33a23.57,23.57,0,0,0,4.16,11.25,24,24,0,0,0,4.83,5.1,22.79,22.79,0,0,0,1.95,1.38l.58.36a23.69,23.69,0,0,0,32-7.6c.38-.58.73-1.18,1-1.8a23.19,23.19,0,0,0,1-2.27A23.57,23.57,0,0,0,185.77,82,23.82,23.82,0,0,0,185.32,77.43Zm-2.46,13.11-.09.21h0a22.31,22.31,0,0,1-1,2,22.6,22.6,0,0,1-13.43,10.81,21.15,21.15,0,0,1-2.45.58,22.54,22.54,0,0,1-23.31-10.86c-.23-.39-.44-.78-.65-1.18a22.42,22.42,0,0,1-2.29-7.81c0-.19,0-.38-.05-.57,0-.58-.07-1.16-.07-1.74s0-1.07.06-1.6c0,0,0-.07,0-.1a21.65,21.65,0,0,1,.62-3.8c.16-.64.35-1.26.56-1.87s.51-1.37.82-2a22.62,22.62,0,0,1,13.74-12.08c.51-.15,1-.29,1.54-.42s1-.22,1.54-.3l.85-.12a22.51,22.51,0,0,1,23.1,12.72c.28.59.54,1.2.77,1.81.12.32.23.64.33,1s.11.35.16.52a21.15,21.15,0,0,1,.61,2.68c0,.12,0,.25.06.37a22.65,22.65,0,0,1,.23,3.26A22.35,22.35,0,0,1,182.86,90.54Z"/><path class="cls-33" d="M188,82a26,26,0,0,1-45.85,16.71c-.23-.27-.45-.55-.67-.83s-.66-.87-1-1.32a26,26,0,0,0,36.08-36l.17.11c.39.27.77.55,1.14.84s.9.72,1.33,1.1A25.9,25.9,0,0,1,188,82Z"/><path class="cls-19" d="M320,251.51v29a8.26,8.26,0,0,1-8.25,8.26H241.38a8.26,8.26,0,0,1-8.25-8.26v-29a8.24,8.24,0,0,1,8.25-8.25h70.39A8.25,8.25,0,0,1,320,251.51Z"/><path class="cls-34" d="M320,251.51V266h-86.9V251.51a8.25,8.25,0,0,1,8.25-8.25h70.39A8.25,8.25,0,0,1,320,251.51Z"/><rect class="cls-35" x="271.67" y="261.13" width="9.81" height="9.95" transform="translate(553.15 532.21) rotate(180)"/><path class="cls-19" d="M297.79,236.69v6.57H291.2v-6.57a1.57,1.57,0,0,0-1.57-1.57h-26.1a1.57,1.57,0,0,0-1.57,1.57v6.57h-6.59v-6.57a8.17,8.17,0,0,1,8.16-8.16h26.1A8.17,8.17,0,0,1,297.79,236.69Z"/><path class="cls-5" d="M362.69,62.41a27.94,27.94,0,0,0,14.14-5.87l4.54,4.54,4.68-4.68-4.54-4.54a27.94,27.94,0,0,0,5.87-14.14h6.42V31.11h-6.42A27.94,27.94,0,0,0,381.51,17l4.54-4.54-4.68-4.68-4.54,4.54a27.94,27.94,0,0,0-14.14-5.87V0h-6.62V6.42a27.94,27.94,0,0,0-14.14,5.87l-4.54-4.54-4.68,4.68L337.25,17a28,28,0,0,0-5.87,14.14H325v6.62h6.42a27.94,27.94,0,0,0,5.87,14.14l-4.54,4.54,4.68,4.68,4.54-4.54a28,28,0,0,0,14.14,5.87v6.42h6.62ZM347.3,51.18a20.28,20.28,0,0,1-4.68-4.68A20.52,20.52,0,0,1,339,37.73a21.25,21.25,0,0,1,0-6.62,20.52,20.52,0,0,1,3.66-8.77A20.72,20.72,0,0,1,356.07,14a21.25,21.25,0,0,1,6.62,0,20.72,20.72,0,0,1,17.09,17.09,21.25,21.25,0,0,1,0,6.62,20.72,20.72,0,0,1-17.09,17.09,21.25,21.25,0,0,1-6.62,0A20.35,20.35,0,0,1,347.3,51.18Z"/><path class="cls-15" d="M417.76,99.19a27.94,27.94,0,0,0,14.14-5.87l4.54,4.54,4.68-4.68-4.54-4.54a27.94,27.94,0,0,0,5.87-14.14h6.42V67.89h-6.42a27.94,27.94,0,0,0-5.87-14.14l4.54-4.54-4.68-4.68-4.54,4.54a27.94,27.94,0,0,0-14.14-5.87V36.78h-6.62V43.2A28,28,0,0,0,397,49.07l-4.54-4.54-4.68,4.68,4.54,4.54a28,28,0,0,0-5.87,14.14H380v6.62h6.42a27.94,27.94,0,0,0,5.87,14.14l-4.54,4.54,4.68,4.68L397,93.33a27.94,27.94,0,0,0,14.14,5.87v6.42h6.62ZM402.38,88a20.28,20.28,0,0,1-4.68-4.68A20.52,20.52,0,0,1,394,74.51a21.25,21.25,0,0,1,0-6.62,20.52,20.52,0,0,1,3.66-8.77,20.72,20.72,0,0,1,13.45-8.32,21.25,21.25,0,0,1,6.62,0,20.72,20.72,0,0,1,17.09,17.09,21.25,21.25,0,0,1,0,6.62A20.72,20.72,0,0,1,417.76,91.6a21.25,21.25,0,0,1-6.62,0A20.35,20.35,0,0,1,402.38,88Z"/><path class="cls-36" d="M351.78,128.11A27.94,27.94,0,0,0,367,127l2.89,5.74,5.91-3L373,124a27.94,27.94,0,0,0,10-11.58l6.1,2,2.08-6.28-6.1-2a27.94,27.94,0,0,0-1.13-15.27L389.67,88l-3-5.91L381,85a27.94,27.94,0,0,0-11.58-10l2-6.1-6.28-2.08-2,6.1A28,28,0,0,0,347.82,74l-2.89-5.74-5.91,3L341.91,77a27.94,27.94,0,0,0-10,11.58l-6.1-2-2.08,6.28,6.1,2a27.94,27.94,0,0,0,1.13,15.27L325.2,113l3,5.91,5.74-2.89a27.94,27.94,0,0,0,11.58,10l-2,6.1,6.28,2.08Zm-11.08-15.5a20.29,20.29,0,0,1-3-5.91,20.52,20.52,0,0,1-.72-9.47,21.25,21.25,0,0,1,2.08-6.28,20.52,20.52,0,0,1,6.23-7.18,20.72,20.72,0,0,1,15.38-3.68A21.25,21.25,0,0,1,367,82.16a20.72,20.72,0,0,1,10.86,21.6,21.24,21.24,0,0,1-2.08,6.28,20.72,20.72,0,0,1-21.6,10.86,21.25,21.25,0,0,1-6.28-2.08A20.35,20.35,0,0,1,340.71,112.61Z"/><path class="cls-37" d="M320,269.86v10.7a8.26,8.26,0,0,1-8.25,8.26H241.38a8.26,8.26,0,0,1-8.25-8.26v-10.7a8.25,8.25,0,0,0,8.25,8.26h70.39A8.26,8.26,0,0,0,320,269.86Z"/></g></g></g></svg>