<svg xmlns="http://www.w3.org/2000/svg" xmlns:xlink="http://www.w3.org/1999/xlink" viewBox="0 0 398.57 339.91"><defs><style>.cls-1{isolation:isolate;}.cls-2{fill:url(#Новый_образец_градиента_11);}.cls-3{fill:#b7d972;}.cls-4{fill:url(#Новый_образец_градиента_8);}.cls-5{fill:url(#Новый_образец_градиента_11-2);}.cls-6{fill:url(#Новый_образец_градиента_8-2);}.cls-7{fill:url(#Новый_образец_градиента_8-3);}.cls-8{fill:url(#Новый_образец_градиента_8-4);}.cls-9{fill:url(#Новый_образец_градиента_8-5);}.cls-10{fill:url(#Новый_образец_градиента_11-3);}.cls-11{fill:url(#Новый_образец_градиента_8-6);}.cls-12{fill:#edfdfc;}.cls-13{fill:#e6edce;}.cls-14{fill:#dbe5b1;}.cls-14,.cls-58{opacity:0.5;}.cls-14,.cls-22,.cls-31{mix-blend-mode:multiply;}.cls-15{fill:#f3fcff;}.cls-16{fill:#eae7d0;}.cls-17,.cls-58{fill:#daeef7;}.cls-18{fill:#f6f9ea;}.cls-19{fill:url(#Новый_образец_градиента_11-4);}.cls-20{fill:url(#Новый_образец_градиента_10);}.cls-21{fill:url(#Новый_образец_градиента_11-5);}.cls-22{fill:#d6d2b4;}.cls-23{fill:url(#Новый_образец_градиента_9);}.cls-24{fill:url(#Новый_образец_градиента_9-2);}.cls-25{fill:url(#Новый_образец_градиента_9-3);}.cls-26{fill:url(#Новый_образец_градиента_9-4);}.cls-27{fill:url(#Новый_образец_градиента_11-6);}.cls-28{fill:url(#Новый_образец_градиента_11-7);}.cls-29{fill:url(#Новый_образец_градиента_11-8);}.cls-30{fill:#847d3d;}.cls-31{fill:#06bfad;opacity:0.3;}.cls-32{fill:url(#Новый_образец_градиента_8-7);}.cls-33{fill:url(#Новый_образец_градиента_8-8);}.cls-34{fill:url(#Новый_образец_градиента_8-9);}.cls-35{fill:url(#Новый_образец_градиента_8-10);}.cls-36{fill:url(#Новый_образец_градиента_7);}.cls-37{fill:url(#Новый_образец_градиента_7-2);}.cls-38{fill:url(#Новый_образец_градиента_7-3);}.cls-39{fill:#ffc0bb;}.cls-40{fill:#002a24;}.cls-41{fill:url(#Новый_образец_градиента_7-4);}.cls-42{fill:#473b1e;}.cls-43{fill:url(#Новый_образец_градиента_7-5);}.cls-44{fill:#f99893;}.cls-45{fill:#333;}.cls-46{fill:url(#Новый_образец_градиента_7-6);}.cls-47{fill:#fff;}.cls-48{fill:url(#Новый_образец_градиента_11-9);}.cls-49{fill:url(#Новый_образец_градиента_11-10);}.cls-50{fill:url(#Новый_образец_градиента_11-11);}.cls-51{fill:url(#Новый_образец_градиента_11-12);}.cls-52,.cls-63{fill:#fc8d84;}.cls-52,.cls-62{opacity:0.6;}.cls-53{fill:#07085b;}.cls-54{fill:url(#Новый_образец_градиента_7-7);}.cls-55{fill:url(#Новый_образец_градиента_7-8);}.cls-56{fill:url(#Новый_образец_градиента_7-9);}.cls-57{fill:url(#Новый_образец_градиента_9-5);}.cls-59{fill:url(#Новый_образец_градиента_7-10);}.cls-60{fill:#ea9734;}.cls-61{fill:url(#Новый_образец_градиента_9-6);}.cls-64{fill:url(#Новый_образец_градиента_7-11);}.cls-65{fill:url(#Новый_образец_градиента_7-12);}.cls-66{fill:url(#Новый_образец_градиента_7-13);}</style><linearGradient id="Новый_образец_градиента_11" x1="34.03" y1="139.65" x2="81.34" y2="139.65" gradientUnits="userSpaceOnUse"><stop offset="0" stop-color="#00503e"/><stop offset="1" stop-color="#023222"/></linearGradient><linearGradient id="Новый_образец_градиента_8" x1="13.51" y1="168.68" x2="82.69" y2="168.68" gradientUnits="userSpaceOnUse"><stop offset="0" stop-color="#c9cd55"/><stop offset="0.51" stop-color="#659c52"/><stop offset="1" stop-color="#287f50"/></linearGradient><linearGradient id="Новый_образец_градиента_11-2" x1="3.18" y1="167.13" x2="52.46" y2="167.13" xlink:href="#Новый_образец_градиента_11"/><linearGradient id="Новый_образец_градиента_8-2" x1="0" y1="192.73" x2="86.47" y2="192.73" xlink:href="#Новый_образец_градиента_8"/><linearGradient id="Новый_образец_градиента_8-3" x1="344.88" y1="166" x2="385.87" y2="166" xlink:href="#Новый_образец_градиента_8"/><linearGradient id="Новый_образец_градиента_8-4" x1="342.42" y1="181.48" x2="398.57" y2="181.48" xlink:href="#Новый_образец_градиента_8"/><linearGradient id="Новый_образец_градиента_8-5" x1="363.43" y1="46.21" x2="288.92" y2="172.35" xlink:href="#Новый_образец_градиента_8"/><linearGradient id="Новый_образец_градиента_11-3" x1="352.66" y1="195.74" x2="356.27" y2="195.74" xlink:href="#Новый_образец_градиента_11"/><linearGradient id="Новый_образец_градиента_8-6" x1="248.8" y1="57.04" x2="95.04" y2="243.37" xlink:href="#Новый_образец_градиента_8"/><linearGradient id="Новый_образец_градиента_11-4" x1="73.16" y1="195.74" x2="76.77" y2="195.74" xlink:href="#Новый_образец_градиента_11"/><linearGradient id="Новый_образец_градиента_10" x1="73.16" y1="73.24" x2="214.71" y2="73.24" gradientUnits="userSpaceOnUse"><stop offset="0" stop-color="#c7a44f"/><stop offset="1" stop-color="#609a3f"/></linearGradient><linearGradient id="Новый_образец_градиента_11-5" x1="203.53" y1="60.16" x2="226.03" y2="60.16" xlink:href="#Новый_образец_градиента_11"/><linearGradient id="Новый_образец_градиента_9" x1="215.91" y1="303.16" x2="384.61" y2="303.16" gradientUnits="userSpaceOnUse"><stop offset="0" stop-color="#53cd9f"/><stop offset="1" stop-color="#0d7a5c"/></linearGradient><linearGradient id="Новый_образец_градиента_9-2" x1="218.2" y1="304.88" x2="320.22" y2="304.88" xlink:href="#Новый_образец_градиента_9"/><linearGradient id="Новый_образец_градиента_9-3" x1="312.08" y1="303.06" x2="393.87" y2="303.06" xlink:href="#Новый_образец_градиента_9"/><linearGradient id="Новый_образец_градиента_9-4" x1="218.2" y1="272.88" x2="387.79" y2="272.88" xlink:href="#Новый_образец_градиента_9"/><linearGradient id="Новый_образец_градиента_11-6" x1="223.63" y1="261.84" x2="391.95" y2="261.84" xlink:href="#Новый_образец_градиента_11"/><linearGradient id="Новый_образец_градиента_11-7" x1="287.01" y1="263.33" x2="391.75" y2="263.33" xlink:href="#Новый_образец_градиента_11"/><linearGradient id="Новый_образец_градиента_11-8" x1="215.38" y1="261.75" x2="295.98" y2="261.75" xlink:href="#Новый_образец_градиента_11"/><linearGradient id="Новый_образец_градиента_8-7" x1="239.97" y1="229.03" x2="378.32" y2="229.03" xlink:href="#Новый_образец_градиента_8"/><linearGradient id="Новый_образец_градиента_8-8" x1="239.1" y1="230.42" x2="326.66" y2="230.42" xlink:href="#Новый_образец_градиента_8"/><linearGradient id="Новый_образец_градиента_8-9" x1="318.87" y1="228.99" x2="384.65" y2="228.99" xlink:href="#Новый_образец_градиента_8"/><linearGradient id="Новый_образец_градиента_8-10" x1="265.86" y1="211.37" x2="323.9" y2="211.37" xlink:href="#Новый_образец_градиента_8"/><linearGradient id="Новый_образец_градиента_7" x1="254.6" y1="230.65" x2="265.56" y2="230.65" gradientUnits="userSpaceOnUse"><stop offset="0" stop-color="#fb9a2b"/><stop offset="1" stop-color="#e65925"/></linearGradient><linearGradient id="Новый_образец_градиента_7-2" x1="312.08" y1="280.17" x2="320.13" y2="280.17" xlink:href="#Новый_образец_градиента_7"/><linearGradient id="Новый_образец_градиента_7-3" x1="263.26" y1="309.61" x2="280.26" y2="309.61" xlink:href="#Новый_образец_градиента_7"/><linearGradient id="Новый_образец_градиента_7-4" x1="161.63" y1="100.27" x2="172.53" y2="100.27" xlink:href="#Новый_образец_градиента_7"/><linearGradient id="Новый_образец_градиента_7-5" x1="129.47" y1="101.55" x2="138.77" y2="101.55" xlink:href="#Новый_образец_градиента_7"/><linearGradient id="Новый_образец_градиента_7-6" x1="126.9" y1="16" x2="144.02" y2="16" xlink:href="#Новый_образец_градиента_7"/><linearGradient id="Новый_образец_градиента_11-9" x1="141.82" y1="204.94" x2="98.84" y2="255.03" xlink:href="#Новый_образец_градиента_11"/><linearGradient id="Новый_образец_градиента_11-10" x1="134.42" y1="198.6" x2="91.44" y2="248.68" xlink:href="#Новый_образец_градиента_11"/><linearGradient id="Новый_образец_градиента_11-11" x1="125.33" y1="190.8" x2="82.36" y2="240.89" xlink:href="#Новый_образец_градиента_11"/><linearGradient id="Новый_образец_градиента_11-12" x1="143.93" y1="206.76" x2="100.95" y2="256.84" xlink:href="#Новый_образец_градиента_11"/><linearGradient id="Новый_образец_градиента_7-7" x1="231.33" y1="49.59" x2="261.39" y2="49.59" xlink:href="#Новый_образец_градиента_7"/><linearGradient id="Новый_образец_градиента_7-8" x1="285.02" y1="199.78" x2="297.32" y2="199.78" xlink:href="#Новый_образец_градиента_7"/><linearGradient id="Новый_образец_градиента_7-9" x1="304.99" y1="199.79" x2="317.28" y2="199.79" xlink:href="#Новый_образец_градиента_7"/><linearGradient id="Новый_образец_градиента_9-5" x1="264.97" y1="106.91" x2="287.85" y2="93" xlink:href="#Новый_образец_градиента_9"/><linearGradient id="Новый_образец_градиента_7-10" x1="293.69" y1="54.06" x2="308.53" y2="67.05" xlink:href="#Новый_образец_градиента_7"/><linearGradient id="Новый_образец_градиента_9-6" x1="289.98" y1="100.49" x2="324.79" y2="100.49" xlink:href="#Новый_образец_градиента_9"/><linearGradient id="Новый_образец_градиента_7-11" x1="293.45" y1="54.33" x2="308.3" y2="67.31" xlink:href="#Новый_образец_градиента_7"/><linearGradient id="Новый_образец_градиента_7-12" x1="290.65" y1="57.53" x2="305.49" y2="70.52" xlink:href="#Новый_образец_градиента_7"/><linearGradient id="Новый_образец_градиента_7-13" x1="295.07" y1="52.48" x2="309.91" y2="65.47" xlink:href="#Новый_образец_градиента_7"/></defs><title>Ресурс 12</title><g class="cls-1"><g id="Слой_2" data-name="Слой 2"><g id="Текст"><path class="cls-2" d="M41.58,95.73c7.11-1.56,5.79,10,5.32,13.09a45.14,45.14,0,0,1,6.2,4.09c-.85-3.72-3.74-5.85-3.6-8.34.17-2.8,2.1-5.6,5.22-1.63,2.47,3.14.14,8.46-.93,10.53a41,41,0,0,1,6.71,6.94c-.39-4.43-3.47-7.29-3-10.11.51-3.08,2.94-5.91,5.89-1,2.44,4-1.1,9.9-2.41,11.82a24.5,24.5,0,0,1,2,3.2,79.92,79.92,0,0,1,3.3,7.41c-.26-3.91-2.4-6.91-1.67-9.41.88-3,3.62-5.44,5.91-.11,1.81,4.21-2,9.26-3.62,11.19A79,79,0,0,1,70.66,148c.95-3.55,0-9.25,1.88-12.21,1.23-1.94,2.71-2,3.75-1.69A2.94,2.94,0,0,1,78.19,136c1.9,5.36-5.2,11.2-7.41,12.86A79.74,79.74,0,0,1,71.52,164c.5-1.83,1.25-4.6,1.58-6.06.52-2.29,2.28-5.15,4.2-5.88l.24-.08A2.86,2.86,0,0,1,81,154c2.16,6-7.5,10.71-9.6,11.65v.09a65.7,65.7,0,0,1-3.53,18l-.92-.4a65,65,0,0,0,3.38-16.72c-8.48-4.22-9-10.91-7.13-12.66s5.68-1.42,5.88,3.34a32.28,32.28,0,0,0,1.37,7.49,78.42,78.42,0,0,0-.66-15.43c-12.57-1-10.84-9.71-7.84-10.85s4.55.74,5.4,4.58a16.64,16.64,0,0,0,2.33,5.5,78,78,0,0,0-3.63-14.44c-2,1.33-7.3,4.34-10.43,1.23-3.91-3.89-1.16-6.31,1.6-6.53,2.53-.2,4.69,3.65,8.57,4.57a78.7,78.7,0,0,0-3.71-8.51A30.36,30.36,0,0,0,58,119.09c-1.87,1.6-6.8,5.28-10.27,2.67-4.35-3.27-1.87-6,.86-6.65,2.44-.54,5,2.72,8.74,3.23a42.9,42.9,0,0,0-10.77-8.42c-1.95,1.65-6.76,5.13-10.15,2.58-4.35-3.27-1.87-6,.86-6.65,2.47-.55,5,2.81,8.89,3.26l.05-.11c-1.05-1.06-3.29-3.3-4.41-4.3-1.5-1.34-2.78-4.09-2.33-6.21A3.78,3.78,0,0,1,41.58,95.73Z"/><path class="cls-3" d="M30.21,151.55,16,146.11c-1.7-10.78-2.51-19.92-2.51-19.92C31,128.32,44,134.78,53.81,143.25l.75,17.45,5.57-11.21c22.61,25.35,22.55,61.66,22.55,61.66s-47.76-23.3-56.51-32c-3.38-3.36-6-12-8-21.39C23.27,155.51,30.21,151.55,30.21,151.55Z"/><path class="cls-4" d="M13.51,126.2s54,50,69.18,85c0,0-47.76-23.3-56.51-32-3.38-3.36-6-12-8-21.39,5.12-2.24,12.06-6.21,12.06-6.21L16,146.11C14.32,135.33,13.51,126.2,13.51,126.2Z"/><path class="cls-5" d="M4,141.7c4.37-3.52,7.42,4.91,8.15,7.21a34.75,34.75,0,0,1,5.68.7c-1.86-2.27-4.59-2.75-5.34-4.52-.85-2-.47-4.58,3-2.91,2.78,1.32,3,5.79,3,7.58a31.6,31.6,0,0,1,7,2.49c-1.79-2.92-4.89-3.84-5.54-5.95-.71-2.3,0-5.08,3.71-2.74,3.06,1.94,2.63,7.21,2.39,9A18.88,18.88,0,0,1,28.59,154a61.59,61.59,0,0,1,4.82,4c-1.52-2.61-4-3.94-4.38-5.92-.42-2.37.63-5,4-2.11,2.7,2.28,1.82,7.06,1.34,9A60.87,60.87,0,0,1,42,167.81c-.56-2.77-3.17-6.38-2.89-9.06a2.42,2.42,0,0,1,2-2.45,2.26,2.26,0,0,1,2,.66c3.15,3,.26,9.51-.7,11.41a61.39,61.39,0,0,1,5.68,10.18c-.28-1.44-.71-3.6-1-4.72-.43-1.76-.19-4.33.88-5.5l.13-.14a2.2,2.2,0,0,1,3.09.18c3.56,3.43-1.5,10-2.63,11.33l0,.06a50.6,50.6,0,0,1,3.73,13.61l-.77,0a50.11,50.11,0,0,0-3.4-12.69c-7.3,0-10-4.43-9.26-6.29s3.43-2.93,5.2.29a24.86,24.86,0,0,0,3.51,4.69A60.38,60.38,0,0,0,41.88,169c-9,3.64-10.81-3-9.13-4.79s3.39-1.05,5.3,1.31a12.81,12.81,0,0,0,3.49,3,60.05,60.05,0,0,0-7.45-8.71c-.92,1.6-3.55,5.5-6.77,4.42-4-1.34-3-4-1.14-5s4.49.91,7.48.21a60.66,60.66,0,0,0-5.48-4.6,23.39,23.39,0,0,0-4.82-2.58c-.74,1.75-2.88,6-6.16,5.36-4.12-.76-3.36-3.53-1.69-4.88,1.5-1.21,4.35.18,7.13-.76a33,33,0,0,0-10.32-2.12c-.78,1.81-2.9,5.85-6.12,5.26-4.12-.76-3.36-3.53-1.69-4.88,1.52-1.23,4.43.22,7.25-.8v-.09c-1.09-.37-3.4-1.15-4.52-1.46a5.68,5.68,0,0,1-3.73-3.48A2.91,2.91,0,0,1,4,141.7Z"/><path class="cls-3" d="M0,169.83a69.65,69.65,0,0,1,28.95.15c1.35,3.95,3.06,8.63,3.06,8.63l2.91-7C67.63,181.76,86.47,213,86.47,213c-22.89,5-40,2.47-52.59-3.3.14-2.79.4-6.92.4-6.92l-4.39,4.92a59.72,59.72,0,0,1-14.58-11.28c2.3-2.54,4.82-5.49,4.82-5.49l-8.36,1.43A64.66,64.66,0,0,1,0,169.83Z"/><path class="cls-6" d="M33.88,209.67c.14-2.79.4-6.92.4-6.92l-4.39,4.92a59.72,59.72,0,0,1-14.58-11.28c2.3-2.54,4.82-5.49,4.82-5.49l-8.36,1.43A64.66,64.66,0,0,1,0,169.83C39.05,179.08,86.47,213,86.47,213,63.58,218,46.52,215.44,33.88,209.67Z"/><path class="cls-3" d="M376.33,152.79l9.34-4.86c.32-7.56.16-13.91.16-13.91-11.87,2.84-17.26,5.25-23.31,11.84l-1.06,10.06-4-5.82C343.85,169.35,344.88,198,344.88,198s31.05-19.79,36.39-26.48c2.06-2.58,3.21-8.76,3.84-15.36C381.42,155,376.33,152.79,376.33,152.79Z"/><path class="cls-7" d="M385.83,134S352.55,172.67,344.88,198c0,0,31.05-19.79,36.39-26.48,2.06-2.58,3.21-8.76,3.84-15.36-3.7-1.14-8.79-3.33-8.79-3.33l9.34-4.86C386,140.38,385.83,134,385.83,134Z"/><path class="cls-3" d="M398.57,163a48.26,48.26,0,0,0-19.92,2.38c-.62,2.82-1.43,6.18-1.43,6.18l-2.56-4.62c-21.71,9.59-32.23,32.56-32.23,32.56,16.15,1.64,27.7-1.44,36-6.41-.31-1.91-.82-4.73-.82-4.73l3.41,3a41.4,41.4,0,0,0,9.15-8.92c-1.78-1.57-3.75-3.4-3.75-3.4l5.87.32A44.81,44.81,0,0,0,398.57,163Z"/><path class="cls-8" d="M378.37,193.1c-.31-1.91-.82-4.73-.82-4.73l3.41,3a41.4,41.4,0,0,0,9.15-8.92c-1.78-1.57-3.75-3.4-3.75-3.4l5.87.32A44.81,44.81,0,0,0,398.57,163c-26.16,9.44-56.15,36.5-56.15,36.5C358.57,201.15,370.12,198.07,378.37,193.1Z"/><polygon class="cls-9" points="352.66 89.11 214.71 58.56 214.71 274.75 352.66 303.87 352.66 89.11"/><polygon class="cls-10" points="356.27 303.81 352.66 303.87 352.66 87.66 356.27 87.61 356.27 303.81"/><polygon class="cls-3" points="214.71 58.56 216.3 57.36 356.27 87.61 352.66 89.11 214.71 58.56"/><polygon class="cls-11" points="76.77 89.11 214.71 58.56 214.71 274.75 76.77 303.87 76.77 89.11"/><path class="cls-12" d="M82.55,91.16l122.6-30.45s6.44,2.71,9.56,2.33l-58.27,48.7S116.07,117,115,115.23,82.55,91.16,82.55,91.16Z"/><polygon class="cls-12" points="82.55 302.85 98.18 309.84 98.18 98.15 82.55 91.16 82.55 302.85"/><polygon class="cls-13" points="214.71 274.75 98.18 309.84 98.18 98.13 214.71 63.04 214.71 274.75"/><polygon class="cls-14" points="203.04 97.64 109.85 125.7 109.85 110.45 203.04 82.39 203.04 97.64"/><polygon class="cls-14" points="203.04 104.28 144.42 121.94 144.42 119.2 203.04 101.55 203.04 104.28"/><polygon class="cls-14" points="203.04 111.13 144.42 128.78 144.42 126.04 203.04 108.39 203.04 111.13"/><polygon class="cls-14" points="203.04 117.97 144.42 135.62 144.42 132.88 203.04 115.23 203.04 117.97"/><polygon class="cls-14" points="203.04 124.81 144.42 142.46 144.42 139.72 203.04 122.07 203.04 124.81"/><polygon class="cls-14" points="203.04 131.65 144.42 149.3 144.42 146.57 203.04 128.91 203.04 131.65"/><polygon class="cls-14" points="203.04 138.49 144.42 156.14 144.42 153.41 203.04 135.76 203.04 138.49"/><polygon class="cls-14" points="203.04 145.34 144.42 162.99 144.42 160.25 203.04 142.6 203.04 145.34"/><polygon class="cls-14" points="203.04 152.18 144.42 169.83 144.42 167.09 203.04 149.44 203.04 152.18"/><polygon class="cls-14" points="203.04 159.02 144.42 176.67 144.42 173.93 203.04 156.28 203.04 159.02"/><polygon class="cls-14" points="203.04 165.86 144.42 183.51 144.42 180.78 203.04 163.13 203.04 165.86"/><polygon class="cls-14" points="203.04 172.7 109.85 200.76 109.85 198.03 203.04 169.97 203.04 172.7"/><polygon class="cls-14" points="156.45 193.57 109.85 207.6 109.85 204.87 156.45 190.84 156.45 193.57"/><polygon class="cls-14" points="156.45 200.42 109.85 214.45 109.85 211.71 156.45 197.68 156.45 200.42"/><polygon class="cls-14" points="156.45 207.26 109.85 221.29 109.85 218.55 156.45 204.52 156.45 207.26"/><polygon class="cls-14" points="156.45 214.1 109.85 228.13 109.85 225.39 156.45 211.36 156.45 214.1"/><polygon class="cls-14" points="156.45 220.94 109.85 234.97 109.85 232.24 156.45 218.21 156.45 220.94"/><polygon class="cls-14" points="156.45 227.78 109.85 241.81 109.85 239.08 156.45 225.05 156.45 227.78"/><polygon class="cls-14" points="156.45 234.63 109.85 248.66 109.85 245.92 156.45 231.89 156.45 234.63"/><polygon class="cls-14" points="156.45 241.47 109.85 255.5 109.85 252.76 156.45 238.73 156.45 241.47"/><polygon class="cls-14" points="156.45 248.31 109.85 262.34 109.85 259.6 156.45 245.57 156.45 248.31"/><polygon class="cls-14" points="203.04 241.12 109.85 269.18 109.85 266.44 203.04 238.38 203.04 241.12"/><polygon class="cls-14" points="203.04 247.96 109.85 276.02 109.85 273.29 203.04 245.23 203.04 247.96"/><polygon class="cls-14" points="203.04 254.81 109.85 282.87 109.85 280.13 203.04 252.07 203.04 254.81"/><polygon class="cls-14" points="109.85 193.92 140.57 184.67 140.57 120.36 109.85 129.61 109.85 193.92"/><polygon class="cls-14" points="159.74 247.32 203.04 234.28 203.04 176.81 159.74 189.85 159.74 247.32"/><path class="cls-15" d="M346.87,91.16,224.27,60.71s-6.44,2.71-9.56,2.33L273,111.74s40.37,5.23,41.4,3.49S346.87,91.16,346.87,91.16Z"/><polygon class="cls-16" points="346.88 302.85 331.25 309.84 331.25 98.15 346.88 91.16 346.88 302.85"/><polygon class="cls-17" points="214.71 274.75 331.25 309.84 331.25 98.13 214.71 63.04 214.71 274.75"/><polygon class="cls-18" points="214.78 274.75 331.32 309.84 331.32 98.13 214.78 63.04 214.78 274.75"/><polygon class="cls-14" points="226.46 97.64 319.64 125.7 319.64 110.45 226.46 82.39 226.46 97.64"/><polygon class="cls-14" points="226.46 104.28 285.08 121.94 285.08 119.2 226.46 101.55 226.46 104.28"/><polygon class="cls-14" points="226.46 111.13 285.08 128.78 285.08 126.04 226.46 108.39 226.46 111.13"/><polygon class="cls-14" points="226.46 117.97 285.08 135.62 285.08 132.88 226.46 115.23 226.46 117.97"/><polygon class="cls-14" points="226.46 124.81 285.08 142.46 285.08 139.72 226.46 122.07 226.46 124.81"/><polygon class="cls-14" points="226.46 131.65 285.08 149.3 285.08 146.57 226.46 128.91 226.46 131.65"/><polygon class="cls-14" points="226.46 138.49 285.08 156.14 285.08 153.41 226.46 135.76 226.46 138.49"/><polygon class="cls-14" points="226.46 145.34 285.08 162.99 285.08 160.25 226.46 142.6 226.46 145.34"/><polygon class="cls-14" points="226.46 152.18 285.08 169.83 285.08 167.09 226.46 149.44 226.46 152.18"/><polygon class="cls-14" points="226.46 159.02 285.08 176.67 285.08 173.93 226.46 156.28 226.46 159.02"/><polygon class="cls-14" points="226.46 165.86 285.08 183.51 285.08 180.78 226.46 163.13 226.46 165.86"/><polygon class="cls-14" points="226.46 172.7 319.64 200.76 319.64 198.03 226.46 169.97 226.46 172.7"/><polygon class="cls-14" points="273.05 193.57 319.64 207.6 319.64 204.87 273.05 190.84 273.05 193.57"/><polygon class="cls-14" points="273.05 200.42 319.64 214.45 319.64 211.71 273.05 197.68 273.05 200.42"/><polygon class="cls-14" points="273.05 207.26 319.64 221.29 319.64 218.55 273.05 204.52 273.05 207.26"/><polygon class="cls-14" points="273.05 214.1 319.64 228.13 319.64 225.39 273.05 211.36 273.05 214.1"/><polygon class="cls-14" points="273.05 220.94 319.64 234.97 319.64 232.24 273.05 218.21 273.05 220.94"/><polygon class="cls-14" points="273.05 227.78 319.64 241.81 319.64 239.08 273.05 225.05 273.05 227.78"/><polygon class="cls-14" points="273.05 234.63 319.64 248.66 319.64 245.92 273.05 231.89 273.05 234.63"/><polygon class="cls-14" points="273.05 241.47 319.64 255.5 319.64 252.76 273.05 238.73 273.05 241.47"/><polygon class="cls-14" points="273.05 248.31 319.64 262.34 319.64 259.6 273.05 245.57 273.05 248.31"/><polygon class="cls-14" points="226.46 241.12 319.64 269.18 319.64 266.44 226.46 238.38 226.46 241.12"/><polygon class="cls-14" points="226.46 247.96 319.64 276.02 319.64 273.29 226.46 245.23 226.46 247.96"/><polygon class="cls-14" points="226.46 254.81 319.64 282.87 319.64 280.13 226.46 252.07 226.46 254.81"/><polygon class="cls-14" points="319.64 193.92 288.93 184.67 288.93 120.36 319.64 129.61 319.64 193.92"/><polygon class="cls-14" points="269.76 247.32 226.46 234.28 226.46 176.81 269.76 189.85 269.76 247.32"/><polygon class="cls-19" points="73.16 303.81 76.77 303.87 76.77 87.66 73.16 87.61 73.16 303.81"/><polygon class="cls-20" points="214.71 58.56 213.13 57.36 73.16 87.61 76.77 89.11 214.71 58.56"/><path class="cls-21" d="M226,59.49A36.41,36.41,0,0,0,215.8,57.3c-1.39-.13-5.67-.24-12.27,2.11a7.87,7.87,0,0,0,1.2,1h0a14.63,14.63,0,0,0,6.06,2.28A19.6,19.6,0,0,0,226,59.49Z"/><polygon class="cls-22" points="221.56 61.72 341.17 93.71 342.98 304.59 339.06 307.69 339.06 94.65 221.56 61.72"/><path class="cls-23" d="M308.87,339.61l-93-32.59,73.62-40.62,95.08,34-71.48,38.86A5.28,5.28,0,0,1,308.87,339.61Z"/><path class="cls-12" d="M223.14,271.74s14,16.17-2.19,33.86l87.58,32.91a6,6,0,0,0,6.27-1.3l3.18-3.07s11-30.25,11-31-22.07-18.64-22.07-18.64-36.34-4.38-37.29-4.38S223.14,271.74,223.14,271.74Z"/><path class="cls-22" d="M318.36,328.62c-.57,0-65.06-21.31-65.06-21.31s64.3,23.38,64.49,22.8S318.36,328.62,318.36,328.62Z"/><path class="cls-24" d="M218.2,270.88v2l92.46,31.67a26.82,26.82,0,0,1,5.14,16.84c-.57,9.7-2.67,17.37-5.71,17.47a6,6,0,0,0,2.89-.44,38.19,38.19,0,0,0,3.23-2.62s3.83-17.26,4-17.69-2-14.51-3.47-15.55-.24-2.71-7.23-4-62.07-26-63.4-25.68-12.75-.19-13.36,0S218.2,270.88,218.2,270.88Z"/><path class="cls-25" d="M312.08,303.7s11.77,20,0,36l78.38-42.47s9.23-18.93-2.66-30.82Z"/><polygon class="cls-26" points="312.08 303.7 218.19 270.88 302.95 242.06 387.79 266.41 312.08 303.7"/><path class="cls-22" d="M297,310.16l-68.32-23.77q0,.75,0,1.53Z"/><path class="cls-22" d="M228,293.48q-.28,1-.68,2.12L277.41,312Z"/><path class="cls-27" d="M297.12,293.34l94.83-28.16-71.29-35.1-97,29.37L292.87,293A6,6,0,0,0,297.12,293.34Z"/><path class="cls-12" d="M386.75,234.69s-14.91,14,.24,29.26l-89.47,28.44a6.47,6.47,0,0,1-6.19-1.12l-3-2.66s-9.29-26.14-9.25-26.79,23.14-16.11,23.14-16.11,36.59-3.78,37.54-3.78S386.75,234.69,386.75,234.69Z"/><path class="cls-22" d="M288.26,283.84c.57,0,66.29-18.41,66.29-18.41s-65.65,20.2-65.8,19.71S288.26,283.84,288.26,283.84Z"/><path class="cls-28" d="M391.75,233.95l-.11,1.73L297.35,263s-6.12,6.16-6.1,14.55,1.67,15,4.71,15.1a6.73,6.73,0,0,1-2.87-.38A34.2,34.2,0,0,1,290,290s-2.84-14.92-3-15.29,2.83-12.53,4.37-13.44.39-2.34,7.46-3.45,63.56-22.48,64.87-22.19,12.76-.16,13.36,0S391.75,233.95,391.75,233.95Z"/><path class="cls-29" d="M296,262.3s-12.92,17.26-2.07,31.11L218,256.71s-8.14-16.36,4.44-26.63Z"/><polygon class="cls-30" points="295.98 262.3 391.75 233.95 308.65 209.04 222.41 230.08 295.98 262.3"/><path class="cls-22" d="M310.63,267.89l69.69-20.54q-.08.65-.11,1.32Z"/><path class="cls-22" d="M380.69,253.48a17.91,17.91,0,0,0,.56,1.83l-51.08,14.14Z"/><path class="cls-31" d="M235.17,235.67s-12.78,13.34-2.79,28l5.66,2.71s-7.27-17.58,3.53-27.94Z"/><path class="cls-32" d="M319,258.94l-79-26.8,57.51-33.26,80.84,28-55.88,31.83A4.27,4.27,0,0,1,319,258.94Z"/><path class="cls-12" d="M243.23,203.2S256,216.47,244,231L318.6,258a4.69,4.69,0,0,0,5.06-1.06l2.38-2.52s6.78-24.8,6.72-25.43-19.58-15.31-19.58-15.31-30.24-3.62-31-3.62S243.23,203.2,243.23,203.2Z"/><path class="cls-22" d="M325.93,249.93c-.47,0-55.17-17.53-55.17-17.53s54.7,19.23,54.82,18.76S325.93,249.93,325.93,249.93Z"/><path class="cls-33" d="M239.1,202.49l.15,1.64,78.51,26.06A24.09,24.09,0,0,1,323.27,244c.27,8-.88,14.25-3.38,14.33a4.79,4.79,0,0,0,2.35-.36,27.35,27.35,0,0,0,2.46-2.15s1.84-14.16,2-14.51-2.75-11.9-4-12.76-.4-2.22-6.25-3.28-53.06-21.39-54.13-21.12-10.51-.17-11,0S239.1,202.49,239.1,202.49Z"/><path class="cls-34" d="M318.87,229.48s11.21,16.4,2.74,29.54l61.28-34.78S389,208.72,378.35,199Z"/><polygon class="cls-3" points="318.87 229.48 239.1 202.49 306.67 178.91 378.36 198.95 318.87 229.48"/><path class="cls-22" d="M307,234.78l-58-19.55q.09.62.13,1.25Z"/><path class="cls-22" d="M248.85,221q-.15.86-.4,1.74L291,236.24Z"/><polygon class="cls-35" points="312.03 221.45 265.86 205.25 274.98 201.28 323.9 215.78 312.03 221.45"/><path class="cls-36" d="M257.76,224.26s-4.76,4.83-2.59,11.34c0,0,1.45-3.38,2.9-4.34,0,0-.24,4.1,1.45,5.79,0,0,1.49-9.09,6.05-10Z"/><path class="cls-37" d="M312.08,277.29a12.24,12.24,0,0,1,2.69,7.77,14.49,14.49,0,0,0,2-3.89,6.1,6.1,0,0,1,2.57,2.68s1.8-4.6-.06-8.57Z"/><path class="cls-38" d="M266.87,299.66s-4.94,6.63-3.25,17.25a15.5,15.5,0,0,1,5.55-6.76s1.69,7,2.65,9.41c0,0,3.86-14.08,8.44-15.24Z"/><path class="cls-39" d="M146.93,33.65c6.08,1.73,27.49-3.19,34.5-4.9l.25-.12,2.48-1.73c2.05-1.36,4.15-2.93,4.37-2.84s.31.41-1.36,2.77a.24.24,0,0,0,.18.37c1.45.05,6,.25,6.1.63s-4,.37-4.15.76,3.84.37,3.86.86-3.63.39-3.69.6,3.41.68,3.59,1-3.59.24-3.74.47,2.44,1.13,2.39,1.36.61.16-5.81-.19c0,0-1.61-.13-2.22-.22l-1.59.73c-12.93,7.5-37.38,8.19-37.38,8.19Z"/><path class="cls-40" d="M131.38,29s-3,2.82-4.84.86c0,0-5.35,1.16-4.91-3.55a5.59,5.59,0,0,1-2.3-6.44s-3.27-3,.31-6.42c0,0-2.36-4,2.17-5.38,0,0,.59-6.89,7-5,0,0,4.85-5.23,9-1.94,0,0,4.36-1.44,6.18,3.58,0,0,4.63,1.55,2.94,7.24,0,0,4.5,5,1.52,10,0,0,1.58,6.72-6,5.86S131.38,29,131.38,29Z"/><path class="cls-3" d="M152.56,42.86s-7.91,2.78-14.54,1a2.8,2.8,0,0,1-2.09-2.71c0-1.34-2.41-6.9.34-7.66,5.91-1.62,14.64-1.22,14.64-1.22S153.71,36.32,152.56,42.86Z"/><path class="cls-3" d="M131,31.74s-6.58,1.17-8.88,3.81S114,67.47,115.38,72.7l27.82-4s3-23.39,2.39-30.13-8-6.47-8-6.47Z"/><path class="cls-30" d="M145.57,44.32c.1-3.54,0-6,0-6A27.75,27.75,0,0,1,145.57,44.32Z"/><path class="cls-30" d="M121.28,53.61a6.62,6.62,0,0,0,2.62.57A23.51,23.51,0,0,0,126.73,43,118,118,0,0,0,121.28,53.61Z"/><path class="cls-41" d="M162.83,96.48l-1.17,4.06a.63.63,0,0,0,.43.78l9.52,2.72a.72.72,0,0,0,.74-1.16l-4.8-5.47S165.45,98.88,162.83,96.48Z"/><path class="cls-42" d="M145.46,69.36s19.1-5.37,21.34-5.13c2.48.27,9.32,4.47,1.58,34.33,0,0-3.72,1.19-6-1.39l.15-17s-13.82,7.57-18.08,5.73S145.46,69.36,145.46,69.36Z"/><path class="cls-43" d="M132.15,96.37l-2.55,3.37a.63.63,0,0,0,.12.88l7.9,6a.72.72,0,0,0,1.1-.82l-2.5-6.83S133.73,99.56,132.15,96.37Z"/><path class="cls-30" d="M116.08,72.6s-.37,19.57,19.47,12.19l-4,12.3s2.84,2.91,4.82,2.56c1.82-.32,20.67-23.28,9.72-31.4a9.42,9.42,0,0,0-5.47-1.8C135.7,66.38,122.81,66.77,116.08,72.6Z"/><path class="cls-39" d="M131.12,34.62h0l-.17-6.44,6.38-.07,1.29,5.62S135,37.85,131.12,34.62Z"/><path class="cls-44" d="M138.19,31.87l-.86-3.76-6.38.07.09,3.16C132.42,32.45,134.82,33.48,138.19,31.87Z"/><path class="cls-44" d="M143.28,19.81a1.65,1.65,0,1,0,3.17.58,1.65,1.65,0,1,0-3.17-.58Z"/><path class="cls-39" d="M144.21,25.74a8.34,8.34,0,0,0,.35-1.51,15.82,15.82,0,0,0,0-4c0-.26,0-.52,0-.79a8.6,8.6,0,1,0-17,2,1.86,1.86,0,0,0-1.67.21,2.31,2.31,0,0,0-.16,3.23,2.32,2.32,0,0,0,3.12.86,1.65,1.65,0,0,0,.33-.32A8,8,0,0,0,138.5,31a7.74,7.74,0,0,0,4.68-3.2,3.81,3.81,0,0,0,.23-.33A7.44,7.44,0,0,0,144.21,25.74Z"/><path class="cls-44" d="M137.82,19.22c.15.47.28.93.43,1.38a3.18,3.18,0,0,0,.59,1.16l0,0,.06,0a1.17,1.17,0,0,1,.17.14,1,1,0,0,1,.24.4,1,1,0,0,1-.15.86,1.66,1.66,0,0,1-1.35.67,2.05,2.05,0,0,0,1-.86.65.65,0,0,0,0-.52.54.54,0,0,0-.14-.2.74.74,0,0,0-.11-.08l-.08-.06-.09-.07a1.91,1.91,0,0,1-.43-.69,4,4,0,0,1-.2-.73A5.11,5.11,0,0,1,137.82,19.22Z"/><circle class="cls-45" cx="134.51" cy="20.77" r="0.75" transform="translate(-1.27 30.16) rotate(-12.74)"/><circle class="cls-45" cx="140.89" cy="19.76" r="0.75" transform="translate(-0.89 31.55) rotate(-12.74)"/><path class="cls-40" d="M135.71,18.72a7.76,7.76,0,0,0-1.13,0,3.82,3.82,0,0,0-1,.25,3.54,3.54,0,0,0-.9.52c-.15.1-.27.24-.42.35s-.26.27-.42.4a3.15,3.15,0,0,1,.19-.57,2.56,2.56,0,0,1,.33-.51,2.43,2.43,0,0,1,1-.74,2.54,2.54,0,0,1,1.23-.17A2.31,2.31,0,0,1,135.71,18.72Z"/><path class="cls-40" d="M139,18.2a2.32,2.32,0,0,1,.92-.78,2.54,2.54,0,0,1,1.22-.25,2.42,2.42,0,0,1,1.19.36,2.55,2.55,0,0,1,.48.37,3.13,3.13,0,0,1,.37.47c-.19-.07-.36-.16-.53-.23s-.34-.15-.51-.19a3.53,3.53,0,0,0-1-.19,3.82,3.82,0,0,0-1,.1A7.77,7.77,0,0,0,139,18.2Z"/><path class="cls-39" d="M123.57,48.59c-3.83,5-7.06,26.81-8,34l0,.27.71,2.94c.51,2.41,1.21,4.94,1,5.11s-.49.14-2.08-2.28a.24.24,0,0,0-.41,0c-.58,1.34-2.43,5.53-2.81,5.46s1.12-3.87.81-4.15-1.74,3.45-2.2,3.29,1-3.53.79-3.66-1.87,2.94-2.2,3,1.09-3.44.93-3.66-1.94,1.87-2.14,1.74-.37.51,2.29-5.35c0,0,.71-1.45,1-2l-.1-1.75c-2.25-14.8,6-37.87,6-37.87Z"/><path class="cls-3" d="M113.51,50.61s2.06-11.38,8.49-15.46c2.72-1.73,4.28-2.38,5.5-1.67s-1.51,3.51-1,6.62c1.11,6.18-2.88,13.93-2.88,13.93A28.72,28.72,0,0,1,113.51,50.61Z"/><path class="cls-40" d="M128,11.27l-.1,5.56,12.92-3.49a9.3,9.3,0,0,0,1.67,1.19c.21,0,1.85-.78,1.78-1s-4.74-6.09-4.74-6.09-4.28,1.09-4.67,1.21S128,11.27,128,11.27Z"/><path class="cls-46" d="M127.36,19.37A18.33,18.33,0,0,1,144,16.63a12.66,12.66,0,0,0-.5-2.63s-6.84-4.42-16.46,2.59C127.05,16.59,126.54,17.32,127.36,19.37Z"/><path class="cls-47" d="M141.3,24.65a3.06,3.06,0,0,1-5.87.53Z"/><path class="cls-40" d="M95.86,315v4.39a.66.66,0,0,1-.66.66H84.91a.74.74,0,0,1-.4-1.37L90.15,315A5.78,5.78,0,0,0,95.86,315Z"/><path class="cls-40" d="M118.57,315v4.39a.66.66,0,0,0,.66.66h10.3a.74.74,0,0,0,.4-1.37L124.28,315A5.78,5.78,0,0,1,118.57,315Z"/><polygon class="cls-39" points="106.59 204.05 106.56 211.23 113.55 210.16 112.38 202.08 106.59 204.05"/><path class="cls-48" d="M115.92,209.34a28.33,28.33,0,0,1,9.08,4.32c4.12,3.1,12.42,9.08,12,15.17s-7,15.61-7,15.61l-2.2-4.56s2-10.71,1.54-11.11l-9-8.1Z"/><path class="cls-42" d="M127.4,251.28c0-.8,2.07,1.56,2,.92-.82-13.28-26.81-2.15-26.81-2.15l-6.35,4.65L88,316.23a15.25,15.25,0,0,0,7.92.48l15.53-53,2-.75S122,256.93,127.4,251.28Z"/><path class="cls-42" d="M129.43,249.18c-5.36,5.64-16.06,13.79-16.06,13.79h0l5.2,53.36s5.13.75,7.58-.57C126.16,315.76,129.78,265,129.43,249.18Z"/><path class="cls-30" d="M96.27,254.71l-1,8.79c2.71,1,9.3,2.16,14.27-8.69,1.57-3.42,2-5.89,1.68-7.65a70.62,70.62,0,0,0-8.58,2.91Z"/><path class="cls-3" d="M120.12,218.84c-.22,0-2.67-5.41-4-8.34a1.9,1.9,0,0,0-2.41-1,12,12,0,0,1-7.49,0s-11.8,41.19-6.93,44.43c12.76,8.48,27.41-1.3,27.41-1.3s1.88-7.7,1.88-8S120.42,218.84,120.12,218.84Z"/><path class="cls-49" d="M106.24,209.48a27.54,27.54,0,0,1-2.47,3.28c-1.53-.28-5.74-4-6.46,8.39.4,3.8-3.21,34.5-3.21,34.5,9.81,4.6,12.57,1.91,12.57,1.91C108.67,248.26,106.24,209.48,106.24,209.48Z"/><path class="cls-50" d="M106.24,209.48a43.27,43.27,0,0,0-11,3c-4.65,2.2-12.9,6.61-12.57,12.77s12.17,19.18,12.17,19.18l1.79-1.79,1.59-2.42-8.15-14.37,10.45-4.36Z"/><path class="cls-51" d="M117.21,210.16c3,3.27,8.94,13.42,13.68,44.33A27.5,27.5,0,0,1,119.62,258s-1.56-40.89-6-48.47h0A3,3,0,0,1,117.21,210.16Z"/><path class="cls-39" d="M127,238.53a8.42,8.42,0,0,1,3,4.6l.06.25c.31,1.33-.37,1.59-.71,1.65a.26.26,0,0,1-.26-.14c-.1-.18-.22-.42-.41-.73-1.11-1.79-2.4,1.14-2.78.42-.49-.91,1.65-1.7,1.36-2.16-.53-.87-1.76,1.13-2.17.59s2-1.16,1.38-2.17c-.32-.54-1.93,1.17-2.12.45s1.83-1.07,1.48-1.69c-.53-.91-1.66,1.13-2.11.49C123.43,239.7,125.89,237.78,127,238.53Z"/><path class="cls-52" d="M112.92,205.8l-.54-3.72-5.8,2.65v1.42A10.56,10.56,0,0,0,112.92,205.8Z"/><polygon class="cls-42" points="116.61 189.4 117.03 194.33 116.25 194.82 114.81 188.82 116.61 189.4"/><ellipse class="cls-44" cx="117.18" cy="194.13" rx="2.06" ry="1.65" transform="matrix(0.19, -0.98, 0.98, 0.19, -95.52, 272.71)"/><path class="cls-39" d="M116.48,199.92a8.55,8.55,0,0,0,.37-1.54,16.25,16.25,0,0,0,.07-4.14c0-.27,0-.54,0-.81a8.8,8.8,0,1,0-17.44,1.93,1.91,1.91,0,0,0-1.71.21,2.65,2.65,0,0,0,3,4.22,1.68,1.68,0,0,0,.34-.32,8.26,8.26,0,0,0,9.53,5.8,7.9,7.9,0,0,0,4.82-3.24,3.89,3.89,0,0,0,.24-.33A7.61,7.61,0,0,0,116.48,199.92Z"/><circle class="cls-45" cx="106.58" cy="194.72" r="0.77" transform="translate(-38.88 27.04) rotate(-12.25)"/><circle class="cls-45" cx="113.12" cy="193.74" r="0.77" transform="translate(-38.52 28.41) rotate(-12.25)"/><path class="cls-42" d="M107.91,192.88a7.22,7.22,0,0,0-1.15-.12,3.8,3.8,0,0,0-1.07.13,3.52,3.52,0,0,0-1,.43,10.88,10.88,0,0,0-.94.67,2.54,2.54,0,0,1,.67-1,2.5,2.5,0,0,1,1.11-.62,2.62,2.62,0,0,1,1.27,0A2.43,2.43,0,0,1,107.91,192.88Z"/><path class="cls-42" d="M111,192.37a2.42,2.42,0,0,1,.86-.88,2.62,2.62,0,0,1,1.21-.38,2.5,2.5,0,0,1,1.25.23,2.56,2.56,0,0,1,1,.75,10.74,10.74,0,0,0-1.11-.34,3.52,3.52,0,0,0-1.07-.09,3.79,3.79,0,0,0-1.05.22A7.21,7.21,0,0,0,111,192.37Z"/><path class="cls-42" d="M115.69,184.14s2.59-.5-.6-2.06-11-2.47-15.11,1c0,0-1.38-1.76-2.61-1s1.29,1.63,1.29,1.63-1.73.33-2.06,1.29c-.25.71.81.5,1.38.34-.94.39-3.7,3-.11,10.1.63-.3,4.74-6.14,4.74-6.14s8.25,2.71,6.75.46c0,0,9.62,2.42,7.29-1.94C116.63,187.87,120.17,187.33,115.69,184.14Z"/><path class="cls-42" d="M102.59,189.34c.13.48-2.14,5.61-3.17,6a12.91,12.91,0,0,0-1.57.12c-.25-1.46,2.22-5.54,2.22-5.54Z"/><path class="cls-44" d="M109.77,192.5a5.9,5.9,0,0,0,.09,1.65,4.55,4.55,0,0,0,.23.82,2.15,2.15,0,0,0,.49.77c.27.21.4.28.48.48a.74.74,0,0,1,0,.6,2.29,2.29,0,0,1-1.14,1,1.87,1.87,0,0,0,1.5-.77,1.13,1.13,0,0,0,.16-1,1.4,1.4,0,0,0-.6-.7,2,2,0,0,1-.39-.58,6.91,6.91,0,0,1-.29-.72C110.09,193.54,109.94,193,109.77,192.5Z"/><path class="cls-53" d="M93,230.84c-.9-1.55-1.8-3.09-2.72-4.62l-.23-.38.72-.27c.94-.35,1.87-.72,2.8-1.09s1.85-.76,2.77-1.16,1.83-.81,2.73-1.26c-1,.3-1.9.64-2.84,1s-1.87.72-2.8,1.09-1.85.76-2.77,1.16-1.83.81-2.73,1.26c.62-.2,1.24-.41,1.85-.63l.24.43c.87,1.56,1.76,3.11,2.65,4.66s1.8,3.09,2.72,4.62,1.85,3.06,2.81,4.57q-1.25-2.37-2.56-4.71C94.8,233.94,93.91,232.39,93,230.84Z"/><path class="cls-39" d="M99.55,242a.17.17,0,0,1,.09-.29c2-.43,2.17-.58,2.07-.8a22.26,22.26,0,0,0-3.51-.73h0l-1,1.66-1.68,1.88h0l.16.22c3.23,3.32,3.31,3.23,3.45,3.13s-.8-1.84-.6-1.89,2.17,1.82,2.21,1.58-1.57-2.18-1.44-2.26,2,1.75,2.25,1.49-1.9-2.2-1.63-2.34,2.4,1.9,2.57,1.63S100.3,242.76,99.55,242Z"/><path class="cls-53" d="M94.85,244.43l.89-1c.29-.34.59-.68.87-1s.57-.7.84-1.05c.13-.18.27-.36.39-.55s.25-.37.38-.56a7.38,7.38,0,0,1-.65,1.19,12.81,12.81,0,0,1-.81,1.09c-.29.35-.59.68-.91,1A13.21,13.21,0,0,1,94.85,244.43Z"/><path class="cls-47" d="M112.88,199.13a2.64,2.64,0,0,1-4.82.9Z"/><path class="cls-54" d="M259.92,42.93s-6-.57-9.95,2.29-8.59,7.69-18.65,4.69c0,0,4.75,5.72,11.07,6.33s4.61-4.47,19-1.47l-.71-6.09Z"/><polygon class="cls-39" points="290.42 138.43 291.31 197.2 292.81 201.44 297.32 197.21 301.62 136.93 290.42 138.43"/><path class="cls-39" d="M317.31,140.43H306s5.27,56.44,5.24,56.79a17.67,17.67,0,0,0,1.9,2.89l4.1-2.88Z"/><polygon class="cls-39" points="290.42 138.43 291.31 197.2 292.81 201.44 297.32 197.21 301.62 136.93 290.42 138.43"/><path class="cls-39" d="M317.31,140.43H306s5.27,56.44,5.24,56.79a17.67,17.67,0,0,0,1.9,2.89l4.1-2.88Z"/><path class="cls-12" d="M291.08,181.56l.24,15.65,1.5,4.24,4.51-4.24,1.13-15.79A9.59,9.59,0,0,1,291.08,181.56Z"/><path class="cls-12" d="M309.87,181.55c.81,8.8,1.43,15.54,1.41,15.66a17.67,17.67,0,0,0,1.9,2.89l4.1-2.88V181.63A12.21,12.21,0,0,1,309.87,181.55Z"/><path class="cls-42" d="M288.75,141.31a23.75,23.75,0,0,0,13.67,1.4h0l.77-8.26c.57.5.92.74.92.74l.73,7.25h0a28.31,28.31,0,0,0,13.53.86c0-3.23,0-6.08,0-8.37-.14-16.51-5.24-18.93-5.24-18.93l-8.69-2.2-1.91.33c-3-1-8.53-2.14-10.8,1.65-3.21,5.37-3,21.93-3,21.93S288.73,139,288.75,141.31Z"/><path class="cls-39" d="M294.58,99.21l-8.15-3.78.74,8.63s-15.42-7-16.2-7.72a5,5,0,0,1-.84-1.57,15.91,15.91,0,0,1-.68-2.34A5.26,5.26,0,0,0,267.81,90a4.9,4.9,0,0,1-.69-1.33.25.25,0,0,0-.49,0l-.08.54a2.74,2.74,0,0,0,.22,1.37l-.21-.08-.36,3.63.43,3.17,2.44,1.84s21.49,15.48,23.45,13.46C294.65,110.42,294.58,99.21,294.58,99.21Z"/><path class="cls-55" d="M297.32,197.21v4.48a.68.68,0,0,1-.69.67H285.81a.75.75,0,0,1-.42-1.4l5.93-3.74A6.23,6.23,0,0,0,297.32,197.21Z"/><path class="cls-56" d="M317.28,197.22v4.48a.68.68,0,0,1-.69.67H305.77a.75.75,0,0,1-.42-1.4l5.93-3.74A6.23,6.23,0,0,0,317.28,197.22Z"/><path class="cls-57" d="M292.74,81s-1.67.4-4.09,3.38-4.57,11.25-4.57,11.25l7.71,4.21,5-10Z"/><path class="cls-3" d="M314.55,128.61c-.81.3-1.61.62-2.41,1s-1.58.71-2.35,1.08-1.55.76-2.32,1.16-1.53.8-2.28,1.22l-.06-.14a16.09,16.09,0,0,1,1.71-.26c.57-.06,1.15-.08,1.73-.08a13.88,13.88,0,0,1,1.72.1l.43.06.42.08.21,0,.21.05.42.1-.42-.08-.21,0-.21,0-.43-.06-.43,0-.43,0-.43,0h-.86c-.57,0-1.14.05-1.71.11a16,16,0,0,0-1.69.27l-.51.11.45-.26q1.13-.64,2.28-1.23t2.33-1.14c.78-.37,1.58-.71,2.38-1,.4-.16.81-.32,1.21-.46S314.14,128.74,314.55,128.61Z"/><path class="cls-3" d="M291.74,128.27c.41.13.83.27,1.23.42s.81.3,1.21.46c.8.33,1.6.67,2.38,1s1.56.75,2.33,1.15,1.53.81,2.28,1.23l.45.26-.51-.11a16,16,0,0,0-1.69-.27c-.57-.06-1.14-.1-1.71-.12h-.86l-.43,0-.43,0-.43,0-.43.06-.21,0-.21,0-.42.08.42-.1.21,0,.21,0,.42-.08.43-.06a13.93,13.93,0,0,1,1.72-.1c.58,0,1.15,0,1.73.08a16.15,16.15,0,0,1,1.71.26l-.06.14c-.75-.42-1.51-.82-2.28-1.23s-1.54-.79-2.31-1.16-1.56-.74-2.35-1.08S292.55,128.57,291.74,128.27Z"/><path class="cls-58" d="M293.48,118.74c.71.12,1.41.23,2.12.32s1.42.17,2.13.24c1.43.14,2.86.23,4.29.26.72,0,1.43,0,2.15,0s1.43-.06,2.14-.12,1.42-.14,2.13-.26,1.41-.26,2.1-.44c-.69.2-1.39.35-2.09.48s-1.42.21-2.13.28-1.43.1-2.15.13-1.43,0-2.15,0c-1.43,0-2.87-.13-4.29-.28q-1.07-.11-2.13-.27C294.89,119,294.18,118.88,293.48,118.74Z"/><path class="cls-59" d="M312.19,65.71s1.52-7.87-2.91-10.65a11.37,11.37,0,0,0-12.06-.42c-3.06,1.86-5.77,7.78-2.06,13.45l9.14-5.67Z"/><path class="cls-60" d="M309.61,121.41a2.09,2.09,0,0,0,.11.24l.12.24.25.47.42.78,1.19,2.07c.16.31,1.73,3,2.1,3.64a15.82,15.82,0,0,1-1.39-1.7c-.19-.3-.36-.61-.54-.92s-.34-.62-.51-.94c-.33-.63-.65-1.26-.94-1.91-.15-.32-.29-.65-.43-1l-.2-.49A4.28,4.28,0,0,1,309.61,121.41Z"/><path class="cls-61" d="M324.79,90.59c-3.5-4.23-7.23-8.14-10.59-10.25-2.81-1.76-7.47-2.24-8.57-2.23-2.73-.34-4.72-.49-6.19.26-4.37.61-9,3.06-9,4.6-.3,7.67-.39,13.56-.35,18.07,0,0-.14,16.35,0,19.84,0,0,17.76,3.84,26.85,1.54,0,0,1.51-21.37-.64-27.14l.92,1.17S320.81,95.62,324.79,90.59Z"/><path class="cls-39" d="M324.26,91.25a16.74,16.74,0,0,1-6.42,5l8.58,10.29L310.7,123.45l2.76,4.82c2.19-1.06,2.68-5.08,2.68-5.08s19.45-13,19.46-16.1C335.6,102.92,324.26,91.25,324.26,91.25Z"/><path class="cls-40" d="M324.39,91.05c-.14.15-.26.31-.4.46l-.42.44-.21.22-.22.21-.44.42-.45.4c-.3.27-.63.51-.94.76a16.81,16.81,0,0,1-2,1.3l-.27.14-.27.13-.55.25-.28.11-.28.11-.39.13L316.32,95l-1.07-1.26c-.71-.84-1.43-1.67-2.15-2.5s-1.45-1.65-2.19-2.47-1.48-1.63-2.25-2.42c.65.88,1.33,1.75,2,2.62s1.37,1.72,2.06,2.58,1.39,1.7,2.1,2.54l1.06,1.26,1.07,1.26.12.14.17,0a6.51,6.51,0,0,0,.62-.2l.59-.24L319,96l.28-.14.27-.15a14.8,14.8,0,0,0,2-1.42l.46-.41c.16-.13.3-.28.45-.43l.43-.44.41-.46.2-.23.19-.24.37-.48c.24-.33.46-.67.69-1Z"/><path class="cls-39" d="M299.42,78.71s3.53,2.09,6.28,0h0l-.65-5.1-5.47-1.13-.16,6.23Z"/><g class="cls-62"><path class="cls-63" d="M299.5,75.81l.09-3.33,5.55,1.73.16,1.25A9.92,9.92,0,0,1,299.5,75.81Z"/></g><path class="cls-39" d="M295.64,71a7.43,7.43,0,0,1-.5-1.32,14,14,0,0,1-.51-3.64c0-.24,0-.48,0-.72a7.57,7.57,0,0,1,.31-3,8,8,0,0,1,7.72-5.54,7.9,7.9,0,0,1,8,8.41,1.79,1.79,0,0,1,1.57,0,2.06,2.06,0,0,1,.53,2.89,2.2,2.2,0,0,1-2.8,1.13,1.53,1.53,0,0,1-.34-.25,7.5,7.5,0,0,1-8,6.1,7.3,7.3,0,0,1-4.72-2.35l-.25-.27A6.73,6.73,0,0,1,295.64,71Z"/><ellipse class="cls-45" cx="304.06" cy="65.39" rx="0.68" ry="0.7" transform="translate(210.71 362.06) rotate(-84.67)"/><ellipse class="cls-45" cx="298.02" cy="65.22" rx="0.68" ry="0.7" transform="translate(205.46 355.91) rotate(-84.68)"/><path class="cls-64" d="M302.65,63.91a6.8,6.8,0,0,1,1-.23,3.59,3.59,0,0,1,1,0,3.29,3.29,0,0,1,.94.27l.12,0,.11.06.23.12c.15.08.3.19.47.27a3,3,0,0,0-.31-.45,2.52,2.52,0,0,0-.42-.38,2.33,2.33,0,0,0-1.07-.43,2.47,2.47,0,0,0-1.15.11A2.23,2.23,0,0,0,302.65,63.91Z"/><path class="cls-65" d="M299.82,63.78a2.2,2.2,0,0,0-.87-.68,2.46,2.46,0,0,0-1.14-.21,2.34,2.34,0,0,0-1.11.33,2.55,2.55,0,0,0-.45.34,3,3,0,0,0-.35.43c.18-.07.33-.16.49-.23l.24-.1.12,0,.12,0a3.3,3.3,0,0,1,1-.19,3.58,3.58,0,0,1,1,.09A6.72,6.72,0,0,1,299.82,63.78Z"/><path class="cls-44" d="M300.92,63.77a5.08,5.08,0,0,1,.1,1.46,3.89,3.89,0,0,1-.12.74,1.88,1.88,0,0,1-.36.73l-.08.08-.08.07a.78.78,0,0,0-.1.1.55.55,0,0,0-.13.22.64.64,0,0,0,.1.52,2.09,2.09,0,0,0,1.14.74,1.74,1.74,0,0,1-1.44-.53,1,1,0,0,1-.25-.83.76.76,0,0,1,.08-.22.89.89,0,0,1,.13-.2,1.19,1.19,0,0,1,.16-.16l.06-.06,0,0a1.79,1.79,0,0,0,.29-.55,5.92,5.92,0,0,0,.19-.67C300.75,64.72,300.83,64.25,300.92,63.77Z"/><path class="cls-47" d="M298.75,69.38a2.79,2.79,0,0,0,4.91-.08Z"/><path class="cls-66" d="M310.41,65.45a1.26,1.26,0,0,1,.83-.41l-.31-2.52L310.08,61s-3.23-4-3.34-4.07-2.51-1.33-2.66-1.39-3.41.56-3.41.56-5.82-1-4.73,2,5.37,4.41,5.58,4.26a5,5,0,0,1-.86-2.57C303.78,63,309.52,65.13,310.41,65.45Z"/><polygon class="cls-42" points="259.89 42.9 278.66 200.99 279.57 200.89 260.81 42.83 259.89 42.9"/><path class="cls-39" d="M264.44,93.85a5.89,5.89,0,0,1,.06-.85.93.93,0,0,1,.65-.7l.38-.11,0,.85h0c0,.65,0,.6.85,1,1.28.56.74,1.23.74,1.23s-.36.48-1.92-.31A1.55,1.55,0,0,1,264.44,93.85Z"/><path class="cls-39" d="M264.31,94.57a5.59,5.59,0,0,1,.06-.81.89.89,0,0,1,.62-.66l.36-.11,0,.81h0c0,.62,0,.57.81.94,1.22.53.71,1.17.71,1.17s-.34.45-1.83-.29A1.48,1.48,0,0,1,264.31,94.57Z"/><path class="cls-39" d="M264.51,95.54a4.71,4.71,0,0,1,.05-.68.75.75,0,0,1,.52-.56l.3-.09,0,.68h0c0,.52,0,.48.69.8,1,.45.6,1,.6,1s-.29.38-1.55-.25A1.25,1.25,0,0,1,264.51,95.54Z"/><path class="cls-39" d="M264.72,92.8a5.85,5.85,0,0,1,.06-.85.93.93,0,0,1,.65-.7l.38-.11,0,.85h0c0,.65,0,.6.85,1,1.28.56.74,1.23.74,1.23s-.36.48-1.92-.31A1.55,1.55,0,0,1,264.72,92.8Z"/><path class="cls-44" d="M265.85,92a2.51,2.51,0,0,0,0,.42.42.42,0,0,0,.28.28c.26.13.54.22.81.35l.19.11a1.49,1.49,0,0,1,.18.14.87.87,0,0,1,.26.38.64.64,0,0,1,0,.46l-.06.11a.35.35,0,0,1-.11.09.73.73,0,0,1-.23.08,1.43,1.43,0,0,1-.46,0,3.06,3.06,0,0,1-.44-.11,5.12,5.12,0,0,1-.81-.36,1.8,1.8,0,0,1-.61-.63,1.14,1.14,0,0,1-.13-.42,1,1,0,0,1,0-.22l0-.21v.21a1,1,0,0,0,0,.21,1.1,1.1,0,0,0,.15.39,1.73,1.73,0,0,0,.61.57,6.39,6.39,0,0,0,.8.33,1.94,1.94,0,0,0,.83.11.59.59,0,0,0,.18-.06l.06,0,0-.08a.51.51,0,0,0,0-.37.74.74,0,0,0-.22-.33,1.63,1.63,0,0,0-.16-.13l-.18-.11c-.25-.14-.53-.24-.79-.38a.8.8,0,0,1-.18-.13.35.35,0,0,1-.1-.2A2,2,0,0,1,265.85,92Z"/><path class="cls-44" d="M267,94.35a.77.77,0,0,1,.35.56.64.64,0,0,1-.09.34.23.23,0,0,1-.06.08l-.08.05a.71.71,0,0,1-.17.06,1.64,1.64,0,0,1-.7,0,4.26,4.26,0,0,1-.65-.22l-.31-.14a1.5,1.5,0,0,1-.29-.19,1.63,1.63,0,0,1-.44-.53,1.06,1.06,0,0,1-.12-.49v-.17a5.22,5.22,0,0,1,.1-.65c0,.22,0,.44,0,.66v.16a1.18,1.18,0,0,0,0,.16,1.13,1.13,0,0,0,.12.29,1.65,1.65,0,0,0,.43.47,1.46,1.46,0,0,0,.27.17l.3.14a4.3,4.3,0,0,0,.62.22,1.65,1.65,0,0,0,.64.06.38.38,0,0,0,.26-.13.58.58,0,0,0,.09-.29.6.6,0,0,0-.07-.3A1.18,1.18,0,0,0,267,94.35Z"/><path class="cls-44" d="M267,95.38a.55.55,0,0,1,0,.47.3.3,0,0,1-.07.11l-.11.07a.84.84,0,0,1-.25.06,2.3,2.3,0,0,1-1-.18l-.45-.2a1.49,1.49,0,0,1-.4-.29,1.54,1.54,0,0,1-.3-.39,1,1,0,0,1-.11-.46,1.3,1.3,0,0,0,.48.78,1.61,1.61,0,0,0,.39.25l.44.19a3.71,3.71,0,0,0,.45.14,1.76,1.76,0,0,0,.46.06.75.75,0,0,0,.22,0l.09,0a.25.25,0,0,0,.06-.08A.56.56,0,0,0,267,95.38Z"/><path class="cls-44" d="M266.63,96a.54.54,0,0,1,.19.39.51.51,0,0,1-.05.22l0,.05-.05,0-.11.06a1,1,0,0,1-.46,0,2.33,2.33,0,0,1-.44-.11l-.41-.17-.2-.11-.18-.14a1,1,0,0,1-.38-.77,1.14,1.14,0,0,0,.45.69l.17.12.19.09.4.16a2.33,2.33,0,0,0,.41.11,1,1,0,0,0,.41,0l.09,0,0,0,0,0a.45.45,0,0,0,.07-.18.45.45,0,0,0,0-.2A.78.78,0,0,0,266.63,96Z"/></g></g></g></svg>