<svg xmlns="http://www.w3.org/2000/svg" xmlns:xlink="http://www.w3.org/1999/xlink" viewBox="0 0 439.38 316.81"><defs><style>.cls-1{fill:none;}.cls-2{fill:url(#linear-gradient);}.cls-3{fill:url(#linear-gradient-2);}.cls-4{fill:#64a4ff;}.cls-5{fill:#bbd070;}.cls-6{fill:#97a43c;}.cls-7{fill:#48753a;}.cls-8{fill:#dbd8e3;}.cls-9{fill:#323657;}.cls-10{fill:#eea987;}.cls-11{fill:#e8734d;}.cls-12{fill:#c4c1cc;}.cls-13{fill:#efaa88;}.cls-14{fill:#eea886;}.cls-15{fill:#16202e;}.cls-16{fill:#a77860;}.cls-17{fill:#4da8f2;}.cls-18{fill:#ffc955;}.cls-19{clip-path:url(#clip-path);}.cls-20{fill:#96cbff;}.cls-21{fill:#95caff;}.cls-22{fill:#94c9ff;}.cls-23{fill:#93c9ff;}.cls-24{fill:#92c8ff;}.cls-25{fill:#91c7ff;}.cls-26{fill:#90c6ff;}.cls-27{fill:#8fc6ff;}.cls-28{fill:#8ec5ff;}.cls-29{fill:#8dc4ff;}.cls-30{fill:#8cc3ff;}.cls-31{fill:#8bc2ff;}.cls-32{fill:#8ac2ff;}.cls-33{fill:#89c1ff;}.cls-34{fill:#88c0ff;}.cls-35{fill:#87bfff;}.cls-36{fill:#86bfff;}.cls-37{fill:#85beff;}.cls-38{fill:#84bdff;}.cls-39{fill:#83bcff;}.cls-40{fill:#82bbff;}.cls-41{fill:#81bbff;}.cls-42{fill:#80baff;}.cls-43{fill:#7fb9ff;}.cls-44{fill:#7eb8ff;}.cls-45{fill:#7db7ff;}.cls-46{fill:#7cb7ff;}.cls-47{fill:#7bb6ff;}.cls-48{fill:#7ab5ff;}.cls-49{fill:#79b4ff;}.cls-50{fill:#78b4ff;}.cls-51{fill:#77b3ff;}.cls-52{fill:#76b2ff;}.cls-53{fill:#74b1ff;}.cls-54{fill:#73b0ff;}.cls-55{fill:#72b0ff;}.cls-56{fill:#71afff;}.cls-57{fill:#70aeff;}.cls-58{fill:#6fadff;}.cls-59{fill:#6eadff;}.cls-60{fill:#6dacff;}.cls-61{fill:#6cabff;}.cls-62{fill:#6baaff;}.cls-63{fill:#6aa9ff;}.cls-64{fill:#69a9ff;}.cls-65{fill:#68a8ff;}.cls-66{fill:#67a7ff;}.cls-67{fill:#66a6ff;}.cls-68{fill:#65a6ff;}.cls-69{fill:#64a5ff;}.cls-70{fill:#63a4ff;}.cls-71{fill:#62a3ff;}.cls-72{fill:#61a2ff;}.cls-73{fill:#60a2ff;}.cls-74{fill:#5fa1ff;}.cls-75{fill:#5ea0ff;}.cls-76{fill:#5d9fff;}.cls-77{fill:#5c9eff;}.cls-78{fill:#5b9eff;}.cls-79{fill:#5a9dff;}.cls-80{fill:#599cff;}.cls-81{fill:#589bff;}.cls-82{fill:#579bff;}.cls-83{fill:#569aff;}.cls-84{fill:#59f;}.cls-85{fill:#cfa345;}.cls-86{fill:#6069a8;}.cls-87{fill:#202338;}.cls-88{fill:#464240;}.cls-89{fill:#eb4747;}.cls-90{fill:#5f8cc9;}.cls-91{fill:#5e5853;}.cls-92{fill:#91887f;}.cls-93{fill:#eddad3;}.cls-94{fill:#6e6760;}.cls-95{fill:#807066;}.cls-96{fill:#ffcb55;}.cls-97{fill:#cf8c6c;}.cls-98{fill:#3b3f66;}.cls-99{fill:#555c94;}.cls-100{fill:#354c70;}.cls-101{fill:#deb135;}.cls-102{fill:#f2c344;}.cls-103{fill:#d9d0c4;}.cls-104{fill:#ffd255;}.cls-105{fill:#3c5780;}.cls-106{fill:#c48a6f;}.cls-107{clip-path:url(#clip-path-2);}.cls-108{fill:#db9c7c;}.cls-109{clip-path:url(#clip-path-3);}.cls-110{fill:#293b57;}.cls-111{fill:#e3f2ff;}.cls-112{fill:#ebebeb;}.cls-113{fill:#162d40;}.cls-114{fill:#1d3b54;}.cls-115{fill:#d1c0ba;}.cls-116{fill:#fae6de;}.cls-117{fill:#54281a;}.cls-118{fill:#366e9c;}.cls-119{fill:#5c544d;}.cls-120{fill:#3c4145;}.cls-121{fill:#fccca2;}.cls-122{fill:#e2d2ca;}.cls-123{fill:#f25f54;}.cls-124{fill:#c98462;}.cls-125{fill:#de9d7d;}.cls-126{fill:#252e3b;}.cls-127{fill:#5fa0ff;}.cls-128{fill:#5189db;}.cls-129{fill:#c2bebc;}.cls-130{fill:#d6d6d6;}.cls-131{fill:#e8e8e8;}.cls-132{fill:#c2c2c2;}</style><linearGradient id="linear-gradient" x1="314.08" y1="207.29" x2="439.38" y2="207.29" gradientUnits="userSpaceOnUse"><stop offset="0" stop-color="#96cbff"/><stop offset="1" stop-color="#59f"/></linearGradient><linearGradient id="linear-gradient-2" x1="409.11" y1="438.17" x2="502.67" y2="438.17" gradientTransform="matrix(0.99, -0.1, 0.1, 0.99, -383.74, -263.79)" xlink:href="#linear-gradient"/><clipPath id="clip-path"><rect class="cls-1" x="24.95" y="228.35" width="250.07" height="3.96"/></clipPath><clipPath id="clip-path-2"><path class="cls-1" d="M241,254.89l.43-.21-2-4.17-1.1.52,1.66,3.53A.68.68,0,0,0,241,254.89Z"/></clipPath><clipPath id="clip-path-3"><polygon class="cls-1" points="236.95 251.43 241.28 250.62 240.58 247.06 236.28 248.04 236.95 251.43"/></clipPath></defs><title>Ресурс 14</title><g id="Слой_2" data-name="Слой 2"><g id="Текст"><path class="cls-2" d="M423,235.08a53.65,53.65,0,0,0,5.85-13.77l10.35-2,.11-11.45.11-11.45-10.31-2.18a53.64,53.64,0,0,0-5.59-13.88l5.91-8.72-8-8.17-8-8.17-8.82,5.75a53.6,53.6,0,0,0-13.77-5.85l-2-10.35-11.45-.11-11.45-.11L363.69,155a53.63,53.63,0,0,0-13.88,5.59l-8.72-5.91-8.17,8-8.17,8,5.75,8.83a53.56,53.56,0,0,0-5.85,13.77l-10.35,2-.11,11.45-.11,11.45,10.31,2.18A53.61,53.61,0,0,0,330,234.21l-5.91,8.72,8,8.17,8,8.17,8.83-5.75a53.63,53.63,0,0,0,13.77,5.85l2,10.35,11.45.11,11.45.11,2.18-10.32A53.56,53.56,0,0,0,403.66,254l8.72,5.91,8.17-8,8.17-8ZM356.69,227a28.08,28.08,0,1,1,39.71.37A28.08,28.08,0,0,1,356.69,227Z"/><path class="cls-3" d="M151,142.62a40,40,0,0,0,3.29-10.68l7.54-2.26-.79-8.51-.79-8.51-7.83-.83a40,40,0,0,0-5.21-9.88L151,95l-6.58-5.46-6.58-5.46L131.67,89A40,40,0,0,0,121,85.75l-2.26-7.54-8.51.79-8.51.79-.83,7.83A40,40,0,0,0,91,92.84l-6.93-3.73L78.6,95.69l-5.46,6.58,4.94,6.12a40,40,0,0,0-3.29,10.68l-7.54,2.26.79,8.51.79,8.51,7.83.83a40,40,0,0,0,5.21,9.88L78.16,156l6.58,5.46,6.58,5.46L97.44,162a40,40,0,0,0,10.68,3.29l2.26,7.54,8.51-.79,8.51-.79.83-7.83a40,40,0,0,0,9.88-5.21l6.93,3.73,5.46-6.58,5.46-6.58Zm-49.85-1a21,21,0,1,1,29.52-2.76A21,21,0,0,1,101.17,141.65Z"/><path class="cls-4" d="M403.68,314.83H403v-51a20.61,20.61,0,0,0-20.59-20.59H329.88a21.33,21.33,0,0,1-21.31-21.31V126.54A20.61,20.61,0,0,0,288,106H154.13v-.72H288a21.33,21.33,0,0,1,21.31,21.31v95.37a20.61,20.61,0,0,0,20.59,20.59h52.49a21.33,21.33,0,0,1,21.31,21.31Z"/><path class="cls-5" d="M188.44,72.92s8.1,32.26-11.35,41.08-15.72-7.33-15.72-7.33-8-2.22,13.73-14.53C185.34,86.34,188.44,72.92,188.44,72.92Z"/><path class="cls-6" d="M239.38,75.73s4,28.12-32.82,40.27-42.05,27.57-42.05,27.57S163.4,81.26,239.38,75.73Z"/><path class="cls-7" d="M164.34,132.13c-10.92-4.17,15-26.51,35-25.9s33.45,8,46.81,4.86C246.12,111.09,218.09,152.64,164.34,132.13Z"/><path class="cls-8" d="M201,150.79q.94-12.72,1.31-23.81c-2-1.08-4.51-2.35-6.47-3.29-6.09-2.9-14.58-6.81-20-9.31-3.19-1.47-6.31-2.54-6.31-2.54s-21.77-2.09-23.53-2a54.72,54.72,0,0,0-6.85,2.34c-7.72,2.93-22.6,8.89-25,10.6-3.48,2.49-15.91,63.44-16.24,67.58s16.91,9.52,32.87,13.74c0,6.18-.14,14.84-.28,22.74,0,1.35,0,2.67-.07,4h69.83c-.09-1.36-.18-2.7-.24-4,0-.17,0-.33,0-.5-.27-5.35-1.31-14.94-1-24.27,0,0-.17-9.84.81-14.08C199.88,169.32,201,150.79,201,150.79Zm-88.55,35.84c.11-7.93,10.68-22.69,10.68-22.69a4.14,4.14,0,0,1,.5-.19l.55-.07s1.64-1.55,1.65-1.55c.39,1.41,3.89,21.34,4.75,32.95C120.66,193.12,112.4,190.41,112.46,186.63Z"/><path class="cls-9" d="M202.31,226.87c-.46-3.31-.89-6.61-1.29-9.84,0,0,0,0,0,0-.13-1.08-.26-2.14-.38-3.2,0-.05,0-.11,0-.17-.51-4.46-.93-8.73-1.24-12.64a40,40,0,0,1,.39-8.79c1.21-20,1.82-41.11,1.82-41.11.64-8.63,1-16.71,1.25-24.23,0,0-27.33-12.92-29.81-13.66,0,0,5.19,12.18,9.07,39.39,1.49,10.45,4.26,28,6.27,46h0c1.09,9.69,3.13,19.56,4.68,28.3.24,1.35.46,2.67.67,4h9.15Q202.58,228.86,202.31,226.87Z"/><path class="cls-9" d="M156.8,194.73c1.08-10.12,2-20.21,1.58-25.75-3.77-44.48-14.44-56.25-16-58-1.2.46-5.75,2.16-7.08,2.69-7.3,2.88-22.17,8.15-24.17,9.59-3.48,2.49-17.18,66.39-17.59,70.52-.28,2.79,17.6,8.63,35.85,13.84-.17,5,.3,12.06-1.36,19.42a17,17,0,0,0-.79,3.86l25.43-.1c.15-1.31.32-2.63.48-4,.48-4,1-8,1.49-12.37,7.63,2,12.81,3.25,12.81,3.25s7.16-12.11,9.24-17C177.06,199.9,167.84,197.68,156.8,194.73Zm-32.88-15.31c-.24-9.11-.2-15.46-.2-15.46.9,3.12,2.15,12,3.25,20.9C123.27,183,124,181.26,123.91,179.42Z"/><path class="cls-10" d="M144.84,110.58s2.77-5.23,2-20.08c-.21-4.11,21.61,9.76,21.61,9.76s-.08,1.42-.12,3.33c0,.8,0,1.67,0,2.57,0,.25,0,.5,0,.74,0,.41,0,.81,0,1.21s0,1,.05,1.46.06,1,.11,1.5a13.72,13.72,0,0,0,.81,2.92C170.29,116.29,153,116.43,144.84,110.58Z"/><path class="cls-11" d="M163.14,120l4,5.4s-2.36,3.16-6.54.83Z"/><path class="cls-11" d="M166.08,125.65s14.74,36,11.59,81.71L173,215.8l-5.24-7.18s-.85-60.72-5-83.11Z"/><path class="cls-10" d="M167.44,115l-4.31,5s-6.91-1.34-8.94-4.95S167.44,115,167.44,115Z"/><path class="cls-12" d="M168.43,110.58s-.5,3.84-5.29,9.45l5.23,7,2.83-14.59Z"/><path class="cls-12" d="M146.15,106s10,11.3,17,14.07l-3.25,8-16-17.6Z"/><path class="cls-9" d="M248.9,208.24s-13.27-12.87-22-15c-4-1-9.32-6.54-14.36-13.07-1.66-2.15-3.29-4.41-4.84-6.64h0c-6.18-8.92-11-17.47-11-17.47s-18.26-21.4-3.61-30.93c0,0,6.28-.14,9.72,1.73s11.09,17.69,12.38,20.48,15.15,28.72,16.08,29.3a38.43,38.43,0,0,0,8,5.7c6.8,3.66,17.47,14.37,17.47,14.37Z"/><path class="cls-13" d="M185.22,223.13a8.43,8.43,0,0,1-2.65-.5s-1.39-.89-2.41-1.46a7.9,7.9,0,0,0-.81-.41,15.42,15.42,0,0,1-4.46-2.12c-1.74-1.33-7.43-6.65-7.43-6.65l3.68-5.65,1.7-5.6s13.26,1.32,15,2.37a5.25,5.25,0,0,1,.49.33c1.41,1,2,2.4,2.71,3,.25.23,2.56,2.7,2.43,3.71a3.3,3.3,0,0,1-1.73,2.71s-.47,2.71-1.87,3.92a4.91,4.91,0,0,1-2.52,3.52S186.72,222.83,185.22,223.13Z"/><path class="cls-14" d="M164.11,52.18s24-5.78,18.92,24.57-10.8,32.8-25.4,26.76S144,78,143.17,68.54,156.44,52.62,164.11,52.18Z"/><path class="cls-14" d="M151.51,73.19c-.36-2.67-5.65-3.57-6,.44s2.56,11,4.55,10.27S152,76.86,151.51,73.19Z"/><path class="cls-15" d="M144.57,84.05s.48-9.54,4-9.89,4.07,3.48,4.07,3.48l3.53.61s-1.23-8.34,2.22-9.85,22.6,4.27,25.35,1.78,1.19-19.43-3.89-21.67-19.1-7.24-29.21-.18c0,0-8-.79-9.06,5.65S142.34,79.31,144.57,84.05Z"/><path class="cls-9" d="M177.36,200.73l-9.9,17s-26.21-6.75-32.33-8.48l14-16.64S169.73,197.34,177.36,200.73Z"/><path class="cls-16" d="M168.36,109.57h0a22.92,22.92,0,0,1-17.84-11.21,26.57,26.57,0,0,0,17.77,7.8c0,.25,0,.5,0,.74,0,.41,0,.81,0,1.21S168.34,109.09,168.36,109.57Z"/><path class="cls-17" d="M345.87,260.36a3.91,3.91,0,0,0-6.83,1.1h0a3.91,3.91,0,0,0,3.35,5.15l.31,0H343a3.91,3.91,0,0,0,2.91-6.26Zm-2.12,5.11h0a3,3,0,0,1-.84.17h-.2A3,3,0,0,1,341,265a3,3,0,0,1-.29-.26,2.92,2.92,0,0,1-.77-2.71,2.82,2.82,0,0,1,.08-.28,2.93,2.93,0,1,1,3.78,3.7Z"/><path class="cls-14" d="M196,186.76c14.9,15.34,34.58,34.65,34.58,34.65l7.69-14.61s-17.48-20.5-29.34-34.17C205.27,174.41,198.6,178.66,196,186.76Z"/><path class="cls-14" d="M186.76,207.38a43.66,43.66,0,0,1,5.06,2.8c1,.86,5.29,4,6.32,4.79s-1.55,2.87-9.14-.41S186.76,207.38,186.76,207.38Z"/><polygon class="cls-18" points="187.11 163.49 180.12 228.48 272.13 228.48 279.12 163.49 187.11 163.49"/><path class="cls-18" d="M277.39,225.48H184.65l7.07-65.71h92.74Zm-91.94-.72h91.29l6.91-64.28H192.36Z"/><rect class="cls-18" x="172.8" y="222.64" width="15.37" height="5.85" transform="translate(360.96 451.12) rotate(180)"/><g class="cls-19"><path class="cls-20" d="M24.95,228.35v0Z"/><rect class="cls-20" x="24.95" y="228.35" width="3.85" height="3.96"/><rect class="cls-21" x="28.8" y="228.35" width="3.85" height="3.96"/><rect class="cls-22" x="32.64" y="228.35" width="3.85" height="3.96"/><rect class="cls-23" x="36.49" y="228.35" width="3.85" height="3.96"/><rect class="cls-24" x="40.34" y="228.35" width="3.85" height="3.96"/><rect class="cls-25" x="44.18" y="228.35" width="3.85" height="3.96"/><rect class="cls-26" x="48.03" y="228.35" width="3.85" height="3.96"/><rect class="cls-27" x="51.88" y="228.35" width="3.85" height="3.96"/><rect class="cls-28" x="55.73" y="228.35" width="3.85" height="3.96"/><rect class="cls-29" x="59.57" y="228.35" width="3.85" height="3.96"/><rect class="cls-30" x="63.42" y="228.35" width="3.85" height="3.96"/><rect class="cls-31" x="67.27" y="228.35" width="3.85" height="3.96"/><rect class="cls-32" x="71.11" y="228.35" width="3.85" height="3.96"/><rect class="cls-33" x="74.96" y="228.35" width="3.85" height="3.96"/><rect class="cls-34" x="78.81" y="228.35" width="3.85" height="3.96"/><rect class="cls-35" x="82.66" y="228.35" width="3.85" height="3.96"/><rect class="cls-36" x="86.5" y="228.35" width="3.85" height="3.96"/><rect class="cls-37" x="90.35" y="228.35" width="3.85" height="3.96"/><rect class="cls-38" x="94.2" y="228.35" width="3.85" height="3.96"/><rect class="cls-39" x="98.05" y="228.35" width="3.85" height="3.96"/><rect class="cls-40" x="101.89" y="228.35" width="3.85" height="3.96"/><rect class="cls-41" x="105.74" y="228.35" width="3.85" height="3.96"/><rect class="cls-42" x="109.59" y="228.35" width="3.85" height="3.96"/><rect class="cls-43" x="113.43" y="228.35" width="3.85" height="3.96"/><rect class="cls-44" x="117.28" y="228.35" width="3.85" height="3.96"/><rect class="cls-45" x="121.13" y="228.35" width="3.85" height="3.96"/><rect class="cls-46" x="124.98" y="228.35" width="3.85" height="3.96"/><rect class="cls-47" x="128.82" y="228.35" width="3.85" height="3.96"/><rect class="cls-48" x="132.67" y="228.35" width="3.85" height="3.96"/><rect class="cls-49" x="136.52" y="228.35" width="3.85" height="3.96"/><rect class="cls-50" x="140.37" y="228.35" width="3.85" height="3.96"/><rect class="cls-51" x="144.21" y="228.35" width="3.85" height="3.96"/><rect class="cls-52" x="148.06" y="228.35" width="3.85" height="3.96"/><rect class="cls-53" x="151.91" y="228.35" width="3.85" height="3.96"/><rect class="cls-54" x="155.75" y="228.35" width="3.85" height="3.96"/><rect class="cls-55" x="159.6" y="228.35" width="3.85" height="3.96"/><rect class="cls-56" x="163.45" y="228.35" width="3.85" height="3.96"/><rect class="cls-57" x="167.3" y="228.35" width="3.85" height="3.96"/><rect class="cls-58" x="171.14" y="228.35" width="3.85" height="3.96"/><rect class="cls-59" x="174.99" y="228.35" width="3.85" height="3.96"/><rect class="cls-60" x="178.84" y="228.35" width="3.85" height="3.96"/><rect class="cls-61" x="182.69" y="228.35" width="3.85" height="3.96"/><rect class="cls-62" x="186.53" y="228.35" width="3.85" height="3.96"/><rect class="cls-63" x="190.38" y="228.35" width="3.85" height="3.96"/><rect class="cls-64" x="194.23" y="228.35" width="3.85" height="3.96"/><rect class="cls-65" x="198.07" y="228.35" width="3.85" height="3.96"/><rect class="cls-66" x="201.92" y="228.35" width="3.85" height="3.96"/><rect class="cls-67" x="205.77" y="228.35" width="3.85" height="3.96"/><rect class="cls-68" x="209.62" y="228.35" width="3.85" height="3.96"/><rect class="cls-69" x="213.46" y="228.35" width="3.85" height="3.96"/><rect class="cls-70" x="217.31" y="228.35" width="3.85" height="3.96"/><rect class="cls-71" x="221.16" y="228.35" width="3.85" height="3.96"/><rect class="cls-72" x="225.01" y="228.35" width="3.85" height="3.96"/><rect class="cls-73" x="228.85" y="228.35" width="3.85" height="3.96"/><rect class="cls-74" x="232.7" y="228.35" width="3.85" height="3.96"/><rect class="cls-75" x="236.55" y="228.35" width="3.85" height="3.96"/><rect class="cls-76" x="240.39" y="228.35" width="3.85" height="3.96"/><rect class="cls-77" x="244.24" y="228.35" width="3.85" height="3.96"/><rect class="cls-78" x="248.09" y="228.35" width="3.85" height="3.96"/><rect class="cls-79" x="251.94" y="228.35" width="3.85" height="3.96"/><rect class="cls-80" x="255.78" y="228.35" width="3.85" height="3.96"/><rect class="cls-81" x="259.63" y="228.35" width="3.85" height="3.96"/><rect class="cls-82" x="263.48" y="228.35" width="3.85" height="3.96"/><rect class="cls-83" x="267.33" y="228.35" width="3.85" height="3.96"/><rect class="cls-84" x="271.17" y="228.35" width="3.85" height="3.96"/><path class="cls-84" d="M275,232.31v0Z"/></g><rect class="cls-18" x="211.17" y="312.85" width="216.67" height="3.96"/><ellipse class="cls-85" cx="229.62" cy="195.98" rx="6.69" ry="5.22" transform="translate(-8.36 381.73) rotate(-78.45)"/><path class="cls-86" d="M400,169.18s2.12,3.6,3,4.19c1.22.8.45,1.6-.12,1.6s-3.53.21-4.18-.53-1-2.95-1.58-3.53-1.23-2.88.29-3.44C398.78,167,400,169.18,400,169.18Z"/><path class="cls-87" d="M399.08,167.6s2.43,4.21,2.85,4.84-.79.62-1.54.32-2.63-3.32-2.9-3.87a2,2,0,0,1-.06-1.41Z"/><polygon class="cls-86" points="396.62 169.86 397.18 174.18 397.48 174.2 397.39 171.09 396.62 169.86"/><path class="cls-86" d="M379,169.18s2.12,3.6,3,4.19c1.22.8.45,1.6-.12,1.6s-3.53.21-4.18-.53-1-2.95-1.58-3.53-1.25-2.94.29-3.44C377.74,167,379,169.18,379,169.18Z"/><path class="cls-87" d="M378.16,167.6s2.3,4.21,2.72,4.83-.79.62-1.54.32-2.63-3.32-2.9-3.87a2,2,0,0,1-.06-1.41Z"/><polygon class="cls-86" points="375.57 169.86 376.13 174.18 376.43 174.2 376.34 171.09 375.57 169.86"/><path class="cls-87" d="M369.54,136.43l19.21,8.75a3.69,3.69,0,0,1,2.38,3.08c.75,7.43,6.31,19.22,6.31,19.22,1.78.87,1.65.12,1.65.12-1.12-3.61-2.49-18.48-3-24.45-.1-1.27-.17-2.13-.18-2.41s-.22-.44-.57-.72c-2.64-2.14-13.48-6.56-13.48-6.56C373.73,133.24,369.54,136.43,369.54,136.43Z"/><path class="cls-87" d="M365.92,140.19c.59,5.19,8,4.6,8,4.6h9a56.11,56.11,0,0,0-3.27,9.68c-1,4.7-3.25,13-3.25,13s.15.28,1.77.12c0,0,7.05-14.05,9.75-17.58a23.85,23.85,0,0,0,2.53-7.35c.1-.83,0-1.47-.27-1.73a22.33,22.33,0,0,0-2-1.36c-2.81-1.77-7.7-4.51-10.42-5.12-3.65-.82-9.41-2.36-9.41-2.36A9.93,9.93,0,0,0,365.92,140.19Z"/><path class="cls-88" d="M372,100.2a8.37,8.37,0,0,1-.69-5.27c.66-2.72,3.18-5.43,6.87-4.18s6.68,4.11,4.46,7.43,2,4.81.93,6.39-.67,3.23-.21,3.59,1.92,1.68,1.76,3.23-7.16-4.52-7.16-4.52S374.17,99.21,372,100.2Z"/><path class="cls-89" d="M383.29,132.82s-.56,2.7-14.9-.71C368.38,132.11,373.19,130.52,383.29,132.82Z"/><path class="cls-90" d="M368.22,132.87l-.67,1.27,15.73.46c-.83-2.78-.56-6.54-.42-9.39.18-3.49,2.1-5.91,1.9-9.44l2.26.36c-1.59-4.53-2.13-6.77-7.07-8.51a9.22,9.22,0,0,0-4.4-.54c-5.72.47-7.44.54-10.25,5.72,4.39.7,3.67,2.28,5,6.65.65,2.13,1.33,4.51,1,6.76S368.22,130.85,368.22,132.87Z"/><path class="cls-14" d="M377.34,108.71c-2.34-.44-1.84-1.74-1.84-1.74s.11-.73.15-1.66c0-.24,0-.49,0-.74a10,10,0,0,0-.06-1.15c-.19-1.57,4.25-.63,4.25-.63s-.26,3.18.36,4.13S379.68,109.16,377.34,108.71Z"/><path class="cls-14" d="M372.88,107s4.72,5.45,6.46,6.71c0,0,2-1.81.77-6.59C380.11,107.08,377.83,105.94,372.88,107Z"/><path class="cls-14" d="M373,93.85s-2.45,4.72,0,9.19,7.21-1.95,7.52-2.7,1.95-5-1.31-6.31S373.7,92.57,373,93.85Z"/><path class="cls-88" d="M373.82,95.52a10.62,10.62,0,0,0-1.89,3.85,8.78,8.78,0,0,1,1.23-6.07c1.9-3,6.73-.14,7.37,1s2.54,2.24-.64,7.34C379.9,101.7,374.17,97.72,373.82,95.52Z"/><path class="cls-16" d="M377.74,103.51a4.58,4.58,0,0,1-2.09,1.79c0-.24,0-.49,0-.74A4,4,0,0,0,377.74,103.51Z"/><path class="cls-14" d="M353,128.62s-1.17.52-1.72.28a5.16,5.16,0,0,0-1.68-.28c-.36,0-1.49-.4-1.47,0s1.83.75,2.2.89-1.11,1-1.25,1.31,1.53,2.74,2.48,2.06,1.45-2,1.64-2.11a6.87,6.87,0,0,0,.71-.47Z"/><path class="cls-14" d="M349.24,130.65a24.41,24.41,0,0,0-2.77,2.57c0,.31.1.45.37.25l2.71-2.11s-2.74,3.23-2.83,3.47.21.43.36.34,3.06-3.14,3.06-3.14-2.55,3-2.56,3.25a.3.3,0,0,0,.5.2l2.74-2.88a15,15,0,0,0-1.6,2.53c.06.13.28.39.7-.23s1.57-2,1.57-2Z"/><path class="cls-18" d="M382,144.79h-8s-7.41.59-8-4.6a9.92,9.92,0,0,1,2.44-8.07s3.92,1,7.33,1.87a26.46,26.46,0,0,1,6.18-.54s14.49,4.79,14.05,7.31C395.92,140.75,389.86,137.51,382,144.79Z"/><polygon class="cls-91" points="376.73 135.8 392.07 135.57 384.32 139.5 376.73 135.8"/><path class="cls-90" d="M381.5,133.84a13.12,13.12,0,0,1-7.68.13l-.2-1.58,8.71.48Z"/><polygon class="cls-92" points="384.32 139.5 376.73 136.56 376.73 135.8 384.93 138.75 384.32 139.5"/><path class="cls-93" d="M381.44,134.57a.76.76,0,0,0,1.05.75l.89-.38a.63.63,0,0,0,.38-.68c-.37-2.32-1.17-11.35,0-12.9a5.64,5.64,0,0,0,.85-1.51c.77,2,1.72,4.53,2.1,5.9l7.25,9.64,2.43.62a82.1,82.1,0,0,0-5.47-11.18c-.47-1.27-1.83-5.13-3-8.56L386,111a2.45,2.45,0,0,0-1.06-1.3c-1.12-.67-3-1.73-4.69-2.55h0l-.16-.08h0c3.23,4.88,2,18.66,1.33,27.47Z"/><path class="cls-93" d="M369.47,107.5c-1,.16-3.59,2.65-5,5.16-1.55,2.86-3.13,6.13-4.32,7.2-2.18,2-8.27,8.95-8.56,8.78a18.94,18.94,0,0,0,1.9,2.18c.11,0,10-8.53,11-9.84s3.31-6.44,4-6.33h0a38.76,38.76,0,0,1,1.76,4.8l0,.14a15.44,15.44,0,0,1,.21,6.41,21.82,21.82,0,0,1-2.37,6.13,1,1,0,0,0,0,.74h0a.53.53,0,0,0,.26.31l2.91,1.08.68.25a1.49,1.49,0,0,0,2-1.2,88.47,88.47,0,0,1,2.12-12,18.13,18.13,0,0,0-1.12-14.71A54.17,54.17,0,0,0,369.47,107.5Z"/><polygon class="cls-94" points="384.32 139.5 388.89 127.05 403.59 127.29 399.25 138.77 384.32 139.5"/><ellipse class="cls-95" cx="394.71" cy="133.12" rx="1.82" ry="1.25" transform="translate(99.04 426.53) rotate(-63.42)"/><path class="cls-88" d="M378.09,98.55a2.64,2.64,0,0,1,.07,2.73c-.87,1.27.22,2.51.41,3.85s-3.63,4.9.62,6.69,5.6-1.17,4.52-2.8a9.19,9.19,0,0,1-1.95-5.27C381.67,101.42,380.9,97.8,378.09,98.55Z"/><polygon class="cls-96" points="357.31 92.47 366.18 92.47 366.18 98.89 366.18 100.25 364.83 98.89 357.31 98.89 357.31 92.47"/><path class="cls-5" d="M307.54,191.1s-19.33,18.39-9.93,32.71,13.8,1.78,13.8,1.78,6.36,1.92-3.08-15.74C303.89,201.53,307.54,191.1,307.54,191.1Z"/><path class="cls-6" d="M271.8,171.16s-14.76,17.35,5,41.38,16.68,36.73,16.68,36.73S320.93,207.49,271.8,171.16Z"/><path class="cls-7" d="M297.91,242c9.19,1.86,1.75-24.85-12-33s-26.1-8.94-33.81-16.78C252.07,192.24,252.67,232.86,297.91,242Z"/><path class="cls-14" d="M237.87,253.73s.42-1,.49-1.2a2.72,2.72,0,0,1,1-.67,3.15,3.15,0,0,1,1.35-.33.48.48,0,0,1,.3.27.93.93,0,0,1,.08.46.57.57,0,0,1,.2.51.49.49,0,0,1,.11.54.41.41,0,0,1,.11.44,3.7,3.7,0,0,0-.53.4,7.87,7.87,0,0,1-1.92.95S238.06,255.11,237.87,253.73Z"/><path class="cls-97" d="M239.37,253.16a2.75,2.75,0,0,1-.07.72c-.08.16,1.15.52,1.15.52S240.05,253.16,239.37,253.16Z"/><polygon class="cls-98" points="216.55 308.38 217.08 306.72 219.34 307.08 219 308.58 216.55 308.38"/><polygon class="cls-99" points="235.07 308.19 235.19 309.1 237.67 308.69 237.53 307.32 235.07 308.19"/><path class="cls-100" d="M229.71,282.57s-.36,2-.79,4.19l-.22,1.16c-.41,2.12-.83,4.17-1,4.59-.35,1-7.92,14.84-7.92,14.84s-3.1-.24-3.21-.63c0,0,6.35-15.07,6.31-15.62s.78-16,.78-16S229.54,281.67,229.71,282.57Z"/><path class="cls-100" d="M233.17,274.21s3,15.18,3.22,16.34,1.38,16.71,1.38,16.71-.67,1.37-3.13.86c0,0-3.35-16.7-3.64-17.26-1.1-2.17-6.48-12.69-7-14.2a9,9,0,0,1-.37-3.25S227.63,271.15,233.17,274.21Z"/><path class="cls-101" d="M231.93,254.56s1.3,3.24,1.63,3.14,4.06-4.48,4.06-4.48,1.71,2.13,1.48,2.38-4.73,7.68-5.34,7.54-3.32-4.62-3.32-4.62S230.28,255.14,231.93,254.56Z"/><path class="cls-102" d="M226.37,248.37a54.35,54.35,0,0,1,4.3,3.6c.93,1,3.5,5.26,3.31,6.53a92.59,92.59,0,0,0-1.07,12.39c0,2.9.91,3.65.33,3.69s-9.14,3.12-10.4,3.5c0,0,.82-10.23,1.24-11.41S222.75,253.12,226.37,248.37Z"/><path class="cls-103" d="M248.08,243.48l.76,3.81.76,3.81a20.76,20.76,0,0,0-9.24-.38L240,249l-.34-1.69A20.85,20.85,0,0,0,248.08,243.48Z"/><path class="cls-38" d="M235.19,309.1s1.87-.36,1.93-.42.47-.79.75-.67.29,1,.57,1.18,2.51,1.66,2.78,1.93,2,.11,2.16.59.21,1.6-2.31,1.34-5.39.14-5.93-.15S235,309.82,235.19,309.1Z"/><path class="cls-38" d="M216.52,308.34s1.9-.06,2-.1.59-.71.85-.54.12,1.06.38,1.26,2.21,2,2.44,2.35,1.92.43,2,.93,0,1.61-2.49,1-5.35-.72-5.83-1.1S216.23,309,216.52,308.34Z"/><path class="cls-10" d="M231.28,274.91s.23.92.59,1.12-1.7,2.18-1.7,2.18a17.36,17.36,0,0,1-.82-2A12.68,12.68,0,0,1,231.28,274.91Z"/><path class="cls-104" d="M224.87,252.36s-2.42,11.51-2.62,12.69,7.09,11.76,7.09,11.76l2.42-1.44s-5.87-10.68-5.87-11.17,2.82-9.76,2.82-9.76a2.19,2.19,0,1,0-3.85-2.08Z"/><path class="cls-105" d="M232.7,275.71a39.4,39.4,0,0,1,.74,5.11c0,1.2-4.52-1.89-4.29-3.08Z"/><path class="cls-14" d="M226.37,248.37s6.14,6.71,5.76,6c-1.35-2.65-2.29-3.1-2.27-3.59s.16-1.48.19-1.85c0-.7.1-1.27.1-1.27s-3-4.28-2.91-2.82A8.88,8.88,0,0,1,226.37,248.37Z"/><path class="cls-14" d="M232.21,240.47a15.53,15.53,0,0,1,.86,2.45,9.86,9.86,0,0,0,0,1.35,19.39,19.39,0,0,1,.48,2c-.07.39-.89.19-1,.83s-.71,1.84-1,1.86c-.76.06-3.67-1.12-3.86-1.73s-1.24-4-1.57-4.65,5.13-4.18,5.62-3.16Z"/><path class="cls-15" d="M224.79,241.94c-.39-1.68,1.55-1.89,1.55-1.89s1.26-1.47,4.27-1.29,2.55,4.1,2.55,4.1a11.17,11.17,0,0,0-3-.08,14.2,14.2,0,0,0,0,2.09l-1.14-.1s.13-1.49-.42-1.56-.73,3.15-1.74,3.86a1.11,1.11,0,0,0-.14-.45h0a12.82,12.82,0,0,1-.79-1.64A18.52,18.52,0,0,1,224.79,241.94Z"/><path class="cls-14" d="M229.36,243.58a.86.86,0,0,0-1.42-.4c-.73.54,0,2.46.73,2.45S229.66,244.57,229.36,243.58Z"/><path class="cls-106" d="M227.5,246.73a2.21,2.21,0,0,0,.31.74,6.5,6.5,0,0,0,2.25,1.18l-.12,1.19S227.36,248.85,227.5,246.73Z"/><g class="cls-107"><path class="cls-20" d="M238.4,250.52v0Z"/><rect class="cls-20" x="238.4" y="250.52" width="0.05" height="4.56"/><rect class="cls-21" x="238.45" y="250.52" width="0.05" height="4.56"/><rect class="cls-22" x="238.5" y="250.52" width="0.05" height="4.56"/><rect class="cls-23" x="238.54" y="250.52" width="0.05" height="4.56"/><rect class="cls-24" x="238.59" y="250.52" width="0.05" height="4.56"/><rect class="cls-25" x="238.64" y="250.52" width="0.05" height="4.56"/><rect class="cls-26" x="238.69" y="250.52" width="0.05" height="4.56"/><rect class="cls-27" x="238.73" y="250.52" width="0.05" height="4.56"/><rect class="cls-28" x="238.78" y="250.52" width="0.05" height="4.56"/><rect class="cls-29" x="238.83" y="250.52" width="0.05" height="4.56"/><rect class="cls-30" x="238.87" y="250.52" width="0.05" height="4.56"/><rect class="cls-31" x="238.92" y="250.52" width="0.05" height="4.56"/><rect class="cls-32" x="238.97" y="250.52" width="0.05" height="4.56"/><rect class="cls-33" x="239.02" y="250.52" width="0.05" height="4.56"/><rect class="cls-34" x="239.06" y="250.52" width="0.05" height="4.56"/><rect class="cls-35" x="239.11" y="250.52" width="0.05" height="4.56"/><rect class="cls-36" x="239.16" y="250.52" width="0.05" height="4.56"/><rect class="cls-37" x="239.2" y="250.52" width="0.05" height="4.56"/><rect class="cls-38" x="239.25" y="250.52" width="0.05" height="4.56"/><rect class="cls-39" x="239.3" y="250.52" width="0.05" height="4.56"/><rect class="cls-40" x="239.35" y="250.52" width="0.05" height="4.56"/><rect class="cls-41" x="239.39" y="250.52" width="0.05" height="4.56"/><rect class="cls-42" x="239.44" y="250.52" width="0.05" height="4.56"/><rect class="cls-43" x="239.49" y="250.52" width="0.05" height="4.56"/><rect class="cls-44" x="239.53" y="250.52" width="0.05" height="4.56"/><rect class="cls-45" x="239.58" y="250.52" width="0.05" height="4.56"/><rect class="cls-46" x="239.63" y="250.52" width="0.05" height="4.56"/><rect class="cls-47" x="239.68" y="250.52" width="0.05" height="4.56"/><rect class="cls-48" x="239.72" y="250.52" width="0.05" height="4.56"/><rect class="cls-49" x="239.77" y="250.52" width="0.05" height="4.56"/><rect class="cls-50" x="239.82" y="250.52" width="0.05" height="4.56"/><rect class="cls-51" x="239.86" y="250.52" width="0.05" height="4.56"/><rect class="cls-52" x="239.91" y="250.52" width="0.05" height="4.56"/><rect class="cls-53" x="239.96" y="250.52" width="0.05" height="4.56"/><rect class="cls-54" x="240.01" y="250.52" width="0.05" height="4.56"/><rect class="cls-55" x="240.05" y="250.52" width="0.05" height="4.56"/><rect class="cls-56" x="240.1" y="250.52" width="0.05" height="4.56"/><rect class="cls-57" x="240.15" y="250.52" width="0.05" height="4.56"/><rect class="cls-58" x="240.19" y="250.52" width="0.05" height="4.56"/><rect class="cls-59" x="240.24" y="250.52" width="0.05" height="4.56"/><rect class="cls-60" x="240.29" y="250.52" width="0.05" height="4.56"/><rect class="cls-61" x="240.34" y="250.52" width="0.05" height="4.56"/><rect class="cls-62" x="240.38" y="250.52" width="0.05" height="4.56"/><rect class="cls-63" x="240.43" y="250.52" width="0.05" height="4.56"/><rect class="cls-64" x="240.48" y="250.52" width="0.05" height="4.56"/><rect class="cls-65" x="240.52" y="250.52" width="0.05" height="4.56"/><rect class="cls-66" x="240.57" y="250.52" width="0.05" height="4.56"/><rect class="cls-67" x="240.62" y="250.52" width="0.05" height="4.56"/><rect class="cls-68" x="240.67" y="250.52" width="0.05" height="4.56"/><rect class="cls-69" x="240.71" y="250.52" width="0.05" height="4.56"/><rect class="cls-70" x="240.76" y="250.52" width="0.05" height="4.56"/><rect class="cls-71" x="240.81" y="250.52" width="0.05" height="4.56"/><rect class="cls-72" x="240.85" y="250.52" width="0.05" height="4.56"/><rect class="cls-73" x="240.9" y="250.52" width="0.05" height="4.56"/><rect class="cls-74" x="240.95" y="250.52" width="0.05" height="4.56"/><rect class="cls-75" x="241" y="250.52" width="0.05" height="4.56"/><rect class="cls-76" x="241.04" y="250.52" width="0.05" height="4.56"/><rect class="cls-77" x="241.09" y="250.52" width="0.05" height="4.56"/><rect class="cls-78" x="241.14" y="250.52" width="0.05" height="4.56"/><rect class="cls-79" x="241.18" y="250.52" width="0.05" height="4.56"/><rect class="cls-80" x="241.23" y="250.52" width="0.05" height="4.56"/><rect class="cls-81" x="241.28" y="250.52" width="0.05" height="4.56"/><rect class="cls-82" x="241.33" y="250.52" width="0.05" height="4.56"/><rect class="cls-83" x="241.37" y="250.52" width="0.05" height="4.56"/><rect class="cls-84" x="241.42" y="250.52" width="0.05" height="4.56"/><path class="cls-84" d="M241.47,255.08v0Z"/></g><path class="cls-108" d="M240.55,251.59s-1.23.67-1.14.89a.36.36,0,0,0,.24.24l-.38.51s-.06.48.48.41c0,0-.1.44.41.31,0,0,.06.32.31.3a4.67,4.67,0,0,0,1-.49s.12-.17-.11-.44a.48.48,0,0,0-.11-.54.53.53,0,0,0-.2-.51s.11-.6-.37-.74Z"/><g class="cls-109"><path class="cls-20" d="M236.28,247.07v0Z"/><rect class="cls-20" x="236.28" y="247.07" width="0.08" height="4.36"/><rect class="cls-21" x="236.36" y="247.07" width="0.08" height="4.36"/><rect class="cls-22" x="236.44" y="247.07" width="0.08" height="4.36"/><rect class="cls-23" x="236.51" y="247.07" width="0.08" height="4.36"/><rect class="cls-24" x="236.59" y="247.07" width="0.08" height="4.36"/><rect class="cls-25" x="236.67" y="247.07" width="0.08" height="4.36"/><rect class="cls-26" x="236.74" y="247.07" width="0.08" height="4.36"/><rect class="cls-27" x="236.82" y="247.07" width="0.08" height="4.36"/><rect class="cls-28" x="236.9" y="247.07" width="0.08" height="4.36"/><rect class="cls-29" x="236.97" y="247.07" width="0.08" height="4.36"/><rect class="cls-30" x="237.05" y="247.07" width="0.08" height="4.36"/><rect class="cls-31" x="237.13" y="247.07" width="0.08" height="4.36"/><rect class="cls-32" x="237.21" y="247.07" width="0.08" height="4.36"/><rect class="cls-33" x="237.28" y="247.07" width="0.08" height="4.36"/><rect class="cls-34" x="237.36" y="247.07" width="0.08" height="4.36"/><rect class="cls-35" x="237.44" y="247.07" width="0.08" height="4.36"/><rect class="cls-36" x="237.51" y="247.07" width="0.08" height="4.36"/><rect class="cls-37" x="237.59" y="247.07" width="0.08" height="4.36"/><rect class="cls-38" x="237.67" y="247.07" width="0.08" height="4.36"/><rect class="cls-39" x="237.74" y="247.07" width="0.08" height="4.36"/><rect class="cls-40" x="237.82" y="247.07" width="0.08" height="4.36"/><rect class="cls-41" x="237.9" y="247.07" width="0.08" height="4.36"/><rect class="cls-42" x="237.98" y="247.07" width="0.08" height="4.36"/><rect class="cls-43" x="238.05" y="247.07" width="0.08" height="4.36"/><rect class="cls-44" x="238.13" y="247.07" width="0.08" height="4.36"/><rect class="cls-45" x="238.21" y="247.07" width="0.08" height="4.36"/><rect class="cls-46" x="238.28" y="247.07" width="0.08" height="4.36"/><rect class="cls-47" x="238.36" y="247.07" width="0.08" height="4.36"/><rect class="cls-48" x="238.44" y="247.07" width="0.08" height="4.36"/><rect class="cls-49" x="238.51" y="247.07" width="0.08" height="4.36"/><rect class="cls-50" x="238.59" y="247.07" width="0.08" height="4.36"/><rect class="cls-51" x="238.67" y="247.07" width="0.08" height="4.36"/><rect class="cls-52" x="238.74" y="247.07" width="0.08" height="4.36"/><rect class="cls-53" x="238.82" y="247.07" width="0.08" height="4.36"/><rect class="cls-54" x="238.9" y="247.07" width="0.08" height="4.36"/><rect class="cls-55" x="238.98" y="247.07" width="0.08" height="4.36"/><rect class="cls-56" x="239.05" y="247.07" width="0.08" height="4.36"/><rect class="cls-57" x="239.13" y="247.07" width="0.08" height="4.36"/><rect class="cls-58" x="239.21" y="247.07" width="0.08" height="4.36"/><rect class="cls-59" x="239.28" y="247.07" width="0.08" height="4.36"/><rect class="cls-60" x="239.36" y="247.07" width="0.08" height="4.36"/><rect class="cls-61" x="239.44" y="247.07" width="0.08" height="4.36"/><rect class="cls-62" x="239.51" y="247.07" width="0.08" height="4.36"/><rect class="cls-63" x="239.59" y="247.07" width="0.08" height="4.36"/><rect class="cls-64" x="239.67" y="247.07" width="0.08" height="4.36"/><rect class="cls-65" x="239.75" y="247.07" width="0.08" height="4.36"/><rect class="cls-66" x="239.82" y="247.07" width="0.08" height="4.36"/><rect class="cls-67" x="239.9" y="247.07" width="0.08" height="4.36"/><rect class="cls-68" x="239.98" y="247.07" width="0.08" height="4.36"/><rect class="cls-69" x="240.05" y="247.07" width="0.08" height="4.36"/><rect class="cls-70" x="240.13" y="247.07" width="0.08" height="4.36"/><rect class="cls-71" x="240.21" y="247.07" width="0.08" height="4.36"/><rect class="cls-72" x="240.28" y="247.07" width="0.08" height="4.36"/><rect class="cls-73" x="240.36" y="247.07" width="0.08" height="4.36"/><rect class="cls-74" x="240.44" y="247.07" width="0.08" height="4.36"/><rect class="cls-75" x="240.52" y="247.07" width="0.08" height="4.36"/><rect class="cls-76" x="240.59" y="247.07" width="0.08" height="4.36"/><rect class="cls-77" x="240.67" y="247.07" width="0.08" height="4.36"/><rect class="cls-78" x="240.75" y="247.07" width="0.08" height="4.36"/><rect class="cls-79" x="240.82" y="247.07" width="0.08" height="4.36"/><rect class="cls-80" x="240.9" y="247.07" width="0.08" height="4.36"/><rect class="cls-81" x="240.98" y="247.07" width="0.08" height="4.36"/><rect class="cls-82" x="241.05" y="247.07" width="0.08" height="4.36"/><rect class="cls-83" x="241.13" y="247.07" width="0.08" height="4.36"/><rect class="cls-84" x="241.21" y="247.07" width="0.08" height="4.36"/><path class="cls-84" d="M241.29,251.43v0Z"/></g><path class="cls-14" d="M238.4,252.5a4.79,4.79,0,0,1,1.49.19c.12,0,.23.12.23.25s-.19.29-.6.33a3.53,3.53,0,0,0-.94.27S238.14,253.44,238.4,252.5Z"/><path class="cls-110" d="M228.92,286.76l-.22,1.16-2.46-6.51Z"/><rect class="cls-18" x="49.55" y="137.48" width="49.2" height="71.7" rx="7.83" ry="7.83"/><rect class="cls-111" x="90.97" y="183.78" width="2.55" height="19.4"/><rect class="cls-111" x="85.94" y="185.96" width="2.55" height="17.23"/><rect class="cls-111" x="80.46" y="188.78" width="2.55" height="14.4"/><rect class="cls-111" x="74.84" y="192.35" width="2.55" height="10.83"/><polygon class="cls-111" points="59.63 190.05 59.08 189.85 63.89 176.37 74.31 173.61 78.06 158.81 86.1 155.26 87.91 143.75 88.48 143.84 86.63 155.67 78.56 159.23 74.8 174.09 64.34 176.86 59.63 190.05"/><circle class="cls-18" cx="74.55" cy="173.85" r="1.56" transform="translate(-93.18 86.4) rotate(-39.25)"/><path class="cls-111" d="M75.73,175.29a1.86,1.86,0,1,1,.26-2.61A1.86,1.86,0,0,1,75.73,175.29Zm-2-2.42a1.27,1.27,0,1,0,1.79.18A1.27,1.27,0,0,0,73.75,172.87Z"/><circle class="cls-18" cx="78.35" cy="159.11" r="1.56" transform="translate(-83.01 85.51) rotate(-39.26)"/><path class="cls-111" d="M79.53,160.55a1.86,1.86,0,1,1,.26-2.61A1.86,1.86,0,0,1,79.53,160.55Zm-2-2.42a1.27,1.27,0,1,0,1.79.18A1.27,1.27,0,0,0,77.55,158.13Z"/><circle class="cls-18" cx="86.27" cy="155.46" r="1.56" transform="translate(-78.92 89.71) rotate(-39.27)"/><path class="cls-111" d="M87.45,156.9a1.86,1.86,0,1,1,.26-2.61A1.86,1.86,0,0,1,87.45,156.9Zm-2-2.42a1.27,1.27,0,1,0,1.79.18A1.27,1.27,0,0,0,85.47,154.48Z"/><circle class="cls-18" cx="64.17" cy="176.75" r="1.56" transform="translate(-97.36 80.48) rotate(-39.25)"/><path class="cls-111" d="M65.35,178.19a1.86,1.86,0,1,1,.26-2.61A1.86,1.86,0,0,1,65.35,178.19Zm-2-2.42a1.27,1.27,0,1,0,1.79.18A1.27,1.27,0,0,0,63.37,175.76Z"/><rect class="cls-112" x="54.78" y="157.83" width="15.66" height="3.24" rx="1.62" ry="1.62"/><rect class="cls-112" x="54.78" y="152.16" width="15.66" height="3.24" rx="1.62" ry="1.62"/><path class="cls-15" d="M43.53,163.69s-.45,4.48.37,5.6c0,0-2.19-.48-2.7-1.23S43.53,163.69,43.53,163.69Z"/><path class="cls-14" d="M57.21,178l.92-.61a2.31,2.31,0,0,1,1,0,2.66,2.66,0,0,1,1.11.41.41.41,0,0,1,.08.33.8.8,0,0,1-.17.36.48.48,0,0,1-.1.45.42.42,0,0,1-.18.43.35.35,0,0,1-.13.36,3.13,3.13,0,0,0-.56,0,6.69,6.69,0,0,1-1.8-.25S56.48,179.31,57.21,178Z"/><path class="cls-97" d="M58.57,178.36a2.35,2.35,0,0,1-.37.5c-.13.08.61.88.61.88S59.07,178.66,58.57,178.36Z"/><path class="cls-14" d="M56.74,178.06a3.25,3.25,0,0,0,.81-.2c.31-.14-.06,1.56-.06,1.56a3.19,3.19,0,0,0-1.24-.53C55.77,178.88,56.74,178.06,56.74,178.06Z"/><path class="cls-113" d="M36,223.32a28.15,28.15,0,0,0,2.11,2.77s1.09.57,1.12,1c.06.86.11,1.36-1.33,1.4s-2.33,0-2.59-.87a6.55,6.55,0,0,0-.72-1.55l-.11,2.26h-.32L34,225.76c0-.32-.23-1.57.45-2.12A1.89,1.89,0,0,1,36,223.32Z"/><path class="cls-113" d="M38.34,226.21a3.62,3.62,0,0,1-1.7,0c-.92-.23-1.81-2.44-2.08-2.62l-.24-.89h1.8a3.2,3.2,0,0,0,.31,1.22A21.45,21.45,0,0,0,38.34,226.21Z"/><path class="cls-113" d="M46.17,222.47a5.81,5.81,0,0,0,.68,1.13c.32.42,1.33,2.16,1.78,2.28s1.82.36,1.94,1.13.18,1.31-1.17,1.37-2.24.14-2.89-.81a7,7,0,0,0-1.68-1.64v2.48H44.3a22.36,22.36,0,0,0-.38-2.76,3.12,3.12,0,0,1,.75-3.19C45.92,221.44,46.17,222.47,46.17,222.47Z"/><path class="cls-113" d="M48.63,225.88s-1.21.3-1.68,0-2-3-2.57-3.13c0,0,.51-1,1.79-.28C46.17,222.47,48.28,225.44,48.63,225.88Z"/><path class="cls-114" d="M35.34,185.37a12.68,12.68,0,0,0-2.17,4.86c-.46,2.64.27,11.49.25,12.79s-1.15,5.36-.91,7.81S34,223.53,34,223.53l3-.05s-.59-11.06-.44-12.09.63-5.41.69-5.84,3.37-11.64,3.37-13.54S39.46,182.27,35.34,185.37Z"/><path class="cls-114" d="M43.92,186.24s2.81,10.72,3.14,12.2,1,3.42,1,3.7-.35,4.85-.35,4.85l-.8,15.58h-3s-.95-9.91-1.1-11.91,1.09-5.09.79-5.94-4.88-10.64-4.88-10.64S35.27,183.12,43.92,186.24Z"/><path class="cls-93" d="M43.06,170.19a3.4,3.4,0,0,1,2,1,13,13,0,0,1,1.87,2.84c.22.49,3.34,5,3.5,5.08s1.52-.26,2.61-.35a23.9,23.9,0,0,0,4.44-1.05l.4,2s-6.55,2.11-8.06,1.74c-1.85-.46-6.1-5.91-6.1-5.91S40.51,171.85,43.06,170.19Z"/><path class="cls-93" d="M41.1,169.41a15.22,15.22,0,0,0,2,.79c.51.1,2.46,2.65,2.81,3.58s0,2.32-.71,4,0,2.18-.36,3.82a45.69,45.69,0,0,0-.26,7c.06.91-9.35,2.62-11.23,1,0,0,1.27-4.19,2.78-5.77a6.19,6.19,0,0,0,.07-3.18c-.22-.57-2.73-4.79-2.73-4.79s-.18-4.28.91-5.13,3.54-1,4-1.16A7.93,7.93,0,0,1,41.1,169.41Z"/><path class="cls-115" d="M41.56,172.65l.88-1-.77-2.73A18,18,0,0,0,41.56,172.65Z"/><path class="cls-14" d="M36,170.19a2.53,2.53,0,0,0-2.88,1.5c-1.05,2-.79,3.11-1,4s-1.21,7-1.27,7.25a20.29,20.29,0,0,0-.87,4.3c.12.95,1,8.14,1,8.38s1.68-.23,1.68-.23-.07-7.34,0-8,.12-3.79.58-4.61S34.73,177,35,176.53,37.57,170.85,36,170.19Z"/><path class="cls-14" d="M41.79,167.73a34.8,34.8,0,0,0-.23,3.54s-1.51,1.51-3.23-1.77a4.51,4.51,0,0,0,.18-3.2C38,164.46,41.79,167.73,41.79,167.73Z"/><polygon class="cls-14" points="41.56 171.26 41.56 172.65 39.94 171.21 41.56 171.26"/><polygon class="cls-115" points="41.56 172.65 40.84 171.75 38.41 169.33 37.49 169.74 41.56 172.65"/><polygon class="cls-116" points="42.44 171.61 43.56 171.92 41.68 168.89 42.44 171.61"/><polygon class="cls-116" points="40.84 171.75 39.82 173.38 37.46 169.68 38.47 169.16 40.84 171.75"/><path class="cls-115" d="M46,178.33a12.36,12.36,0,0,0,0-3.89s-.21,1.19-.73,3Z"/><path class="cls-115" d="M34.72,178s1-3.33,1.07-3.51a28.24,28.24,0,0,1-.45,4.57Z"/><polygon class="cls-117" points="72.19 161.34 56.36 181.28 56.91 181.7 72.19 161.34"/><path class="cls-108" d="M60.12,177.76s-1.19-.11-1.23.08a.3.3,0,0,0,.06.28l-.51.18s-.27.31.14.51c0,0-.28.26.14.41,0,0-.11.25.07.36a4,4,0,0,0,1,.15s.17-.06.13-.36a.41.41,0,0,0,.18-.43.45.45,0,0,0,.1-.45s.37-.37.09-.7Z"/><path class="cls-14" d="M58.17,177.37a4.08,4.08,0,0,1,1,.85c.06.09.1.19,0,.28s-.27.12-.58-.06a3,3,0,0,0-.79-.26S57.54,177.91,58.17,177.37Z"/><path class="cls-14" d="M40.56,158.64a3.27,3.27,0,0,1,3.17,3.1,9.6,9.6,0,0,1-1.09,6.4c-.45.45-3.12.11-3.76-1.54s-1.56-2.85-1.42-4.26S37.27,158.59,40.56,158.64Z"/><path class="cls-15" d="M43.85,162.95s.72-4-2.84-4.66a4,4,0,0,0-5.14,3.17,27.61,27.61,0,0,0,.06,5.53,18.46,18.46,0,0,0,3.79,2.62,22.72,22.72,0,0,1-.74-7.45,15.18,15.18,0,0,0,4.81,0S43.84,162.78,43.85,162.95Z"/><path class="cls-16" d="M41.73,168.32a4.52,4.52,0,0,1-2.19-.83A5.22,5.22,0,0,0,41.67,169S41.74,168.46,41.73,168.32Z"/><rect class="cls-118" x="26.66" y="189.54" width="10.48" height="7.75" transform="translate(-30.75 7.67) rotate(-9.27)"/><path class="cls-14" d="M30.56,197.95a1.4,1.4,0,0,1-.18-.41s0-.28,0-.47a1.28,1.28,0,0,0,0-.15,2.6,2.6,0,0,1-.12-.81,17.4,17.4,0,0,1,.52-1.92l.92,0,.86-.09a17.39,17.39,0,0,1,1.06,2.33.79.79,0,0,1,0,.1,3.27,3.27,0,0,1-.17.66c0,.06-.14.61-.29.68a.55.55,0,0,1-.54,0,1.32,1.32,0,0,1-.72.11.82.82,0,0,1-.72,0S30.74,198.13,30.56,197.95Z"/><path class="cls-93" d="M36,170.19a2.53,2.53,0,0,0-2.88,1.5,9.24,9.24,0,0,0-1.19,3.87c-.13.93-1.41,6.47-1.47,6.73s-.48,3.72-.51,5c0,1,.2,7.23.16,7.48s2.9-.42,2.9-.42-.33-5.79-.26-6.39a33.56,33.56,0,0,1,.49-4.52c.35-1,1.72-6.3,2-6.81S37.57,170.85,36,170.19Z"/><path class="cls-119" d="M130.78,224.59l.19-1.78a13.73,13.73,0,0,0-2.8.19s.21,1.49.24,1.72S130.78,224.59,130.78,224.59Z"/><path class="cls-120" d="M126.52,228.3c3,0,4.42.18,4.74-.31s-.46-3.57-.46-3.57a6.25,6.25,0,0,1-2.41.1,6.34,6.34,0,0,1-1.46,1.29c-.72.39-1.85.55-2.27,1S123.54,228.33,126.52,228.3Z"/><path class="cls-119" d="M114,224.59l.19-1.78a13.71,13.71,0,0,0-2.8.19s.21,1.49.24,1.72S114,224.59,114,224.59Z"/><path class="cls-120" d="M109.74,228.3c3-.08,4.42.18,4.74-.31s-.46-3.57-.46-3.57a5.67,5.67,0,0,1-2.41.1,6.35,6.35,0,0,1-1.46,1.29c-.72.39-3.36.71-3.78,1.12S105.55,228.41,109.74,228.3Z"/><path class="cls-8" d="M127.34,184.49a22.06,22.06,0,0,1,1.08,6.89c-.16,3.19.64,6.68,1,10,.37,3.71,1.88,12.51,1.93,14.5s-.23,8.33-.23,8.33l-3,.07s-2.54-15.38-3.19-16.95-3.91-12.75-4-14S127.34,184.49,127.34,184.49Z"/><path class="cls-8" d="M114.65,185.15s-1.66,8.74-1.88,10.7-.36,9.45-.47,10.67-.73,16-1.31,17.78h3.86s3-10.72,3-15.8,2.29-11,3.77-14.38,4.86-3.43,5.77-9.64C127.34,184.49,115.88,183.18,114.65,185.15Z"/><path class="cls-14" d="M122.49,155.27s-3-1.14-4.44,1.18-1.27,7,.27,7.52,3.84.27,4.62-1.18a11.6,11.6,0,0,0,1.46-4.94A3,3,0,0,0,122.49,155.27Z"/><path class="cls-14" d="M118.82,163.83a2.55,2.55,0,0,1-.08,1.19c-.2.39,3.83.4,3.83.4a26.48,26.48,0,0,1,.95-3.94C124.14,159.68,118.82,163.83,118.82,163.83Z"/><path class="cls-121" d="M123.52,161.48s-.28.46-1.41.28-2.52-1.69-3-1.85-.48-.44-.48-.44l-.3.43-.5,0s.46-1.35-.23-1.9.72-4.37,4.36-3.1c0,0,2.61.51,2.77,2.1A7.21,7.21,0,0,1,123.52,161.48Z"/><path class="cls-122" d="M118.51,165s0-.75.35-.82a24.31,24.31,0,0,1,4.17-.24v.87S122.23,165.28,118.51,165Z"/><path class="cls-14" d="M118.71,158.88c.06-.27.74-1,1-.21s-.39,1.91-.76,1.82S118.55,159.56,118.71,158.88Z"/><path class="cls-70" d="M118.51,165s-1.87.67-4,1.59a4.55,4.55,0,0,0-2.76,3.69c-.14,1.46-1.7,9.22-2,9.88s-3.74,11.2-3.87,11.42,2.82,1.44,3,1.34,3.34-9.62,3.66-10.33c0,0,1.81-5.71,1.86-6.56,0,0,.05,2.43.15,3.11S112.91,193,113,193.38s7.76.83,10.85.49a37.81,37.81,0,0,0,5.58-1.05S127,182.38,127,181.23c.16-2.52,1-7.27,1-7.27l2.52,4.75L127.34,187l.74,2.52s6-9.05,6.18-9.88a4.45,4.45,0,0,0-.61-2.56c-.32-.68-2.39-5.86-2.88-6.59s-1.31-3.65-3.29-4.46a31,31,0,0,0-4.45-1.24Z"/><rect class="cls-123" x="101.31" y="184.52" width="14.57" height="10.16" transform="translate(50.49 -21.03) rotate(14.38)"/><path class="cls-124" d="M104.61,193.71s-.4.65-.55.84.36.3.58.11S104.61,193.71,104.61,193.71Z"/><path class="cls-125" d="M107.55,195.93a1.57,1.57,0,0,0,.29-.41s.07-.3.13-.51a1.54,1.54,0,0,1,.06-.16,2.87,2.87,0,0,0,.32-.86c.06-.4.24-2.21.24-2.21l-1.09-.28-.88-.19a18,18,0,0,0-2,2.26.89.89,0,0,0,0,.11,3.69,3.69,0,0,0,0,.75c0,.06,0,.69.15.81a.61.61,0,0,0,.58.14,1.46,1.46,0,0,0,.75.28.91.91,0,0,0,.79.15S107.31,196.08,107.55,195.93Z"/><path class="cls-70" d="M111.82,184.51s-2.5,7.58-3,8.38a8.26,8.26,0,0,1-3-1.34l2.75-8.18Z"/><path class="cls-126" d="M337.76,196.34s9.3-27.26-8.44-35.72-32.8,3.77-35.65,10.38-2.09,18.63.33,27,2.07,21.14-3.2,25.41S279,234.78,279.31,249.21c.2,9,35.22-22.9,35.22-22.9Z"/><path class="cls-104" d="M312.83,228.77s-14.58,3.23-20.37,6.61S273.82,254.33,273.82,261,330,274,330,274l10.65,38.9s28.41-6.93,31.79-12.68-10.79-47-13.22-55.3c-2.47-8.51-12.66-14.44-24.5-16.1A81.31,81.31,0,0,0,312.83,228.77Z"/><path class="cls-14" d="M333.75,228.64s-.33,17.72-14.38,18.25-11.13-17-11.13-17S318.52,225.72,333.75,228.64Z"/><path class="cls-126" d="M339.7,175.16s5,28.51-9.19,49.1C315.85,245.58,339.7,175.16,339.7,175.16Z"/><path class="cls-14" d="M330.73,216.11s-1,8.48.65,13.75-21.49,5.42-21.48,1.08c0-4.92,2.37-9,.15-17.48S330.73,216.11,330.73,216.11Z"/><path class="cls-16" d="M312.8,217.19s7.3,7.61,16.64.79c0,0-.77,4.86-7.49,5.49S312.8,217.19,312.8,217.19Z"/><path class="cls-14" d="M321.94,165.27s18.45,5.46,15.82,31.07-14.69,24.29-15.82,24.48-15.44,1.13-20-29.94S321.94,165.27,321.94,165.27Z"/><path class="cls-126" d="M317.18,176.69s10,15.95,20.58,19.65c0,0,5.76-26.76-18-32.37s-20.07,27-18.29,35.73A70.73,70.73,0,0,1,317.18,176.69Z"/><path class="cls-34" d="M303.73,174.29s5.28-10.22,14.19-10.68,14.21,7.27,14.21,7.27a15.15,15.15,0,0,0-14.2-8.7C307.21,162.18,303.73,174.29,303.73,174.29Z"/><polygon class="cls-127" points="340.01 254.67 346.27 312.85 263.91 312.85 257.65 254.67 340.01 254.67"/><path class="cls-127" d="M344.29,310.85H261.21L254.87,252H338Zm-82.43-.72h81.63l-6.18-57.46H255.67Z"/><ellipse class="cls-128" cx="301.96" cy="283.87" rx="5.22" ry="6.69" transform="translate(-50.74 66.24) rotate(-11.55)"/><rect class="cls-127" x="338.48" y="307" width="15.37" height="5.85" transform="translate(692.33 619.85) rotate(180)"/><path class="cls-4" d="M290.7,138.18a12.67,12.67,0,1,1,12.67-12.67A12.68,12.68,0,0,1,290.7,138.18Zm0-24.62a12,12,0,1,0,12,12A12,12,0,0,0,290.7,113.56Z"/><path class="cls-129" d="M67.25,267v-1.08c2.15,0,4.31-.08,6.43-.18l.05,1.08C71.6,266.91,69.42,267,67.25,267Zm-6.48-.07c-2.13-.06-4.31-.16-6.47-.3l.07-1.07c2.16.14,4.32.24,6.44.3Zm19.42-.55-.09-1.07c2.13-.19,4.28-.42,6.4-.69l.14,1.07C84.5,266,82.34,266.2,80.2,266.38Zm-32.36-.27c-2.21-.22-4.38-.5-6.44-.84l.17-1.06c2,.33,4.18.61,6.37.83Zm45.22-1.37-.18-1.06c2.08-.35,4.21-.75,6.33-1.18l.22,1.06C97.28,264,95.14,264.39,93.05,264.75ZM35,264c-2.17-.53-4.27-1.14-6.25-1.82l.35-1c1.94.67,4,1.27,6.15,1.79Zm70.71-1.86-.25-1c2-.47,4-1,6.25-1.59l.28,1C109.78,261.14,107.73,261.67,105.74,262.14Zm-83-2.41a47.08,47.08,0,0,1-5.69-3.2l.59-.9a46.16,46.16,0,0,0,5.56,3.13Zm95.5-.89-.29-1,2.68-.76,3.54-1,.29,1-3.54,1Zm56.15-.9c-2-.94-4-1.77-5.92-2.46l.36-1c2,.71,4,1.55,6,2.5ZM130.7,255.4l-.27-1c2.32-.59,4.38-1.07,6.31-1.47l.22,1.05C135,254.33,133,254.81,130.7,255.4Zm31.66-1.74a50.47,50.47,0,0,0-6.3-1l.11-1.07a51.94,51.94,0,0,1,6.44,1.07Zm-19.07-.8-.14-1.07a62,62,0,0,1,6.49-.5l0,1.08A61,61,0,0,0,143.29,252.87Zm-131.37-.38a36.19,36.19,0,0,1-4.38-4.87l.86-.64a35.15,35.15,0,0,0,4.25,4.72ZM4.13,242a38.13,38.13,0,0,1-2.36-6.11l1-.3a37,37,0,0,0,2.29,5.93ZM.44,229.53A51.5,51.5,0,0,1,0,223H1.08a50.52,50.52,0,0,0,.43,6.38Zm1-12.92-1.07-.11c.22-2.11.54-4.28,1-6.44l1.06.21C1.93,212.41,1.61,214.54,1.39,216.62ZM3.86,204l-1-.3a57.64,57.64,0,0,1,2.12-6.18l1,.42A57.61,57.61,0,0,0,3.86,204Z"/><path class="cls-129" d="M372,48.84s-1.82-1.61-5-4l.64-.86c3.26,2.43,5.09,4.05,5.11,4.07Zm-10.31-7.72c-1.77-1.18-3.6-2.34-5.44-3.45l.56-.92c1.85,1.12,3.7,2.29,5.49,3.48Zm-11-6.64c-1.89-1-3.82-2-5.74-2.92l.47-1c1.93.92,3.88,1.92,5.79,2.95ZM339,28.92c-2-.83-4-1.62-6-2.33l.36-1c2,.72,4,1.51,6.05,2.35ZM257.15,27.6l0-1.08a45.54,45.54,0,0,0,6.35-.6l.17,1.06A46.59,46.59,0,0,1,257.15,27.6Zm-6.52-.33a48.1,48.1,0,0,1-6.4-1.26l.28-1a47.07,47.07,0,0,0,6.26,1.23ZM270,25.53l-.3-1c.69-.2,1.4-.43,2.1-.66,1.35-.45,2.72-.88,4.08-1.26l.29,1c-1.35.38-2.7.8-4,1.24C271.44,25.09,270.72,25.32,270,25.53Zm56.87-.93c-2.07-.61-4.16-1.16-6.22-1.64l.24-1c2.08.48,4.19,1,6.28,1.65ZM238,24c-1.9-.74-3.84-1.6-5.95-2.62l.47-1c2.08,1,4,1.85,5.87,2.58Zm44.37-1.86-.21-1.06c2.11-.42,4.27-.77,6.42-1l.13,1.07C286.64,21.35,284.5,21.69,282.42,22.11Zm31.94-.4c-2.12-.35-4.27-.63-6.37-.84l.1-1.07c2.13.21,4.3.49,6.44.85Zm-19.2-1.17,0-1.08c2.14-.1,4.32-.12,6.5-.07l0,1.08C299.42,20.42,297.27,20.45,295.15,20.55Zm-68.82-2.17c-1.83-1-3.64-2-5.65-3.15l.53-.94c2,1.13,3.81,2.15,5.63,3.14ZM136.1,14l-.52-.94c1.93-1.07,3.86-2.08,5.74-3l.48,1C139.93,12,138,13,136.1,14Zm79-2c-2.11-1.16-4-2.14-5.7-3l.48-1c1.74.87,3.62,1.86,5.74,3ZM147.63,8.33l-.43-1c2-.88,4.06-1.69,6-2.41l.37,1C151.64,6.66,149.64,7.46,147.63,8.33Zm55.9-2c-2.06-.87-4-1.61-6-2.26l.33-1c2,.65,4,1.4,6.09,2.29ZM159.7,3.95l-.3-1c2.12-.61,4.25-1.13,6.31-1.55l.21,1.06C163.89,2.83,161.79,3.34,159.7,3.95Zm31.65-1.51a58.87,58.87,0,0,0-6.31-1l.11-1.07a59.92,59.92,0,0,1,6.43,1Zm-19.09-1L172.15.36a63.24,63.24,0,0,1,6.5-.36V1.08A62,62,0,0,0,172.26,1.43Z"/><polygon class="cls-130" points="211.89 269.75 184.81 261.88 192.93 259.43 211.89 269.75"/><polygon class="cls-131" points="211.89 269.75 201.77 259.59 195.54 260.85 211.89 269.75"/><polygon class="cls-132" points="191.04 263.69 191.26 266.82 211.89 269.75 191.04 263.69"/><polygon class="cls-130" points="116.02 30.03 139.88 16.68 131.68 16.14 116.02 30.03"/><polygon class="cls-131" points="116.02 30.03 123.36 18.21 129.52 18.05 116.02 30.03"/><polygon class="cls-132" points="134.39 19.75 134.87 22.76 116.02 30.03 134.39 19.75"/></g></g></svg>