<svg xmlns="http://www.w3.org/2000/svg" viewBox="0 0 392.79 328"><defs><style>.cls-1{fill:#e1e8f6;}.cls-1,.cls-12,.cls-14,.cls-15,.cls-16,.cls-17,.cls-18,.cls-19,.cls-2,.cls-20,.cls-21,.cls-22,.cls-23,.cls-24,.cls-25,.cls-26,.cls-27,.cls-28,.cls-29,.cls-3,.cls-30,.cls-31,.cls-32,.cls-33,.cls-38,.cls-39,.cls-4,.cls-40,.cls-41,.cls-42,.cls-43,.cls-44,.cls-5,.cls-6,.cls-7,.cls-8{fill-rule:evenodd;}.cls-2{fill:#b4c5e6;}.cls-3{fill:#9fb2d9;}.cls-4{fill:#c0cdea;}.cls-5{fill:#adbfe3;}.cls-36,.cls-6{fill:#101537;}.cls-13,.cls-7{fill:#00000f;}.cls-8{fill:#f18a00;}.cls-12,.cls-9{fill:#004c84;}.cls-10,.cls-15{fill:#fff;}.cls-11,.cls-18{fill:#1874ba;}.cls-14{fill:#080321;}.cls-16,.cls-45{fill:#3b405f;}.cls-17{fill:#0069af;}.cls-19{fill:#fce4d6;}.cls-20{fill:#003760;}.cls-21{fill:#002846;}.cls-22{fill:#d64c47;}.cls-23,.cls-37{fill:#e13c83;}.cls-24,.cls-35{fill:#e94d90;}.cls-25{fill:#b83470;}.cls-26{fill:#ec678e;}.cls-27{fill:#f0f4fb;}.cls-28{fill:#f6cbcf;}.cls-29{fill:#00061a;}.cls-30{fill:#1c2b3f;}.cls-31{fill:#fcc100;}.cls-32{fill:#f8ad00;}.cls-33,.cls-34{fill:#fafbfd;}.cls-38{fill:#003053;}.cls-39{fill:#f29c94;}.cls-40{fill:#c9625a;}.cls-41{fill:#5eb9bd;}.cls-42{fill:#ee788f;}.cls-43{fill:#f5c8b4;}.cls-44{fill:#f4bca3;}</style></defs><title>Ресурс 15</title><g id="Слой_2" data-name="Слой 2"><g id="Текст"><path class="cls-1" d="M329.07,328a63.92,63.92,0,0,0,63.73-63.73h0a63.92,63.92,0,0,0-63.73-63.73,27,27,0,0,1-26.95-26.95h0a27,27,0,0,1,26.95-26.95h3.21a28.1,28.1,0,0,0,28-28h0a28.1,28.1,0,0,0-28-28h-9.84a10.94,10.94,0,0,1-10.91-10.91h0A10.94,10.94,0,0,1,322.43,68.8h7.23a7.55,7.55,0,0,0,7.53-7.53h0a7.55,7.55,0,0,0-7.53-7.53H281.07a11.86,11.86,0,0,1-11.83-11.83h0a11.86,11.86,0,0,1,11.83-11.83H295.6a7.55,7.55,0,0,0,7.53-7.53h0A7.55,7.55,0,0,0,295.6,15H112a9.85,9.85,0,0,0-9.82,9.82h0A9.85,9.85,0,0,0,112,34.68h86.9a15.48,15.48,0,0,1,15.43,15.43h0a15.48,15.48,0,0,1-15.43,15.43H40a9.85,9.85,0,0,0-9.82,9.82h0A9.85,9.85,0,0,0,40,85.2h56a14.27,14.27,0,0,1,14.23,14.23h0a14.27,14.27,0,0,1-14.23,14.23H83.21a36.66,36.66,0,0,0-36.56,36.56h0a36.66,36.66,0,0,0,36.56,36.56H87.4a35.26,35.26,0,0,1,35.16,35.16h0A35.26,35.26,0,0,1,87.4,257.1H44.45A35.56,35.56,0,0,0,9,292.55H9A35.56,35.56,0,0,0,44.45,328ZM86.82,34.68a9.82,9.82,0,1,1,9.82-9.82,9.82,9.82,0,0,1-9.82,9.82Zm264,34.12a7.53,7.53,0,1,1,7.53-7.53A7.53,7.53,0,0,1,350.79,68.8Z"/><path class="cls-2" d="M322,169.09c.94-22.1-21.58-16.83-35.18-1.91s-53.56,77.22-75.2,89.82c-8.39,4.88-6.66,6.05.13,4.52C245.64,253.87,320.75,199.51,322,169.09Z"/><path class="cls-3" d="M206.16,261.1c-.48.86.36,1.17,2.21,1C263.29,239,312,164.07,312.2,163.83a.89.89,0,1,0-1.49-1C310.55,163.09,261.13,239,206.16,261.1Z"/><path class="cls-3" d="M300.24,97c-8.3-16.52-22.6-3.52-26.46,12.9S266,188,255.37,206c-4.14,7-2.4,7.13,1.93,3.25C278.91,189.92,311.66,119.7,300.24,97Z"/><path class="cls-2" d="M253,211.24c0,.82.74.7,2-.17,30.69-39.22,35.85-113.71,35.87-114a.74.74,0,1,0-1.48-.11C289.4,97.26,284.18,172.77,253,211.24Z"/><path class="cls-3" d="M321.5,196.72c16.72,4.35,7.63,20-6.62,26.71-6.11,2.89-19.85,7.41-34.67,12.68H246C269.06,214.62,304.62,192.32,321.5,196.72Z"/><path class="cls-4" d="M254.66,236.1C285.94,216,323,205.32,323.17,205.27a.7.7,0,0,1,.39,1.33c-.16,0-35.68,10.26-66.35,29.5Z"/><path class="cls-4" d="M.14,176.53c3-29.35,31.68-18.11,46.79,4.17C60.33,200.46,94,273.31,119.68,304H100.43C55.32,272.86-3.19,209.5.14,176.53Z"/><path class="cls-3" d="M109.34,304c-56-48-95.06-132.26-95.2-132.56a1.19,1.19,0,0,1,2.15-1c.14.31,40,86.4,96.68,133.57Z"/><path class="cls-5" d="M68.94,180.83c9.78-22.63,29.81-6.42,36.22,15.15,5.2,17.51,12.68,74.75,23.65,108.06h-15C86.56,267.21,58.32,205.41,68.94,180.83Z"/><path class="cls-1" d="M120.16,304C90.5,252,81.4,180.6,81.37,180.33a1,1,0,0,1,2-.26c0,.27,9.21,72.29,39.08,124Z"/><path class="cls-3" d="M27.58,258.3c-22.24,6-9.93,26.71,9.15,35.53,5.55,2.56,15.77,6.08,28,10.21h57.43C91.28,277.66,48.48,252.65,27.58,258.3Z"/><path class="cls-2" d="M107.27,304c-39.46-22.56-81.62-34.25-81.81-34.3a.93.93,0,1,0-.5,1.78c.19.05,40.21,11.16,78.59,32.52Z"/><path class="cls-6" d="M239.78,81.68,288.87,97c1.83.57,2.68,1.34,2.55,2.09h0v3.83h-9.13l-42.5,13.23a24.56,24.56,0,0,1-12.41,0l-42.5-13.23h-9.13V99.05h0c-.14-.75.71-1.52,2.55-2.09l49.08-15.28a24.56,24.56,0,0,1,12.41,0Z"/><path class="cls-7" d="M239.78,85.82l49.08,15.28c3.41,1.06,3.41,2.8,0,3.87l-49.08,15.28a24.57,24.57,0,0,1-12.41,0L178.28,105c-3.41-1.06-3.41-2.8,0-3.87l49.08-15.28a24.55,24.55,0,0,1,12.41,0Z"/><path class="cls-6" d="M261.93,105.65V145.5H205.22V105.65c0-2.77,12.69-5,28.35-5S261.93,102.89,261.93,105.65Z"/><path class="cls-8" d="M187.69,110l4.37,3.42a.31.31,0,0,0,.5-.24V92l-9.73,3v18.2a.31.31,0,0,0,.5.24Z"/><path class="cls-3" d="M64.07,115.79H85.26a3.86,3.86,0,0,1,3.85,3.85h0a3.86,3.86,0,0,1-3.85,3.85H83.59v29.79a30.4,30.4,0,1,1-17.86,0V123.48H64.07a3.86,3.86,0,0,1-3.85-3.85h0A3.86,3.86,0,0,1,64.07,115.79Z"/><rect class="cls-9" x="159.87" y="128.66" width="116.38" height="168.11" rx="9.2" ry="9.2"/><rect class="cls-10" x="155.11" y="128.66" width="116.38" height="168.11" rx="9.2" ry="9.2"/><rect class="cls-11" x="145.69" y="128.66" width="116.38" height="168.11" rx="9.2" ry="9.2"/><path class="cls-12" d="M154.89,296.77h7.43V128.66h-7.43a9.23,9.23,0,0,0-9.2,9.2V287.57A9.23,9.23,0,0,0,154.89,296.77Z"/><rect class="cls-13" x="160.54" y="128.66" width="3.55" height="168.11"/><rect class="cls-10" x="176.5" y="149.28" width="73.15" height="28.82" rx="1.44" ry="1.44"/><rect class="cls-9" x="176.5" y="192.34" width="73.15" height="3.32" rx="0.72" ry="0.72"/><rect class="cls-9" x="176.5" y="200.21" width="73.15" height="3.32" rx="0.72" ry="0.72"/><rect class="cls-9" x="176.5" y="208.07" width="73.15" height="3.33" rx="0.72" ry="0.72"/><rect class="cls-9" x="176.5" y="232.4" width="73.15" height="3.33" rx="0.72" ry="0.72"/><rect class="cls-9" x="176.5" y="240.27" width="73.15" height="3.33" rx="0.72" ry="0.72"/><rect class="cls-9" x="176.5" y="248.14" width="73.15" height="3.33" rx="0.72" ry="0.72"/><path class="cls-12" d="M245.78,279.87H164.09v16.9h88.78a9.23,9.23,0,0,0,9.2-9.2V137.86a9.24,9.24,0,0,0-7.09-9V270.66A9.23,9.23,0,0,1,245.78,279.87Z"/><path class="cls-14" d="M279.84,296.77h-94a12.52,12.52,0,0,1,0-25h94a12.52,12.52,0,0,1,0,25Z"/><path class="cls-6" d="M173.65,281.25a12.57,12.57,0,0,1,12.16-9.53h94A12.57,12.57,0,0,1,292,281.25a12.57,12.57,0,0,1-12.16,9.53h-94a12.57,12.57,0,0,1-12.16-9.53Z"/><path class="cls-15" d="M351.44,295.84H273.58a11.6,11.6,0,0,1,0-23.19h77.86Z"/><path class="cls-16" d="M352.2,293.74a1.51,1.51,0,0,1,0,3H273a12.52,12.52,0,0,1,0-25h79.2a1.51,1.51,0,0,1,0,3H273a9.49,9.49,0,0,0,0,19Z"/><path class="cls-6" d="M187.07,284.25a12.56,12.56,0,0,1,12.52-12.52H190.4a12.52,12.52,0,0,0,0,25h9.19a12.56,12.56,0,0,1-12.52-12.52Zm64.64,0a12.55,12.55,0,0,1,12.52-12.52H255a12.52,12.52,0,0,0,0,25h9.19a12.56,12.56,0,0,1-12.52-12.52Z"/><path class="cls-16" d="M187.07,284.25a12.56,12.56,0,0,1,12.52-12.52H190.4a12.51,12.51,0,0,0-11.77,16.78,12.44,12.44,0,0,0,7.17,2.27h3.12a12.43,12.43,0,0,1-1.85-6.54Zm66.49,6.54h-9.19A12.53,12.53,0,0,1,255,271.73h9.19a12.51,12.51,0,0,0-10.67,19.06Z"/><path class="cls-4" d="M351.44,290.37H276a7.81,7.81,0,0,1,0-15.62h-3a9.48,9.48,0,0,0-6.87,16l.16.17a9.47,9.47,0,0,0,6.7,2.79h78.45Z"/><path class="cls-17" d="M272.38,271.73h75.47a13.9,13.9,0,0,0,0-27.8H272.38a13.9,13.9,0,0,0,0,27.8Z"/><path class="cls-18" d="M361.35,254.5a14,14,0,0,0-13.5-10.58H272.38a14,14,0,0,0-13.5,10.58,14,14,0,0,0,13.5,10.58h75.47a14,14,0,0,0,13.5-10.58Z"/><path class="cls-15" d="M225.75,270.7h53.58a12.87,12.87,0,0,0,0-25.74H225.75Z"/><path class="cls-12" d="M224.92,268.36a1.68,1.68,0,0,0,0,3.36H280a13.9,13.9,0,0,0,0-27.8H224.92a1.68,1.68,0,1,0,0,3.36H280a10.54,10.54,0,0,1,0,21.07Z"/><path class="cls-19" d="M225.75,264.62h50.9a8.67,8.67,0,0,0,0-17.33H280a10.52,10.52,0,0,1,7.62,17.79l-.18.19a10.51,10.51,0,0,1-7.44,3.1H225.75Z"/><path class="cls-20" d="M346.45,257.83a13.93,13.93,0,0,0-13.9-13.9h10.21a13.9,13.9,0,0,1,0,27.8H332.55a13.93,13.93,0,0,0,13.9-13.9Zm-46.63,0a13.94,13.94,0,0,0-13.9-13.9h10.21a13.9,13.9,0,0,1,0,27.8H285.92a13.94,13.94,0,0,0,13.9-13.9Zm15.54,0a13.93,13.93,0,0,1-13.9,13.9h10.2a13.9,13.9,0,0,0,0-27.8h-10.2a13.93,13.93,0,0,1,13.9,13.9Zm15.54,0a13.93,13.93,0,0,1-13.9,13.9h10.2a13.9,13.9,0,0,0,0-27.8H317a13.93,13.93,0,0,1,13.9,13.9Z"/><path class="cls-21" d="M355.82,262.56a14,14,0,0,1-13.07,9.17H332.55a13.86,13.86,0,0,0,9.82-4.08,14.05,14.05,0,0,0,2-2.56h3.46a13.8,13.8,0,0,0,8-2.52Zm-16.77,2.52H328.85a14,14,0,0,1-2,2.56,13.86,13.86,0,0,1-9.82,4.08h10.2a13.86,13.86,0,0,0,9.82-4.08,14.05,14.05,0,0,0,2-2.56Zm-15.54,0a14,14,0,0,1-2,2.56,13.86,13.86,0,0,1-9.82,4.08h-10.2a13.86,13.86,0,0,0,9.82-4.08,14,14,0,0,0,2-2.56Zm-15.54,0h-10.2a14.05,14.05,0,0,1-2,2.56,13.86,13.86,0,0,1-9.82,4.08h10.21a13.86,13.86,0,0,0,9.82-4.08A14,14,0,0,0,308,265.08Z"/><path class="cls-22" d="M231.63,258.38l4.54,3.56a.32.32,0,0,0,.51-.25V247.61a.32.32,0,0,0-.32-.32h-9.48a.32.32,0,0,0-.32.32v14.09a.32.32,0,0,0,.51.25Z"/><path class="cls-23" d="M295.23,243.93h-60.8a11.2,11.2,0,0,1,0-22.39h60.8a11.2,11.2,0,0,1,0,22.39Z"/><path class="cls-24" d="M223.56,230.05a11.24,11.24,0,0,1,10.87-8.52h60.8a11.24,11.24,0,0,1,10.87,8.52,11.24,11.24,0,0,1-10.87,8.52h-60.8a11.24,11.24,0,0,1-10.87-8.52Z"/><path class="cls-15" d="M332.8,243.1H289.64a10.37,10.37,0,0,1,0-20.74H332.8Z"/><path class="cls-25" d="M333.47,241.22a1.36,1.36,0,1,1,0,2.71H289.11a11.2,11.2,0,0,1,0-22.39h44.36a1.35,1.35,0,1,1,0,2.71H289.11a8.49,8.49,0,0,0,0,17Z"/><path class="cls-24" d="M235.57,232.73a11.23,11.23,0,0,1,11.2-11.2h-8.22a11.2,11.2,0,0,0,0,22.39h8.22a11.23,11.23,0,0,1-11.2-11.2Zm34.51,0a11.23,11.23,0,0,1,11.2-11.2h-8.22a11.2,11.2,0,0,0,0,22.39h8.22a11.23,11.23,0,0,1-11.2-11.2Z"/><path class="cls-26" d="M235.57,232.73a11.23,11.23,0,0,1,11.2-11.2h-8.22a11.19,11.19,0,0,0-10.53,15,11.13,11.13,0,0,0,6.42,2h2.79a11.11,11.11,0,0,1-1.66-5.84Zm36.16,5.84h-8.22a11.2,11.2,0,0,1,9.54-17h8.22a11.18,11.18,0,0,0-9.54,17Z"/><path class="cls-19" d="M332.8,238.21h-41a7,7,0,0,1,0-14h-2.68A8.48,8.48,0,0,0,283,238.57l.14.15a8.46,8.46,0,0,0,6,2.49H332.8Z"/><path class="cls-3" d="M139.85,296.77h52.63c6.54,0,11.56-4.26,7.45-13.84s-47.91-122-47.91-122v-55l-2.43-3.27H130.11l-2.43,3.27v55s-43.81,112.41-47.91,122,.91,13.84,7.45,13.84Z"/><path class="cls-3" d="M124.08,99.24h31.53a6.1,6.1,0,0,1,6.08,6.08h0a6.1,6.1,0,0,1-6.08,6.08H124.08a6.1,6.1,0,0,1-6.08-6.08h0A6.1,6.1,0,0,1,124.08,99.24Z"/><path class="cls-27" d="M135,296.77h52.63c6.54,0,11.56-4.26,7.45-13.84s-47.91-122-47.91-122v-55l-2.43-3.27H125.3l-2.43,3.27v55s-43.81,112.41-47.91,122,.91,13.84,7.45,13.84Z"/><path class="cls-15" d="M135,296.77h44.18c6.54,0,11.56-4.26,7.45-13.84s-47.91-122-47.91-122V121.08H122.86v39.86s-43.81,112.41-47.91,122,.91,13.84,7.45,13.84H135Z"/><path class="cls-23" d="M114.13,194.62q-5.7,14.6-11.41,29.19-7.66,19.56-15.35,39.11-2.78,7-5.57,14.07c-1,2.52-2,5.07-3.07,7.56-.72,1.68-2,5.28-.4,6.88,1,1,2.78,1.24,4.09,1.24H187.66c1.31,0,3.12-.26,4.08-1.24,1.58-1.6.32-5.2-.4-6.88-1.07-2.49-2.06-5-3.07-7.56q-2.8-7-5.57-14.07Q175,243.37,167.35,223.8q-5.71-14.59-11.41-29.19Z"/><path class="cls-24" d="M114.13,194.62q-5.7,14.6-11.41,29.19-7.66,19.56-15.35,39.11-2.78,7-5.57,14.07c-.61,1.54-1.22,3.09-1.85,4.63h92.73c1.31,0,3.12-.26,4.08-1.24,1.58-1.6.32-5.2-.4-6.88-1.07-2.49-2.06-5-3.07-7.56q-2.8-7-5.57-14.07-7.71-19.54-15.35-39.11l-7.1-18.14Z"/><path class="cls-15" d="M119.27,99.24H150.8a6.1,6.1,0,0,1,6.08,6.08h0a6.1,6.1,0,0,1-6.08,6.08H119.27a6.1,6.1,0,0,1-6.08-6.08h0A6.1,6.1,0,0,1,119.27,99.24Z"/><path class="cls-25" d="M115.31,193.43h39.45a1.19,1.19,0,0,1,1.18,1.18h0a1.19,1.19,0,0,1-1.18,1.18H115.31a1.19,1.19,0,0,1-1.18-1.18h0A1.19,1.19,0,0,1,115.31,193.43Z"/><path class="cls-28" d="M215.92,291.67a6.39,6.39,0,0,0,.18,2.07c.06.13-.06.28-.11.4-.17.37-.7.86-2.42,1.09a18.07,18.07,0,0,1-4.63-.12c-1-.14-.4-.62.06-.82s4-1.29,4.51-1.78.16-1.36.24-1.5S215.69,290.9,215.92,291.67Z"/><path class="cls-29" d="M214.53,250.76l-.53.74s-1.42,13.38-1.41,17.58.8,4.86.77,9.1.29,12.38.24,13.39,1.83.82,2.38.4,1.3-14.59,1.19-16.7a26.61,26.61,0,0,1,.83-7c.5-1.95,3.55-12.72,3.6-15.54S214.53,250.76,214.53,250.76Z"/><path class="cls-28" d="M221,270.95a1.43,1.43,0,0,0,.73.11,7.56,7.56,0,0,1,1,0,1.5,1.5,0,0,1,.4.09c.38.15.9.65,1.22,2.36a18.07,18.07,0,0,1,.13,4.63c-.09,1-.6.43-.82,0s-1.37-3.53-2.25-4.34-1-.71-1.15-.79S220.25,271.22,221,270.95Z"/><path class="cls-30" d="M222.2,248.61c.57.43,3,1.92,3,2.46,1.2,11-13.39,11.6-15.49,14.63-.35.51,11.3,4.14,11.64,4.42s-.06,2.92-.48,3.21-14.56-3.11-17.75-5.12c0,0-2-1.58,0-5s11.12-9,11.74-9.74,1.64-1.59,1.26-2.84S222.2,248.61,222.2,248.61Z"/><path class="cls-28" d="M207.49,232.2,207,232a3.16,3.16,0,0,0-.55-1,2.22,2.22,0,0,1-.87-1.4c0-.64,2.39-1,2.39-.82s1,1.13.9,1.54a6.59,6.59,0,0,1-.44,1.07Z"/><path class="cls-8" d="M215.84,232.28s-3.14,7-3.75,7.69-3.11-7.09-3.65-8.5a3,3,0,0,0-1.46.38s1.63,9.37,2.42,11.26,2.59,2.17,4.24,1.5,6-8,6.88-9.37S219.18,229.1,215.84,232.28Z"/><path class="cls-31" d="M217.86,226.08c-1,.71-2.86,1.35-3.45,4.29-1.07,5.39.95,14-1,21.26-.11.39.2.31.35.28s3.23,0,6.27.2a9.62,9.62,0,0,0,5.92-1.15s.36-.39.26-.75a35.53,35.53,0,0,1-.94-13.45C225.83,231.17,224.46,219.42,217.86,226.08Z"/><path class="cls-32" d="M217.5,229.16s-1.79,8.53-2.29,9.47-5.19-7.12-6.14-8.56c0,0-1.21.31-1.53.78,0,0,4.1,10,5.44,11.93s3.41,1.78,5.08.63,4.69-10.38,5.36-12.11S220.43,224.81,217.5,229.16Z"/><path class="cls-29" d="M204.07,221.84s-.39.1-.41.37.79,6.56.9,6.81.21.65,2.85.4c0,0,.46-.08.56-.32s-.44-5.85-.47-6.51a.77.77,0,0,0-.81-.83C206.32,221.73,204.07,221.84,204.07,221.84Z"/><path class="cls-28" d="M207.65,231.18a6.46,6.46,0,0,0-1.26-.87c-.88-.49-1.63-.92-1.75-1.24a.63.63,0,0,1,.15-.73c.17-.1.61,0,.8,0s-.29-.34-.6-.4a4.44,4.44,0,0,1-.82-.15.26.26,0,0,1-.08-.31c0-.05.29-.06.63-.08a1.8,1.8,0,0,1,.85.07,2.29,2.29,0,0,0,.68.15.47.47,0,0,0,0-.48,3.29,3.29,0,0,0-.7-.7c-.15-.11-.65-.07-.88-.16s-.21-.37.07-.42a4.64,4.64,0,0,1,1,0c.4,0,.57.27,1.08.61a4.67,4.67,0,0,1,1.7,1.65c.26.67.32,1.53.55,2S208.78,231,207.65,231.18Z"/><path class="cls-23" d="M222,275.19a7,7,0,0,1,1.77,3.9c0,1.43,1.17.95,1.17.95s.52.3.76,0a12.58,12.58,0,0,0,.55-4.72,14.26,14.26,0,0,1-.29-4.35c.25-1.21-1.29-1.06-1.65-.77a6.4,6.4,0,0,0-2,0c-.45.21-.37.86,0,1.26a2.06,2.06,0,0,1,0,1.94C221.41,273.34,221.36,274.57,222,275.19Z"/><path class="cls-15" d="M223.82,270.12c-.24,0-.52,0-.78,0a4.73,4.73,0,0,0,.31,2.92c.93,2.19.6,2.7.6,2.7l.69,1a5.37,5.37,0,0,0-.42-3.56A4,4,0,0,1,223.82,270.12Z"/><path class="cls-15" d="M225,280s.52.3.76,0a12.58,12.58,0,0,0,.55-4.72,14.26,14.26,0,0,1-.29-4.35c.25-1.21-1.29-1.06-1.65-.77,0,2.47,1,3,1.15,6S225,280,225,280Z"/><path class="cls-23" d="M211.81,292.63a6.88,6.88,0,0,1-3.82,1.73c-1.4,0-.93,1.15-.93,1.15s-.29.51,0,.75a12.28,12.28,0,0,0,4.63.54,14,14,0,0,1,4.26-.28c1.18.24,1-1.26.76-1.61a6.27,6.27,0,0,0,0-2c-.2-.44-.84-.36-1.23,0a2,2,0,0,1-1.9,0C213.63,292,212.42,292,211.81,292.63Z"/><path class="cls-15" d="M216.78,294.37c0-.23,0-.51,0-.77a4.65,4.65,0,0,0-2.86.3c-2.15.91-2.64.59-2.64.59l-.93.67a5.26,5.26,0,0,0,3.49-.41A4,4,0,0,1,216.78,294.37Z"/><path class="cls-15" d="M207.06,295.51s-.29.51,0,.75a12.28,12.28,0,0,0,4.63.54,14,14,0,0,1,4.26-.28c1.18.24,1-1.26.76-1.61-2.42,0-2.94,1-5.91,1.12S207.06,295.51,207.06,295.51Z"/><path class="cls-28" d="M211.72,215.72s-.22,2.24-.22,2.65.31.75.36,1.33-.14,1.76-.13,2.07.65.23.81.41.1.46.17.63.28.14.32.26,0,.29,0,.4.34.13.46.49.4,1,1.71.55,2.35-2.39,2.57-3.38a13.69,13.69,0,0,0,.1-3.11c0-.43-.6-2.93-1-3.19S212.31,214.19,211.72,215.72Z"/><path class="cls-28" d="M216.2,223.16l-.26.95c1.76-.7,1.66,1.22,1.73,2.18,0,.43,3.7-.71,4.24-1.95-.6-.81-.41-.92-1.39-3.13-.3-.68-1-1.2-1.16-1.83,0,0,.47-2.51.1-3s-1.74-.18-1.82.47S216.2,223.16,216.2,223.16Z"/><path class="cls-29" d="M211.69,216a2.58,2.58,0,0,1-1.44-2.1,3.23,3.23,0,0,1,2.67-3.73c2.18-.48,3.26,1.42,5.45,1.43s3,.44,2.66,2.44a1.68,1.68,0,0,1,.88,2.17c-.52,1.59-1.62,4.1-1.32,5.07a4,4,0,0,1-1.36-2.08s.14-1.94-.4-2.13-1,.26-1,1.2-.08,1.27-.25,1.43-.3.16-.38,0,.25-1.35-.42-2-1.28-1-1.41-1.57S213.31,216.42,211.69,216Z"/><path class="cls-33" d="M70.41,212.74A30.4,30.4,0,1,0,40,182.34,30.46,30.46,0,0,0,70.41,212.74Z"/><rect class="cls-34" x="61.48" y="119.64" width="17.86" height="38.95"/><rect class="cls-34" x="55.97" y="115.79" width="28.88" height="7.7" rx="3.85" ry="3.85"/><rect class="cls-35" x="78.49" y="132.12" width="94.42" height="2.49" rx="0.85" ry="0.85"/><path class="cls-18" d="M93.5,171.57a25.47,25.47,0,1,1-46.17,0Z"/><rect class="cls-36" x="59.63" y="129.42" width="21.57" height="7.88" rx="2.7" ry="2.7"/><rect class="cls-36" x="118.11" y="129.42" width="32.97" height="7.88" rx="2.7" ry="2.7"/><rect class="cls-13" x="170.83" y="120.91" width="4.15" height="24.91" rx="1.42" ry="1.42"/><path class="cls-12" d="M86.82,171.57a25.49,25.49,0,0,1-29,32.9,25.48,25.48,0,0,0,35.7-32.9Z"/><path class="cls-12" d="M71.33,205.38a6.71,6.71,0,1,0-6.71-6.71A6.72,6.72,0,0,0,71.33,205.38Z"/><circle class="cls-9" cx="79.82" cy="191.45" r="3.14"/><circle class="cls-9" cx="74" cy="188.69" r="1.91"/><circle class="cls-9" cx="61.43" cy="202.62" r="1.32"/><circle class="cls-9" cx="80.61" cy="197.46" r="1.85"/><circle class="cls-9" cx="55.37" cy="182.46" r="2.79"/><circle class="cls-9" cx="50.37" cy="181.53" r="1"/><path class="cls-23" d="M164.87,286a8.48,8.48,0,1,0-8.48-8.48A8.49,8.49,0,0,0,164.87,286Z"/><circle class="cls-37" cx="175.6" cy="268.37" r="3.97"/><circle class="cls-37" cx="168.25" cy="264.88" r="2.41"/><circle class="cls-37" cx="152.38" cy="282.47" r="1.67"/><circle class="cls-37" cx="176.59" cy="275.96" r="2.33"/><path class="cls-23" d="M137.43,229.32a5.7,5.7,0,1,0-5.7-5.7A5.71,5.71,0,0,0,137.43,229.32Z"/><circle class="cls-37" cx="127.22" cy="221.74" r="2.03"/><path class="cls-38" d="M72.85,230.47c-6.21-6.32-10.83,1.71-10.19,9.77.62,7.75,7.37,34.56,5.93,45.34H71C77.27,271.66,80.88,238.65,72.85,230.47Z"/><path class="cls-18" d="M70.13,285.59c6.22-22.34-1.48-53.56-1.51-53.67a.36.36,0,1,0-.69.17c0,.1,7.74,31.37,1.47,53.5Z"/><path class="cls-18" d="M57.53,244.41c-6.55-3.47-8.2,4.1-5.64,10.36C54,260,63.61,275.74,67,285.59h3.17C70.59,272,65.33,248.55,57.53,244.41Z"/><path class="cls-38" d="M69,285.59c-2-18.54-14.47-38.88-14.51-39a.3.3,0,1,0-.51.31c0,.07,12.41,20.28,14.43,38.64Z"/><path class="cls-18" d="M85.19,253.16c6.34-2.77,7.35,4.4,4.53,10.05-1.94,3.89-9,14-13.64,22.38H71C72.71,272.93,78.56,256.06,85.19,253.16Z"/><path class="cls-38" d="M72.8,285.59c4.44-15.43,15-30.09,15-30.15a.28.28,0,0,1,.45.33c0,.06-10.5,14.57-14.92,29.82Z"/><rect class="cls-36" x="61.89" y="280.12" width="20.61" height="6.61" rx="1.01" ry="1.01"/><polygon class="cls-6" points="66.09 283.86 78.31 283.86 81.49 286.73 78.89 296.77 72.2 296.77 65.51 296.77 62.91 286.73 66.09 283.86"/><polygon class="cls-7" points="81.49 286.73 80.96 288.8 63.44 288.8 62.91 286.73 81.49 286.73"/><path class="cls-25" d="M304.32,153.72c4.24.54,11.6,1.28,12.51,1,1.24-.36,8.21-6.45,8.81-8,0,0,.06-.18-.19-.21s-1.11.06-1.39-.21-.47-.05-.66.29a71.61,71.61,0,0,1-7.21,5.09c-1.45.79-10-2.52-11.1-2.81C299.92,147.53,298.05,152.92,304.32,153.72Z"/><path class="cls-8" d="M322.67,147.91h15.95c1.29-.35,1.34-1.56,1.41-3.33a23.74,23.74,0,0,1,.25-2.92c.44-2.69,3.3-7.49,4.69-9.71l0,0h0c.4-.63.67-1,.73-1.13a17.61,17.61,0,1,0-30.36,0c.05.08.33.5.73,1.13h0l0,0c1.39,2.22,4.25,7,4.69,9.71a23.57,23.57,0,0,1,.25,2.92c.07,1.77.12,3,1.41,3.33Z"/><path class="cls-15" d="M328.2,148.15a.39.39,0,0,1-.77,0V136.61c0-.15,0-.29,0-.43l-.73-.2a6.24,6.24,0,0,1-2.2-1.14,2.19,2.19,0,0,1-.87-1.61,1.57,1.57,0,0,1,.07-.48,1.5,1.5,0,0,1,1-1,1.88,1.88,0,0,1,1.08,0,2.51,2.51,0,0,1,1.08.63,5,5,0,0,1,1.31,3.17,14.12,14.12,0,0,0,4.76,0,5,5,0,0,1,1.31-3.17,2.52,2.52,0,0,1,1.08-.63,1.88,1.88,0,0,1,1.08,0,1.5,1.5,0,0,1,1,1,1.57,1.57,0,0,1,.07.48,2.19,2.19,0,0,1-.87,1.61,6.23,6.23,0,0,1-2.2,1.14l-.73.2c0,.14,0,.28,0,.43v11.54a.39.39,0,0,1-.77,0V136.61c0-.09,0-.18,0-.28a15,15,0,0,1-4.66,0c0,.09,0,.18,0,.28v11.54Zm6.55-15.22a4.07,4.07,0,0,0-1,2.44l.42-.12a5.48,5.48,0,0,0,1.93-1,1.46,1.46,0,0,0,.6-1,.8.8,0,0,0,0-.24.74.74,0,0,0-.49-.48,1.11,1.11,0,0,0-.64,0,1.74,1.74,0,0,0-.74.44Zm-7.4,2.44a4.07,4.07,0,0,0-1-2.44,1.73,1.73,0,0,0-.74-.44,1.11,1.11,0,0,0-.64,0,.74.74,0,0,0-.49.48.8.8,0,0,0,0,.24,1.46,1.46,0,0,0,.6,1,5.48,5.48,0,0,0,1.93,1Z"/><path class="cls-7" d="M334.21,157.33c0,1.69-1.65,3.06-3.68,3.06s-3.68-1.37-3.68-3.06,1.94-1.79,1.94-1.79Z"/><path class="cls-7" d="M322.72,147.77h15.62a1.91,1.91,0,0,1,.43,3.78,1.91,1.91,0,0,1-1.49,3.11H337a1.91,1.91,0,0,1-1.53,3.06h-9.92a1.91,1.91,0,0,1-1.53-3.06h-.25a1.91,1.91,0,0,1-1.5-3.11,1.91,1.91,0,0,1,.43-3.78Z"/><path class="cls-29" d="M306.28,172.71c.52-.24,1-.48,1.31.17a118.21,118.21,0,0,1,7.67,20.38c.78,3-1.69,4.23-2.81,3.88-3.36-1-13.14-19.15-13.17-19.26C298.25,174.9,306.28,172.71,306.28,172.71Z"/><path class="cls-29" d="M315.76,194.85c1.16,5.16,3,16.41,5.68,22.38,0,0,.19.93-.29,1.37a1.69,1.69,0,0,1-2,.13c-.65-.4-6.47-14.81-8.55-22.66,0,0-.73-2.81.13-4S314.7,190.39,315.76,194.85Z"/><path class="cls-30" d="M306.18,173.14c.55.17,1.06.32.85,1a118,118,0,0,1-8.12,20.2c-1.46,2.74-4.1,2-4.69,1-1.35-2.32,1.26-14.49,2.59-20.17C297.54,172,303.31,171.78,306.18,173.14Z"/><path class="cls-30" d="M298.16,195.88c-2.72,4.54-9.14,14-11.32,20.12,0,0-.51.8-1.15.79a1.68,1.68,0,0,1-1.51-1.26c-.2-.73,5.53-15.18,9.44-22.31,0,0,1.41-2.54,2.85-2.81S300.47,191.93,298.16,195.88Z"/><path class="cls-23" d="M318.52,217.66c0,.25,0,.48,0,.63a10.07,10.07,0,0,1,0,1.7,1.71,1.71,0,0,0,0,.74s-.12.36.1.47a6.32,6.32,0,0,0,2.53.16,8,8,0,0,1,3,.06c.69.2,2.13.3,2.74-.55a.4.4,0,0,0-.08-.37c-.15-.15.14-1.13-.81-1.3s-3.73-.69-4.25-1.68a.45.45,0,0,0-.44-.15c-.25.07-.68.59-1.35.61s-1,0-1.2-.24-.27-.08-.27-.08Z"/><path class="cls-23" d="M284.12,215.1l-.22.6a10.15,10.15,0,0,1-.74,1.53,1.7,1.7,0,0,0-.28.68s-.26.28-.1.47a6.34,6.34,0,0,0,2.24,1.2,8,8,0,0,1,2.71,1.29c.55.47,1.82,1.16,2.72.63a.39.39,0,0,0,.08-.37c-.07-.2.6-1-.2-1.52s-3.1-2.17-3.18-3.29a.45.45,0,0,0-.34-.32c-.26,0-.87.26-1.48,0s-1-.4-1-.72-.22-.18-.22-.18Z"/><path class="cls-24" d="M296.42,174.93c1.78,4.26,12.15,3.69,13,1.93h0a3.92,3.92,0,0,0,0-2.25c-1.75-10,2.58-22.25-4.44-25.71l-1-.47a2.21,2.21,0,0,1,.15-1.2,11.68,11.68,0,0,0-2.48-.16l-.65.87c-5.66,3-2.66,10.83-3.54,18C297.15,169.07,295.61,173,296.42,174.93Z"/><path class="cls-39" d="M305.42,140.85h0a2.34,2.34,0,0,1,1.7,2.82l-1.15,4.6a2.34,2.34,0,0,1-2.82,1.7h0a2.34,2.34,0,0,1-1.7-2.82l1.15-4.6A2.34,2.34,0,0,1,305.42,140.85Z"/><path class="cls-39" d="M301.44,144.76a4,4,0,0,1,0,2.53,1.93,1.93,0,0,1,2.15-1.44s2.17,1.27,2.16,1.59h0c2.14.3,2.42-.68,2.45-.9s.15-1.39.21-1.46.57,0,.61-.29a23.42,23.42,0,0,0-.39-4.18,5.27,5.27,0,0,0-2.29-3.34c-3.71.17-2.56,5.05-3.27,4.69s-1.37.14-1.17,1.06C301.94,143.13,301.38,144.65,301.44,144.76Z"/><path class="cls-29" d="M308.42,145.07s-1-.09-1.76-.12-1.27,0-1.66-.44a2.07,2.07,0,0,1-.68-1.59,2.44,2.44,0,0,1,.65-1.67c.24-.2.24-.53.05-1s-.59-2.78,1.77-2.69c0,0,.07-.21-.23-.78s-3.88-.79-5.6,1.39a4.59,4.59,0,0,0-.5,5.31q.1.21.17.4s.23.48.39.88.58.72.91.45a1.72,1.72,0,0,0,.63-1.47s-.71-1.45,0-1.79c0,0,.49-.43,1,.59a3.4,3.4,0,0,1,.06,1,6.24,6.24,0,0,0,.2,3.29c.56,1.66,2.32,1.45,2.93,1.54s1.36-.09,1.45-.71l.32-2.25C308.56,145.22,308.48,145.08,308.42,145.07Z"/><path class="cls-23" d="M303.4,157.57c4.7,1,12.87,2.63,13.93,2.42,1.43-.29,9.87-6.62,10.71-8.38,0,0,.08-.2-.19-.26s-1.26,0-1.53-.38-.52-.11-.77.27a80.7,80.7,0,0,1-8.6,5.15c-1.7.77-10.93-3.9-12.16-4.35C299.1,150,296.45,156,303.4,157.57Z"/><path class="cls-39" d="M328.09,151.83l1.26-1.35a1.46,1.46,0,0,0,0-1.93h0a1.17,1.17,0,0,0-1.76,0l-1.26,1.35a1.46,1.46,0,0,0,0,1.93h0A1.17,1.17,0,0,0,328.09,151.83Z"/><path class="cls-39" d="M327.05,150.25l-.1-.86a.46.46,0,0,0-.64-.39h0a.77.77,0,0,0-.5.78l.1.86a.46.46,0,0,0,.64.39h0A.77.77,0,0,0,327.05,150.25Z"/><path class="cls-23" d="M186.32,195.71h18a2.38,2.38,0,0,1,2.37,2.37v16.73a.26.26,0,0,1-.45.19l-4-4H186.32a2.38,2.38,0,0,1-2.37-2.37V198.09A2.38,2.38,0,0,1,186.32,195.71Z"/><circle class="cls-10" cx="189.7" cy="203.34" r="1.69"/><circle class="cls-10" cx="195.3" cy="203.34" r="1.69"/><circle class="cls-10" cx="200.9" cy="203.34" r="1.69"/><path class="cls-18" d="M287.59,111.64h18a2.38,2.38,0,0,1,2.37,2.37v16.74a.27.27,0,0,1-.45.19l-4-4H287.59a2.38,2.38,0,0,1-2.37-2.37V114A2.38,2.38,0,0,1,287.59,111.64Z"/><circle class="cls-10" cx="290.97" cy="119.27" r="1.69"/><circle class="cls-10" cx="296.57" cy="119.27" r="1.69"/><circle class="cls-10" cx="302.17" cy="119.27" r="1.69"/><path class="cls-8" d="M164.08,228.92l-.46-.56a103.32,103.32,0,0,0-5.79,9.66c-2.54,4.91,5.05,7.13,8.16,8.55a.44.44,0,0,0,.41-.08.85.85,0,0,0,.14-1.05c-.24-.5-5.5-3.64-6.18-4.68s3.71-6.6,5-8Z"/><path class="cls-29" d="M171.25,224.8a3.54,3.54,0,0,0,.33,1.95c.46.66-1.64,1-3,.41s-1.38-2.69-1-3S171.25,224.8,171.25,224.8Z"/><path class="cls-29" d="M169.57,248.71c.5-.28,1-.55,1.31.08a117.82,117.82,0,0,1,9.05,19.74c1,2.94-1.38,4.33-2.52,4.06C174,271.78,163,254.45,163,254.34,161.73,251.45,169.57,248.71,169.57,248.71Z"/><path class="cls-29" d="M180.57,270c1.65,5,4.58,16,7.8,21.67,0,0,.76,1.21.33,1.69s-1.74.34-2.43,0-7.85-14.08-10.68-21.67c0,0-1-2.71-.26-4S179.09,265.67,180.57,270Z"/><path class="cls-30" d="M171.34,250.43c.54.18,1.05.33.83,1a117.83,117.83,0,0,1-8.43,20c-1.5,2.71-4.12,1.9-4.7.88-1.31-2.33,1.49-14.43,2.92-20.07C162.74,249.18,168.5,249,171.34,250.43Z"/><path class="cls-30" d="M163.11,272.91c-2.54,4.62-8.59,14.26-10.54,20.48,0,0-.47.82-1.12.84a1.68,1.68,0,0,1-1.55-1.2c-.23-.72,4.95-15.34,8.58-22.59,0,0,1.31-2.58,2.74-2.91S165.26,268.89,163.11,272.91Z"/><path class="cls-31" d="M162.28,230.63c-1.67,5.37,2.48,9.32-1.75,23.89-.54,1.87,9.52,2.71,13.58.74,0,0,1.12-.59.77-2.7S172,247,172.6,242.8s1.9-7.92,1.12-9.68c-1.55-3.48-2.92-5.45-4.13-6.21C167.25,225.43,163.43,226.94,162.28,230.63Z"/><path class="cls-40" d="M170.42,224.7v.69a.77.77,0,0,0-.72.4c-.23.44,0,.91-.1,1.27s-1.84-.39-2.09-.63-.37-.53-.21-.79a11,11,0,0,0,.81-1.39C168.21,224,170.42,224.7,170.42,224.7Z"/><path class="cls-39" d="M166.94,221.14h0l-.33.68c1.09,1.54,1.92,3.31,4,3.6,1.56.22,1.85-.54,1.9-.73s.26-1.3.32-1.36.53,0,.6-.23a22.17,22.17,0,0,0,0-4,5,5,0,0,0-1.87-3.35c-3.52-.16-2.86,4.55-3.5,4.15s-1.31,0-1.19.9A.93.93,0,0,0,166.94,221.14Z"/><path class="cls-29" d="M172.38,216.63c-1.91-.19-.92,3.72-1.34,5.3-.69,2.61-2.17,3.07-1.53,5.75a.22.22,0,0,1,0,.27c-.13.15-6.81-.4-7.15-3.14s1.92-3.36,2.17-6.07.84-4.2,3.34-4.62S173.52,215.54,172.38,216.63Z"/><path class="cls-31" d="M185.77,292.76c0,.25,0,.48,0,.63a10.13,10.13,0,0,1-.1,1.69,1.69,1.69,0,0,0,0,.73s-.13.36.08.47a6.29,6.29,0,0,0,2.52.26,7.92,7.92,0,0,1,3,.17c.68.22,2.12.38,2.75-.45a.39.39,0,0,0-.07-.37c-.14-.16.18-1.12-.76-1.32s-3.69-.83-4.18-1.83a.45.45,0,0,0-.43-.16c-.26.06-.7.57-1.37.55s-1,0-1.19-.28-.27-.09-.27-.09Z"/><path class="cls-8" d="M163.81,233.72c.64,4.37,2,11.89,2.48,12.72.72,1.13,8.9,6.29,10.68,6.44,0,0,.19,0,.16-.25s-.37-1.09-.18-1.44-.08-.48-.48-.57a74.18,74.18,0,0,1-7.23-5.69c-1.21-1.21-.23-10.64-.25-11.84C168.9,227.56,162.86,227.26,163.81,233.72Z"/><path class="cls-39" d="M176.51,252.9l1.56.64a1.34,1.34,0,0,0,1.66-.61h0a1.07,1.07,0,0,0-.55-1.52l-1.56-.64a1.34,1.34,0,0,0-1.66.61h0A1.08,1.08,0,0,0,176.51,252.9Z"/><path class="cls-39" d="M177.54,251.5l.7-.36a.42.42,0,0,0,.13-.67h0a.71.71,0,0,0-.83-.18l-.7.36a.42.42,0,0,0-.13.67h0A.71.71,0,0,0,177.54,251.5Z"/><path class="cls-31" d="M150.24,291c-.07.24-.13.46-.18.61a10.09,10.09,0,0,1-.63,1.58,1.7,1.7,0,0,0-.24.7s-.24.3-.07.47a6.31,6.31,0,0,0,2.31,1,8,8,0,0,1,2.78,1.11c.57.43,1.88,1,2.75.45a.39.39,0,0,0,.05-.37c-.09-.2.53-1-.29-1.5s-3.23-2-3.37-3.07a.45.45,0,0,0-.36-.29c-.26,0-.85.31-1.47.09s-1-.34-1-.65-.23-.17-.23-.17Z"/><path class="cls-4" d="M121.88,258.16v28.56a3.68,3.68,0,0,1-3.67,3.67h0a3.68,3.68,0,0,1-3.67-3.67V258.16Z"/><path class="cls-4" d="M113.6,256.49h9.23a1.72,1.72,0,0,1,1.72,1.72h0a1.72,1.72,0,0,1-1.72,1.72H113.6a1.73,1.73,0,0,1-1.72-1.72h0A1.73,1.73,0,0,1,113.6,256.49Z"/><path class="cls-4" d="M137.45,251.76v39.33a3.68,3.68,0,0,1-3.67,3.67h0a3.68,3.68,0,0,1-3.67-3.67V251.76Z"/><path class="cls-4" d="M129.17,250.09h9.23a1.72,1.72,0,0,1,1.72,1.72h0a1.72,1.72,0,0,1-1.72,1.72h-9.23a1.72,1.72,0,0,1-1.72-1.72h0A1.72,1.72,0,0,1,129.17,250.09Z"/><path class="cls-4" d="M153,256.17v30.55a3.68,3.68,0,0,1-3.67,3.67h0a3.68,3.68,0,0,1-3.67-3.67V256.17Z"/><path class="cls-4" d="M144.74,254.5H154a1.72,1.72,0,0,1,1.72,1.72h0a1.72,1.72,0,0,1-1.72,1.72h-9.23a1.72,1.72,0,0,1-1.72-1.72h0A1.72,1.72,0,0,1,144.74,254.5Z"/><path class="cls-15" d="M120.54,258.16v28.56a3.68,3.68,0,0,1-3.67,3.67h0a3.68,3.68,0,0,1-3.67-3.67V258.16Z"/><path class="cls-23" d="M114.7,268.26v18.47a2.17,2.17,0,0,0,4.35,0V268.26Z"/><path class="cls-15" d="M112.26,256.49h9.23a1.73,1.73,0,0,1,1.72,1.72h0a1.73,1.73,0,0,1-1.72,1.72h-9.23a1.73,1.73,0,0,1-1.72-1.72h0A1.73,1.73,0,0,1,112.26,256.49Z"/><path class="cls-15" d="M136.11,251.76v39.33a3.68,3.68,0,0,1-3.67,3.67h0a3.68,3.68,0,0,1-3.67-3.67V251.76Z"/><path class="cls-18" d="M130.27,261.85v29.24a2.17,2.17,0,0,0,4.35,0V261.85Z"/><path class="cls-15" d="M127.83,250.09h9.23a1.73,1.73,0,0,1,1.72,1.72h0a1.73,1.73,0,0,1-1.72,1.72h-9.23a1.73,1.73,0,0,1-1.72-1.72h0A1.73,1.73,0,0,1,127.83,250.09Z"/><path class="cls-15" d="M151.68,256.17v30.55a3.68,3.68,0,0,1-3.67,3.67h0a3.68,3.68,0,0,1-3.67-3.67V256.17Z"/><path class="cls-41" d="M145.84,266.26v20.46a2.17,2.17,0,0,0,4.35,0V266.26Z"/><path class="cls-7" d="M157.7,278.46h0a.57.57,0,0,1-.57.56H107.76a.57.57,0,0,1-.57-.56h0a.57.57,0,0,1,.57-.57h49.37A.57.57,0,0,1,157.7,278.46Z"/><path class="cls-15" d="M143.4,254.5h9.23a1.72,1.72,0,0,1,1.72,1.72h0a1.72,1.72,0,0,1-1.72,1.72H143.4a1.72,1.72,0,0,1-1.72-1.72h0A1.72,1.72,0,0,1,143.4,254.5Z"/><path class="cls-7" d="M157.7,275.52h0a1,1,0,0,1-1,1h-48.6a1,1,0,0,1-1-1h0a1,1,0,0,1,1-.95h48.6A1,1,0,0,1,157.7,275.52Z"/><path class="cls-7" d="M107.46,269.68h0a2.36,2.36,0,0,1,2.35,2.35v25.34a2.36,2.36,0,0,1-2.35,2.35h0a2.36,2.36,0,0,1-2.35-2.35V272A2.36,2.36,0,0,1,107.46,269.68Z"/><path class="cls-7" d="M157.43,269.68h0a2.36,2.36,0,0,1,2.35,2.35v25.34a2.36,2.36,0,0,1-2.35,2.35h0a2.36,2.36,0,0,1-2.35-2.35V272A2.36,2.36,0,0,1,157.43,269.68Z"/><path class="cls-42" d="M59,308.12H331.24a2.78,2.78,0,0,1,2.65,2.87v14.13a2.78,2.78,0,0,1-2.65,2.87H59a2.78,2.78,0,0,1-2.65-2.87V311A2.78,2.78,0,0,1,59,308.12Z"/><path class="cls-24" d="M73.71,328h5.67V313.28H73.71V328Zm235.55,0h7.27V313.28h-7.27V328Zm-156.84,0h153.2V313.28H152.42V328Zm-18.84,0h7.27V313.28h-7.27V328Zm-11.9,0H126V313.28h-4.3Z"/><path class="cls-7" d="M59,308.12H331.24a2.78,2.78,0,0,1,2.65,2.87v6H56.34v-6A2.78,2.78,0,0,1,59,308.12Z"/><path class="cls-43" d="M31.65,296.77H358.59a2.41,2.41,0,0,1,2.3,2.5v11.89a2.42,2.42,0,0,1-2.3,2.5H31.65a2.41,2.41,0,0,1-2.3-2.5V299.26A2.41,2.41,0,0,1,31.65,296.77Z"/><path class="cls-44" d="M342.2,296.77h8v16.89h-8V296.77Zm-153.57,0h6v16.89h-6V296.77Zm-144,0H54.88v16.89H44.66V296.77Zm15.32,0h91.48v16.89H60V296.77Zm107.74,0h10.22v16.89H167.73Z"/><ellipse class="cls-45" cx="60.52" cy="322.79" rx="1.29" ry="1.4"/><ellipse class="cls-45" cx="329.72" cy="322.79" rx="1.29" ry="1.4"/><path class="cls-15" d="M360.9,301.4H204.25l-4.88,3a.4.4,0,0,1-.21.06H29.34v-.9H199.07l4.84-3a.39.39,0,0,1,.24-.08H360.9Z"/><path class="cls-4" d="M222.63,34.44Zm1.88-7.15a3.61,3.61,0,1,1-1.06,2.56,3.6,3.6,0,0,1,1.06-2.56Zm.78-3.58a6.33,6.33,0,0,0-1.42.6,6.42,6.42,0,0,0-1.24.94.22.22,0,0,1-.27,0l-1.68-1h0a.42.42,0,0,0-.56.16h0l-1.18,2a.42.42,0,0,0,.15.57h0l1.67,1a.22.22,0,0,1,.1.25h0a6.34,6.34,0,0,0-.14.76,6.49,6.49,0,0,0,0,1.56,6.17,6.17,0,0,0,.14.76.22.22,0,0,1-.12.25l-1.67,1h0a.42.42,0,0,0-.15.57l1.19,2.06h0a.42.42,0,0,0,.57.15h0l1.67-1a.22.22,0,0,1,.26,0A6.37,6.37,0,0,0,225.3,36a.22.22,0,0,1,.16.21v1.94a.42.42,0,0,0,.42.42h2.38a.42.42,0,0,0,.42-.42V36.2a.22.22,0,0,1,.17-.22,6.33,6.33,0,0,0,1.42-.6,6.4,6.4,0,0,0,1.24-.94.22.22,0,0,1,.28,0l1.67,1a.42.42,0,0,0,.57-.15h0l1.18-2h0a.42.42,0,0,0-.15-.57l-1.68-1a.22.22,0,0,1-.1-.24h0a6.32,6.32,0,0,0,.14-.76,6.49,6.49,0,0,0,0-1.56,6.33,6.33,0,0,0-.14-.76.22.22,0,0,1,.12-.25l1.67-1a.42.42,0,0,0,.15-.57h0l-1.18-2h0a.42.42,0,0,0-.57-.15h0l-1.68,1a.22.22,0,0,1-.27,0,6.4,6.4,0,0,0-1.24-.93,6.33,6.33,0,0,0-1.43-.61.22.22,0,0,1-.16-.21V21.55a.42.42,0,0,0-.42-.42h-2.38a.42.42,0,0,0-.42.42v1.94A.22.22,0,0,1,225.29,23.71Z"/><path class="cls-4" d="M241.91,52.61a8.51,8.51,0,1,1-1.85,2.77,8.52,8.52,0,0,1,1.85-2.77ZM245,51.49a7.77,7.77,0,1,0,3-.58,7.75,7.75,0,0,0-3,.58ZM244,45.22a13.73,13.73,0,0,0-1.57.56,13.88,13.88,0,0,0-1.51.75,14,14,0,0,0-2.72,2,.89.89,0,0,1-1.07.13c-1.25-.72-2.56-1.44-3.79-2.19a.52.52,0,0,0-.18-.06.56.56,0,0,0-.21,0,.55.55,0,0,0-.19.09.53.53,0,0,0-.14.16c-.91,1.38-1.83,3.16-2.67,4.62a.53.53,0,0,0-.07.2.58.58,0,0,0,0,.22A.55.55,0,0,0,230,52a.52.52,0,0,0,.16.14c1.13.74,2.57,1.49,3.77,2.18a.89.89,0,0,1,.43.61l.08,0-.09.35c-.07.28-.13.55-.18.83s-.09.55-.13.84-.06.57-.08.85,0,.56,0,.86,0,.58,0,.85,0,.56.08.85.08.57.13.84.11.55.18.83a.89.89,0,0,1-.46,1l-3.34,1.93h0l-.4.23a.54.54,0,0,0-.16.14.56.56,0,0,0-.09.19.58.58,0,0,0,0,.22.53.53,0,0,0,.07.2l2.47,4.28h0l.2.35a.53.53,0,0,0,.14.16.56.56,0,0,0,.41.11.52.52,0,0,0,.2-.07c1.2-.75,2.54-1.47,3.78-2.18a.89.89,0,0,1,1.06.13h0a14,14,0,0,0,2.72,2,13.83,13.83,0,0,0,3.11,1.32.89.89,0,0,1,.65.86v4.35a.52.52,0,0,0,0,.2.56.56,0,0,0,.29.29.52.52,0,0,0,.2,0h5.34a.53.53,0,0,0,.2,0,.55.55,0,0,0,.18-.12.56.56,0,0,0,.12-.18.52.52,0,0,0,0-.2V72.91a.9.9,0,0,1,.69-.87,13.69,13.69,0,0,0,1.57-.56,13.9,13.9,0,0,0,2.93-1.69,14,14,0,0,0,1.3-1.11.89.89,0,0,1,1.11-.1l3.73,2.15a.53.53,0,0,0,.2.07.57.57,0,0,0,.22,0,.56.56,0,0,0,.19-.09.53.53,0,0,0,.14-.16c.89-1.54,1.78-3.08,2.67-4.62a.56.56,0,0,0,.07-.2.57.57,0,0,0,0-.21.56.56,0,0,0-.09-.19.52.52,0,0,0-.15-.14L261.9,63a.89.89,0,0,1-.38-.42.85.85,0,0,1,0-.14l-.1,0,.1-.4c.07-.28.13-.55.18-.83s.09-.55.13-.84.06-.57.08-.85,0-.56,0-.86,0-.58,0-.86,0-.56-.08-.85-.08-.58-.13-.84-.11-.55-.18-.83a.89.89,0,0,1,.06-.59.9.9,0,0,1,.4-.42l3.73-2.16a.51.51,0,0,0,.16-.14.54.54,0,0,0,.09-.19.57.57,0,0,0,0-.21.56.56,0,0,0-.07-.2C265,50,264,48.19,263.2,46.73a.53.53,0,0,0-.14-.16.56.56,0,0,0-.41-.11.53.53,0,0,0-.2.07l-3.77,2.18a.88.88,0,0,1-.57.11.89.89,0,0,1-.51-.25,14,14,0,0,0-4.22-2.79,13.89,13.89,0,0,0-1.6-.57.89.89,0,0,1-.47-.32.9.9,0,0,1-.18-.54V40a.53.53,0,0,0,0-.2.56.56,0,0,0-.12-.18.52.52,0,0,0-.18-.12.53.53,0,0,0-.2,0h-5.34a.52.52,0,0,0-.2,0,.54.54,0,0,0-.34.5v4.35a.89.89,0,0,1-.19.55.9.9,0,0,1-.5.32Zm-1.88-.16a14.62,14.62,0,0,0-1.59.8A14.78,14.78,0,0,0,237.69,48l-.06,0h-.06l-3.81-2.2a1.31,1.31,0,0,0-.48-.15,1.34,1.34,0,0,0-1,.27,1.32,1.32,0,0,0-.34.39c-.92,1.49-1.79,3.1-2.67,4.62a1.31,1.31,0,0,0-.17.49,1.36,1.36,0,0,0,0,.52,1.33,1.33,0,0,0,.23.47,1.31,1.31,0,0,0,.39.34c1.21.75,2.53,1.46,3.77,2.18a.1.1,0,0,1,0,0,.1.1,0,0,1,0,.07l-.09.35h0q-.06.26-.1.52-.08.45-.14.89t-.08.89q0,.46,0,.9c0,.29,0,.59,0,.9s0,.61.08.89.08.59.14.89.12.59.19.88a.11.11,0,0,1-.05.12c-1.39.74-2.79,1.61-4.16,2.4l0,.06,0,.05a1.33,1.33,0,0,0-.23.47,1.35,1.35,0,0,0,0,.52,1.29,1.29,0,0,0,.17.49l2.87,5,.05,0,.09.07a1.34,1.34,0,0,0,1,.26,1.31,1.31,0,0,0,.48-.16c1.26-.67,2.55-1.47,3.79-2.19h.06l.06,0a14.7,14.7,0,0,0,2.87,2.16,14.68,14.68,0,0,0,3.29,1.4l.05,0a.1.1,0,0,1,0,.06v4.35a1.33,1.33,0,0,0,.39.94,1.34,1.34,0,0,0,.43.29,1.32,1.32,0,0,0,.51.1h5.34a1.31,1.31,0,0,0,.51-.1,1.36,1.36,0,0,0,.43-.29,1.33,1.33,0,0,0,.29-.43,1.31,1.31,0,0,0,.1-.51V72.91a.1.1,0,0,1,0-.07l.06,0h0a14.68,14.68,0,0,0,4.77-2.39,14.91,14.91,0,0,0,1.37-1.17l.06,0,.07,0,3.77,2.18a1.31,1.31,0,0,0,.49.16,1.34,1.34,0,0,0,1-.26,1.31,1.31,0,0,0,.34-.38c1-1.59,1.93-3.34,2.87-5l-.05,0s0-.08,0-.13a1.35,1.35,0,0,0,0-.52,1.32,1.32,0,0,0-.23-.47,1.3,1.3,0,0,0-.39-.34l-3.77-2.18a.1.1,0,0,1,0,0,.1.1,0,0,1,0-.07l.1-.4h0c0-.16.07-.31.09-.47s.1-.6.14-.89.06-.59.08-.89,0-.61,0-.9,0-.59,0-.9,0-.61-.08-.9-.08-.58-.14-.89-.12-.59-.19-.87a.11.11,0,0,1,0-.07.1.1,0,0,1,0,0l3.77-2.17a1.28,1.28,0,0,0,.39-.34,1.33,1.33,0,0,0,.26-1,1.32,1.32,0,0,0-.16-.48c-.9-1.66-1.93-3.34-2.88-5l-.05,0-.09-.07a1.35,1.35,0,0,0-.47-.23,1.36,1.36,0,0,0-.52,0,1.32,1.32,0,0,0-.49.16l-.28.16h0l-3.5,2h-.07l-.06,0h0a15,15,0,0,0-1.37-1.16,14.8,14.8,0,0,0-1.49-1,14.72,14.72,0,0,0-3.29-1.4l-.05,0a.09.09,0,0,1,0-.06V40a1.32,1.32,0,0,0-.39-.94,1.34,1.34,0,0,0-.43-.29,1.31,1.31,0,0,0-.51-.1h-5.34a1.32,1.32,0,0,0-.51.1,1.36,1.36,0,0,0-.43.29,1.32,1.32,0,0,0-.39.94v4.35a.12.12,0,0,1,0,.07l-.06,0h0A14.57,14.57,0,0,0,242.15,45.06Z"/><path class="cls-4" d="M146.48,83.51Zm1.88-7.15a3.61,3.61,0,1,1-1.06,2.56,3.6,3.6,0,0,1,1.06-2.56Zm.78-3.58a6.34,6.34,0,0,0-1.42.6,6.41,6.41,0,0,0-1.24.94.22.22,0,0,1-.26,0l-1.68-1h0a.42.42,0,0,0-.56.16h0l-1.18,2a.42.42,0,0,0,.15.57h0l1.67,1a.22.22,0,0,1,.1.24h0a6.24,6.24,0,0,0-.14.76,6.49,6.49,0,0,0,0,1.56,6.34,6.34,0,0,0,.14.76.22.22,0,0,1-.12.25l-1.67,1h0a.42.42,0,0,0-.15.57L144,84.3h0a.42.42,0,0,0,.57.15h0l1.67-1a.22.22,0,0,1,.26,0,6.37,6.37,0,0,0,2.67,1.54.22.22,0,0,1,.16.21V87.2a.42.42,0,0,0,.42.42h2.38a.42.42,0,0,0,.42-.42V85.27a.22.22,0,0,1,.17-.22,6.33,6.33,0,0,0,1.42-.6,6.41,6.41,0,0,0,1.24-.94.22.22,0,0,1,.28,0l1.67,1a.42.42,0,0,0,.57-.15h0l1.18-2h0a.42.42,0,0,0-.15-.57l-1.68-1a.22.22,0,0,1-.1-.24h0a6.25,6.25,0,0,0,.14-.76,6.43,6.43,0,0,0,0-1.56,6.24,6.24,0,0,0-.14-.76.22.22,0,0,1,.12-.25l1.67-1a.42.42,0,0,0,.15-.57h0l-1.18-2h0a.42.42,0,0,0-.57-.15h0l-1.68,1a.22.22,0,0,1-.27,0,6.45,6.45,0,0,0-1.24-.93,6.33,6.33,0,0,0-1.43-.61.22.22,0,0,1-.16-.21V70.62a.42.42,0,0,0-.42-.42h-2.38a.42.42,0,0,0-.42.42v1.94A.22.22,0,0,1,149.14,72.77Z"/><path class="cls-4" d="M100.28,152Zm1.88-7.15a3.61,3.61,0,1,1-1.06,2.56,3.6,3.6,0,0,1,1.06-2.56Zm.78-3.58a6.32,6.32,0,0,0-1.42.6,6.41,6.41,0,0,0-1.24.94.22.22,0,0,1-.26,0l-1.68-1h0a.42.42,0,0,0-.56.16h0l-1.18,2a.42.42,0,0,0,.15.57h0l1.67,1a.22.22,0,0,1,.1.25h0a6.44,6.44,0,0,0,0,3.08.22.22,0,0,1-.12.25l-1.67,1h0a.42.42,0,0,0-.15.57l1.19,2.06h0a.42.42,0,0,0,.57.15h0l1.67-1a.22.22,0,0,1,.26,0,6.42,6.42,0,0,0,1.24.94,6.34,6.34,0,0,0,1.43.61.22.22,0,0,1,.16.21v1.94a.42.42,0,0,0,.42.42h2.38a.42.42,0,0,0,.42-.42v-1.94a.22.22,0,0,1,.17-.22,6.32,6.32,0,0,0,1.42-.6,6.41,6.41,0,0,0,1.24-.94.22.22,0,0,1,.28,0l1.67,1a.42.42,0,0,0,.57-.15h0l1.18-2h0a.42.42,0,0,0-.15-.57l-1.68-1a.22.22,0,0,1-.1-.24h0a6.43,6.43,0,0,0,0-3.08.22.22,0,0,1,.12-.25l1.67-1a.42.42,0,0,0,.15-.57h0l-1.18-2h0a.42.42,0,0,0-.57-.15h0l-1.68,1a.22.22,0,0,1-.27,0,6.44,6.44,0,0,0-1.24-.93,6.34,6.34,0,0,0-1.43-.61.22.22,0,0,1-.16-.21v-1.94a.42.42,0,0,0-.42-.42h-2.38a.42.42,0,0,0-.42.42v1.94A.22.22,0,0,1,102.94,141.3Z"/><circle class="cls-10" cx="122.94" cy="83.65" r="1.82"/><circle class="cls-10" cx="192.27" cy="79.57" r="1.82"/><circle class="cls-10" cx="262.28" cy="22.47" r="1.82"/><circle class="cls-10" cx="303.07" cy="74.81" r="1.82"/><circle class="cls-10" cx="356.09" cy="229.79" r="1.82"/><circle class="cls-10" cx="20.98" cy="296.4" r="1.82"/><circle class="cls-10" cx="375.12" cy="286.89" r="1.82"/><path class="cls-3" d="M172.78,84.23a.62.62,0,1,0-1.24,0v1.46h-1.46a.62.62,0,0,0,0,1.24h1.46v1.46a.62.62,0,1,0,1.24,0V86.92h1.46a.62.62,0,0,0,0-1.24h-1.46Z"/><path class="cls-3" d="M219.68,69.27a.62.62,0,0,0-1.24,0v1.46H217A.62.62,0,0,0,217,72h1.46v1.46a.62.62,0,0,0,1.24,0V72h1.46a.62.62,0,0,0,0-1.24h-1.46Z"/><path class="cls-3" d="M170.74,44.8a.62.62,0,0,0-1.24,0v1.46H168a.62.62,0,1,0,0,1.24h1.46V49a.62.62,0,0,0,1.24,0V47.5h1.46a.62.62,0,0,0,0-1.24h-1.46Z"/><path class="cls-3" d="M307.37,44.12a.62.62,0,0,0-1.24,0v1.46h-1.46a.62.62,0,0,0,0,1.24h1.46v1.46a.62.62,0,0,0,1.24,0V46.82h1.46a.62.62,0,0,0,0-1.24h-1.46Z"/><path class="cls-3" d="M364.47,90.35a.62.62,0,1,0-1.24,0V91.8h-1.46a.62.62,0,1,0,0,1.24h1.46V94.5a.62.62,0,1,0,1.24,0V93h1.46a.62.62,0,1,0,0-1.24h-1.46Z"/><path class="cls-3" d="M371.94,184.15a.62.62,0,1,0-1.24,0v1.46h-1.46a.62.62,0,0,0,0,1.24h1.46v1.46a.62.62,0,1,0,1.24,0v-1.46h1.46a.62.62,0,0,0,0-1.24h-1.46Z"/><path class="cls-3" d="M31.4,219.49a.62.62,0,0,0-1.24,0V221H28.7a.62.62,0,1,0,0,1.24h1.46v1.46a.62.62,0,0,0,1.24,0v-1.46h1.46a.62.62,0,1,0,0-1.24H31.4Z"/><path class="cls-3" d="M13,243.28a.62.62,0,0,0-1.24,0v1.46H10.35a.62.62,0,0,0,0,1.24H11.8v1.46a.62.62,0,0,0,1.24,0V246H14.5a.62.62,0,0,0,0-1.24H13Z"/><path class="cls-3" d="M35.47,110.74a.62.62,0,1,0-1.24,0v1.46H32.78a.62.62,0,1,0,0,1.24h1.46v1.46a.62.62,0,1,0,1.24,0v-1.46h1.46a.62.62,0,1,0,0-1.24H35.47Z"/><path class="cls-3" d="M388.94,310.58a.62.62,0,0,0-1.24,0V312h-1.46a.62.62,0,0,0,0,1.24h1.46v1.46a.62.62,0,1,0,1.24,0v-1.46h1.46a.62.62,0,0,0,0-1.24h-1.46Z"/><path class="cls-3" d="M161.9.62a.62.62,0,0,0-1.24,0V2.08h-1.46a.62.62,0,1,0,0,1.24h1.46V4.78a.62.62,0,1,0,1.24,0V3.32h1.46a.62.62,0,1,0,0-1.24H161.9Z"/></g></g></svg>