<svg xmlns="http://www.w3.org/2000/svg" xmlns:xlink="http://www.w3.org/1999/xlink" viewBox="0 0 438 313.55"><defs><style>.cls-1{fill:#008f57;}.cls-2{fill:#29baa3;}.cls-3{fill:#79bf4c;}.cls-4{fill:#4fd3b9;}.cls-5{clip-path:url(#clip-path);}.cls-10,.cls-12,.cls-33,.cls-6,.cls-8{fill:none;stroke-miterlimit:10;}.cls-6{stroke:#79bf4c;}.cls-10,.cls-12,.cls-6,.cls-8{stroke-width:1.19px;}.cls-7{clip-path:url(#clip-path-2);}.cls-8{stroke:#4fd3b9;}.cls-9{clip-path:url(#clip-path-3);}.cls-10{stroke:#008f57;}.cls-11{clip-path:url(#clip-path-4);}.cls-12{stroke:#29baa3;}.cls-13{clip-path:url(#clip-path-5);}.cls-14{clip-path:url(#clip-path-6);}.cls-15{clip-path:url(#clip-path-7);}.cls-16{fill:#fab594;}.cls-17{fill:#eeaf35;}.cls-18{fill:#fff;}.cls-19{fill:#1f143f;}.cls-20{fill:#386e8a;}.cls-21{fill:#0091a2;}.cls-22{fill:#ffdb49;}.cls-23{fill:#d99d81;}.cls-24,.cls-29{fill:#231f20;}.cls-24,.cls-34{opacity:0.2;}.cls-25{fill:#dfdbda;}.cls-26{fill:#00a1dd;}.cls-27{fill:#3cb35e;}.cls-28{fill:#009364;}.cls-29{opacity:0.1;}.cls-30{fill:#2e3a36;}.cls-31{fill:#d5bfb8;}.cls-32{fill:#938585;}.cls-33{stroke:#b8a392;stroke-width:3.56px;}.cls-34{fill:#eaeff2;}</style><clipPath id="clip-path"><path class="cls-1" d="M148.48,215.91c-2.42,17-3.29,34.25-7,51-.81,3.66-1.39,7.69-3.87,10.58,2.65-15.42,3-31.28,0-46.62-1.4-7-4.16-13.9-8.95-19.22-3.08-3.43-7-6.16-9.52-10s-3.47-9.41-.35-12.8c-.49.53-4.59-1.75-5.14-2.07a19.91,19.91,0,0,1-4.57-3.7,18.17,18.17,0,0,1-5-11.32c-.08-1.45.49-3.39,1.93-3.3a39.93,39.93,0,0,1-6-5.78,13.09,13.09,0,0,1-3.08-8.62c.13-3.18,1.18-3.89,4-5a28.1,28.1,0,0,1-1.38-4.94,8.1,8.1,0,0,1,.64-4.94,5.28,5.28,0,0,1,8.94-.53c.34-1.88,2.38-3.09,4.28-3a8.7,8.7,0,0,1,5.12,2.31c4,3.32,5.18,7.84,7.09,12.5a6.87,6.87,0,0,1,7.3,1.5,13.27,13.27,0,0,1,3.59,6.91c1,4.1.87,8.36.79,12.57a5,5,0,0,1,5.9.33,9.26,9.26,0,0,1,3,5.46c1.22,5.75-.62,11.69-2.86,17.12a4.36,4.36,0,0,1,5,.92c4.69,4.55,1.21,13.44.4,18.88Q148.61,215,148.48,215.91Z"/></clipPath><clipPath id="clip-path-2"><path class="cls-2" d="M101.57,186.7a78.79,78.79,0,0,1,10.15,6.07c30.66,21.58,42.58,62.73,40,98.81-7.23-16.79-17.68-33.35-31.37-45.58-8.31-7.42-15.4-15.58-23.3-23.4a63.2,63.2,0,0,1-17.63-54C81.92,178.15,92.75,182.29,101.57,186.7Z"/></clipPath><clipPath id="clip-path-3"><path class="cls-3" d="M220.92,222.7c7.11,13,13.07,26.76,21.16,39.2,1.77,2.72,3.46,5.82,6.35,7.4-6.83-11.7-12-24.44-14.13-37.81-1-6.11-.85-12.53,1.42-18.3,1.46-3.71,3.77-7.1,4.69-11s0-8.68-3.6-10.48c.56.28,3.19-2.81,3.54-3.24a17.24,17.24,0,0,0,2.58-4.39,15.73,15.73,0,0,0,.59-10.68c-.37-1.2-1.43-2.6-2.57-2.08a34.56,34.56,0,0,0,3.13-6.52,11.34,11.34,0,0,0-.12-7.93c-1.07-2.53-2.13-2.8-4.79-2.82a24.33,24.33,0,0,0-.38-4.42,7,7,0,0,0-2-3.81,4.57,4.57,0,0,0-7.41,2.29A3.61,3.61,0,0,0,225,147a7.53,7.53,0,0,0-3.44,3.43c-2.23,3.9-1.82,7.93-1.95,12.29a6,6,0,0,0-5.46,3.43,11.49,11.49,0,0,0-.81,6.69,44.14,44.14,0,0,0,3.18,10.43,4.28,4.28,0,0,0-4.68,2.06,8,8,0,0,0-.79,5.35c.75,5,4.05,9.29,7.52,13a3.77,3.77,0,0,0-3.76,2.26c-2.42,5.11,3.1,11.26,5.41,15.43Z"/></clipPath><clipPath id="clip-path-4"><path class="cls-4" d="M188.94,156.55a86.28,86.28,0,0,1,10.48,7.61c31.35,26.52,40.35,72.57,34.08,111.68-6.26-19-16-38.1-29.8-52.77-8.34-8.9-15.29-18.5-23.14-27.79a69.22,69.22,0,0,1-14-60.62C168.32,145.32,179.74,150.89,188.94,156.55Z"/></clipPath><clipPath id="clip-path-5"><path class="cls-2" d="M249.13,181.25a88.41,88.41,0,0,0-7.42,11c-20.85,36.54-13.34,84,6.44,119.46-.65-20.5,2.05-42.3,10.14-61.26,4.9-11.5,8.22-23.17,12.51-34.88A70.92,70.92,0,0,0,263,152.33C265,163.2,256,172.57,249.13,181.25Z"/></clipPath><clipPath id="clip-path-6"><path class="cls-2" d="M180.74,188.19a70.72,70.72,0,0,0-5.85,8.86c-16.4,29.38-10,67.3,6.07,95.48-.68-16.39,1.32-33.84,7.64-49.06,3.83-9.23,6.4-18.59,9.74-28A56.72,56.72,0,0,0,191.59,165C193.31,173.64,186.16,181.2,180.74,188.19Z"/></clipPath><clipPath id="clip-path-7"><path class="cls-3" d="M141.31,237.57c3.47,15,5.58,30.51,10.2,45.25,1,3.23,1.83,6.81,4.29,9.21-3.57-13.65-5.12-27.86-3.54-41.88.72-6.41,2.67-12.81,6.56-17.95,2.5-3.31,5.77-6.06,7.79-9.7s2.39-8.72-.67-11.52c.48.44,4-1.92,4.46-2.25a18,18,0,0,0,3.82-3.67,16.38,16.38,0,0,0,3.59-10.55c0-1.3-.7-3-2-2.81a36,36,0,0,0,5-5.65,11.8,11.8,0,0,0,2.11-8c-.36-2.84-1.35-3.4-4-4.17a25.33,25.33,0,0,0,.86-4.54,7.3,7.3,0,0,0-1-4.39,4.76,4.76,0,0,0-8.07.21,3.75,3.75,0,0,0-4.08-2.4,7.84,7.84,0,0,0-4.42,2.47c-3.33,3.28-4.05,7.44-5.41,11.77a6.2,6.2,0,0,0-6.44,1.91,12,12,0,0,0-2.7,6.48,46,46,0,0,0,.26,11.35,4.46,4.46,0,0,0-5.28.75,8.35,8.35,0,0,0-2.29,5.14c-.66,5.26,1.45,10.45,3.88,15.16a3.93,3.93,0,0,0-4.41,1.21c-3.86,4.44-.06,12.17,1.09,17Z"/></clipPath></defs><title>Ресурс 17</title><g id="Слой_2" data-name="Слой 2"><g id="Текст"><path class="cls-1" d="M148.48,215.91c-2.42,17-3.29,34.25-7,51-.81,3.66-1.39,7.69-3.87,10.58,2.65-15.42,3-31.28,0-46.62-1.4-7-4.16-13.9-8.95-19.22-3.08-3.43-7-6.16-9.52-10s-3.47-9.41-.35-12.8c-.49.53-4.59-1.75-5.14-2.07a19.91,19.91,0,0,1-4.57-3.7,18.17,18.17,0,0,1-5-11.32c-.08-1.45.49-3.39,1.93-3.3a39.93,39.93,0,0,1-6-5.78,13.09,13.09,0,0,1-3.08-8.62c.13-3.18,1.18-3.89,4-5a28.1,28.1,0,0,1-1.38-4.94,8.1,8.1,0,0,1,.64-4.94,5.28,5.28,0,0,1,8.94-.53c.34-1.88,2.38-3.09,4.28-3a8.7,8.7,0,0,1,5.12,2.31c4,3.32,5.18,7.84,7.09,12.5a6.87,6.87,0,0,1,7.3,1.5,13.27,13.27,0,0,1,3.59,6.91c1,4.1.87,8.36.79,12.57a5,5,0,0,1,5.9.33,9.26,9.26,0,0,1,3,5.46c1.22,5.75-.62,11.69-2.86,17.12a4.36,4.36,0,0,1,5,.92c4.69,4.55,1.21,13.44.4,18.88Q148.61,215,148.48,215.91Z"/><g class="cls-5"><path class="cls-6" d="M137.6,277.47c9-46.48,4.44-74.9-11.5-103.68a606.79,606.79,0,0,0-34-53.81"/></g><path class="cls-2" d="M101.57,186.7a78.79,78.79,0,0,1,10.15,6.07c30.66,21.58,42.58,62.73,40,98.81-7.23-16.79-17.68-33.35-31.37-45.58-8.31-7.42-15.4-15.58-23.3-23.4a63.2,63.2,0,0,1-17.63-54C81.92,178.15,92.75,182.29,101.57,186.7Z"/><g class="cls-7"><path class="cls-8" d="M151.72,293.27c-5.72-25.55-18.83-48.63-34.05-69.67C103.56,204.1,82,185.43,76.74,161"/></g><path class="cls-3" d="M220.92,222.7c7.11,13,13.07,26.76,21.16,39.2,1.77,2.72,3.46,5.82,6.35,7.4-6.83-11.7-12-24.44-14.13-37.81-1-6.11-.85-12.53,1.42-18.3,1.46-3.71,3.77-7.1,4.69-11s0-8.68-3.6-10.48c.56.28,3.19-2.81,3.54-3.24a17.24,17.24,0,0,0,2.58-4.39,15.73,15.73,0,0,0,.59-10.68c-.37-1.2-1.43-2.6-2.57-2.08a34.56,34.56,0,0,0,3.13-6.52,11.34,11.34,0,0,0-.12-7.93c-1.07-2.53-2.13-2.8-4.79-2.82a24.33,24.33,0,0,0-.38-4.42,7,7,0,0,0-2-3.81,4.57,4.57,0,0,0-7.41,2.29A3.61,3.61,0,0,0,225,147a7.53,7.53,0,0,0-3.44,3.43c-2.23,3.9-1.82,7.93-1.95,12.29a6,6,0,0,0-5.46,3.43,11.49,11.49,0,0,0-.81,6.69,44.14,44.14,0,0,0,3.18,10.43,4.28,4.28,0,0,0-4.68,2.06,8,8,0,0,0-.79,5.35c.75,5,4.05,9.29,7.52,13a3.77,3.77,0,0,0-3.76,2.26c-2.42,5.11,3.1,11.26,5.41,15.43Z"/><g class="cls-9"><path class="cls-10" d="M248.44,269.3c-21.44-34.94-26.34-59.38-22.16-87.55a525.33,525.33,0,0,1,11.21-53.94"/></g><path class="cls-4" d="M188.94,156.55a86.28,86.28,0,0,1,10.48,7.61c31.35,26.52,40.35,72.57,34.08,111.68-6.26-19-16-38.1-29.8-52.77-8.34-8.9-15.29-18.5-23.14-27.79a69.22,69.22,0,0,1-14-60.62C168.32,145.32,179.74,150.89,188.94,156.55Z"/><g class="cls-11"><path class="cls-12" d="M233.29,277.69c-3.76-28.43-15.82-54.88-30.38-79.31-13.49-22.65-35.2-45.11-38.57-72.23"/></g><path class="cls-2" d="M249.13,181.25a88.41,88.41,0,0,0-7.42,11c-20.85,36.54-13.34,84,6.44,119.46-.65-20.5,2.05-42.3,10.14-61.26,4.9-11.5,8.22-23.17,12.51-34.88A70.92,70.92,0,0,0,263,152.33C265,163.2,256,172.57,249.13,181.25Z"/><g class="cls-13"><path class="cls-8" d="M249,313.42c-6.37-28.68-4.05-58.37,1.37-87,5-26.54,18-55.78,11.74-83.07"/></g><path class="cls-2" d="M180.74,188.19a70.72,70.72,0,0,0-5.85,8.86c-16.4,29.38-10,67.3,6.07,95.48-.68-16.39,1.32-33.84,7.64-49.06,3.83-9.23,6.4-18.59,9.74-28A56.72,56.72,0,0,0,191.59,165C193.31,173.64,186.16,181.2,180.74,188.19Z"/><g class="cls-14"><path class="cls-8" d="M181.65,293.89c-5.31-22.89-3.69-46.65.43-69.59,3.82-21.26,14-44.74,8.75-66.52"/></g><path class="cls-3" d="M141.31,237.57c3.47,15,5.58,30.51,10.2,45.25,1,3.23,1.83,6.81,4.29,9.21-3.57-13.65-5.12-27.86-3.54-41.88.72-6.41,2.67-12.81,6.56-17.95,2.5-3.31,5.77-6.06,7.79-9.7s2.39-8.72-.67-11.52c.48.44,4-1.92,4.46-2.25a18,18,0,0,0,3.82-3.67,16.38,16.38,0,0,0,3.59-10.55c0-1.3-.7-3-2-2.81a36,36,0,0,0,5-5.65,11.8,11.8,0,0,0,2.11-8c-.36-2.84-1.35-3.4-4-4.17a25.33,25.33,0,0,0,.86-4.54,7.3,7.3,0,0,0-1-4.39,4.76,4.76,0,0,0-8.07.21,3.75,3.75,0,0,0-4.08-2.4,7.84,7.84,0,0,0-4.42,2.47c-3.33,3.28-4.05,7.44-5.41,11.77a6.2,6.2,0,0,0-6.44,1.91,12,12,0,0,0-2.7,6.48,46,46,0,0,0,.26,11.35,4.46,4.46,0,0,0-5.28.75,8.35,8.35,0,0,0-2.29,5.14c-.66,5.26,1.45,10.45,3.88,15.16a3.93,3.93,0,0,0-4.41,1.21c-3.86,4.44-.06,12.17,1.09,17Z"/><g class="cls-15"><path class="cls-10" d="M155.8,292c-11.68-41.06-9.73-66.94,2.38-94a547,547,0,0,1,26.4-50.94"/></g><path class="cls-16" d="M105.76,121.53l.27.3,5.29-7.73c2-3,4.14-6,7.25-7.78a2.14,2.14,0,0,1,2-.32c2.21,1.13-.22,5.94-.9,7.28-2.63,5.12-5.14,10.69-8.39,15.44-3.13,4.6-8.31.75-11.07-2-3.9-3.9-10.14-8.07-11.28-13.85-.3-1.52.54-3.49,2.09-3.48a3.38,3.38,0,0,1,1.71.66A68.08,68.08,0,0,1,105.76,121.53Z"/><path class="cls-17" d="M90.57,104c2.58.77,5.09,3.3,6.32,5,.48.68,5.17,5.46,5.2,5.43a55.82,55.82,0,0,1-8.18,7.76,1,1,0,0,1-.57.26.93.93,0,0,1-.49-.21c-2.16-1.5-3.61-3.85-5.26-5.82-2.46-2.95-4.76-9.89-.35-12.23A4.3,4.3,0,0,1,90.57,104Z"/><polygon class="cls-18" points="112.08 90.16 127.39 80.52 140.62 103.09 127.63 113.43 112.08 90.16"/><path class="cls-16" d="M121.09,110.28a5.13,5.13,0,0,0-.71.7c-.66.74-2.2,2.88-3.4,1.75-.32-.3-.42-.86-.75-1.21a4.7,4.7,0,0,0-1.48-1c-.09,0-.19-.09-.22-.18a.35.35,0,0,1,.1-.3c.67-.9,1.43-1.74,2-2.7a3.88,3.88,0,0,0,.41-2.28c0-2.63,1-5.2,1.7-7.71.16-.58.53-2,1.4-1.83a.9.9,0,0,1,.52.4,1.8,1.8,0,0,1,.23.62c.31,1.58-.8,2.92-.93,4.44a4.29,4.29,0,0,0,1.14,2.67,28,28,0,0,0,2.81,3.67.49.49,0,0,1,0,.77,6.67,6.67,0,0,1-1.17,1.42C122.27,109.84,121.59,109.9,121.09,110.28Z"/><path class="cls-19" d="M99.38,222.31a2.5,2.5,0,0,1,.88.17.79.79,0,0,1,.49.69.82.82,0,0,1-.19.46,2.89,2.89,0,0,1-2.46.73l-9.86-.25a1.12,1.12,0,0,1-.43-.07.92.92,0,0,1-.36-.33,4.22,4.22,0,0,1-.3-3.42,11.63,11.63,0,0,0,.65-3.46c0-.42-.09-.91.22-1.18a1.13,1.13,0,0,1,.52-.21,13.38,13.38,0,0,1,3.18-.29,20.28,20.28,0,0,0,0,3.69C92.73,221.75,96.81,222.11,99.38,222.31Z"/><path class="cls-19" d="M85.3,222.31a2.5,2.5,0,0,1,.88.17.79.79,0,0,1,.49.69.82.82,0,0,1-.19.46,2.89,2.89,0,0,1-2.46.73l-9.86-.25a1.12,1.12,0,0,1-.43-.07.92.92,0,0,1-.36-.33,4.22,4.22,0,0,1-.3-3.42,11.63,11.63,0,0,0,.65-3.46c0-.42-.09-.91.22-1.18a1.13,1.13,0,0,1,.52-.21,13.38,13.38,0,0,1,3.18-.29,20.29,20.29,0,0,0,0,3.69C78.65,221.75,82.73,222.11,85.3,222.31Z"/><path class="cls-20" d="M83,142.72a18.72,18.72,0,0,0-5.8,1.44c-4.86,2.07-1.34,12.66-.3,16.44l4,14.41a123,123,0,0,1,3.85,24c.11,1.52,1.07,18.16,1.2,18.16l6.63.09c.59,0,1.32-8.84,1.39-9.71.25-3.29.29-6.58.46-9.87,1-15.05,0-30.52-.61-45.6-.1-2.5-.49-5.09-2.07-7.13-.65-.83-2.43-1-3.37-1.38a10.19,10.19,0,0,0-4.15-.9Q83.58,142.67,83,142.72Z"/><path class="cls-21" d="M68.94,143.2a35.77,35.77,0,0,0-.48,4.39c-.91,13.57.47,27.17,1.4,40.7.66,9.63,1.41,19.25,2,28.89l6.63.09c.59,0,1.32-8.84,1.39-9.71.25-3.29.29-6.58.46-9.87,0-5.24.55-10.55.81-15.78.31-6.21.67-12.48,1.42-18.64.45-3.69,1-7.37,1.41-11.07.39-3.39,1.31-7.4-.21-10.6a7.45,7.45,0,0,0-4.08-3.73,13.87,13.87,0,0,0-5.14-.59,8.21,8.21,0,0,0-2.75.38C69.6,138.46,69.32,141.21,68.94,143.2Z"/><path class="cls-22" d="M92,108c1.06,3.48.87,7.61,1,11l.68,26.84a2.79,2.79,0,0,1-.26,1.55,2.65,2.65,0,0,1-1.61,1c-5,1.46-10.31,1.32-15.52,1.16a19.72,19.72,0,0,1-6.82-1,2.14,2.14,0,0,1-1-.73,2.38,2.38,0,0,1-.24-1.38,218.53,218.53,0,0,1,1.79-22.09c.76-5.77.47-12,3.08-17.39,2.52-5.16,8.5-6.75,13.67-4.81A8.11,8.11,0,0,1,90.54,105,11.06,11.06,0,0,1,92,108Z"/><path class="cls-23" d="M84.63,104.17a5.57,5.57,0,0,1-4,.41c-2.12-.41-2.15-2.83-1.89-4.53.21-1.35.91-5.21,2.57-5.44a4.07,4.07,0,0,1,4.33,2.45,6.93,6.93,0,0,1,.24,2.49c0,1.3,0,3.41-1,4.4A2.32,2.32,0,0,1,84.63,104.17Z"/><ellipse class="cls-16" cx="77.48" cy="90.37" rx="1.54" ry="2.76" transform="translate(-20.29 22.47) rotate(-14.61)"/><path class="cls-16" d="M58.58,123.9c-.72,1.43-1.4,2.88-2,4.36a2.25,2.25,0,0,0-.27,1.81,18.28,18.28,0,0,0,.89,2.32,39.9,39.9,0,0,0,5.17,8.09c1.54,2,2.95,4,4.39,6.09s3.18,3.71,3.75,6a6.23,6.23,0,0,0,4.3-1.32l.06-.05c.07-.11-.08-.23-.2-.28a3.78,3.78,0,0,1-1.83-2.32c-.55-1.26-1.14-2.5-1.74-3.74-1.19-2.42-2.46-4.79-3.74-7.16q-1.67-3.09-3.31-6.19c-.48-.89-.91-1.39-.55-2.43a9.5,9.5,0,0,1,1.3-2.16c1.57-2.27,3.12-4.54,4.7-6.81a8.42,8.42,0,0,0,1.59-2.69,3.72,3.72,0,0,0-.36-3.09C67.27,109.17,61.82,117.51,58.58,123.9Z"/><path class="cls-22" d="M80,108.66c-.17,2.68-2.07,5.7-3.48,7.29-.55.62-4.16,6.27-4.12,6.29A55.81,55.81,0,0,1,63,116a1,1,0,0,1-.38-.49.93.93,0,0,1,.09-.53c1-2.44,2.94-4.39,4.49-6.44,2.32-3.06,8.57-6.87,11.84-3.09A4.3,4.3,0,0,1,80,108.66Z"/><path class="cls-19" d="M74,78.53a5.59,5.59,0,0,1-.17.93c-.4,1.37-1.47,2.34-2.28,3.46a4.91,4.91,0,0,0-.77,3.35A13.37,13.37,0,0,0,74,93a6.14,6.14,0,0,0,1.15,1.22A9.14,9.14,0,0,0,76.9,95a24.07,24.07,0,0,0,5,1.34c.84.13,1.7.21,2.55.26A5.22,5.22,0,0,0,86.74,96,9.44,9.44,0,0,0,89,94.6,13.53,13.53,0,0,0,91,92.48a5.54,5.54,0,0,0,1.11-1.91A16.71,16.71,0,0,1,92.51,88a8.45,8.45,0,0,1,1-1.37c1.09-1.52-.25-3.49.65-5.08.56-1,1.62-1.56,2.12-2.59a4.23,4.23,0,0,0,.15-3.18A7.07,7.07,0,0,0,92.72,72c-1.83-.91-4.19-1.3-5.82-.07-.35.26-.64.58-1,.87-2.65,2.26-5.84.2-8.81,1.15a4.25,4.25,0,0,0-2.77,2.51A9.64,9.64,0,0,0,74,78.53Z"/><path class="cls-16" d="M76.06,90.55a11.29,11.29,0,0,0,4.5,8.14c2,1.43,5.06,2.27,7.35,1,3.08-1.68,3.9-6.08,4-9.26.09-3.77-1.18-8-4.74-9.9-2.51-1.3-6.52-1.62-8.47.74A13,13,0,0,0,76.06,90.55Z"/><path class="cls-19" d="M88.14,80.43a5,5,0,0,0-2.23.7c-1.35.82-2.22,2.23-3.45,3.22a15.55,15.55,0,0,1-3.95,2,1.82,1.82,0,0,0-.71.43,1.49,1.49,0,0,0-.29,1c0,2,1.29,3.88.15,5.84a1.57,1.57,0,0,1-.46.53C76,95,75.09,92.79,74.72,92a10.5,10.5,0,0,1-.92-3.85c-.13-2.66.56-6.12,2.77-7.8a11.71,11.71,0,0,1,7.49-2.52,9.79,9.79,0,0,1,2.71.51,3.29,3.29,0,0,1,1.25.76,3.21,3.21,0,0,1,.64.64,6.1,6.1,0,0,1,.27.71A4.87,4.87,0,0,0,88.14,80.43Z"/><path class="cls-18" d="M83.34,94.62a24.37,24.37,0,0,0,3.42-.17,13.47,13.47,0,0,0,3.36-1s-.17,1.22-.21,1.35a4.46,4.46,0,0,1-.74,1.34,3.67,3.67,0,0,1-4.66.61,2.88,2.88,0,0,1-.87-1C83.6,95.65,83.21,94.63,83.34,94.62Z"/><path class="cls-19" d="M87.82,86.17a2.21,2.21,0,0,1,2.63.34c.49.59,1.32-.25.84-.84A3.29,3.29,0,0,0,87.5,85c-.7.28-.39,1.43.32,1.15Z"/><ellipse class="cls-16" cx="76.08" cy="93.64" rx="1.6" ry="2.59" transform="translate(-34.37 45.09) rotate(-27.18)"/><ellipse class="cls-19" cx="82.22" cy="89.83" rx="0.79" ry="1.5" transform="translate(-13.47 14.51) rotate(-9.32)"/><ellipse class="cls-19" cx="89.12" cy="88.7" rx="0.79" ry="1.5" transform="translate(-2.6 2.69) rotate(-1.7)"/><path class="cls-19" d="M82.85,85.84a3.53,3.53,0,0,0-3.72,2.06c-.32.69.71,1.29,1,.6A2.37,2.37,0,0,1,82.53,87c.75.12,1.07-1,.32-1.15Z"/><path class="cls-21" d="M262.61,262H423.3c10.61-11.64,11.76-26.53,0-35.3H262.61v4.23h5.09V257.3h-5.09Z"/><path class="cls-18" d="M267.7,257.3H420.29c7.35-5.84,7.56-21,0-26.35H267.7Z"/><path class="cls-24" d="M416.41,235.86H267.7v-4.91H420.29c7.56,5.35,7.35,20.51,0,26.35h-.11C423.49,250.26,422.34,240.05,416.41,235.86Z"/><path class="cls-25" d="M414.26,241.06q-14.41.69-28.82.92c-9.61.19-19.22.24-28.82.26s-19.22-.07-28.82-.26-19.22-.47-28.82-.93q14.41-.69,28.82-.93c9.61-.19,19.22-.24,28.82-.26s19.22.07,28.82.26S404.66,240.61,414.26,241.06Z"/><path class="cls-25" d="M397.49,249q-14.41.69-28.82.92c-9.61.19-19.22.24-28.82.26s-19.22-.07-28.82-.26-19.22-.47-28.82-.93q14.41-.69,28.82-.93c9.61-.19,19.22-.24,28.82-.26s19.22.07,28.82.26S387.88,248.58,397.49,249Z"/><path class="cls-26" d="M421.37,191.54H260.68c-10.61-11.64-11.76-26.53,0-35.3H421.37v4.23h-5.09v26.35h5.09Z"/><path class="cls-18" d="M416.28,186.82H263.69c-7.35-5.84-7.56-21,0-26.35H416.28Z"/><path class="cls-24" d="M267.56,165.38H416.28v-4.91H263.69c-7.56,5.35-7.35,20.51,0,26.35h.11C260.49,179.78,261.64,169.57,267.56,165.38Z"/><path class="cls-25" d="M269.71,170.58q14.41-.69,28.82-.92c9.61-.19,19.22-.24,28.82-.26s19.22.07,28.82.26,19.22.47,28.82.93q-14.41.69-28.82.93c-9.61.19-19.22.24-28.82.26s-19.22-.07-28.82-.26S279.32,171,269.71,170.58Z"/><path class="cls-25" d="M286.49,178.55q14.41-.69,28.82-.92c9.61-.19,19.22-.24,28.82-.26s19.22.07,28.82.26,19.22.47,28.82.93q-14.41.69-28.82.93c-9.61.19-19.22.24-28.82.26s-19.22-.07-28.82-.26S296.1,179,286.49,178.55Z"/><path class="cls-17" d="M268.92,297.33H429.6c10.61-11.64,11.76-26.54,0-35.3H268.92v4.22H274V292.6h-5.09Z"/><path class="cls-22" d="M249.7,297.33H410.39c10.61-11.64,11.76-26.54,0-35.3H249.7v4.22h5.09V292.6H249.7Z"/><path class="cls-18" d="M254.79,292.6H407.38c7.35-5.84,7.56-21,0-26.35H254.79Z"/><path class="cls-24" d="M403.51,271.16H254.79v-4.91H407.38c7.56,5.35,7.35,20.51,0,26.35h-.11C410.58,285.57,409.43,275.35,403.51,271.16Z"/><path class="cls-25" d="M401.36,276.37q-14.41.69-28.82.92c-9.61.19-19.22.24-28.82.26s-19.22-.07-28.82-.26-19.22-.47-28.82-.93q14.41-.69,28.82-.93c9.61-.19,19.22-.24,28.82-.26s19.22.07,28.82.26S391.75,275.91,401.36,276.37Z"/><path class="cls-25" d="M384.58,284.34q-14.41.69-28.82.92c-9.61.19-19.22.24-28.82.26s-19.22-.07-28.82-.26-19.22-.47-28.82-.93q14.41-.69,28.82-.93c9.61-.19,19.22-.24,28.82-.26s19.22.07,28.82.26S375,283.88,384.58,284.34Z"/><path class="cls-27" d="M268.77,156.58H429.46c10.61-11.64,11.76-26.53,0-35.3H268.77v4.23h5.09v26.35h-5.09Z"/><path class="cls-28" d="M249.56,156.58H410.25c10.61-11.64,11.76-26.53,0-35.3H249.56v4.23h5.09v26.35h-5.09Z"/><path class="cls-18" d="M254.65,151.86H407.24c7.35-5.84,7.56-21,0-26.35H254.65Z"/><path class="cls-24" d="M403.36,130.42H254.65v-4.91H407.24c7.56,5.35,7.35,20.51,0,26.35h-.11C410.44,144.82,409.29,134.61,403.36,130.42Z"/><path class="cls-25" d="M401.21,135.62q-14.41.69-28.82.92c-9.61.19-19.22.24-28.82.26s-19.22-.07-28.82-.26-19.22-.47-28.82-.93q14.41-.69,28.82-.93c9.61-.19,19.22-.24,28.82-.26s19.22.07,28.82.26S391.6,135.16,401.21,135.62Z"/><path class="cls-25" d="M384.43,143.59q-14.41.69-28.82.92c-9.61.19-19.22.24-28.82.26s-19.22-.07-28.82-.26-19.22-.47-28.82-.93q14.41-.69,28.82-.93c9.61-.19,19.22-.24,28.82-.26s19.22.07,28.82.26S374.83,143.14,384.43,143.59Z"/><rect class="cls-22" x="252.5" y="191.19" width="176.1" height="35.75" rx="2.92" ry="2.92" transform="translate(681.1 418.12) rotate(180)"/><path class="cls-29" d="M425.74,199.32A1.72,1.72,0,0,0,424,197.6H252.5v-4.69a1.72,1.72,0,0,1,1.72-1.72H426.88a1.72,1.72,0,0,1,1.72,1.72v32.3a1.72,1.72,0,0,1-1.72,1.72h-1.15Z"/><rect class="cls-17" x="384.58" y="191.19" width="21.08" height="35.54" transform="translate(790.24 417.91) rotate(180)"/><rect class="cls-17" x="363.78" y="196.04" width="13.64" height="25.84" transform="translate(741.21 417.91) rotate(180)"/><rect class="cls-21" x="252.5" y="85.54" width="176.1" height="35.75" rx="2.92" ry="2.92" transform="translate(681.1 206.82) rotate(180)"/><path class="cls-29" d="M425.74,93.67A1.72,1.72,0,0,0,424,92H252.5V87.26a1.72,1.72,0,0,1,1.72-1.72H426.88a1.72,1.72,0,0,1,1.72,1.72v32.3a1.72,1.72,0,0,1-1.72,1.72h-1.15Z"/><rect class="cls-20" x="384.58" y="85.54" width="21.08" height="35.54" transform="translate(790.24 206.61) rotate(180)"/><rect class="cls-20" x="363.78" y="90.39" width="13.64" height="25.84" transform="translate(741.21 206.61) rotate(180)"/><path class="cls-18" d="M299.3,273.52c-24.86,7.32-97.38-21-126.77.9-11.36,3.31-14.57-2.13-14.71-11.71,33.53-50.92,82.18-2.64,127.76-5.92C290.38,262.68,293.18,267.23,299.3,273.52Z"/><path class="cls-18" d="M283.49,242.72C204.91,253.6,170.65,253.6,158,283.66c0-6.79,0-11.54-.1-20.89,4.41-41.33,75.38-43.78,98.45-65.8C262.25,206.12,278.81,236.1,283.49,242.72Z"/><rect class="cls-30" x="172.75" y="280.84" width="126.55" height="15.23"/><path class="cls-31" d="M313.16,300.21c-25.05,7.22-111-22.84-139.36-7-12.24,3.5-21.93,6.43-15.85-12.37,36.12-53.81,94.15,0,143.27-3.48C304.41,284.73,308.21,293.21,313.16,300.21Z"/><path class="cls-32" d="M168.71,279.36a36.55,36.55,0,0,1,13.51-9,57.81,57.81,0,0,1,16-3.74,75.21,75.21,0,0,1,16.44.3A127.34,127.34,0,0,1,230.75,270c5.28,1.4,10.47,3,15.64,4.65s10.31,3.33,15.48,4.87c10.35,3,20.95,5.43,31.82,5.57a82.5,82.5,0,0,1-16.29-.56,135.78,135.78,0,0,1-16-3.22c-10.55-2.71-20.8-6.32-31.23-9a131,131,0,0,0-15.78-3.23,79.23,79.23,0,0,0-16-.68,65.16,65.16,0,0,0-8,1,52.07,52.07,0,0,0-7.77,2A38.18,38.18,0,0,0,168.71,279.36Z"/><path class="cls-32" d="M172.13,286.37a32.88,32.88,0,0,1,7-3.85,55.79,55.79,0,0,1,7.6-2.54,85,85,0,0,1,15.85-2.37c10.7-.67,21.41.5,31.9,2.28,5.25.92,10.45,2,15.64,3.09s10.36,2.23,15.55,3.27a188.25,188.25,0,0,0,31.46,3.91,141.21,141.21,0,0,1-31.79-2.08c-10.51-1.69-20.86-4.07-31.27-5.84-5.2-.92-10.42-1.67-15.66-2.17a124.12,124.12,0,0,0-15.75-.61A94.79,94.79,0,0,0,187,281.12,46.5,46.5,0,0,0,172.13,286.37Z"/><path class="cls-18" d="M16.63,273.52c24.86,7.32,97.38-21,126.77.9,11.36,3.31,14.57-2.13,14.71-11.71-33.53-50.92-82.18-2.64-127.76-5.92C25.55,262.68,22.75,267.23,16.63,273.52Z"/><path class="cls-18" d="M32.44,242.72C111,253.6,145.28,253.6,158,283.66c0-6.79,0-11.54.1-20.89C153.67,221.43,82.7,219,59.63,197,53.68,206.12,37.12,236.1,32.44,242.72Z"/><rect class="cls-30" x="16.63" y="280.84" width="126.55" height="15.23" transform="translate(159.82 576.91) rotate(180)"/><path class="cls-31" d="M2.77,300.21c25.05,7.22,111-22.84,139.36-7,12.24,3.5,21.93,6.43,15.85-12.37-36.12-53.81-94.15,0-143.27-3.48C11.52,284.73,7.72,293.21,2.77,300.21Z"/><path class="cls-32" d="M147.22,279.36a38.18,38.18,0,0,0-13.92-8,52.07,52.07,0,0,0-7.77-2,65.16,65.16,0,0,0-8-1,79.23,79.23,0,0,0-16,.68,131,131,0,0,0-15.78,3.23c-10.44,2.69-20.68,6.3-31.23,9a135.79,135.79,0,0,1-16,3.22,82.5,82.5,0,0,1-16.29.56c10.88-.14,21.47-2.56,31.82-5.57,5.18-1.54,10.33-3.19,15.48-4.87s10.37-3.26,15.64-4.65a127.33,127.33,0,0,1,16.09-3.16,75.22,75.22,0,0,1,16.44-.3,57.81,57.81,0,0,1,16,3.74A36.55,36.55,0,0,1,147.22,279.36Z"/><path class="cls-32" d="M143.8,286.37A46.5,46.5,0,0,0,129,281.12a94.8,94.8,0,0,0-15.67-1.66,124.12,124.12,0,0,0-15.75.61c-5.24.5-10.46,1.25-15.66,2.17-10.41,1.77-20.76,4.15-31.27,5.84a141.22,141.22,0,0,1-31.79,2.08,188.25,188.25,0,0,0,31.46-3.91q7.78-1.56,15.55-3.27c5.19-1.1,10.4-2.17,15.64-3.09,10.49-1.78,21.2-3,31.9-2.28A85,85,0,0,1,129.22,280a55.79,55.79,0,0,1,7.6,2.54A32.88,32.88,0,0,1,143.8,286.37Z"/><path class="cls-30" d="M174,293.21,164,283.3a8.39,8.39,0,0,0-11.87,0l-9.91,9.91,15.85,8.61Z"/><path class="cls-33" d="M173.8,293.21l-9.91-9.91a8.39,8.39,0,0,0-11.86,0l-9.92,9.91"/><path class="cls-21" d="M313.16,297.36l-122.08-6.12-17.29-.87a2.91,2.91,0,0,0-2.74,2.09c-1.24,3.4-9,4.8-13.1,4.9-3.65.09-3.67,5.78,0,5.69,6.69-.17,15.94-1.82,18.59-9.08l-2.74,2.09,122.08,6.12,17.29.87c3.66.18,3.65-5.51,0-5.69Z"/><path class="cls-21" d="M2.74,303.05l122.08-6.12,17.29-.87L139.36,294c2.65,7.26,11.91,8.91,18.59,9.08,3.66.09,3.66-5.6,0-5.69-4.14-.1-11.86-1.5-13.1-4.9a2.92,2.92,0,0,0-2.74-2.09L20,296.49l-17.29.87c-3.64.18-3.67,5.87,0,5.69Z"/><path class="cls-19" d="M263.27,118.77a2.49,2.49,0,0,0-.88-.14.79.79,0,0,0-.7.48.82.82,0,0,0,0,.5c.27.85,1.22,1.24,2.07,1.52l9.36,3.1a1.13,1.13,0,0,0,.43.08.92.92,0,0,0,.45-.19,4.22,4.22,0,0,0,1.44-3.11,11.62,11.62,0,0,1,.56-3.48c.17-.38.39-.82.19-1.19a1.13,1.13,0,0,0-.42-.38,13.37,13.37,0,0,0-2.89-1.36,20.3,20.3,0,0,1-1.29,3.46C269.72,120.5,265.76,119.46,263.27,118.77Z"/><path class="cls-23" d="M306,30.54a.51.51,0,0,0,.1.24.49.49,0,0,0,.29.12,18.6,18.6,0,0,0,6.88-.51q-.92-4-2-7.88a.38.38,0,0,0-.12-.21.37.37,0,0,0-.29,0q-1.75.31-3.49.67c-1,.2-2,.31-2.94.53a36.64,36.64,0,0,1,.86,3.62Q305.62,28.81,306,30.54Z"/><path class="cls-19" d="M275.78,87.45a75,75,0,0,1,3.71-10.1,4.1,4.1,0,0,1,1.15-1.67,4.24,4.24,0,0,1,1.53-.6L295,71.86a76.25,76.25,0,0,1,12.85-2.44c2.71-.2,10.66-1,11.67,2.26A4.47,4.47,0,0,1,319,75c-2,3.73-6.2,5.75-10.21,7.16a71.7,71.7,0,0,1-21,4c-3.79,10.54-6.64,21.39-9.9,32.13l-8.43-2.28s2.44-12.94,2.75-14.29C273.34,96.94,274.39,92.14,275.78,87.45Z"/><path class="cls-19" d="M288.7,125.25a2.49,2.49,0,0,0-.7.56.79.79,0,0,0-.12.84.82.82,0,0,0,.38.32,2.89,2.89,0,0,0,2.51-.5l8.61-4.81a1.12,1.12,0,0,0,.35-.26.92.92,0,0,0,.16-.46,4.22,4.22,0,0,0-1.32-3.16A11.62,11.62,0,0,1,296.4,115c-.17-.38-.34-.85-.75-.94a1.13,1.13,0,0,0-.56.05,13.38,13.38,0,0,0-3,1.22,20.3,20.3,0,0,1,1.68,3.29C294.32,121.66,290.88,123.88,288.7,125.25Z"/><path class="cls-16" d="M300.14,25.79a4.76,4.76,0,0,0,3.76,1.54,10.4,10.4,0,0,0,4.7-2c2.75-2,5.16-5.24,5.63-8.68.7-5.07-3.69-9.22-8.42-10a10.77,10.77,0,0,0-1.68-.14c-2.95,0-5.92.83-7.68,3.3-2,2.79-1.37,7.07-.19,10.09A17.33,17.33,0,0,0,300.14,25.79Z"/><path class="cls-19" d="M291,87.7a52.11,52.11,0,0,1,2.4,7.44c1.82,6.77,5.44,20.31,5.44,20.31l-7.56,2.26c-1.88-5.23-4.09-10.34-6.31-15.44-.78-1.78-1.53-3.58-2.3-5.37-1.36-3.2-2.75-6.4-4.3-9.51-2-3.93-3.11-7.26-2.82-11.74.19-2.82,1.22-4.91,4.09-5.47A74,74,0,0,1,288.93,69c2.06-.14,4.12-.19,6.17-.24l14.62-.38,7.48-.19c1.61,0,3.75-.61,5.3-.31.7,2.64,1.19,5.87.33,8.53C320.5,83.6,314,87,306.64,86.79a35.61,35.61,0,0,1-12.52-3.17,15,15,0,0,0-4.69-1.46C289.12,84,290.29,86.11,291,87.7Z"/><path class="cls-2" d="M300.57,68.6c3.84-.12,22.32.14,22.31,0-.62-5.84-.17-11.9-.26-17.8a43.4,43.4,0,0,0-2.29-14.44c-1.5-4.05-4-8.4-8.93-8.32a8.48,8.48,0,0,0-2.59.47c-4.14,1.41-6.24,5.59-7.39,9.51-1.5,5.09-1.53,10.46-1.41,15.73.06,2.79-.16,5.57-.06,8.35C300,64.28,300.34,66.45,300.57,68.6Z"/><path class="cls-19" d="M308.18,20.11c0,1.58,1.73,2.07,2.63,3.24a7.42,7.42,0,0,1,1.53,4.93,4.94,4.94,0,0,0,0,1.74c.27.91,1.16,1.45,1.9,2,2.73,2.18,3.88,5.74,5.12,9a10.49,10.49,0,0,0,1.85,3.41,6.08,6.08,0,0,0,5.37,1.83c2.61-.41,4.16-2.35,5.58-4.37a6.71,6.71,0,0,0,.66-6.35c-1.19-2.79-4.31-4.92-4-7.94.11-1.28.86-2.44,1.05-3.71.38-2.52-1.42-4.83-3.33-6.52s-4.13-3.24-5.06-5.61c-.7-1.77-.57-3.78-1.18-5.58a9,9,0,0,0-5.15-5.16A17.13,17.13,0,0,0,307.74,0a21.23,21.23,0,0,0-8.3,1.89,12.79,12.79,0,0,0-6.07,5.83A2.88,2.88,0,0,0,293,9c0,1.3,1.46,2.07,2.73,2.34s2.55.44,3.57,1.48c.73.76,1.11,1.87,2.06,2.44a5.19,5.19,0,0,0,1.92.73,6.93,6.93,0,0,0,1.74-.23,1.33,1.33,0,0,1,.77-1.59,2,2,0,0,1,1.86.28C309.74,15.9,308.14,18.14,308.18,20.11Z"/><path class="cls-16" d="M313.62,49.41c.36,1.07.72,2.14,1.16,3.22l2.78,6.89a3.27,3.27,0,0,0,1.65,2.09,2.12,2.12,0,0,0,1.58-.16,4,4,0,0,0,2-2.58c.67-2.5-.29-5.06-1-7.43a98.64,98.64,0,0,0-5-12.54,24.91,24.91,0,0,0-1.61-3.16,5.92,5.92,0,0,0-2.61-2.32,3.4,3.4,0,0,0-3.36.36c-1.07.87-.9,2.2-.49,3.37a81,81,0,0,0,3.29,8A39.38,39.38,0,0,1,313.62,49.41Z"/><path class="cls-16" d="M313,56.54a105.61,105.61,0,0,0-16.41,3.32,3.11,3.11,0,0,0-1.24.52,1.85,1.85,0,0,0,.36,3,2.8,2.8,0,0,0,.9.13,61,61,0,0,0,8,0c2.8-.27,5.59-.57,8.38-.93q1.69-.22,3.37-.47c1.42-.22,3-.22,4.24-1a1,1,0,0,0,.34-.29,1.07,1.07,0,0,0,.14-.38,3.54,3.54,0,0,0,0-1.84c-.64-1.93-2.65-2.33-4.43-2.3C315.42,56.35,314.19,56.43,313,56.54Z"/><rect class="cls-21" x="273.42" y="67.12" width="23.13" height="2.73" transform="translate(575.23 109.31) rotate(174.49)"/><rect class="cls-21" x="258.7" y="58.39" width="23.13" height="2.73" transform="translate(220.91 -212.61) rotate(67.26)"/><path class="cls-16" d="M287.37,60.4a6.64,6.64,0,0,1,1.2-.35l2.91-.61a4.33,4.33,0,0,1,4.24.58l2.09,1.33a2.15,2.15,0,0,1-.76,1.83,6.36,6.36,0,0,1-1.77,1,9.24,9.24,0,0,1-1.36.53c-2.21.59-4.5-.5-6.46-1.68L287,65.35c-.1.5-.64,1.65-1.31.93a1.26,1.26,0,0,1-.17-1l.32-2.37a4.71,4.71,0,0,1,.36-1.45A2.2,2.2,0,0,1,287.37,60.4Z"/><path class="cls-2" d="M307.62,40.4c.68,2.16,1.16,4.54,2.31,6.5.88-.33,10.11-3.77,10.32-3.32l-2.83-6a13.86,13.86,0,0,0-2.78-4.37A4.71,4.71,0,0,0,309.86,32a4.18,4.18,0,0,0-2.26,2.46A9.53,9.53,0,0,0,307.62,40.4Z"/><path class="cls-18" d="M302.09,22.43a24.37,24.37,0,0,1-3.15,1.35c-.15,0-.3.06-.46.1a13,13,0,0,0,1.66,1.9l.4.34a3.34,3.34,0,0,0,1.41-1.31,2.87,2.87,0,0,0,.35-1.26C302.3,23.47,302.21,22.38,302.09,22.43Z"/><ellipse class="cls-19" cx="298.23" cy="17.93" rx="0.79" ry="1.5" transform="translate(5.75 78.9) rotate(-15.22)"/><path class="cls-19" d="M296.69,15.53a2.34,2.34,0,0,1,2.79.27c.58.5,1.42-.34.84-.84a3.55,3.55,0,0,0-4.23-.46c-.64.42,0,1.45.6,1Z"/><path class="cls-21" d="M243.74,196.14a41.61,41.61,0,1,0-3.49,58.74A41.61,41.61,0,0,0,243.74,196.14ZM236,250.08a35.18,35.18,0,1,1,3-49.66A35.18,35.18,0,0,1,236,250.08Z"/><rect class="cls-21" x="251.09" y="245.5" width="6.63" height="50.69" transform="translate(624.47 304.49) rotate(138.4)"/><circle class="cls-34" cx="212.6" cy="223.78" r="35.18" transform="translate(-94.95 197.57) rotate(-41.6)"/><path class="cls-34" d="M239.2,200.16A35,35,0,0,1,245.73,211a35.1,35.1,0,0,1-64-3.8,35.1,35.1,0,0,1,57.42-7Z"/><rect class="cls-19" x="264.83" y="264.45" width="12.8" height="50.69" rx="2.92" ry="2.92" transform="translate(666.47 326.45) rotate(138.4)"/></g></g></svg>