<svg xmlns="http://www.w3.org/2000/svg" xmlns:xlink="http://www.w3.org/1999/xlink" viewBox="0 0 347.9 310.06"><defs><style>.cls-1{fill:#b7d972;}.cls-2{fill:url(#Новый_образец_градиента_9);}.cls-3{fill:url(#Новый_образец_градиента_11);}.cls-4{fill:url(#Новый_образец_градиента_8);}.cls-5{fill:url(#Новый_образец_градиента_9-2);}.cls-6{fill:url(#Новый_образец_градиента_9-3);}.cls-7{fill:#edfdfc;}.cls-8{fill:url(#Новый_образец_градиента_8-2);}.cls-9{fill:url(#Новый_образец_градиента_7);}.cls-10{fill:url(#Новый_образец_градиента_8-3);}.cls-11{fill:url(#Новый_образец_градиента_9-4);}.cls-12{fill:#b75742;}.cls-13{fill:#f47458;}.cls-14{fill:url(#Новый_образец_градиента_7-2);}.cls-15{fill:#184655;}.cls-16{fill:#3c8f7c;}.cls-17{fill:url(#Новый_образец_градиента_11-2);}.cls-18{fill:url(#Новый_образец_градиента_11-3);}.cls-19{fill:#f7a491;}.cls-20{fill:url(#Новый_образец_градиента_11-4);}.cls-21{fill:#473b1e;}.cls-22{fill:#847d3d;}.cls-23{fill:url(#Новый_образец_градиента_11-5);}.cls-24{fill:url(#Новый_образец_градиента_8-4);}.cls-25{fill:#355389;}.cls-26{fill:url(#Новый_образец_градиента_7-3);}.cls-27{fill:#f48c7f;}.cls-28{fill:url(#Новый_образец_градиента_7-4);}.cls-29{fill:#fff;}.cls-30{fill:url(#Новый_образец_градиента_7-5);}.cls-31{fill:url(#Новый_образец_градиента_8-5);}.cls-32{fill:url(#Новый_образец_градиента_9-5);}.cls-33{fill:url(#Новый_образец_градиента_7-6);}.cls-34{fill:url(#Новый_образец_градиента_7-7);}.cls-35{fill:url(#Новый_образец_градиента_7-8);}.cls-36{fill:url(#Новый_образец_градиента_7-9);}.cls-37{fill:url(#Новый_образец_градиента_7-10);}.cls-38{fill:url(#Новый_образец_градиента_9-6);}.cls-39{fill:url(#Новый_образец_градиента_9-7);}</style><linearGradient id="Новый_образец_градиента_9" x1="312.59" y1="235.31" x2="327.07" y2="258.08" gradientUnits="userSpaceOnUse"><stop offset="0" stop-color="#53cd9f"/><stop offset="1" stop-color="#0d7a5c"/></linearGradient><linearGradient id="Новый_образец_градиента_11" x1="70.91" y1="237.09" x2="131.7" y2="237.09" gradientUnits="userSpaceOnUse"><stop offset="0" stop-color="#00503e"/><stop offset="1" stop-color="#023222"/></linearGradient><linearGradient id="Новый_образец_градиента_8" x1="3.77" y1="254.62" x2="96.09" y2="254.62" gradientUnits="userSpaceOnUse"><stop offset="0" stop-color="#c9cd55"/><stop offset="0.51" stop-color="#659c52"/><stop offset="1" stop-color="#287f50"/></linearGradient><linearGradient id="Новый_образец_градиента_9-2" x1="72.88" y1="333.21" x2="66.99" y2="320.11" xlink:href="#Новый_образец_градиента_9"/><linearGradient id="Новый_образец_градиента_9-3" x1="0.46" y1="284.86" x2="110.69" y2="284.86" xlink:href="#Новый_образец_градиента_9"/><linearGradient id="Новый_образец_градиента_8-2" x1="150.84" y1="37.48" x2="183.57" y2="83.31" xlink:href="#Новый_образец_градиента_8"/><linearGradient id="Новый_образец_градиента_7" x1="280.49" y1="21.1" x2="236.63" y2="246.32" gradientUnits="userSpaceOnUse"><stop offset="0" stop-color="#fb9a2b"/><stop offset="1" stop-color="#e65925"/></linearGradient><linearGradient id="Новый_образец_градиента_8-3" x1="81.87" y1="293.74" x2="241.79" y2="293.74" xlink:href="#Новый_образец_градиента_8"/><linearGradient id="Новый_образец_градиента_9-4" x1="98.25" y1="269.71" x2="189.34" y2="269.71" xlink:href="#Новый_образец_градиента_9"/><linearGradient id="Новый_образец_градиента_7-2" x1="93.05" y1="250.1" x2="175.96" y2="250.1" xlink:href="#Новый_образец_градиента_7"/><linearGradient id="Новый_образец_градиента_11-2" x1="248.16" y1="141.28" x2="257.59" y2="141.28" xlink:href="#Новый_образец_градиента_11"/><linearGradient id="Новый_образец_градиента_11-3" x1="188.3" y1="175.02" x2="253.11" y2="175.02" xlink:href="#Новый_образец_градиента_11"/><linearGradient id="Новый_образец_градиента_11-4" x1="198.5" y1="274.91" x2="229.03" y2="274.91" xlink:href="#Новый_образец_градиента_11"/><linearGradient id="Новый_образец_градиента_11-5" x1="226.77" y1="280.16" x2="250.29" y2="280.16" xlink:href="#Новый_образец_градиента_11"/><linearGradient id="Новый_образец_градиента_8-4" x1="138.78" y1="110.92" x2="174.3" y2="161.66" xlink:href="#Новый_образец_градиента_8"/><linearGradient id="Новый_образец_градиента_7-3" x1="28.95" y1="166.86" x2="62.87" y2="166.86" xlink:href="#Новый_образец_градиента_7"/><linearGradient id="Новый_образец_градиента_7-4" x1="103.86" y1="-13.3" x2="59.99" y2="211.92" gradientTransform="translate(13.79 -31.01) rotate(19.63)" xlink:href="#Новый_образец_градиента_7"/><linearGradient id="Новый_образец_градиента_7-5" x1="373.77" y1="39.27" x2="329.9" y2="264.48" xlink:href="#Новый_образец_градиента_7"/><linearGradient id="Новый_образец_градиента_8-5" x1="217.64" y1="11.49" x2="240.66" y2="49.9" xlink:href="#Новый_образец_градиента_8"/><linearGradient id="Новый_образец_градиента_9-5" x1="289.54" y1="243.03" x2="296.02" y2="286.53" xlink:href="#Новый_образец_градиента_9"/><linearGradient id="Новый_образец_градиента_7-6" x1="301.68" y1="239.6" x2="292.01" y2="266.95" xlink:href="#Новый_образец_градиента_7"/><linearGradient id="Новый_образец_градиента_7-7" x1="294.43" y1="237.04" x2="284.76" y2="264.39" xlink:href="#Новый_образец_градиента_7"/><linearGradient id="Новый_образец_градиента_7-8" x1="300.59" y1="239.22" x2="290.91" y2="266.57" xlink:href="#Новый_образец_градиента_7"/><linearGradient id="Новый_образец_градиента_7-9" x1="300.6" y1="239.22" x2="290.93" y2="266.57" gradientTransform="translate(19.31 -19.96) rotate(4.05)" xlink:href="#Новый_образец_градиента_7"/><linearGradient id="Новый_образец_градиента_7-10" x1="328.77" y1="30.5" x2="284.9" y2="255.72" xlink:href="#Новый_образец_градиента_7"/><linearGradient id="Новый_образец_градиента_9-6" x1="20.37" y1="14.15" x2="71.43" y2="95.34" xlink:href="#Новый_образец_градиента_9"/><linearGradient id="Новый_образец_градиента_9-7" x1="290.92" y1="158.32" x2="380.61" y2="140.64" xlink:href="#Новый_образец_градиента_9"/></defs><title>Ресурс 16</title><g id="Слой_2" data-name="Слой 2"><g id="Текст"><polygon class="cls-1" points="110.82 59.13 107.49 60.15 105.25 54.96 100.19 55.86 97.88 52.25 96.05 53.42 99.14 58.25 103.94 57.4 106.27 62.79 111.29 61.25 110.82 59.13"/><polygon class="cls-2" points="324.71 245.6 321.37 246.62 319.13 241.44 314.07 242.33 311.76 238.73 309.94 239.9 313.02 244.72 317.82 243.87 320.15 249.26 325.17 247.72 324.71 245.6"/><path class="cls-3" d="M90.27,307S72.48,246.66,71,233.35s8.52-9.18,8.52-9.18-8.37-25.35-2.32-31.37S88.77,198,88.77,198s1.83-30.78,8.29-30.79c12,0,11.79,33.57,11.79,33.57s3.07-13.15,9.51-9.55c9.71,5.44-4.21,31.79-4.21,31.79s12.37,0,16.72,6.25C138.64,240.45,90.27,307,90.27,307Z"/><path class="cls-4" d="M96.09,299s-51.31-8.58-62.47-17.67-.11-13.19-.11-13.19S7.74,254.92,8,245.94s13.1-4.42,13.1-4.42S-.58,216.76,4.56,212.05c9.58-8.76,34.68,17,34.68,17s-7.45-12.24.4-14.18c11.84-2.92,20.58,27.26,20.58,27.26S58,230.2,66.16,231.79C80.81,234.64,96.09,299,96.09,299Z"/><path class="cls-1" d="M66.16,231.79c-8.18-1.48-5.94,10.33-5.94,10.33s-8.74-30.19-20.58-27.26c-7.85,1.94-.4,14.18-.4,14.18s-25.11-25.74-34.68-17l91.36,87C94.29,290.7,79.89,234.27,66.16,231.79Z"/><path class="cls-5" d="M110.69,306.07s-27-27.48-40.63-30.34-11.16,6.82-11.16,6.82-27-23.61-33.25-17.89.51,11.24.51,11.24-22.49-4-25.71,3.39c-4.95,11.34,32,17.51,32,17.51S17,297.89,20.59,305C26,315.72,110.69,306.07,110.69,306.07Z"/><path class="cls-6" d="M.46,279.3c3.22-7.38,25.71-3.39,25.71-3.39s-6.77-5.52-.51-11.24,32.41,14.68,32.41,14.68-6.17-11.79,7.44-8.93,45.19,35.66,45.19,35.66Z"/><path class="cls-7" d="M153.7,22.68c-9.09,1.5-11.8,13.43-4.23,18.77a6.94,6.94,0,0,1,2.7,4L153.54,51A3,3,0,0,0,157,53.28l3.45-.57a3,3,0,0,0,2.52-3.24c-.48-5.73-1.07-7.81.79-10.37C169.18,31.63,162.8,21.18,153.7,22.68Z"/><path class="cls-1" d="M154.63,46.95c-.59-4.91-1.42-10.1-1.71-11.57-5.21.29-3.23-5.21-.83-3a4.55,4.55,0,0,1,1.22,2.45,13.48,13.48,0,0,0,5-1.45,6.39,6.39,0,0,1,.14-2.9c.51-1.17,2-1.49,2.6-.35a1.82,1.82,0,0,1,.1,1.43,4.63,4.63,0,0,1-2.32,2.11c.27,3.9.65,7.84,1.13,11.71l-.49.06c-.47-3.81-.85-7.68-1.12-11.52a14,14,0,0,1-4.9,1.4c.36,1.88,1.15,6.93,1.7,11.55Zm-4.18-12.73a2.92,2.92,0,0,0,2.37.67,4,4,0,0,0-1.06-2.12C150.47,31.57,149.67,33.39,150.45,34.22Zm8.43-3.52a5.52,5.52,0,0,0-.11,2.45,3.92,3.92,0,0,0,1.89-1.73,1.12,1.12,0,0,0-.58-1.46C160,29.95,159.08,30.25,158.88,30.7Z"/><path class="cls-8" d="M152.13,45.33l0,.14L153.54,51A3,3,0,0,0,157,53.28l3.45-.57a3,3,0,0,0,2.52-3.24c-.21-2.55-.45-4.38-.48-5.84Z"/><path class="cls-1" d="M147,18.53l-2.72-5a1,1,0,0,1,1.74-1l2.72,5a1,1,0,1,1-1.74,1Z"/><path class="cls-1" d="M141,30.54,135.09,30a1,1,0,1,1,.17-2l5.93.52a1,1,0,1,1-.17,2Z"/><path class="cls-1" d="M135.14,48.72a1,1,0,0,1,0-1.4,32.42,32.42,0,0,1,4.76-3.89,1,1,0,1,1,1.1,1.65,30.43,30.43,0,0,0-4.47,3.65A1,1,0,0,1,135.14,48.72Z"/><path class="cls-1" d="M161.61,18.27a1,1,0,0,1-.7-1.21,37.73,37.73,0,0,0,1.22-7.7,1,1,0,1,1,2,.11,39.71,39.71,0,0,1-1.29,8.11A1,1,0,0,1,161.61,18.27Z"/><path class="cls-1" d="M167.71,25.89a1,1,0,0,1,.66-1.24l6.16-1.86a1,1,0,0,1,.57,1.9L169,26.55A1,1,0,0,1,167.71,25.89Z"/><path class="cls-1" d="M177.84,42.29a1,1,0,0,1-.27,0,31.13,31.13,0,0,1-6.17-2.47,1,1,0,0,1,.93-1.75,29.14,29.14,0,0,0,5.78,2.32,1,1,0,0,1-.27,1.95Z"/><path class="cls-9" d="M268.11,86.14,265,78.78l-7.82-1.61a1.1,1.1,0,0,1-.5-1.9l6-5.23-.89-7.93A1.1,1.1,0,0,1,263.48,61l6.84,4.12,7.27-3.3a1.1,1.1,0,0,1,1.52,1.25l-1.81,7.78,5.38,5.9a1.1,1.1,0,0,1-.72,1.83l-8,.69-3.94,6.94A1.1,1.1,0,0,1,268.11,86.14Z"/><polygon class="cls-1" points="317.61 60.91 316.33 66.06 307.82 64.91 305.02 72.21 298.51 72.4 298.61 75.69 307.31 75.44 309.96 68.53 318.82 69.71 320.74 61.97 317.61 60.91"/><path class="cls-10" d="M241.79,307.65H92.22a10.54,10.54,0,0,1-10.34-10.73v-6.38a10.54,10.54,0,0,1,10.34-10.73H241.79a21.19,21.19,0,0,0-.27,27.51Z"/><path class="cls-7" d="M239.48,283h-83a10.54,10.54,0,0,0-10.34,10.73h0a10.54,10.54,0,0,0,10.34,10.73h83A21.29,21.29,0,0,1,239.48,283Z"/><path class="cls-11" d="M189.24,260.48a.62.62,0,0,0-.62-.88H109.48c-6.2,0-11.23,4.53-11.23,10.11h0c0,5.58,5,10.11,11.23,10.11h79.17a.62.62,0,0,0,.62-.88h0A19.37,19.37,0,0,1,189.24,260.48Z"/><path class="cls-7" d="M188.75,261.48H149.52c-7.28,0-13.18,3.79-13.18,8.47s5.9,8.47,13.18,8.47H189A19.33,19.33,0,0,1,188.75,261.48Z"/><path class="cls-12" d="M178.62,265.5h-5.11c-1.1,0-2,.37-2,.82v.07h7.1Z"/><path class="cls-13" d="M183,267.56c0-1.14-1.33-2.07-3-2.07h-6.56c1.25,0,2.26.7,2.26,1.57l0,22.15,3.62-2.85,3.69,2.85Z"/><path class="cls-7" d="M174.69,258.87H128.64c-4.08,0-7.39-3.93-7.39-8.78h0c0-4.85,3.31-8.78,7.39-8.78h46.05a15.44,15.44,0,0,0-.33,17.05Z"/><path class="cls-14" d="M121.25,250.1h0c0-4.85,3.39-8.78,7.57-8.78h46.75a.43.43,0,0,0,.39-.46h0a.43.43,0,0,0-.39-.45H101.41c-4.61,0-8.35,4.34-8.35,9.69h0c0,5.35,3.74,9.69,8.35,9.69h74.16a.43.43,0,0,0,.39-.45h0a.43.43,0,0,0-.39-.46H128.82C124.64,258.87,121.25,254.94,121.25,250.1Z"/><path class="cls-15" d="M166.65,245.63h-5.11c-1.1,0-2,.36-2,.81v.07h7.1Z"/><path class="cls-16" d="M171,247.66c0-1.12-1.33-2-3-2h-6.56c1.25,0,2.26.69,2.26,1.54l0,21.72,3.62-2.79,3.69,2.79Z"/><path class="cls-1" d="M248.07,111.47l6.8-1.79-4.61,61.46-8.16.27,4.11-57.71A2.49,2.49,0,0,1,248.07,111.47Z"/><path class="cls-17" d="M250.87,172.89a2.22,2.22,0,0,1-.47,0,2.73,2.73,0,0,1-2.23-3l4.52-57.79a2.48,2.48,0,0,1,2.66-2.42,2.73,2.73,0,0,1,2.23,3l-4.52,57.79A2.54,2.54,0,0,1,250.87,172.89Z"/><path class="cls-18" d="M188.3,176s0,.08,0,.13h0a4,4,0,0,0,4.07,3.93l57.42-5.14a4,4,0,0,0,3.3-4.59c0-.1,0-.2,0-.29Z"/><path class="cls-19" d="M228.28,238c-3.76,2.08-15.25-1.57-15.25-1.9-.17,3.14-12.87,33.88-12.87,33.88v9.46s26.18,1.25,25.8-1.07-1.78-.81-7-5.18c-.46-.39-7.8-2.09-5.81-6.43C217.15,258.07,225.63,243.49,228.28,238Z"/><path class="cls-20" d="M199.31,279.82H228c1-.11,1.28-.95.91-1.46-.75-1.05-6.24-3.54-9.93-5.18-6.43.75-17.73-1.72-18.77-3.19C197.45,273.64,198.73,279.7,199.31,279.82Z"/><path class="cls-21" d="M193,216c-.39-1.16,24.67-11.8,25.79-10.58,2,2.15-13.56,42.49-13.56,42.49l17.86,5.46s18.56-46.61,17.79-55.13-10.07-18.21-30.22-12S193,216,193,216Z"/><path class="cls-19" d="M244.9,243.34a94.77,94.77,0,0,0-14.1-1.07c.52,3.91,3,23.95,2.57,25.18a15,15,0,0,1-6,7.32S246.84,292.33,248,290.3s-.87-1.76-2.14-8.44c-.11-.59-2.93-9.93-3.1-15C242.45,257.29,244.76,248.67,244.9,243.34Z"/><path class="cls-22" d="M238.66,177.79c-2.71-1.45-9.76-1.5-17.51-1a177.78,177.78,0,0,0-44.39,8.71l-9.62,3.18,0-9.86s-30.59-5.12-31.65,2.46c-1.6,11.42.39,34.59,10.58,39.77,31.66,16.07,76-25.6,76.18-20.15.22,7.32,6.39,34.57,8,46.5,4.39.08,11.93.07,15.2-.68C246.09,223.36,246.39,181.91,238.66,177.79Z"/><path class="cls-23" d="M226.79,275.18l21.87,17.47c.87.57,1.59.08,1.63-.55.09-1.29-2.59-6.69-4.4-10.31-5.45-3.49-12.64-12.61-12.51-14.4C231.08,269.35,226.42,274.73,226.79,275.18Z"/><path class="cls-21" d="M177.29,82.5c-.73-6.72-1.51-13.46-7.08-18.38-4.51-4-10.23-4.66-15.9-2.53-16,6-7.78,20.29-28.24,34.66-6.36,4.47-13.37,7.52-18.15,13.53-6.7,8.42-4.17,18.54,1.94,25.3,29.22,32.34,61.85-11.34,64.19-21.82C175.78,105.47,177.76,86.82,177.29,82.5Z"/><path class="cls-1" d="M171.35,120.26a89.21,89.21,0,0,0-4.85-7.89c-2.48-4.4-8.87-6.63-8.87-6.63s-2.14,0-4.6.16a2,2,0,0,1-.46.82c-.92.69-6.21-.2-9.63,2.12-11.46,9.82-8.29,57.42-7.39,72.45l34.89.33S166,149.28,173.13,141C178.07,135.18,174.89,126.79,171.35,120.26Z"/><path class="cls-19" d="M155.63,89.64s-1.92,13.7-3.26,17,7.36,10.45,14.61,12.61-2.21-7.35-1.91-10.91S166.68,88,166.68,88Z"/><path class="cls-13" d="M166.31,92.79l.37-4.83-11.05,1.68s-.28,1.61-.59,3.88C159.52,96.12,163.55,95.3,166.31,92.79Z"/><path class="cls-19" d="M159.09,64.62a12.56,12.56,0,0,0-7,5.09c-2.69,4.11-4.54,16.19,4.32,21.83s15.75-2.34,15.87-10.12S170.68,63.25,159.09,64.62Z"/><ellipse class="cls-19" cx="172.28" cy="78.19" rx="3.67" ry="2.14" transform="translate(35.42 208.82) rotate(-68.08)"/><path class="cls-21" d="M160.4,64.37S154.85,76.83,150,77.94s-4.81,7.38-4.81,7.38.11-14.48,4.68-17.8S160.4,64.37,160.4,64.37Z"/><ellipse class="cls-19" cx="149.43" cy="81.31" rx="2.6" ry="3.84" transform="matrix(0.95, -0.3, 0.3, 0.95, -17.6, 49.03)"/><path class="cls-19" d="M214.31,170.47c-2.09-.76-5.21-.85-5.16-1.13.21-1.12,9.46,2.47,8.21.84-.7-.91-7.62-4.13-9.3-3.6s-12.35,3.52-12.35,3.52l-29.29-6.87S159,146.44,158.3,132a40.26,40.26,0,0,0-15.58,5.29c2.56,13.8,8.79,36.18,15.67,40.38,2.9,1.77,37.47-2.11,37.47-2.11s7.62-.54,8.86-1c.94-.36,3.38-1.73,4.7-2.11,3-.85,8.36,1.29,8.38.7C217.81,172.7,216.45,171.25,214.31,170.47Z"/><path class="cls-24" d="M158.48,116.59c-.28-4.44-2-8.73-6.69-10.11a9.57,9.57,0,0,0-8.56,1.87c-2.78,2.27-3.56,5.92-3.55,9.38a134,134,0,0,0,2,23.69,50.69,50.69,0,0,1,17.62-5.55S158.86,122.46,158.48,116.59Z"/><rect class="cls-22" x="30.96" y="79.04" width="34.43" height="49.55" rx="1.68" ry="1.68" transform="translate(-62.7 132.17) rotate(-79.45)"/><rect class="cls-22" x="35.9" y="76.07" width="8.09" height="17.42" rx="1.68" ry="1.68" transform="translate(-50.72 108.53) rotate(-79.45)"/><path class="cls-1" d="M69.8,123.8a1.68,1.68,0,0,1-1.92,1.2l-45.71-8.51a1.68,1.68,0,0,1-1.37-1.8L23.19,87.3a1.68,1.68,0,0,1,2-1.51l50.78,9.46a1.68,1.68,0,0,1,1.31,2.11Z"/><polygon class="cls-1" points="278.09 23.74 270.31 25.86 268.63 16.44 271.18 15.99 272.36 22.62 277.4 21.25 278.09 23.74"/><path class="cls-25" d="M30.34,153.16a12,12,0,0,1,6.28,1.61A9.08,9.08,0,0,1,40,158.22l-.36.25a8.16,8.16,0,0,0-4.18-2.57,10.07,10.07,0,0,0-4.67,0Z"/><path class="cls-26" d="M39.78,158.35s-11.87,2-10.76,11.25,13.62,16.48,24.8,10.75c15-7.71,9.09-27.32-1.6-28.84S39.78,158.35,39.78,158.35Z"/><path class="cls-27" d="M44.82,154.27s3.1-3.18,9.88-.29,7.27,16.37,1.22,15.59S40,156.21,44.82,154.27Z"/><rect class="cls-28" x="67.59" y="7.93" width="57.86" height="32.86" rx="3.02" ry="3.02" transform="translate(-2.57 33.85) rotate(-19.63)"/><circle class="cls-29" cx="84.99" cy="27.88" r="9.67" transform="translate(-4.43 30.18) rotate(-19.63)"/><circle class="cls-1" cx="83.69" cy="24.24" r="2.85" transform="matrix(0.94, -0.34, 0.34, 0.94, -3.28, 29.53)"/><path class="cls-1" d="M85,28.49H87a3.59,3.59,0,0,1,3.59,3.59v.81a0,0,0,0,1,0,0H81.43a0,0,0,0,1,0,0v-.81A3.59,3.59,0,0,1,85,28.49Z" transform="translate(-5.31 30.67) rotate(-19.63)"/><path class="cls-29" d="M95.3,19.35a1.23,1.23,0,0,1-.41-2.4l21.33-7.61a1.23,1.23,0,0,1,.83,2.32L95.71,19.28A1.23,1.23,0,0,1,95.3,19.35Z"/><path class="cls-29" d="M101.06,24.67a1.23,1.23,0,0,1-.41-2.4l16.66-5.94a1.23,1.23,0,1,1,.83,2.32L101.47,24.6A1.23,1.23,0,0,1,101.06,24.67Z"/><path class="cls-1" d="M202.27,221.59H84.43a6.63,6.63,0,0,0-6.63,6.63v5.57a6.63,6.63,0,0,0,6.63,6.63H202.27l-.06-.06A13.49,13.49,0,0,1,202.27,221.59Z"/><path class="cls-7" d="M200.18,224.38h-63a6.63,6.63,0,0,0-6.63,6.63h0a6.63,6.63,0,0,0,6.63,6.63h63A13.51,13.51,0,0,1,200.18,224.38Z"/><rect class="cls-7" x="292.86" y="189.45" width="39" height="28.52" rx="2.2" ry="2.2" transform="translate(-53.22 130.13) rotate(-21.73)"/><path class="cls-1" d="M329,209.17,321,189a.63.63,0,0,1,.35-.82h0a.63.63,0,0,1,.82.35l8,20.14a.63.63,0,0,1-.35.82h0A.63.63,0,0,1,329,209.17Z"/><path class="cls-1" d="M325.21,206.52,318.62,190a.63.63,0,0,1,.35-.82h0a.63.63,0,0,1,.82.35l6.59,16.53a.63.63,0,0,1-.35.82h0A.63.63,0,0,1,325.21,206.52Z"/><path class="cls-1" d="M324.25,211.08l-8-20.14a.63.63,0,0,1,.35-.82h0a.63.63,0,0,1,.82.35l8,20.14a.63.63,0,0,1-.35.82h0A.63.63,0,0,1,324.25,211.08Z"/><path class="cls-1" d="M320,207.43l-6.19-15.54a.63.63,0,0,1,.35-.82h0a.63.63,0,0,1,.82.35L321.21,207a.63.63,0,0,1-.35.82h0A.63.63,0,0,1,320,207.43Z"/><path class="cls-1" d="M328.81,186.89l-.16-.41a.28.28,0,0,0-.36-.17l-3.05,1.22a.28.28,0,0,0-.15.37l.16.41a.28.28,0,0,0,.36.17l3.05-1.22A.28.28,0,0,0,328.81,186.89Z"/><path class="cls-1" d="M329.51,188.62l-.16-.41A.28.28,0,0,0,329,188l-3.05,1.22a.28.28,0,0,0-.15.37l.16.41a.28.28,0,0,0,.36.17l3.05-1.22A.28.28,0,0,0,329.51,188.62Z"/><path class="cls-1" d="M330.2,190.36,330,190a.28.28,0,0,0-.36-.17L326.62,191a.28.28,0,0,0-.15.37l.16.41a.28.28,0,0,0,.36.17l3.05-1.22A.28.28,0,0,0,330.2,190.36Z"/><path class="cls-1" d="M330.89,192.09l-.16-.41a.28.28,0,0,0-.36-.17l-3.05,1.22a.28.28,0,0,0-.15.37l.16.41a.28.28,0,0,0,.36.17l3.05-1.22A.28.28,0,0,0,330.89,192.09Z"/><path class="cls-1" d="M331.58,193.83l-.16-.41a.28.28,0,0,0-.36-.17L328,194.47a.28.28,0,0,0-.15.37l.16.41a.28.28,0,0,0,.36.17l3.05-1.22A.28.28,0,0,0,331.58,193.83Z"/><path class="cls-1" d="M332.27,195.56l-.16-.41a.28.28,0,0,0-.36-.17l-3.05,1.22a.28.28,0,0,0-.15.37l.16.41a.28.28,0,0,0,.36.17l3.05-1.22A.28.28,0,0,0,332.27,195.56Z"/><path class="cls-1" d="M333,197.29l-.16-.41a.28.28,0,0,0-.36-.17l-3.05,1.22a.28.28,0,0,0-.15.37l.16.41a.28.28,0,0,0,.36.17l3.05-1.22A.28.28,0,0,0,333,197.29Z"/><path class="cls-1" d="M333.65,199l-.16-.41a.28.28,0,0,0-.36-.17l-3.05,1.22a.28.28,0,0,0-.15.37l.16.41a.28.28,0,0,0,.36.17l3.05-1.22A.28.28,0,0,0,333.65,199Z"/><path class="cls-1" d="M334.34,200.76l-.16-.41a.28.28,0,0,0-.36-.17l-3.05,1.22a.28.28,0,0,0-.15.37l.16.41a.28.28,0,0,0,.36.17l3.05-1.22A.28.28,0,0,0,334.34,200.76Z"/><path class="cls-1" d="M335,202.5l-.16-.41a.28.28,0,0,0-.36-.17l-3.05,1.22a.28.28,0,0,0-.15.37l.16.41a.28.28,0,0,0,.36.17l3.05-1.22A.28.28,0,0,0,335,202.5Z"/><path class="cls-1" d="M335.73,204.23l-.16-.41a.28.28,0,0,0-.36-.17l-3.05,1.22a.28.28,0,0,0-.15.37l.16.41a.28.28,0,0,0,.36.17l3.05-1.22A.28.28,0,0,0,335.73,204.23Z"/><path class="cls-1" d="M336.42,206l-.16-.41a.28.28,0,0,0-.36-.17l-3.05,1.22a.28.28,0,0,0-.15.37l.16.41a.28.28,0,0,0,.36.17l3.05-1.22A.28.28,0,0,0,336.42,206Z"/><path class="cls-30" d="M344.85,204.18l-12.76,18.16a.5.5,0,0,0-.07.13l-1.3,4a.5.5,0,0,0,.78.55l3.41-2.57a.5.5,0,0,0,.11-.11l12.79-18.21a.5.5,0,0,0-.14-.71L345.52,204A.5.5,0,0,0,344.85,204.18Z"/><path class="cls-7" d="M335,224.36l0,0-3.29,2.48-.9-.6L332,222.5A15.35,15.35,0,0,1,335,224.36Z"/><path class="cls-31" d="M215.61,7.53c1.84,1.47,5,6.18,9.11,9.49,2.38,1.94,4.22,1.44,7.26,1.81,14.44,1.75,10.53,4.7,12.26,5-.49,1.13-5,10.69-5.83,12.63a3.52,3.52,0,0,1-4.06,2.31c-3-.41-6-.72-8.94-1.36-7.54-1.63-11.73-5.4-17.13-10a3.53,3.53,0,0,1-1-4.45A122.57,122.57,0,0,1,215.61,7.53Z"/><path class="cls-1" d="M245.8,35.33c-.07,3.15.18,3.78-1.18,3.3a19,19,0,0,1-2.37-1.06c-.54-.28-.56-.65-.12-1.09.64-.64,1.3-1.27,1.94-1.9a2.79,2.79,0,0,1,1.22-3.35c.24-.14.06.15,2.07-4.47-6.65-.82-11.34-1.37-19.45-2.37a10.91,10.91,0,0,1-5.78-2.51L204.77,7.33A1.6,1.6,0,0,1,204.5,5a1.81,1.81,0,0,1,1.79-.51c1.85.23,20,2.49,21.85,2.7a11.93,11.93,0,0,1,6.43,2.76q8.54,7.15,17.1,14.27c.78.65,1,1.25.72,2a1.53,1.53,0,0,1-2,1c-.72-.16-1,.06-1.28.73-1.12,3-1.9,3.68-1.63,4.77C247.72,33.49,246.71,35,245.8,35.33Z"/><path class="cls-32" d="M275.92,249.08l3.31,3.15A87.93,87.93,0,0,1,298,278.31l.51,1.07s8.66.77,9.87-7.07h0a130.91,130.91,0,0,1-19-27.93l-1.57-3.66Z"/><path class="cls-1" d="M287.84,240.71c.43.61-1.9,3-5.19,5.26s-6.32,3.69-6.74,3.08,1.91-3,5.2-5.29S287.41,240.1,287.84,240.71Z"/><path class="cls-22" d="M287.85,240.73h0s-6.59,5.58-9.31,6.15l.84,1.14a34.83,34.83,0,0,0,3.28-2C285.9,243.7,288.21,241.38,287.85,240.73Z"/><path class="cls-33" d="M296.66,256.94c0,1-.36,5.11-7.27,6.85q.68.93,1.34,1.87c4.37-1.29,6.34-3.54,7.22-5.25.14-.27.31-.63.42-.91Q297.5,258.23,296.66,256.94Z"/><polygon class="cls-34" points="290.01 262.56 279.84 262.2 282.25 264.24 280.81 266.86 290.44 264.4 290.01 262.56"/><polygon class="cls-35" points="290.94 264.93 287.33 271.22 289.87 270.25 290.85 272.25 292.54 265.63 290.94 264.93"/><ellipse class="cls-36" cx="292.08" cy="263.3" rx="3.24" ry="3.34" transform="translate(-17.86 21.27) rotate(-4.05)"/><path class="cls-37" d="M313.9,123.83l-21.41-19.11c-1.39-1.24-.81-3.8,1.11-4.88l17.09-9.68a2.67,2.67,0,0,1,3.12.15l21.41,19.11c1.39,1.24.81,3.8-1.11,4.88L317,124A2.67,2.67,0,0,1,313.9,123.83Z"/><path class="cls-29" d="M312.89,108.63,311.1,93.95a1.32,1.32,0,0,1,.91-1.34.85.85,0,0,1,1.16.69l1.64,13.51,16.24,3.93a.9.9,0,0,1,.54,1.28,1.26,1.26,0,0,1-1.38.81Z"/><polygon class="cls-38" points="33.25 41.38 35.46 45.76 40.47 45.6 42.6 50.68 47.87 48.87 50.54 54.51 55.6 53.44 59.05 58.45 57.16 59.75 54.58 56.01 49.23 57.14 46.67 51.72 41.31 53.56 38.95 47.95 34.07 48.11 32.02 44.05 28.83 44.82 28.29 42.59 33.25 41.38"/><polygon class="cls-39" points="301.06 153.4 305.61 155.24 309.27 151.84 314.22 154.27 317 149.43 322.72 151.94 325.83 147.8 331.73 149.31 331.16 151.54 326.75 150.41 323.46 154.78 317.97 152.37 315.14 157.28 309.68 154.6 306.1 157.93 301.89 156.22 299.99 158.89 298.11 157.56 301.06 153.4"/></g></g></svg>