<svg xmlns="http://www.w3.org/2000/svg" viewBox="0 0 24 24"><defs><style>.cls-1{fill:#999;}</style></defs><title>Ресурс 1</title><g id="Слой_2" data-name="Слой 2"><g id="Дизайн_копия_" data-name="Дизайн (копия)"><path class="cls-1" d="M12,0A12,12,0,1,0,24,12,12,12,0,0,0,12,0Zm0,22.91A10.91,10.91,0,1,1,22.91,12,10.91,10.91,0,0,1,12,22.91Z"/><path class="cls-1" d="M18.26,6.63H5.67A1.34,1.34,0,0,0,4.32,8V16a1.34,1.34,0,0,0,1.34,1.34H18.26A1.34,1.34,0,0,0,19.6,16V8A1.34,1.34,0,0,0,18.26,6.63Zm-.19.9-5.16,5.13a1.34,1.34,0,0,1-1.9,0L5.86,7.52ZM5.22,15.85V8.15L9.09,12Zm.64.63,3.87-3.84.66.65a2.24,2.24,0,0,0,3.16,0l.66-.66,3.87,3.84Zm12.85-.63L14.84,12l3.87-3.85Z"/></g></g></svg>