<svg xmlns="http://www.w3.org/2000/svg" viewBox="0 0 42.53 24.1"><defs><style>.cls-1{fill:#063;}</style></defs><title>Ресурс 5</title><g id="Слой_2" data-name="Слой 2"><g id="Дизайн_копия_" data-name="Дизайн (копия)"><path class="cls-1" d="M41.84,10.05A26.32,26.32,0,0,0,32.9,2.73,25.79,25.79,0,0,0,21.59,0h-.66A25.79,25.79,0,0,0,9.63,2.73,26.32,26.32,0,0,0,.69,10.05a3.25,3.25,0,0,0,0,4,26.32,26.32,0,0,0,8.94,7.32,25.79,25.79,0,0,0,11.3,2.73h.66a25.79,25.79,0,0,0,11.3-2.73,26.32,26.32,0,0,0,8.94-7.32A3.25,3.25,0,0,0,41.84,10.05ZM10.4,19.83A24.58,24.58,0,0,1,2.05,13a1.52,1.52,0,0,1,0-1.88,24.4,24.4,0,0,1,11.16-8,12,12,0,0,0,0,17.93A24.4,24.4,0,0,1,10.4,19.83Zm10.86,2.55A10.32,10.32,0,1,1,31.59,12.05,10.34,10.34,0,0,1,21.26,22.38ZM40.47,13a24.58,24.58,0,0,1-8.35,6.84A24.38,24.38,0,0,1,29.32,21a12,12,0,0,0,0-17.93,24.42,24.42,0,0,1,11.16,8A1.52,1.52,0,0,1,40.47,13ZM21.26,7.63a4.42,4.42,0,1,0,4.42,4.42A4.42,4.42,0,0,0,21.26,7.63Zm0,7.11A2.69,2.69,0,1,1,24,12.05,2.69,2.69,0,0,1,21.26,14.74Z"/></g></g></svg>