<svg xmlns="http://www.w3.org/2000/svg" viewBox="0 0 24 24"><defs><style>.cls-1{fill:#999;}</style></defs><title>Ресурс 4</title><g id="Слой_2" data-name="Слой 2"><g id="Дизайн_копия_" data-name="Дизайн (копия)"><path class="cls-1" d="M12,0A12,12,0,1,0,24,12,12,12,0,0,0,12,0Zm0,22.91A10.91,10.91,0,1,1,22.91,12,10.91,10.91,0,0,1,12,22.91Z"/><path class="cls-1" d="M12.52,19.2V12.63h2.2l.33-2.56H12.52V8.44c0-.74.21-1.25,1.27-1.25h1.35V4.91a18.12,18.12,0,0,0-2-.1A3.08,3.08,0,0,0,9.88,8.19v1.89H7.67v2.56H9.88V19.2Z"/></g></g></svg>