<svg xmlns="http://www.w3.org/2000/svg" viewBox="0 0 24 24"><defs><style>.cls-1{fill:#999;}</style></defs><title>Ресурс 3</title><g id="Слой_2" data-name="Слой 2"><g id="Дизайн_копия_" data-name="Дизайн (копия)"><path class="cls-1" d="M12,0A12,12,0,1,0,24,12,12,12,0,0,0,12,0Zm0,22.91A10.91,10.91,0,1,1,22.91,12,10.91,10.91,0,0,1,12,22.91ZM11.74,7c1.59,0,1.78,0,2.4,0a3.28,3.28,0,0,1,1.1.2,2,2,0,0,1,1.13,1.13,3.29,3.29,0,0,1,.2,1.1c0,.63,0,.81,0,2.4s0,1.78,0,2.4a3.29,3.29,0,0,1-.2,1.1,2,2,0,0,1-1.13,1.13,3.28,3.28,0,0,1-1.1.2c-.63,0-.81,0-2.4,0s-1.78,0-2.4,0a3.28,3.28,0,0,1-1.1-.2A2,2,0,0,1,7.1,15.38a3.29,3.29,0,0,1-.2-1.1c0-.63,0-.81,0-2.4s0-1.78,0-2.4a3.29,3.29,0,0,1,.2-1.1A2,2,0,0,1,8.23,7.24,3.28,3.28,0,0,1,9.34,7c.63,0,.81,0,2.4,0m0-1.07c-1.61,0-1.82,0-2.45,0a4.36,4.36,0,0,0-1.44.28A3,3,0,0,0,6.11,8a4.36,4.36,0,0,0-.28,1.44c0,.63,0,.84,0,2.45s0,1.82,0,2.45a4.35,4.35,0,0,0,.28,1.44A3,3,0,0,0,7.85,17.5a4.36,4.36,0,0,0,1.44.28c.63,0,.84,0,2.45,0s1.82,0,2.45,0a4.36,4.36,0,0,0,1.44-.28,3,3,0,0,0,1.74-1.74,4.35,4.35,0,0,0,.28-1.44c0-.63,0-.84,0-2.45s0-1.82,0-2.45A4.36,4.36,0,0,0,17.37,8a3,3,0,0,0-1.74-1.74A4.36,4.36,0,0,0,14.19,6c-.63,0-.84,0-2.45,0m0,2.89a3.05,3.05,0,1,0,3.05,3.05,3.05,3.05,0,0,0-3.05-3.05m0,5a2,2,0,1,1,2-2,2,2,0,0,1-2,2M15.62,8.7a.71.71,0,1,0-.71.71.71.71,0,0,0,.71-.71"/></g></g></svg>