<svg xmlns="http://www.w3.org/2000/svg" xmlns:xlink="http://www.w3.org/1999/xlink" viewBox="0 0 261.66 184.83"><defs><style>.cls-1,.cls-11,.cls-64,.cls-65,.cls-83,.cls-98{fill:#fff;}.cls-1{opacity:0.57;}.cls-2{isolation:isolate;}.cls-3{fill:#bdd0fb;}.cls-4{fill:#dce5fe;}.cls-5{fill:#91b3fa;}.cls-6{fill:url(#linear-gradient);}.cls-7{fill:url(#linear-gradient-2);}.cls-8{fill:url(#linear-gradient-3);}.cls-9{fill:url(#linear-gradient-4);}.cls-10{opacity:0.68;}.cls-11{mix-blend-mode:soft-light;}.cls-12{fill:#7d97f4;}.cls-13{fill:url(#linear-gradient-5);}.cls-14{fill:url(#linear-gradient-6);}.cls-15{fill:url(#linear-gradient-7);}.cls-16{fill:url(#linear-gradient-8);}.cls-17{fill:url(#linear-gradient-9);}.cls-18{fill:url(#linear-gradient-10);}.cls-19{fill:url(#linear-gradient-11);}.cls-20{fill:url(#linear-gradient-12);}.cls-21{fill:url(#linear-gradient-13);}.cls-22{fill:url(#linear-gradient-14);}.cls-23{fill:url(#linear-gradient-15);}.cls-24{fill:url(#linear-gradient-16);}.cls-25{fill:url(#linear-gradient-17);}.cls-26{fill:url(#linear-gradient-18);}.cls-27{fill:url(#linear-gradient-19);}.cls-28{fill:url(#linear-gradient-20);}.cls-29{fill:url(#linear-gradient-21);}.cls-30{fill:url(#linear-gradient-22);}.cls-31{fill:url(#linear-gradient-23);}.cls-32{fill:url(#linear-gradient-24);}.cls-33{fill:url(#linear-gradient-25);}.cls-34{fill:url(#linear-gradient-26);}.cls-35{fill:url(#linear-gradient-27);}.cls-36{fill:url(#linear-gradient-28);}.cls-37{fill:url(#linear-gradient-29);}.cls-38{fill:url(#linear-gradient-30);}.cls-39{fill:url(#linear-gradient-31);}.cls-40{fill:url(#linear-gradient-32);}.cls-41{fill:url(#linear-gradient-33);}.cls-42{fill:url(#linear-gradient-34);}.cls-43{fill:url(#linear-gradient-35);}.cls-44{fill:url(#linear-gradient-36);}.cls-45{fill:url(#linear-gradient-37);}.cls-46{fill:url(#linear-gradient-38);}.cls-47{fill:url(#linear-gradient-39);}.cls-48{fill:url(#linear-gradient-40);}.cls-49{fill:url(#linear-gradient-41);}.cls-50{fill:url(#linear-gradient-42);}.cls-51{clip-path:url(#clip-path);}.cls-52{fill:url(#linear-gradient-43);}.cls-53{clip-path:url(#clip-path-2);}.cls-54{fill:url(#linear-gradient-44);}.cls-55{clip-path:url(#clip-path-3);}.cls-56{fill:url(#linear-gradient-45);}.cls-57{fill:url(#linear-gradient-46);}.cls-58{fill:url(#linear-gradient-47);}.cls-59{fill:url(#linear-gradient-48);}.cls-60{fill:url(#linear-gradient-49);}.cls-61{fill:url(#linear-gradient-50);}.cls-62{fill:url(#linear-gradient-51);}.cls-63{fill:url(#linear-gradient-52);}.cls-64{opacity:0.59;}.cls-65{opacity:0.73;}.cls-66{fill:url(#linear-gradient-53);}.cls-67{fill:url(#linear-gradient-54);}.cls-68{fill:url(#linear-gradient-55);}.cls-69{fill:url(#linear-gradient-56);}.cls-70{fill:url(#linear-gradient-57);}.cls-71{fill:url(#linear-gradient-58);}.cls-72{fill:url(#linear-gradient-59);}.cls-73{fill:url(#linear-gradient-60);}.cls-74{fill:url(#linear-gradient-61);}.cls-75{fill:url(#linear-gradient-62);}.cls-76{fill:url(#linear-gradient-63);}.cls-77{fill:url(#linear-gradient-64);}.cls-78{fill:url(#linear-gradient-65);}.cls-79{fill:url(#linear-gradient-66);}.cls-80{fill:url(#linear-gradient-67);}.cls-81{fill:url(#linear-gradient-68);}.cls-82{fill:url(#linear-gradient-69);}.cls-83{opacity:0.87;}.cls-84{fill:url(#linear-gradient-70);}.cls-85{fill:url(#linear-gradient-71);}.cls-86{fill:url(#linear-gradient-72);}.cls-87{fill:url(#linear-gradient-73);}.cls-88{fill:url(#linear-gradient-74);}.cls-89{fill:url(#linear-gradient-75);}.cls-90{fill:url(#linear-gradient-76);}.cls-91{fill:url(#linear-gradient-77);}.cls-92{fill:url(#linear-gradient-78);}.cls-93{fill:url(#linear-gradient-79);}.cls-94{fill:url(#linear-gradient-80);}.cls-95{fill:url(#linear-gradient-81);}.cls-96{fill:url(#linear-gradient-82);}.cls-97{fill:url(#linear-gradient-83);}</style><linearGradient id="linear-gradient" x1="150.02" y1="87.72" x2="205.8" y2="87.72" gradientUnits="userSpaceOnUse"><stop offset="0" stop-color="#dae3fe"/><stop offset="1" stop-color="#e9effd"/></linearGradient><linearGradient id="linear-gradient-2" x1="13.98" y1="82.77" x2="88.53" y2="82.77" xlink:href="#linear-gradient"/><linearGradient id="linear-gradient-3" x1="13.46" y1="148.63" x2="105.96" y2="148.63" xlink:href="#linear-gradient"/><linearGradient id="linear-gradient-4" x1="123.93" y1="95.08" x2="88.06" y2="13.17" gradientTransform="translate(225.04 -28.67) rotate(87.49)" gradientUnits="userSpaceOnUse"><stop offset="0" stop-color="#4042e2"/><stop offset="1" stop-color="#4f52ff"/></linearGradient><linearGradient id="linear-gradient-5" x1="10001.47" y1="72.59" x2="10062.44" y2="72.59" gradientTransform="matrix(-1, 0, 0, 1, 10091.96, 0)" gradientUnits="userSpaceOnUse"><stop offset="0" stop-color="#09005d"/><stop offset="1" stop-color="#1a0f91"/></linearGradient><linearGradient id="linear-gradient-6" x1="10016.18" y1="83.38" x2="10016.6" y2="103.88" xlink:href="#linear-gradient-5"/><linearGradient id="linear-gradient-7" x1="35.15" y1="86.81" x2="89.79" y2="25.84" gradientTransform="matrix(1, 0, 0, 1, 0, 0)" xlink:href="#linear-gradient-5"/><linearGradient id="linear-gradient-8" x1="96.06" y1="63.58" x2="122.26" y2="51.72" gradientUnits="userSpaceOnUse"><stop offset="0" stop-color="#fe7062"/><stop offset="1" stop-color="#ff928e"/></linearGradient><linearGradient id="linear-gradient-9" x1="76.06" y1="36.43" x2="71.09" y2="74.76" gradientUnits="userSpaceOnUse"><stop offset="0" stop-color="#ff928e"/><stop offset="1" stop-color="#feb3b1"/></linearGradient><linearGradient id="linear-gradient-10" x1="-775.33" y1="1081.07" x2="-786.08" y2="1058.45" gradientTransform="matrix(-0.96, 0.26, 0.26, 0.96, -1012.02, -489.66)" xlink:href="#linear-gradient-9"/><linearGradient id="linear-gradient-11" x1="28.24" y1="80.54" x2="82.87" y2="19.57" gradientTransform="matrix(1, 0, 0, 1, 0, 0)" xlink:href="#linear-gradient-5"/><linearGradient id="linear-gradient-12" x1="-769.72" y1="1078.4" x2="-780.47" y2="1055.78" gradientTransform="matrix(-0.96, 0.26, 0.26, 0.96, -1012.02, -489.66)" xlink:href="#linear-gradient-9"/><linearGradient id="linear-gradient-13" x1="10033.16" y1="58.25" x2="10029.36" y2="89.55" gradientTransform="matrix(-1, 0, 0, 1, 10091.96, 0)" xlink:href="#linear-gradient-9"/><linearGradient id="linear-gradient-14" x1="187.8" y1="108.12" x2="183.38" y2="129.63" xlink:href="#linear-gradient-9"/><linearGradient id="linear-gradient-15" x1="182.67" y1="151.59" x2="142.13" y2="162.07" xlink:href="#linear-gradient-8"/><linearGradient id="linear-gradient-16" x1="11422.02" y1="161.09" x2="11485.01" y2="161.09" gradientTransform="matrix(-1, 0, 0, 1, 11667.38, 0)" xlink:href="#linear-gradient-5"/><linearGradient id="linear-gradient-17" x1="11469.42" y1="173.53" x2="11469.85" y2="194.71" gradientTransform="matrix(-1, 0, 0, 1, 11667.38, 0)" xlink:href="#linear-gradient-5"/><linearGradient id="linear-gradient-18" x1="-15661.37" y1="5104.06" x2="-15684.47" y2="5131.51" gradientTransform="translate(16710.17 -417.7) rotate(16.22)" xlink:href="#linear-gradient-5"/><linearGradient id="linear-gradient-19" x1="209.65" y1="158.73" x2="180.97" y2="171.97" xlink:href="#linear-gradient-8"/><linearGradient id="linear-gradient-20" x1="-15694.82" y1="5152.46" x2="-15692.94" y2="5139.1" gradientTransform="translate(16710.17 -417.7) rotate(16.22)" xlink:href="#linear-gradient-9"/><linearGradient id="linear-gradient-21" x1="-15703.45" y1="5123.83" x2="-15685.85" y2="5144.06" gradientTransform="translate(16710.17 -417.7) rotate(16.22)" xlink:href="#linear-gradient-9"/><linearGradient id="linear-gradient-22" x1="-15672.43" y1="5094.75" x2="-15695.54" y2="5122.2" gradientTransform="translate(16710.17 -417.7) rotate(16.22)" xlink:href="#linear-gradient-5"/><linearGradient id="linear-gradient-23" x1="-15699.06" y1="5120" x2="-15681.46" y2="5140.24" gradientTransform="translate(16710.17 -417.7) rotate(16.22)" xlink:href="#linear-gradient-9"/><linearGradient id="linear-gradient-24" x1="231.51" y1="147.67" x2="221.03" y2="157.6" xlink:href="#linear-gradient-9"/><linearGradient id="linear-gradient-25" x1="225.33" y1="158.48" x2="244.57" y2="158.48" xlink:href="#linear-gradient-8"/><linearGradient id="linear-gradient-26" x1="117.75" y1="103.24" x2="114.98" y2="128.18" xlink:href="#linear-gradient-8"/><linearGradient id="linear-gradient-27" x1="118.28" y1="97.75" x2="107.85" y2="130.74" xlink:href="#linear-gradient-8"/><linearGradient id="linear-gradient-28" x1="112.01" y1="102.59" x2="109.24" y2="127.53" xlink:href="#linear-gradient-8"/><linearGradient id="linear-gradient-29" x1="112.61" y1="95.96" x2="102.18" y2="128.95" xlink:href="#linear-gradient-8"/><linearGradient id="linear-gradient-30" x1="123.86" y1="103.91" x2="121.09" y2="128.85" xlink:href="#linear-gradient-8"/><linearGradient id="linear-gradient-31" x1="125.06" y1="99.9" x2="114.63" y2="132.89" xlink:href="#linear-gradient-8"/><linearGradient id="linear-gradient-32" x1="101.14" y1="101.38" x2="98.37" y2="126.32" xlink:href="#linear-gradient-8"/><linearGradient id="linear-gradient-33" x1="102.99" y1="92.92" x2="92.57" y2="125.91" xlink:href="#linear-gradient-8"/><linearGradient id="linear-gradient-34" x1="107.25" y1="102.06" x2="104.48" y2="127" xlink:href="#linear-gradient-8"/><linearGradient id="linear-gradient-35" x1="109.77" y1="95.07" x2="99.35" y2="128.06" xlink:href="#linear-gradient-8"/><linearGradient id="linear-gradient-36" x1="163.97" y1="-0.9" x2="155.14" y2="33.85" xlink:href="#linear-gradient-9"/><linearGradient id="linear-gradient-37" x1="168.84" y1="0.33" x2="160.02" y2="35.09" xlink:href="#linear-gradient-9"/><linearGradient id="linear-gradient-38" x1="170.43" y1="0.74" x2="161.6" y2="35.49" xlink:href="#linear-gradient-9"/><linearGradient id="linear-gradient-39" x1="177.51" y1="2.54" x2="168.69" y2="37.29" xlink:href="#linear-gradient-9"/><linearGradient id="linear-gradient-40" x1="178.84" y1="2.87" x2="170.02" y2="37.63" xlink:href="#linear-gradient-9"/><linearGradient id="linear-gradient-41" x1="183.39" y1="4.03" x2="174.57" y2="38.78" xlink:href="#linear-gradient-9"/><linearGradient id="linear-gradient-42" x1="188" y1="5.2" x2="179.17" y2="39.95" xlink:href="#linear-gradient-9"/><clipPath id="clip-path"><path class="cls-1" d="M141.77,54.84a6.08,6.08,0,1,0,6.08,6.08A6.08,6.08,0,0,0,141.77,54.84Zm0,9.54a3.46,3.46,0,1,1,3.46-3.46A3.46,3.46,0,0,1,141.77,64.38Z"/></clipPath><linearGradient id="linear-gradient-43" x1="142.56" y1="55.92" x2="141.73" y2="80.44" xlink:href="#linear-gradient-8"/><clipPath id="clip-path-2"><path class="cls-1" d="M156.59,54.84a6.08,6.08,0,1,0,6.08,6.08A6.08,6.08,0,0,0,156.59,54.84Zm0,9.54a3.46,3.46,0,1,1,3.46-3.46A3.46,3.46,0,0,1,156.59,64.38Z"/></clipPath><linearGradient id="linear-gradient-44" x1="157.32" y1="56.42" x2="156.49" y2="80.94" xlink:href="#linear-gradient-8"/><clipPath id="clip-path-3"><path class="cls-1" d="M171.42,54.84a6.08,6.08,0,1,0,6.08,6.08A6.08,6.08,0,0,0,171.42,54.84Zm0,9.54a3.46,3.46,0,1,1,3.46-3.46A3.46,3.46,0,0,1,171.42,64.38Z"/></clipPath><linearGradient id="linear-gradient-45" x1="172.24" y1="56.93" x2="171.41" y2="81.44" xlink:href="#linear-gradient-8"/><linearGradient id="linear-gradient-46" x1="165.96" y1="100.99" x2="175.86" y2="100.99" xlink:href="#linear-gradient"/><linearGradient id="linear-gradient-47" x1="177.65" y1="94.76" x2="160.4" y2="111.13" xlink:href="#linear-gradient-8"/><linearGradient id="linear-gradient-48" x1="165.94" y1="85.09" x2="175.84" y2="85.09" xlink:href="#linear-gradient"/><linearGradient id="linear-gradient-49" x1="176.51" y1="79.85" x2="161.19" y2="94.38" xlink:href="#linear-gradient-8"/><linearGradient id="linear-gradient-50" x1="165.98" y1="116.97" x2="175.88" y2="116.97" xlink:href="#linear-gradient"/><linearGradient id="linear-gradient-51" x1="176.65" y1="111.6" x2="161.34" y2="126.14" xlink:href="#linear-gradient-8"/><linearGradient id="linear-gradient-52" x1="122.43" y1="57.51" x2="83.21" y2="113.41" gradientTransform="matrix(1, 0, 0, 1, 0, 0)" xlink:href="#linear-gradient-5"/><linearGradient id="linear-gradient-53" x1="132.33" y1="-8.94" x2="123.51" y2="25.81" gradientUnits="userSpaceOnUse"><stop offset="0" stop-color="#e1473d"/><stop offset="1" stop-color="#e9605a"/></linearGradient><linearGradient id="linear-gradient-54" x1="129.76" y1="64.57" x2="123.69" y2="78.3" xlink:href="#linear-gradient-8"/><linearGradient id="linear-gradient-55" x1="32.75" y1="159.29" x2="99.83" y2="159.29" gradientTransform="matrix(1, 0, 0, 1, 0, 0)" xlink:href="#linear-gradient-5"/><linearGradient id="linear-gradient-56" x1="83.22" y1="172.55" x2="83.67" y2="195.1" gradientTransform="matrix(1, 0, 0, 1, 0, 0)" xlink:href="#linear-gradient-5"/><linearGradient id="linear-gradient-57" x1="78.26" y1="154.55" x2="29.72" y2="264.88" xlink:href="#linear-gradient-8"/><linearGradient id="linear-gradient-58" x1="111.44" y1="110.16" x2="103.39" y2="160.17" gradientUnits="userSpaceOnUse"><stop offset="0" stop-color="#a22b25"/><stop offset="1" stop-color="#c0423c"/></linearGradient><linearGradient id="linear-gradient-59" x1="19877.61" y1="355.78" x2="19869.56" y2="405.8" gradientTransform="matrix(-1, 0, 0, 1, 20036.26, 0)" xlink:href="#linear-gradient-58"/><linearGradient id="linear-gradient-60" x1="114.79" y1="121.32" x2="132.79" y2="110.15" xlink:href="#linear-gradient-58"/><linearGradient id="linear-gradient-61" x1="62.64" y1="147.68" x2="14.1" y2="258" xlink:href="#linear-gradient-8"/><linearGradient id="linear-gradient-62" x1="51.94" y1="163.14" x2="78.52" y2="163.14" xlink:href="#linear-gradient-58"/><linearGradient id="linear-gradient-63" x1="76.55" y1="160.35" x2="84.83" y2="160.35" xlink:href="#linear-gradient-58"/><linearGradient id="linear-gradient-64" x1="72.35" y1="134.72" x2="82.86" y2="134.72" xlink:href="#linear-gradient-58"/><linearGradient id="linear-gradient-65" x1="-1086.33" y1="-5062.86" x2="-1090.26" y2="-5075.82" gradientTransform="matrix(0.75, -0.67, 0.67, 0.75, 4267.13, 3181.54)" xlink:href="#linear-gradient-58"/><linearGradient id="linear-gradient-66" x1="-1089.88" y1="-5085.44" x2="-1086.59" y2="-5066.7" gradientTransform="matrix(0.75, -0.67, 0.67, 0.75, 4267.13, 3181.54)" xlink:href="#linear-gradient-5"/><linearGradient id="linear-gradient-67" x1="-1090.35" y1="-5062.92" x2="-1093.88" y2="-5074.58" gradientTransform="matrix(0.75, -0.67, 0.67, 0.75, 4267.13, 3181.54)" xlink:href="#linear-gradient-58"/><linearGradient id="linear-gradient-68" x1="190.17" y1="65.98" x2="248.23" y2="65.98" gradientTransform="matrix(1, 0, 0, 1, 0, 0)" xlink:href="#linear-gradient-5"/><linearGradient id="linear-gradient-69" x1="204.18" y1="76.25" x2="204.58" y2="95.77" gradientTransform="matrix(1, 0, 0, 1, 0, 0)" xlink:href="#linear-gradient-5"/><linearGradient id="linear-gradient-70" x1="12772.28" y1="19.68" x2="12829.04" y2="19.68" gradientTransform="matrix(-1, 0, 0, 1, 12972.14, 0)" xlink:href="#linear-gradient-4"/><linearGradient id="linear-gradient-71" x1="145.62" y1="20.42" x2="196.87" y2="20.42" xlink:href="#linear-gradient"/><linearGradient id="linear-gradient-72" x1="12813.18" y1="-13.18" x2="12779.72" y2="21.48" gradientTransform="matrix(-1, 0, 0, 1, 12972.14, 0)" xlink:href="#linear-gradient-5"/><linearGradient id="linear-gradient-73" x1="12796.27" y1="8.4" x2="12779.69" y2="27.39" gradientTransform="matrix(-1, 0, 0, 1, 12972.14, 0)" xlink:href="#linear-gradient-9"/><linearGradient id="linear-gradient-74" x1="12801.34" y1="3.29" x2="12792.6" y2="14.59" gradientTransform="matrix(-1, 0, 0, 1, 12972.14, 0)" xlink:href="#linear-gradient-5"/><linearGradient id="linear-gradient-75" x1="12767.54" y1="31.05" x2="12718.17" y2="139.4" gradientTransform="matrix(-1, 0, 0, 1, 12972.14, 0)" xlink:href="#linear-gradient-8"/><linearGradient id="linear-gradient-76" x1="12791.06" y1="20.82" x2="12779.52" y2="37.1" gradientTransform="matrix(-1, 0, 0, 1, 12972.14, 0)" xlink:href="#linear-gradient-9"/><linearGradient id="linear-gradient-77" x1="12786.18" y1="17.36" x2="12774.64" y2="33.64" gradientTransform="matrix(-1, 0, 0, 1, 12972.14, 0)" xlink:href="#linear-gradient-9"/><linearGradient id="linear-gradient-78" x1="12754.67" y1="37.09" x2="12748.34" y2="64.45" gradientTransform="matrix(-1, 0, 0, 1, 12972.14, 0)" xlink:href="#linear-gradient-9"/><linearGradient id="linear-gradient-79" x1="12532.37" y1="4910.87" x2="12521.14" y2="4925.73" gradientTransform="matrix(-0.69, -0.73, -0.73, 0.69, 12383.81, 5790.71)" xlink:href="#linear-gradient-9"/><linearGradient id="linear-gradient-80" x1="12523.8" y1="4914.44" x2="12537.21" y2="4914.44" gradientTransform="matrix(-0.69, -0.73, -0.73, 0.69, 12383.81, 5790.71)" xlink:href="#linear-gradient-5"/><linearGradient id="linear-gradient-81" x1="12515.93" y1="4922.64" x2="12524.93" y2="4913.4" gradientTransform="matrix(-0.69, -0.73, -0.73, 0.69, 12383.81, 5790.71)" xlink:href="#linear-gradient-9"/><linearGradient id="linear-gradient-82" x1="12749.34" y1="43.36" x2="12736.23" y2="67.43" gradientTransform="matrix(-1, 0, 0, 1, 12972.14, 0)" xlink:href="#linear-gradient-53"/><linearGradient id="linear-gradient-83" x1="12736.95" y1="80.13" x2="12749.24" y2="80.13" gradientTransform="matrix(-1, 0, 0, 1, 12972.14, 0)" xlink:href="#linear-gradient-9"/></defs><title>Ресурс 20</title><g class="cls-2"><g id="Слой_2" data-name="Слой 2"><g id="Дизайн_копия_" data-name="Дизайн (копия)"><path class="cls-3" d="M261.63,87c-3.64,15.64-29.1,105.71-131.46,96.19,0,0-.95-63.76,129.42-97.83A1.56,1.56,0,0,1,261.63,87Z"/><path class="cls-4" d="M247.83,97.27c-3.34,4.51-6.86,8.87-10.46,13.17S230,118.93,226.24,123a323.91,323.91,0,0,1-24.06,23.49q-6.35,5.52-13,10.67t-13.76,9.7c-4.74,3-9.59,5.85-14.59,8.42A142.57,142.57,0,0,1,145.34,182a.57.57,0,1,1-.38-1.07h0a141.5,141.5,0,0,0,15.38-6.55c5-2.53,9.82-5.32,14.54-8.3s9.28-6.23,13.75-9.59,8.78-6.92,13-10.57a323.19,323.19,0,0,0,24.12-23.32q5.73-6.13,11.17-12.53c3.61-4.27,7.16-8.61,10.5-13.09h0a.24.24,0,0,1,.39.29Z"/><path class="cls-5" d="M213.24,2.13c5.95,17.65,35.75,121.54-71.36,162,0,0-39.87-64.25,68.34-162.65A1.92,1.92,0,0,1,213.24,2.13Z"/><path class="cls-6" d="M205.8,19.29c-.23,3.14-.55,6.26-.92,9.38s-.79,6.23-1.25,9.33q-1.39,9.32-3.31,18.54a285.86,285.86,0,0,1-10,36.31,192.58,192.58,0,0,1-15.65,34.26A131.61,131.61,0,0,1,164,142.65c-2,2.45-4,4.83-6.24,7.1s-4.48,4.44-6.87,6.5a.53.53,0,0,1-.69-.8h0q3.56-3,6.82-6.4c2.18-2.24,4.23-4.59,6.21-7a130.67,130.67,0,0,0,10.69-15.39,191.77,191.77,0,0,0,15.72-34,285.2,285.2,0,0,0,10.1-36.19q1.95-9.2,3.38-18.5.71-4.65,1.29-9.31c.38-3.11.72-6.23,1-9.35h0a.22.22,0,0,1,.44,0Z"/><path class="cls-3" d="M91.59,132S64.9,51,5.91,13.74A1.25,1.25,0,0,0,4,14.62C2,28.85-6.62,119.21,91.59,132Z"/><path class="cls-7" d="M14.66,36.86c2,4.54,4.14,9,6.47,13.41s4.74,8.72,7.28,13,5.22,8.43,8,12.52,5.69,8.11,8.76,12,6.21,7.72,9.54,11.38c.41.46.82.93,1.24,1.38l1.27,1.35c.85.9,1.68,1.81,2.56,2.69l2.62,2.63.65.66.67.64,1.35,1.28c1.77,1.73,3.66,3.34,5.49,5,.93.82,1.89,1.6,2.84,2.4l1.42,1.19c.48.39,1,.76,1.46,1.15l2.92,2.3,3,2.19,1.5,1.1,1.55,1,3.08,2.09h0a.35.35,0,0,1-.37.59,139.14,139.14,0,0,1-24.14-17.72l-1.39-1.26-.69-.63-.68-.65L58.42,106c-.9-.88-1.75-1.79-2.62-2.69l-1.31-1.35c-.43-.46-.85-.92-1.27-1.38-3.41-3.66-6.6-7.53-9.71-11.45A208.78,208.78,0,0,1,26.83,64.17q-3.73-6.51-7-13.27-1.61-3.38-3.09-6.82c-1-2.29-1.93-4.6-2.77-7a.35.35,0,0,1,.65-.26Z"/><path class="cls-5" d="M107.92,181.28S53.52,104.67,1.36,107.64a1.44,1.44,0,0,0-1.29,1.85C3.13,119.83,23.11,173.65,107.92,181.28Z"/><path class="cls-8" d="M14,118.83c3.44,3,7,5.85,10.57,8.67,1.8,1.41,3.59,2.81,5.4,4.2s3.63,2.76,5.47,4.11,3.68,2.69,5.53,4l5.6,3.93c3.77,2.56,7.54,5.13,11.38,7.59s7.71,4.87,11.57,7.29l5.9,3.46c1,.57,2,1.16,3,1.72l3,1.65c2,1.1,4,2.21,6,3.29l6.08,3.13c1,.52,2,1.06,3,1.56l3.08,1.47,6.17,2.95h0a.33.33,0,0,1-.28.61c-8.3-3.82-16.56-7.76-24.51-12.26l-3-1.64c-1-.56-2-1.14-3-1.72l-5.92-3.45c-3.88-2.41-7.81-4.74-11.63-7.26q-11.52-7.44-22.5-15.65c-1.84-1.36-3.64-2.76-5.47-4.13s-3.6-2.81-5.4-4.23c-3.56-2.87-7.08-5.78-10.5-8.81a.33.33,0,0,1,.44-.5Z"/><ellipse class="cls-9" cx="127.5" cy="103.23" rx="81.4" ry="87.87" transform="translate(18.78 226.08) rotate(-87.49)"/><g class="cls-10"><path class="cls-11" d="M149.95,103.62a245.81,245.81,0,0,1-3.54,42.9c-.64,3.54-1.38,7.05-2.27,10.54A101.56,101.56,0,0,1,141,167.38a48.89,48.89,0,0,1-4.72,9.72,19.41,19.41,0,0,1-3.55,4.14,10.11,10.11,0,0,1-2.32,1.5,7,7,0,0,1-2.71.64,6.84,6.84,0,0,1-2.74-.5,9.5,9.5,0,0,1-2.37-1.41,18.43,18.43,0,0,1-3.62-4.07,47.3,47.3,0,0,1-4.79-9.69,99.27,99.27,0,0,1-3.2-10.3c-.89-3.48-1.64-7-2.29-10.53-1.29-7.07-2.17-14.21-2.76-21.37S105,111.14,105,104c0-3.59.08-7.18.21-10.77s.33-7.17.6-10.76c.53-7.16,1.32-14.31,2.5-21.39.59-3.54,1.28-7.07,2.11-10.57a101.59,101.59,0,0,1,3-10.35c.6-1.69,1.26-3.37,2-5A36.58,36.58,0,0,1,118,30.36a17.71,17.71,0,0,1,3.54-4.1,9.05,9.05,0,0,1,2.34-1.4,6.61,6.61,0,0,1,2.69-.48,7.14,7.14,0,0,1,2.66.62,10.4,10.4,0,0,1,2.31,1.44,19.75,19.75,0,0,1,3.62,4,48.48,48.48,0,0,1,5,9.57,98.22,98.22,0,0,1,3.4,10.23c1,3.46,1.77,7,2.47,10.49A225.09,225.09,0,0,1,149.95,103.62Zm-1.06,0c0-7.15-.26-14.31-.85-21.44a206.44,206.44,0,0,0-2.8-21.27c-.66-3.51-1.43-7-2.35-10.46a97.61,97.61,0,0,0-3.27-10.2,48,48,0,0,0-4.81-9.53,19.36,19.36,0,0,0-3.5-4,10,10,0,0,0-2.22-1.42,6.64,6.64,0,0,0-2.53-.62,6.22,6.22,0,0,0-2.56.48,8.7,8.7,0,0,0-2.24,1.37,17.32,17.32,0,0,0-3.42,4,36.12,36.12,0,0,0-2.49,4.72c-.73,1.63-1.36,3.3-1.94,5A101,101,0,0,0,111,50.63c-.79,3.49-1.44,7-2,10.54-1.1,7.07-1.81,14.2-2.26,21.34s-.61,14.3-.6,21.45.22,14.31.75,21.44,1.36,14.25,2.59,21.29c.62,3.52,1.33,7,2.2,10.49a98.52,98.52,0,0,0,3.1,10.25,46.65,46.65,0,0,0,4.65,9.58,17.83,17.83,0,0,0,3.47,4,8.91,8.91,0,0,0,2.22,1.35,6.12,6.12,0,0,0,2.51.48,6.38,6.38,0,0,0,2.48-.61,9.52,9.52,0,0,0,2.17-1.43,18.81,18.81,0,0,0,3.4-4,48.23,48.23,0,0,0,4.58-9.62,100.77,100.77,0,0,0,3.06-10.26c.85-3.47,1.56-7,2.17-10.5,1.22-7,2-14.16,2.57-21.3S148.89,110.78,148.88,103.62Z"/><path class="cls-11" d="M186.17,103.62A104.66,104.66,0,0,1,182.45,131,88.26,88.26,0,0,1,171,156.17a72.39,72.39,0,0,1-8.76,10.73,61.45,61.45,0,0,1-10.78,8.68,52,52,0,0,1-12.58,5.75,47.06,47.06,0,0,1-27.36,0,52,52,0,0,1-12.59-5.74,61.51,61.51,0,0,1-10.8-8.67,72.44,72.44,0,0,1-8.78-10.72,88.38,88.38,0,0,1-11.5-25.15,99.56,99.56,0,0,1-2.78-13.59,102.2,102.2,0,0,1,0-27.68A99.5,99.5,0,0,1,67.86,76.2,88.35,88.35,0,0,1,79.37,51.07a72.4,72.4,0,0,1,8.78-10.71A61.3,61.3,0,0,1,98.95,31.7,52.2,52.2,0,0,1,111.53,26a46.72,46.72,0,0,1,27.31,0,52.17,52.17,0,0,1,12.57,5.73,61.25,61.25,0,0,1,10.78,8.67A72.35,72.35,0,0,1,171,51.1a88.22,88.22,0,0,1,11.48,25.12A104.66,104.66,0,0,1,186.17,103.62Zm-1.22,0a103.5,103.5,0,0,0-3.56-27.12,87.87,87.87,0,0,0-11.1-25,71.62,71.62,0,0,0-8.56-10.7,59.82,59.82,0,0,0-10.59-8.68,51.17,51.17,0,0,0-12.42-5.74,45.57,45.57,0,0,0-27,0,51.13,51.13,0,0,0-12.41,5.75,59.78,59.78,0,0,0-10.58,8.69,71.58,71.58,0,0,0-8.54,10.7,87.74,87.74,0,0,0-11.07,25A100.25,100.25,0,0,0,66.4,90a104.45,104.45,0,0,0,0,27.33,100.18,100.18,0,0,0,2.67,13.43,87.7,87.7,0,0,0,11.09,24.94,71.52,71.52,0,0,0,8.55,10.69A59.57,59.57,0,0,0,99.29,175a51.33,51.33,0,0,0,12.4,5.73,45.24,45.24,0,0,0,27,0A51.36,51.36,0,0,0,151.1,175a59.64,59.64,0,0,0,10.59-8.67,71.58,71.58,0,0,0,8.56-10.68,87.83,87.83,0,0,0,11.12-24.95A103.49,103.49,0,0,0,184.95,103.62Z"/><path class="cls-11" d="M54,72.07l18.31-.15,18.31-.08,36.63-.07,36.63.07,18.31.09,18.31.16a.05.05,0,0,1,0,.11l-18.31.16-18.31.09-36.63.07-36.63-.07-18.31-.08L54,72.23a.08.08,0,0,1,0-.16Z"/><path class="cls-11" d="M75.27,41.39c4.33-.07,8.67-.1,13-.15l13-.08c4.33,0,8.67,0,13,0l13,0,26,.07,13,.09c4.33.05,8.67.09,13,.16a.05.05,0,0,1,0,.11c-4.33.07-8.67.11-13,.16l-13,.09-26,.07-13,0c-4.33,0-8.67,0-13,0l-13-.08c-4.33,0-8.67-.08-13-.15a.08.08,0,0,1,0-.16Z"/><path class="cls-11" d="M47.66,102.74l19.9-.15,19.9-.08,39.81-.07,39.81.07,19.9.09,19.9.16a.05.05,0,0,1,0,.11L187,103l-19.9.09-39.81.07-39.81-.07L67.57,103l-19.9-.15a.08.08,0,0,1,0-.16Z"/><path class="cls-11" d="M54,133.41l18.31-.15,18.31-.08,36.63-.07,36.63.07,18.31.09,18.31.16a.05.05,0,0,1,0,.11l-18.31.16-18.31.09-36.63.07-36.63-.07-18.31-.08L54,133.57a.08.08,0,0,1,0-.16Z"/><path class="cls-11" d="M181.91,164.45h-104a.28.28,0,1,1,0-.56h104a.28.28,0,1,1,0,.56Z"/></g><path class="cls-12" d="M238,110.33l-.08,0a.13.13,0,0,1,0-.18l.29-.43a.13.13,0,0,1,.22.14c-.09.15-.19.3-.3.45A.13.13,0,0,1,238,110.33Z"/><path class="cls-12" d="M231.3,114a.13.13,0,0,1,0-.26,8.52,8.52,0,0,0,1-.09.13.13,0,0,1,0,.26,8.81,8.81,0,0,1-1,.09Zm-1.63-.1h0a8.83,8.83,0,0,1-1-.22.13.13,0,0,1,.07-.25,8.57,8.57,0,0,0,1,.21.13.13,0,0,1,0,.26Zm4.22-.39a.13.13,0,0,1,0-.26,8.48,8.48,0,0,0,.91-.39.13.13,0,0,1,.12.24,8.72,8.72,0,0,1-.94.4Zm-6.73-.41h-.06a8.68,8.68,0,0,1-.89-.51.13.13,0,0,1,.14-.22,8.45,8.45,0,0,0,.86.49.13.13,0,0,1-.06.25Zm9.05-.85a.13.13,0,0,1-.08-.24l.09-.07a8.61,8.61,0,0,0,.66-.57.13.13,0,1,1,.18.19,8.87,8.87,0,0,1-.68.59l-.1.07A.13.13,0,0,1,236.2,112.23Zm-11.2-.68a.13.13,0,0,1-.09,0,8.86,8.86,0,0,1-.69-.75.13.13,0,0,1,.2-.17,8.55,8.55,0,0,0,.67.73.13.13,0,0,1-.09.23Zm-1.59-2.1a.13.13,0,0,1-.12-.07,8.7,8.7,0,0,1-.43-.93.13.13,0,1,1,.25-.1,8.45,8.45,0,0,0,.42.9.13.13,0,0,1-.05.18Z"/><path class="cls-12" d="M222.53,107a.13.13,0,0,1-.13-.11c0-.17-.06-.35-.08-.53a.13.13,0,0,1,.26,0c0,.17,0,.34.08.51a.13.13,0,0,1-.11.15Z"/><path class="cls-12" d="M237.84,106.91l-1-.87a5.84,5.84,0,0,0,0-1.89l1-.91a.11.11,0,0,0,0-.13l-.65-1.47a.11.11,0,0,0-.11-.07l-1.33.11a5.84,5.84,0,0,0-1.37-1.31l.05-1.34a.11.11,0,0,0-.07-.11l-1.5-.58a.11.11,0,0,0-.12,0l-.87,1a5.84,5.84,0,0,0-1.89,0l-.91-1a.11.11,0,0,0-.13,0l-1.47.65a.11.11,0,0,0-.07.11l.11,1.33a5.84,5.84,0,0,0-1.31,1.37l-1.34-.05a.11.11,0,0,0-.11.07l-.58,1.5a.11.11,0,0,0,0,.12l1,.87a5.84,5.84,0,0,0,0,1.89l-1,.91a.11.11,0,0,0,0,.13l.65,1.47a.11.11,0,0,0,.11.07l1.33-.11a5.84,5.84,0,0,0,1.37,1.31l-.05,1.34a.11.11,0,0,0,.07.11l1.5.58a.11.11,0,0,0,.12,0l.87-1a5.84,5.84,0,0,0,1.89,0l.91,1a.11.11,0,0,0,.13,0l1.47-.65a.11.11,0,0,0,.07-.11l-.11-1.33a5.84,5.84,0,0,0,1.31-1.37l1.34.05a.11.11,0,0,0,.11-.07l.58-1.5A.11.11,0,0,0,237.84,106.91Z"/><path class="cls-3" d="M231,106.79a1.56,1.56,0,1,1,1-.33A1.56,1.56,0,0,1,231,106.79Zm0-2.85a1.3,1.3,0,1,0,.16,0Z"/><path class="cls-12" d="M224.08,100.23l-.08,0a.13.13,0,0,1,0-.18l.33-.42a.13.13,0,0,1,.2.17l-.32.41A.13.13,0,0,1,224.08,100.23Z"/><path class="cls-12" d="M239.16,102.59a.13.13,0,0,1-.13-.09,8.44,8.44,0,0,0-.37-.9.13.13,0,0,1,.24-.11,8.73,8.73,0,0,1,.38.93.13.13,0,0,1-.08.17Zm-1.2-2.3a.13.13,0,0,1-.11-.05l-.17-.22c-.14-.18-.29-.36-.45-.53a.13.13,0,0,1,.19-.18c.16.17.32.36.46.55l.17.23a.13.13,0,0,1,0,.18Zm-12.41-1.6a.13.13,0,0,1-.08-.23l.15-.12c.21-.17.44-.33.67-.47a.13.13,0,1,1,.14.22c-.22.14-.44.3-.65.46l-.14.11A.13.13,0,0,1,225.55,98.69Zm10.59-.24-.08,0a8.46,8.46,0,0,0-.82-.54.13.13,0,1,1,.13-.23,8.71,8.71,0,0,1,.84.55.13.13,0,0,1-.08.24Zm-8.35-1.08a.13.13,0,0,1,0-.25,8.69,8.69,0,0,1,1-.32.13.13,0,0,1,.07.25,8.42,8.42,0,0,0-.92.31Zm6.06-.14h0a8.53,8.53,0,0,0-.94-.27.13.13,0,1,1,.06-.26,8.78,8.78,0,0,1,1,.28.13.13,0,0,1,0,.26Zm-3.54-.46a.13.13,0,0,1,0-.26l.69,0h.32a.13.13,0,0,1,.13.14.13.13,0,0,1-.14.13H231l-.67,0Z"/><path class="cls-12" d="M239.59,104.69a.13.13,0,0,1-.13-.12c0-.17,0-.35-.06-.52a.13.13,0,1,1,.26,0c0,.18,0,.35.06.53a.13.13,0,0,1-.12.14Z"/><path class="cls-3" d="M231,109.23a4,4,0,1,1,3.66-5.63l.11.27a4,4,0,0,1,.14.48v.09a.13.13,0,0,1-.26,0,3.78,3.78,0,0,0-.24-.76h0a3.74,3.74,0,0,0-4.87-1.95l0,0,0,0a3.75,3.75,0,1,0,4.57,5.59.13.13,0,1,1,.22.15,4,4,0,0,1-3.27,1.69Z"/><path class="cls-13" d="M29.66,53.86,45.1,92.68A4.6,4.6,0,0,0,50,95.53L90.5,92.7,75.92,51.26a2.58,2.58,0,0,0-2.47-1.66c-7.1.16-32.94.8-42.19,1.62A1.92,1.92,0,0,0,29.66,53.86Z"/><path class="cls-12" d="M48.66,93.77,33.24,54.6a1.22,1.22,0,0,1,1.11-1.67l38.11-1.45A2.31,2.31,0,0,1,74.7,53l14,38.18Z"/><path class="cls-14" d="M104.26,94.26a1.31,1.31,0,0,1-1.31,1.31H49.72a2,2,0,0,1-2-2l-.84-1,55.27-.47a2.13,2.13,0,0,1,2.1,2.13Z"/><path class="cls-15" d="M82.87,57.9c-1.16-1.91-3.18-3.17-4.4-5a9.13,9.13,0,0,1-.58-8.12c.83-2.18,2.32-4.07,3.17-6.25a10.6,10.6,0,0,0,.65-7.13c-.46-2.59-1.47-5.35-4-6.84A14.86,14.86,0,0,0,67.39,23a19.27,19.27,0,0,0-9.88,4.83,13.89,13.89,0,0,0-4.37,9.94c0,2.52.84,5.11,0,7.5A5.9,5.9,0,0,1,49,49c-2.12.49-4.32-.23-6.5-.2a9.47,9.47,0,0,0-5.94,2.22,7.84,7.84,0,0,0-2.78,4.86,5.86,5.86,0,0,0,1.87,5.17c1,.85,2.4,1.42,2.76,2.67s-.8,2.81-2.14,3.38-2.86.62-4.23,1.13a7.84,7.84,0,0,0-4.68,7.86,11.06,11.06,0,0,0,5,8,19.16,19.16,0,0,0,9.25,2.93,76.45,76.45,0,0,0,9.8-.15c3.74-.18,7.55-.23,11.09-1.42a30.25,30.25,0,0,0,9.57-6,10.43,10.43,0,0,0,3.37-4.11c.45-1.22.45-2.58,1-3.77,1.1-2.56,4.15-3.65,5.91-5.82A7.09,7.09,0,0,0,82.87,57.9Z"/><path class="cls-5" d="M42.34,62.51h0a4.61,4.61,0,0,1-2.82-7.35c1.42-1.85,3.93-2.33,6.38-2.66l4.43-.6c2.5-.34,5.06-.82,6.5-2.67S58,44.57,57.74,42c0-.3-.07-.59-.1-.89a19.07,19.07,0,0,1,1.16-9.62,10.87,10.87,0,0,1,7-6.38.11.11,0,0,1,.14.08.11.11,0,0,1-.08.14A10.64,10.64,0,0,0,59,31.55a18.85,18.85,0,0,0-1.14,9.5c0,.29.06.59.1.88.3,2.65.61,5.39-1,7.43s-4.1,2.41-6.65,2.76l-4.43.6c-2.4.33-4.86.79-6.23,2.57a4.38,4.38,0,0,0,2.68,7,.11.11,0,0,1,0,.22Z"/><path class="cls-5" d="M43.73,61.15a.23.23,0,0,1-.15-.06,6.75,6.75,0,0,1-1.52-1.81,2.43,2.43,0,0,1,0-2.42,3.21,3.21,0,0,1,1.47-1,18.33,18.33,0,0,1,4.23-1.22c.95-.15,1.91-.23,2.85-.31a27.66,27.66,0,0,0,3.65-.47c1.43-.32,4-1.18,5.11-3.42.9-1.81.57-3.84.21-6a13.34,13.34,0,0,1-.18-5.24.23.23,0,0,1,.44.1,13,13,0,0,0,.18,5.06c.35,2.12.71,4.31-.25,6.25-1.2,2.41-3.91,3.33-5.42,3.66a28,28,0,0,1-3.71.48c-.93.08-1.88.16-2.81.31a17.9,17.9,0,0,0-4.12,1.19,2.82,2.82,0,0,0-1.27.87,2,2,0,0,0,0,2,6.31,6.31,0,0,0,1.42,1.68.23.23,0,0,1-.15.39Z"/><path class="cls-16" d="M79.64,53.54a14.48,14.48,0,0,0-14.23,3.38,3.64,3.64,0,0,0-1.11,3.61C65.79,66.36,68.8,85,65,92.4c0,0,1.18,0,14.3.14,0,0,3.37-13.67,7.59-19.62,2.91-4.11-4.29-15.69-6.11-18.48A2.19,2.19,0,0,0,79.64,53.54Z"/><path class="cls-17" d="M74,41.91s-3.28,8.82-3.58,12.73a6.71,6.71,0,0,0,6.75-1s.49-8.85,1-10.43Z"/><path class="cls-18" d="M78.52,29.88s8,11.61,3.06,14.87-10.66-5-10.66-5-1.8-6.31.22-8.41S78.52,29.88,78.52,29.88Z"/><path class="cls-19" d="M74.77,27.08s3.75,1,4.25,2.67-5.4,3.2-7,3.25l-1.44,6.86s-3.81-6.54-2.2-10.25S74.77,27.08,74.77,27.08Z"/><path class="cls-20" d="M72.52,38.94s-3.13-3.75-4.44-1.36,2.81,4.27,4.26,3.11Z"/><path class="cls-21" d="M64.56,58.07s-10.15,8.16-12.82,19.5S66.17,90.39,66.17,90.39s2.37-2.56,5.11-1.59.29-4.53-2.94-4.57-1.77,2.54-6.31.4S55,76.27,66.47,67A5.14,5.14,0,0,0,68,65C70.3,59.47,68.61,55.8,64.56,58.07Z"/><path class="cls-22" d="M167.36,124.06a.55.55,0,0,1,1,.11c.49,1.77,1.68,4.84,4.17,5.94l.36.17a1.27,1.27,0,0,0-.16-1.15c-.77-1.18.62-2.8.62-2.8a3.6,3.6,0,0,0,1.17,2.32,3.46,3.46,0,0,1,.74,3.9c-1.35,5.24-3.37,12.16,4.5,17.22s18.93-9.55,18.93-9.55l-5.5,17.42s-8.48,6.26-18.35-2.54-3.33-21.61-3.33-21.61S164,130.45,167.36,124.06Z"/><path class="cls-23" d="M179.71,149.68a12.81,12.81,0,0,1-4.66-4.86,13.5,13.5,0,0,1-5.6.66,15.85,15.85,0,0,0,5.3,9.6c10,8.91,18.54,2.57,18.54,2.57L198.84,140S187.65,154.8,179.71,149.68Z"/><path class="cls-24" d="M245.21,141.74l-15.94,40.1a4.75,4.75,0,0,1-5.09,2.95l-41.81-3.09,15.06-42.64a2.66,2.66,0,0,1,2.55-1.72c7.33.17,34,.83,43.58,1.68A2,2,0,0,1,245.21,141.74Z"/><path class="cls-12" d="M225.59,183l15.93-40.46a1.26,1.26,0,0,0-1.15-1.72L201,139.29a2.39,2.39,0,0,0-2.31,1.51l-14.42,39.44Z"/><path class="cls-25" d="M168.15,183.48a1.35,1.35,0,0,0,1.35,1.35h55a2.06,2.06,0,0,0,2.06-2.06l.86-1-57.09-.49a2.2,2.2,0,0,0-2.17,2.2Z"/><path class="cls-3" d="M233.13,156.59a.25.25,0,0,0,.24-.16l.24-.63c1.57-4.09,3.36-8.73,4.2-10.87a1.69,1.69,0,0,0-1.57-2.31h-6.93a.25.25,0,1,0,0,.51h6.93a1.18,1.18,0,0,1,1.1,1.61c-.84,2.15-2.63,6.78-4.2,10.87l-.24.63a.25.25,0,0,0,.15.33Z"/><path class="cls-26" d="M200.08,114.62s-2.28-10.22,9.43-7.51c0,0,5.68-.93,6,4.43,0,0,3.66,2.41,1,7.05,0,0,10.88-4.2,15.62,5.34s.38,14.79-4.19,16.15a4.55,4.55,0,0,1,1.95,6.06c-1.75,4.2-10.63,7.16-15.87,2.05,0,0-14.92,2-14.62-8.56,0,0-6.94-4.48.35-13.19S200.08,114.62,200.08,114.62Z"/><path class="cls-27" d="M199.44,138.3a16.05,16.05,0,0,1,15.71,4,4,4,0,0,1,1.16,4c-1.75,6.44-5.84,27.1-1.79,35.33,0,0-5.28.15-15.44-.11,0,0-3.49-15.21-8.06-21.89-3.16-4.61,5-17.32,7.11-20.39A2.43,2.43,0,0,1,199.44,138.3Z"/><path class="cls-28" d="M205.93,125.51s3.48,9.84,3.74,14.18a7.44,7.44,0,0,1-7.47-1.2s-.38-9.83-.93-11.59Z"/><path class="cls-29" d="M201.1,112.09s-9.1,12.73-3.66,16.43,11.91-5.35,11.91-5.35,2.11-7-.1-9.33S201.1,112.09,201.1,112.09Z"/><path class="cls-30" d="M205.31,109.05s-4.18,1-4.76,2.88,5.93,3.64,7.75,3.73l1.47,7.63s4.35-7.18,2.62-11.32S205.31,109.05,205.31,109.05Z"/><path class="cls-31" d="M207.59,122.23s3.54-4.1,4.95-1.43-3.19,4.68-4.78,3.37Z"/><path class="cls-32" d="M216.09,143.59s11.11,9.23,13.87,21.85-16.24,14-16.24,14-2.58-2.88-5.64-1.85-.24-5,3.34-5,1.92,2.85,7,.55,8-9.15-4.61-19.63a5.7,5.7,0,0,1-1.66-2.26C209.7,145,211.64,141,216.09,143.59Z"/><path class="cls-33" d="M230,165.4C227.18,152.78,216,143.55,216,143.55c-4.47-2.59-6.42,1.45-4,7.61a5.71,5.71,0,0,0,1.67,2.26c9.76,8.08,10.16,14,7.57,17.38a15.52,15.52,0,0,1,3.7,1.81c.88.59,1.69,1,2.43,1.59A8.81,8.81,0,0,0,230,165.4Z"/><path class="cls-34" d="M118.27,118.41h-2.1c-.37,0-.67-.18-.68-.4l-.64-14.28c0-.23.3-.42.68-.42h2.74c.38,0,.68.18.68.41V118C119,118.22,118.65,118.41,118.27,118.41Z"/><path class="cls-35" d="M114.73,102.18l0,.19c0,.18.26.32.56.33l3,.09c.34,0,.62-.15.62-.35v-.28c0-.19-.25-.35-.56-.35-.75,0-2.11,0-3.12,0C115,101.81,114.71,102,114.73,102.18Z"/><path class="cls-36" d="M112.55,118.41h-2.1c-.37,0-.67-.18-.68-.4l-.64-15.9c0-.23.3-.42.68-.42h2.74c.38,0,.68.18.68.41V118C113.23,118.22,112.93,118.41,112.55,118.41Z"/><path class="cls-37" d="M109,100.55l0,.19c0,.18.26.32.56.33l3,.09c.34,0,.62-.15.62-.35v-.28c0-.19-.25-.35-.56-.35-.75,0-2.11,0-3.12,0C109.23,100.19,109,100.36,109,100.55Z"/><path class="cls-38" d="M124,118.41h-2.1c-.37,0-.67-.18-.68-.4L121,107.86c0-.23.3-.42.68-.42h2.74c.38,0,.68.18.68.41L124.71,118C124.71,118.22,124.41,118.41,124,118.41Z"/><path class="cls-39" d="M120.88,106.31l0,.19c0,.18.26.32.56.33l3,.09c.34,0,.62-.15.62-.35v-.28c0-.19-.25-.35-.56-.35-.75,0-2.11,0-3.12,0C121.1,105.95,120.86,106.12,120.88,106.31Z"/><path class="cls-40" d="M101.46,118.41h-2.1c-.37,0-.67-.18-.68-.4L98,103.73c0-.23.3-.42.68-.42h2.74c.38,0,.68.18.68.41V118C102.14,118.22,101.84,118.41,101.46,118.41Z"/><path class="cls-41" d="M97.92,102.18l0,.19c0,.18.26.32.56.33l3,.09c.34,0,.62-.15.62-.35v-.28c0-.19-.25-.35-.56-.35-.75,0-2.11,0-3.12,0C98.14,101.81,97.89,102,97.92,102.18Z"/><path class="cls-42" d="M107.22,118.41h-2.1c-.37,0-.67-.18-.68-.4l-.25-10.14c0-.23.3-.42.68-.42h2.74c.38,0,.68.18.68.41L107.9,118C107.9,118.22,107.6,118.41,107.22,118.41Z"/><path class="cls-43" d="M104.07,106.31l0,.19c0,.18.26.32.56.33l3,.09c.34,0,.62-.15.62-.35v-.28c0-.19-.25-.35-.56-.35-.75,0-2.11,0-3.12,0C104.29,105.95,104,106.12,104.07,106.31Z"/><rect class="cls-5" x="135.09" y="75.28" width="2.5" height="44.15"/><rect class="cls-5" x="139.27" y="75.28" width="2.5" height="44.15"/><rect class="cls-5" x="143.45" y="75.28" width="2.5" height="44.15"/><rect class="cls-5" x="147.63" y="75.28" width="2.5" height="44.15"/><rect class="cls-5" x="151.82" y="75.28" width="2.5" height="44.15"/><rect class="cls-5" x="156" y="75.28" width="2.5" height="44.15"/><rect class="cls-5" x="160.18" y="75.28" width="2.5" height="44.15"/><rect class="cls-44" x="135.09" y="96.33" width="2.5" height="23.1"/><rect class="cls-45" x="139.27" y="104.27" width="2.5" height="15.16"/><rect class="cls-46" x="143.45" y="84.64" width="2.5" height="34.79"/><rect class="cls-47" x="147.63" y="111.07" width="2.5" height="8.36"/><rect class="cls-48" x="151.82" y="89.29" width="2.5" height="30.14"/><rect class="cls-49" x="156" y="94.51" width="2.5" height="24.92"/><rect class="cls-50" x="160.18" y="100.18" width="2.5" height="19.25"/><path class="cls-1" d="M141.77,54.84a6.08,6.08,0,1,0,6.08,6.08A6.08,6.08,0,0,0,141.77,54.84Zm0,9.54a3.46,3.46,0,1,1,3.46-3.46A3.46,3.46,0,0,1,141.77,64.38Z"/><g class="cls-51"><rect class="cls-52" x="133.28" y="59.58" width="18.06" height="7.64"/></g><path class="cls-1" d="M156.59,54.84a6.08,6.08,0,1,0,6.08,6.08A6.08,6.08,0,0,0,156.59,54.84Zm0,9.54a3.46,3.46,0,1,1,3.46-3.46A3.46,3.46,0,0,1,156.59,64.38Z"/><g class="cls-53"><rect class="cls-54" x="148.1" y="56.63" width="18.06" height="10.6"/></g><path class="cls-1" d="M171.42,54.84a6.08,6.08,0,1,0,6.08,6.08A6.08,6.08,0,0,0,171.42,54.84Zm0,9.54a3.46,3.46,0,1,1,3.46-3.46A3.46,3.46,0,0,1,171.42,64.38Z"/><g class="cls-55"><rect class="cls-56" x="162.92" y="63.4" width="18.06" height="3.82"/></g><circle class="cls-57" cx="170.91" cy="100.99" r="4.95"/><path class="cls-58" d="M173.85,99.94a3.18,3.18,0,1,1-2.94-2h.16v-.81h-.16a4,4,0,1,0,3.68,2.45Z"/><path class="cls-5" d="M175,108h-8.06a.92.92,0,1,0,0,1.83H175a.92.92,0,1,0,0-1.83Z"/><circle class="cls-59" cx="170.89" cy="85.09" r="4.95"/><path class="cls-60" d="M172.57,87.94a3.18,3.18,0,1,1-1.69-5.87H171v-.81h-.16A4,4,0,1,0,173,88.64Z"/><path class="cls-5" d="M175,92.13h-8.06a.92.92,0,0,0,0,1.83H175a.92.92,0,1,0,0-1.83Z"/><circle class="cls-61" cx="170.93" cy="116.97" r="4.95"/><path class="cls-62" d="M173.62,118.76a3.18,3.18,0,1,1-2.63-5h.16V113H171a4,4,0,1,0,3.28,6.24Z"/><path class="cls-5" d="M166.9,125.69H175a.92.92,0,0,0,0-1.83H166.9a.92.92,0,1,0,0,1.83Z"/><circle class="cls-63" cx="111.58" cy="72.99" r="11.68"/><path class="cls-5" d="M100.81,72.55h0a.13.13,0,0,1-.12-.14,11,11,0,0,1,.16-1.37.13.13,0,1,1,.26,0,10.71,10.71,0,0,0-.15,1.34A.13.13,0,0,1,100.81,72.55Z"/><path class="cls-5" d="M101.94,68.27h-.06a.13.13,0,0,1-.06-.18,10.87,10.87,0,0,1,9.75-6,11,11,0,0,1,2,.18.13.13,0,0,1,0,.26,10.75,10.75,0,0,0-1.92-.17,10.61,10.61,0,0,0-9.52,5.86A.13.13,0,0,1,101.94,68.27Z"/><circle class="cls-5" cx="111.83" cy="73.24" r="9.89"/><path class="cls-64" d="M114.86,69.5c0,1.67-1.36,3.48-3,3.48s-3-1.81-3-3.48a3,3,0,0,1,6.06,0Z"/><path class="cls-64" d="M108.07,79.43h7.4a1.79,1.79,0,0,0,1.71-1.25l.4-1.24a1.79,1.79,0,0,0-1.08-2.23,13.79,13.79,0,0,0-9.32.1A1.78,1.78,0,0,0,106,77l.31,1.13A1.79,1.79,0,0,0,108.07,79.43Z"/><path class="cls-65" d="M111.58,93a20,20,0,1,1,20-20A20,20,0,0,1,111.58,93Zm0-33.68A13.71,13.71,0,1,0,125.29,73,13.72,13.72,0,0,0,111.58,59.28Z"/><path class="cls-5" d="M131.49,71.49l-6.25.47q0,.51,0,1a13.64,13.64,0,0,1-.81,4.65l5.89,2.13A19.88,19.88,0,0,0,131.55,73Q131.55,72.23,131.49,71.49Z"/><path class="cls-66" d="M111.58,86.7a13.71,13.71,0,1,1,3.34-27l1.53-6.07a20,20,0,1,0,13.92,26.15l-5.89-2.13A13.73,13.73,0,0,1,111.58,86.7Z"/><path class="cls-67" d="M125.25,72l6.25-.47a19.82,19.82,0,0,0-2-7.25L123.9,67A13.6,13.6,0,0,1,125.25,72Z"/><path class="cls-5" d="M136.17,129l23.77-.13A1.25,1.25,0,0,1,161,130.8l-.12.2a1.25,1.25,0,0,1-1.07.61H136.18a1.25,1.25,0,0,1-1.25-1.25v-.07A1.25,1.25,0,0,1,136.17,129Z"/><path class="cls-5" d="M132.85,130.32v0a1.25,1.25,0,0,1-1.25,1.25h-5.28a1.25,1.25,0,0,1-1.21-.93h0a1.25,1.25,0,0,1,1.2-1.57l5.28,0A1.25,1.25,0,0,1,132.85,130.32Z"/><path class="cls-5" d="M141.89,133.53l18.05-.13a1.25,1.25,0,0,1,1.08,1.89l-.12.2a1.25,1.25,0,0,1-1.07.61H141.9a1.25,1.25,0,0,1-1.25-1.25v-.07A1.25,1.25,0,0,1,141.89,133.53Z"/><path class="cls-5" d="M138.57,134.8v0a1.25,1.25,0,0,1-1.25,1.25H132a1.25,1.25,0,0,1-1.21-.93h0a1.25,1.25,0,0,1,1.2-1.57l5.28,0A1.25,1.25,0,0,1,138.57,134.8Z"/><path class="cls-68" d="M32.91,138.69l17,42.69a5.06,5.06,0,0,0,5.42,3.14l44.52-3.29-16-45.4A2.84,2.84,0,0,0,81.07,134c-7.8.18-36.23.88-46.4,1.79A2.11,2.11,0,0,0,32.91,138.69Z"/><path class="cls-12" d="M53.81,182.58l-17-43.08a1.34,1.34,0,0,1,1.22-1.84L80,136.08a2.54,2.54,0,0,1,2.46,1.61l15.35,42Z"/><path class="cls-69" d="M115,183.13a1.44,1.44,0,0,1-1.44,1.44H55a2.19,2.19,0,0,1-2.19-2.19l-.92-1.07,60.79-.52a2.34,2.34,0,0,1,2.31,2.34Z"/><path class="cls-3" d="M45.77,154.5a.27.27,0,0,1-.25-.17l-.26-.67c-1.68-4.36-3.58-9.29-4.47-11.58a1.8,1.8,0,0,1,1.68-2.46h7.37a.27.27,0,1,1,0,.54H42.47a1.26,1.26,0,0,0-1.17,1.72c.9,2.29,2.8,7.22,4.47,11.58l.26.67a.27.27,0,0,1-.15.35Z"/><path class="cls-70" d="M86.83,137.87C76,137.69,64,140.72,64,140.72c-3.24,18.89-.57,40.68-.57,40.68,15.7.26,17.57-.61,17.57-.61,1.4-7.9,8.25-30.86,8.25-30.86a35.78,35.78,0,0,0,13.28-4.21,23.29,23.29,0,0,1-4.6-9.63A36.44,36.44,0,0,1,86.83,137.87Z"/><path class="cls-71" d="M118.92,121.87a2.08,2.08,0,0,0-2.42-.68c-1.6,6.75-10,12.23-18.59,14.9a23.29,23.29,0,0,0,4.6,9.63C116.8,137.69,118.92,121.87,118.92,121.87Z"/><path class="cls-72" d="M118.66,122.2c.11.35-1.18.9-1.94-.56,0-.7-.45-3.68,0-4.24a55.51,55.51,0,0,1,6.51-6.8,1,1,0,0,1,.13,1.42l-2.08,2.17a10.08,10.08,0,0,1,1.22,2.4,2.92,2.92,0,0,1-.29,2.15c-.37.66-.86,1.51-1.34,2.18A2.88,2.88,0,0,1,118.66,122.2Z"/><path class="cls-73" d="M120.32,115.59l-1.9,1.61-.6,1.6,1.69,1.88a21.83,21.83,0,0,1,1-3.87C120.94,116.12,120.72,115.79,120.32,115.59Z"/><path class="cls-74" d="M68.15,151.24,64,140.72s-10.15,6.89-11.81,15.63A24,24,0,0,1,61,158.72C61.74,154.59,68.15,151.24,68.15,151.24Z"/><path class="cls-75" d="M77,161.13s-11.39,6.44-15.23.94a4.32,4.32,0,0,1-.79-3.36,24,24,0,0,0-8.82-2.36,12.06,12.06,0,0,0,1.31,8.27c6.73,12.32,25-.68,25-.68Z"/><path class="cls-3" d="M76.25,170.09a.64.64,0,0,1-.6-.81l6.22-21.71a.63.63,0,0,1,.54-.46c1.13-.13,4.39-.5,8.16-.82a92.58,92.58,0,0,1,13-.43.64.64,0,0,1,.52.91c-1.79,3.62-9.16,18.37-12.85,23.19a.64.64,0,0,1-.51.25Z"/><path class="cls-12" d="M91.2,144.41l4.51-.75a.32.32,0,0,1,.36.42l-.45,1.35a.32.32,0,0,1-.26.22l-4.34.58a.32.32,0,0,1-.36-.39l.28-1.18A.32.32,0,0,1,91.2,144.41Z"/><path class="cls-12" d="M87.83,148.23l.37-1.93a.45.45,0,0,1,.39-.36l9.1-.92a.45.45,0,0,1,.48.55L97.6,148a.45.45,0,0,1-.41.34l-8.9.45A.45.45,0,0,1,87.83,148.23Z"/><path class="cls-76" d="M77.15,164s-.87-3.56-.52-4.82,1-2.89,3.28-2.53A33,33,0,0,1,84.83,158,1.29,1.29,0,0,1,83,159.11l1.06.82s-.15,1.32-1.6.61l1,1.09a1.15,1.15,0,0,1-1.69.39C80.68,161.33,80.17,164.46,77.15,164Z"/><path class="cls-77" d="M75.83,129l-3.46,10a.36.36,0,0,0,.16.43,8.12,8.12,0,0,0,8.43-.57,1.7,1.7,0,0,0,.78-1.21L82.86,129Z"/><path class="cls-78" d="M83.35,119.79s3.8,7.14,3.31,10-5.19,2.68-9.3.33l-2.87-7.71Z"/><path class="cls-79" d="M77.54,126.37a.29.29,0,0,0,.13-.43,7.69,7.69,0,0,1-1.06-2.24s-.68-.44,1.74-1,6-1.48,6.78-3.54-1.2-7.06-4.3-3a.29.29,0,0,1-.47,0,3,3,0,0,0-3.7-1.2,2.78,2.78,0,0,0-1.91,2.69.29.29,0,0,1-.35.3,3.4,3.4,0,0,0-4,1.85c-.81,1.78-.28,2.79.2,3.28a.29.29,0,0,1-.13.49,1.77,1.77,0,0,0-1.25,2c.1,1.87,2.19,1.7,2.79,1.62a.29.29,0,0,1,.26.09c.51.56,2.81,3,5.29,3.25a.3.3,0,0,0,.31-.39L76.85,127a.3.3,0,0,1,.16-.37Z"/><path class="cls-80" d="M78,126.81s-2.7-1.85-2.9-.29,2.43,2.26,3.74,1.68Z"/><path class="cls-81" d="M248.09,48.15l-14.69,37a4.38,4.38,0,0,1-4.69,2.72l-38.53-2.7L204,45.68a2.46,2.46,0,0,1,2.35-1.58c6.76.16,31.36.76,40.16,1.55A1.82,1.82,0,0,1,248.09,48.15Z"/><path class="cls-12" d="M230,86.14l14.68-37.29a1.16,1.16,0,0,0-1.06-1.59l-36.29-1.38a2.2,2.2,0,0,0-2.13,1.4L191.92,83.63Z"/><path class="cls-82" d="M177.07,86.62a1.25,1.25,0,0,0,1.25,1.25H229a1.9,1.9,0,0,0,1.9-1.9l.8-.93-52.62-.45a2,2,0,0,0-2,2Z"/><path class="cls-5" d="M241.53,62.18h-.06a.16.16,0,0,1-.09-.2l5.41-13.53a1.52,1.52,0,0,0-1.34-2.08l-9.81-.46a.16.16,0,0,1,0-.31l9.81.46a1.83,1.83,0,0,1,1.61,2.51l-5.41,13.53A.16.16,0,0,1,241.53,62.18Z"/><path class="cls-12" d="M137.58,54.86l35.53-3.15a2.8,2.8,0,0,0,2.55-2.78l.13-24a2.8,2.8,0,0,0-3-2.81L135,24.8a2.8,2.8,0,0,0-2.6,3l2.17,24.48A2.8,2.8,0,0,0,137.58,54.86Z"/><path class="cls-83" d="M173.71,27.3,173.95,48a1.73,1.73,0,0,1-1.56,1.74l-34.07,3.38a1.73,1.73,0,0,1-1.9-1.57l-2-22.12a1.73,1.73,0,0,1,1.63-1.88l35.8-2A1.73,1.73,0,0,1,173.71,27.3Z"/><path class="cls-12" d="M157.56,45.37,138.28,46.5a.35.35,0,0,0-.33.38l0,.31a.35.35,0,0,0,.38.32l19.25-1.44a.35.35,0,0,0,.32-.38h0A.35.35,0,0,0,157.56,45.37Z"/><rect class="cls-12" x="138.11" y="47.83" width="20.01" height="0.83" rx="0.35" ry="0.35" transform="translate(-3.68 13.26) rotate(-5.06)"/><path class="cls-12" d="M152.39,49.54v.06a.35.35,0,0,1-.32.38l-13.39,1.19a.35.35,0,0,1-.38-.32l0-.27a.35.35,0,0,1,.32-.38l13.41-1A.35.35,0,0,1,152.39,49.54Z"/><path class="cls-5" d="M140.56,46.3l41.93-.85a3.3,3.3,0,0,0,3.22-3.05l2.07-28.09a3.3,3.3,0,0,0-3.29-3.54l-44.59.06a3.3,3.3,0,0,0-3.29,3.36l.59,28.88A3.3,3.3,0,0,0,140.56,46.3Z"/><path class="cls-83" d="M185.15,16.86l-1.38,24.28a2,2,0,0,1-2,1.92L141.56,44.3a2,2,0,0,1-2.1-2l-.53-26.1A2,2,0,0,1,141,14.13l42.15.58A2,2,0,0,1,185.15,16.86Z"/><path class="cls-5" d="M164.76,36.77l-22.71-.22a.41.41,0,0,0-.42.42v.37a.41.41,0,0,0,.42.4l22.7-.15a.41.41,0,0,0,.41-.42h0A.41.41,0,0,0,164.76,36.77Z"/><rect class="cls-5" x="141.69" y="38.9" width="23.52" height="0.98" rx="0.41" ry="0.41" transform="translate(-0.77 3.13) rotate(-1.17)"/><path class="cls-5" d="M158.36,41.25v.07a.41.41,0,0,1-.4.42l-15.81.32a.41.41,0,0,1-.42-.4v-.32a.41.41,0,0,1,.41-.42l15.81-.07A.41.41,0,0,1,158.36,41.25Z"/><path class="cls-84" d="M146.75,39.35h46.52A3.66,3.66,0,0,0,196.9,36l2.93-31.1a3.66,3.66,0,0,0-3.57-4L146.82,0a3.66,3.66,0,0,0-3.72,3.65v32A3.66,3.66,0,0,0,146.75,39.35Z"/><path class="cls-85" d="M196.86,7.71l-2.08,26.9a2.26,2.26,0,0,1-2.23,2.09l-44.65.47a2.26,2.26,0,0,1-2.28-2.26v-29A2.26,2.26,0,0,1,148,3.69l46.72,1.59A2.26,2.26,0,0,1,196.86,7.71Z"/><path class="cls-12" d="M173,7.47l-25.18-.75a.46.46,0,0,0-.47.46v.41a.46.46,0,0,0,.45.46L173,8.38a.46.46,0,0,0,.46-.46h0A.46.46,0,0,0,173,7.47Z"/><rect class="cls-12" x="147.38" y="9.58" width="26.09" height="1.09" rx="0.46" ry="0.46"/><path class="cls-12" d="M165.83,12.29v.08a.46.46,0,0,1-.46.46H147.84a.46.46,0,0,1-.46-.46V12a.46.46,0,0,1,.47-.46l17.53.28A.46.46,0,0,1,165.83,12.29Z"/><path class="cls-12" d="M154.05,26.11a.2.2,0,0,0,.12,0l7.56-6.14,7.45,5.46a.2.2,0,0,0,.27,0l10.36-12.43,9.83,8.62a.2.2,0,0,0,.26-.3l-10-8.75a.2.2,0,0,0-.28,0L169.27,25l-7.42-5.44a.2.2,0,0,0-.24,0l-7.55,6.13-4-3.53a.2.2,0,1,0-.26.3l4.17,3.64A.2.2,0,0,0,154.05,26.11Z"/><path class="cls-12" d="M179.51,32.66v-.4a.13.13,0,1,1,.26,0v.4a.13.13,0,0,1-.26,0Zm0-1.32v-.4a.13.13,0,1,1,.26,0v.4a.13.13,0,0,1-.26,0Zm0-1.32v-.4a.13.13,0,1,1,.26,0V30a.13.13,0,1,1-.26,0Zm0-1.32v-.4a.13.13,0,0,1,.26,0v.4a.13.13,0,1,1-.26,0Zm0-1.32V27a.13.13,0,0,1,.26,0v.4a.13.13,0,1,1-.26,0Zm0-1.32v-.4a.13.13,0,0,1,.26,0v.4a.13.13,0,1,1-.26,0Zm0-1.32v-.4a.13.13,0,1,1,.26,0v.4a.13.13,0,0,1-.26,0Zm0-1.32V23a.13.13,0,1,1,.26,0v.4a.13.13,0,0,1-.26,0Zm0-1.32v-.4a.13.13,0,1,1,.26,0v.4a.13.13,0,0,1-.26,0Zm0-1.32v-.4a.13.13,0,1,1,.26,0v.4a.13.13,0,1,1-.26,0Zm0-1.32v-.4a.13.13,0,0,1,.26,0v.4a.13.13,0,1,1-.26,0Zm0-1.32v-.4a.13.13,0,0,1,.26,0v.4a.13.13,0,1,1-.26,0Zm0-1.32v-.4a.13.13,0,0,1,.26,0v.4a.13.13,0,1,1-.26,0Zm0-1.32v-.4a.13.13,0,1,1,.26,0v.4a.13.13,0,0,1-.26,0Z"/><path class="cls-12" d="M169.17,32.91v-.4a.13.13,0,0,1,.26,0v.4a.13.13,0,1,1-.26,0Zm0-1.32v-.4a.13.13,0,0,1,.26,0v.4a.13.13,0,1,1-.26,0Zm0-1.32v-.4a.13.13,0,0,1,.26,0v.4a.13.13,0,1,1-.26,0Zm0-1.32v-.4a.13.13,0,1,1,.26,0v.4a.13.13,0,0,1-.26,0Zm0-1.32v-.4a.13.13,0,1,1,.26,0v.4a.13.13,0,0,1-.26,0Zm0-1.32v-.4a.13.13,0,1,1,.26,0v.4a.13.13,0,0,1-.26,0Z"/><path class="cls-12" d="M161.44,33.29a.13.13,0,0,1-.13-.14v-.4a.13.13,0,0,1,.14-.13.13.13,0,0,1,.13.14v.4a.13.13,0,0,1-.13.13Zm0-1.32a.13.13,0,0,1-.13-.14v-.4a.13.13,0,0,1,.26,0v.4a.13.13,0,0,1-.13.13Zm0-1.32a.13.13,0,0,1-.13-.14v-.4a.13.13,0,1,1,.26,0v.4a.13.13,0,0,1-.13.13Zm0-1.32a.13.13,0,0,1-.13-.14v-.4a.13.13,0,0,1,.14-.13.13.13,0,0,1,.13.14v.4a.13.13,0,0,1-.13.13Zm0-1.32a.13.13,0,0,1-.13-.14v-.4a.13.13,0,0,1,.14-.13.13.13,0,0,1,.13.14v.4a.13.13,0,0,1-.13.13Zm0-1.32a.13.13,0,0,1-.13-.14v-.4a.13.13,0,1,1,.26,0v.4a.13.13,0,0,1-.13.13Zm0-1.32a.13.13,0,0,1-.13-.14v-.4a.13.13,0,0,1,.26,0v.4a.13.13,0,0,1-.13.13Zm0-1.32a.13.13,0,0,1-.13-.14v-.4a.13.13,0,0,1,.14-.13.13.13,0,0,1,.13.14v.4a.13.13,0,0,1-.13.13Zm0-1.32a.13.13,0,0,1-.13-.14v-.4a.13.13,0,0,1,.14-.13.13.13,0,0,1,.13.14v.4a.13.13,0,0,1-.13.13Zm0-1.32a.13.13,0,0,1-.13-.14v-.4a.13.13,0,0,1,.14-.13.13.13,0,0,1,.13.14v.4a.13.13,0,0,1-.13.13Z"/><path class="cls-12" d="M153.82,32.08v-.4a.13.13,0,1,1,.26,0v.4a.13.13,0,0,1-.26,0Zm0-1.32v-.4a.13.13,0,1,1,.26,0v.4a.13.13,0,0,1-.26,0Zm0-1.32V29a.13.13,0,1,1,.26,0v.4a.13.13,0,1,1-.26,0Zm0-1.32v-.4a.13.13,0,0,1,.26,0v.4a.13.13,0,1,1-.26,0Zm0-1.32v-.4a.13.13,0,0,1,.26,0v.4a.13.13,0,1,1-.26,0Z"/><path class="cls-12" d="M190.66,35a.2.2,0,0,0,.2-.18L193,9.65a.2.2,0,1,0-.39,0l-2.13,25.12a.2.2,0,0,0,.18.21Z"/><polygon class="cls-12" points="193.39 10.48 192.78 9.75 192.06 10.36 192.1 9.8 192.83 9.18 193.44 9.91 193.39 10.48"/><path class="cls-12" d="M148.68,33.78h43.58a.2.2,0,1,0,0-.4H148.68a.2.2,0,1,0,0,.4Z"/><polygon class="cls-12" points="149.47 34.25 148.8 33.58 149.47 32.91 148.9 32.91 148.23 33.58 148.9 34.25 149.47 34.25"/><path class="cls-86" d="M195.39,18.77l-12.66-4.6-1,2,12.17,4.59A1.67,1.67,0,0,0,195.39,18.77Z"/><path class="cls-87" d="M182.72,14.17c.37,1.13-1,2-1,2l-2.3-1.63a4.59,4.59,0,0,0,.24-.9Z"/><path class="cls-88" d="M179.69,13.7a4.59,4.59,0,0,1-.24.9l-1.7-1.2Z"/><path class="cls-89" d="M192.05,33.56c2.63,4.9,7,9.9,14.11,11.24,6.56,1.24,18.34,2.76,23.08,3.36a5.79,5.79,0,0,1,3.66,2c3.72,4.3,11.91,16.1,2.29,28a17.91,17.91,0,0,1-4.17-3c1.06-3,1.15-6.83-1.08-11.53a11,11,0,0,1-.28,1.1,68.37,68.37,0,0,0-3.23,19.7c0,.25-.14.54-.39.58-5.32.72-15.32.13-15.32.13,1.85-9.18-5.1-25.31-6.89-29.26a2.55,2.55,0,0,0-1.28-1.27c-9.93-4.5-14.25-11.41-16-17.65A9.51,9.51,0,0,1,192.05,33.56Z"/><path class="cls-90" d="M186.55,36.87a30.18,30.18,0,0,1-.47-14.11h2.26a36.66,36.66,0,0,0,3.71,10.8A9.51,9.51,0,0,0,186.55,36.87Z"/><path class="cls-91" d="M187.55,24s3.45-4.47,2.33-6.79-5-2.1-5-2.1l-.54,1.82a2.29,2.29,0,0,0,.05,1.46L186.55,24Z"/><path class="cls-92" d="M222.25,39.22l.78,8s-4.48,1.35-7.74-.95L217.59,39Z"/><path class="cls-93" d="M217.06,30.15c-.11.1-4.55,8.82-4.55,8.82l5,2.43L223,33.76S218.86,28.45,217.06,30.15Z"/><path class="cls-94" d="M220.75,34a.8.8,0,0,1-.06.71l-2.51,4.19A.78.78,0,0,1,218,39a1.32,1.32,0,0,1-2.11,0,7.08,7.08,0,0,0-2-2.14.8.8,0,0,0-1.08.36,30,30,0,0,0-1.72,4.08.8.8,0,0,0,.47,1,22.27,22.27,0,0,0,4.82,1.41.8.8,0,0,0,.76-.32c.77-1.05,2.94-4,3.68-4.74s2-.43,2.53-.26a.81.81,0,0,0,.64-.08,1.77,1.77,0,0,0,.67-2.69.8.8,0,0,1,.25-1.09,1.78,1.78,0,0,0,.68-2.52,2.5,2.5,0,0,0-2.71-1.33.83.83,0,0,1-.87-.49.53.53,0,0,0-.41-.33.78.78,0,0,1-.63-.92,2.06,2.06,0,0,0-1.15-2.36c-2.17-1.19-4.07.75-4.56,2.39s1.94,2.8,3.47,3C219.89,32.11,220.5,33.33,220.75,34Z"/><path class="cls-95" d="M219.92,40.18s1-2.83,2.2-2.72,2.21,1.34.68,2.72C220.9,41.9,219.92,40.18,219.92,40.18Z"/><path class="cls-96" d="M230.35,62.81a25.18,25.18,0,0,0,1-9.9l-.45.05a24.68,24.68,0,0,1-1,9.69Z"/><path class="cls-97" d="M231,75.07a17.91,17.91,0,0,0,4.17,3,27.8,27.8,0,0,1-6.79,6.2L228,85l-5.14.18S229,80.68,231,75.07Z"/><path class="cls-98" d="M203.3,79.23l0-.32h0a.08.08,0,1,1,.17,0h0l0,.33a.08.08,0,0,1-.16,0Z"/><path class="cls-98" d="M202.94,77.3l-.08-.32h0a.1.1,0,0,1,.19,0h0l.08.32a.09.09,0,0,1-.18,0Z"/><path class="cls-98" d="M202.35,75.42l-.12-.31h0a.11.11,0,0,1,.2-.08h0l.12.31a.11.11,0,0,1-.2.08Z"/><path class="cls-98" d="M201.55,73.62l-.15-.29h0a.12.12,0,0,1,.21-.11h0l.15.3a.12.12,0,0,1-.21.11Z"/><path class="cls-98" d="M200.53,71.95l-.19-.26h0a.13.13,0,0,1,.22-.16h0l.19.27a.13.13,0,0,1-.21.15Z"/><path class="cls-98" d="M199.27,70.44l-.23-.23h0a.15.15,0,1,1,.21-.21h0l.23.24a.14.14,0,0,1-.2.2Z"/><path class="cls-98" d="M197.8,69.16l-.27-.19h0a.16.16,0,0,1,.18-.26h0l.27.2a.16.16,0,0,1-.18.25Z"/><path class="cls-98" d="M196.13,68.15l-.29-.14h0a.17.17,0,0,1,.15-.31h0l.3.15a.17.17,0,0,1-.15.3Z"/><path class="cls-98" d="M194.32,67.43l-.31-.09h0a.18.18,0,1,1,.1-.35h0l.32.1a.18.18,0,0,1-.1.35Z"/><path class="cls-98" d="M192.42,67l-.32,0h0a.19.19,0,0,1,.06-.38h0l.33.05a.19.19,0,0,1-.06.37Z"/><path class="cls-98" d="M190.47,66.81h-.33a.2.2,0,1,1,0-.39h.33a.2.2,0,0,1,0,.39Z"/><path class="cls-98" d="M188.51,66.85l-.33,0h0a.2.2,0,0,1,0-.41h0l.33,0a.2.2,0,0,1,0,.4Z"/><path class="cls-98" d="M186.56,67.07l-.32.05h0a.21.21,0,0,1-.07-.42h0l.33-.05a.21.21,0,0,1,.07.41Z"/><path class="cls-98" d="M184.63,67.45l-.32.08h0a.22.22,0,0,1-.1-.42h0l.32-.07a.22.22,0,0,1,.1.42Z"/><path class="cls-98" d="M182.73,68l-.31.09h0a.22.22,0,0,1-.13-.43h0l.32-.09a.22.22,0,0,1,.13.43Z"/><path class="cls-98" d="M180.85,68.56l-.31.11h0a.23.23,0,1,1-.15-.44h0l.31-.11a.23.23,0,0,1,.15.43Z"/><path class="cls-98" d="M179,69.25l-.3.12h0a.24.24,0,1,1-.18-.44h0l.31-.12a.24.24,0,0,1,.18.44Z"/><path class="cls-98" d="M177.19,70l-.3.13h0a.25.25,0,0,1-.2-.45h0l.3-.13a.24.24,0,0,1,.2.45Z"/><path class="cls-98" d="M175.39,70.84l-.3.13a.25.25,0,1,1-.2-.46h0l.3-.13h0a.25.25,0,0,1,.2.46Z"/><path class="cls-98" d="M173.55,71.61l-.31.12a.25.25,0,1,1-.18-.47h0l.31-.12h0a.25.25,0,0,1,.18.47Z"/><path class="cls-98" d="M171.68,72.29l-.31.11a.26.26,0,0,1-.17-.48h0l.31-.11h0a.26.26,0,0,1,.16.48Z"/><path class="cls-98" d="M169.79,72.91l-.32.1a.26.26,0,0,1-.15-.49h0l.31-.1h0a.26.26,0,0,1,.15.49Z"/><path class="cls-98" d="M167.88,73.47l-.32.09a.26.26,0,1,1-.14-.5h0l.32-.09h0a.26.26,0,0,1,.14.5Z"/><path class="cls-98" d="M166,74l-.32.08a.26.26,0,0,1-.13-.5h0l.32-.08h0a.26.26,0,0,1,.13.5Z"/><path class="cls-98" d="M164,74.46l-.32.08a.26.26,0,0,1-.12-.51h0l.32-.07h0a.26.26,0,0,1,.12.51Z"/><path class="cls-98" d="M162.1,74.9l-.32.07a.26.26,0,0,1-.11-.52h0l.32-.07a.26.26,0,1,1,.11.52Z"/><path class="cls-98" d="M160.15,75.3l-.32.06a.27.27,0,0,1-.1-.52h0l.32-.06a.27.27,0,1,1,.1.52Z"/><path class="cls-98" d="M158.2,75.66l-.33.06a.27.27,0,0,1-.09-.53h0l.32-.06a.27.27,0,1,1,.09.53Z"/><path class="cls-98" d="M156.24,76l-.33.05a.27.27,0,0,1-.09-.53h0l.33-.05a.27.27,0,1,1,.09.53Z"/><path class="cls-98" d="M154.26,76.31l-.33,0a.27.27,0,0,1-.08-.53h0l.33,0a.27.27,0,1,1,.08.53Z"/><path class="cls-98" d="M152.26,76.59l-.33,0a.27.27,0,0,1-.07-.54h0l.33,0a.27.27,0,1,1,.07.54Z"/><path class="cls-98" d="M150.24,76.84l-.33,0a.27.27,0,0,1-.06-.54h0l.33,0a.27.27,0,1,1,.06.54Z"/><path class="cls-98" d="M148.27,77.07l-.33,0a.28.28,0,0,1-.06-.55h0l.33,0a.27.27,0,1,1,.06.55Z"/><path class="cls-98" d="M146.29,77.26l-.33,0a.28.28,0,1,1-.05-.55h0l.33,0a.28.28,0,1,1,.05.55Z"/><path class="cls-98" d="M144.31,77.43l-.33,0a.28.28,0,1,1,0-.56h0l.33,0a.28.28,0,1,1,0,.55Z"/><path class="cls-98" d="M142.33,77.57l-.33,0a.28.28,0,1,1,0-.56h0l.33,0a.28.28,0,1,1,0,.56Z"/><path class="cls-98" d="M140.35,77.69l-.33,0a.28.28,0,1,1,0-.56h0l.33,0a.28.28,0,1,1,0,.56Z"/><path class="cls-98" d="M138.37,77.78H138a.28.28,0,0,1,0-.57h.33a.28.28,0,1,1,0,.57Z"/><path class="cls-98" d="M136.39,77.84h-.33a.28.28,0,1,1,0-.56h.33a.28.28,0,1,1,0,.57Z"/><path class="cls-98" d="M134.4,77.87h-.33a.28.28,0,1,1,0-.56h.33a.28.28,0,0,1,0,.56Z"/><path class="cls-98" d="M132.42,77.87h-.33a.28.28,0,1,1,0-.56h.33a.28.28,0,1,1,0,.56Z"/><path class="cls-98" d="M130.43,77.84h-.33a.28.28,0,1,1,0-.55h.33a.28.28,0,0,1,0,.56Z"/><path class="cls-98" d="M128.45,77.79h-.33a.28.28,0,1,1,0-.55h.33a.28.28,0,1,1,0,.55Z"/><path class="cls-98" d="M126.46,77.7l-.33,0a.27.27,0,1,1,0-.55l.33,0a.27.27,0,1,1,0,.55Z"/><path class="cls-98" d="M124.48,77.58l-.33,0a.27.27,0,1,1,0-.54l.33,0a.27.27,0,0,1,0,.54Z"/><path class="cls-98" d="M122.5,77.43l-.33,0a.27.27,0,1,1,0-.54l.33,0a.27.27,0,1,1,0,.54Z"/><path class="cls-98" d="M120.52,77.24l-.33,0a.27.27,0,1,1,.06-.54h0l.33,0h0a.27.27,0,0,1-.06.54Z"/><path class="cls-98" d="M118.55,77l-.33,0a.27.27,0,0,1,.07-.53h0l.33,0h0a.27.27,0,0,1-.07.53Z"/><path class="cls-98" d="M116.58,76.75l-.33,0a.27.27,0,0,1,.08-.53h0l.33,0h0a.27.27,0,0,1-.08.53Z"/><path class="cls-98" d="M114.62,76.44l-.33-.06a.26.26,0,1,1,.09-.52h0l.32.05h0a.26.26,0,1,1-.09.52Z"/><path class="cls-98" d="M112.66,76.09l-.33-.06a.26.26,0,0,1,.1-.52h0l.32.06h0a.26.26,0,0,1-.1.52Z"/><path class="cls-98" d="M110.72,75.68l-.32-.07a.26.26,0,1,1,.11-.51h0l.32.07h0a.26.26,0,0,1-.11.51Z"/><path class="cls-98" d="M108.78,75.23l-.32-.08a.26.26,0,1,1,.13-.5h0l.32.08h0a.26.26,0,1,1-.13.5Z"/><path class="cls-98" d="M106.86,74.71l-.32-.09a.26.26,0,1,1,.14-.5h0l.32.09h0a.26.26,0,1,1-.14.5Z"/><path class="cls-98" d="M105,74.14l-.32-.1a.26.26,0,0,1,.16-.49h0l.31.1h0a.26.26,0,1,1-.16.49Z"/><path class="cls-98" d="M103.07,73.49l-.31-.11a.25.25,0,0,1,.18-.48h0l.31.11h0a.26.26,0,1,1-.18.48Z"/><path class="cls-98" d="M101.21,72.77l-.31-.13a.25.25,0,1,1,.19-.47h0l.3.13h0a.25.25,0,0,1-.19.47Z"/><path class="cls-98" d="M99.39,72l-.3-.14a.25.25,0,0,1,.22-.45h0l.3.14h0a.25.25,0,1,1-.21.45Z"/><path class="cls-98" d="M97.61,71.07l-.29-.16a.24.24,0,0,1,.23-.43h0l.29.16h0a.25.25,0,1,1-.23.43Z"/><path class="cls-98" d="M95.88,70.07l-.28-.18a.24.24,0,0,1,.26-.41h0l.28.17h0a.24.24,0,1,1-.25.41Z"/><path class="cls-98" d="M94.22,69l-.27-.2a.24.24,0,1,1,.28-.38h0l.27.19h0a.24.24,0,0,1-.28.38Z"/><path class="cls-98" d="M92.64,67.73l-.25-.22a.23.23,0,0,1,.3-.35h0l.25.21h0a.23.23,0,0,1-.3.35Z"/><path class="cls-98" d="M91.18,66.37l-.23-.24a.23.23,0,1,1,.32-.31h0l.23.23h0a.23.23,0,0,1-.32.32Z"/><path class="cls-98" d="M89.84,64.88l-.21-.26a.22.22,0,0,1,.35-.27h0l.2.25h0a.22.22,0,1,1-.35.28Z"/><path class="cls-98" d="M88.66,63.26,88.49,63a.22.22,0,0,1,.36-.23h0L89,63h0a.22.22,0,1,1-.36.23Z"/><path class="cls-98" d="M87.68,61.51l-.14-.3a.21.21,0,0,1,.38-.18h0l.14.29h0a.21.21,0,0,1-.38.19Z"/><path class="cls-98" d="M86.9,59.67l-.11-.32a.21.21,0,0,1,.39-.13h0l.11.31h0a.21.21,0,0,1-.39.14Z"/><path class="cls-98" d="M86.34,57.74l-.07-.33a.2.2,0,0,1,.39-.09h0l.07.32h0a.2.2,0,1,1-.39.09Z"/><path class="cls-98" d="M86,55.77l0-.33a.2.2,0,1,1,.39,0h0l0,.32h0a.2.2,0,1,1-.39,0Z"/><path class="cls-98" d="M85.88,53.77v-.33a.19.19,0,0,1,.38,0h0v.33h0a.19.19,0,0,1-.38,0Z"/><path class="cls-98" d="M86,51.78l0-.33a.19.19,0,1,1,.37,0h0l0,.33h0a.19.19,0,1,1-.37,0Z"/><path class="cls-98" d="M86.2,49.8l.06-.33a.18.18,0,0,1,.35.06h0l-.05.32h0a.18.18,0,0,1-.36-.06Z"/><path class="cls-98" d="M86.59,47.84l.08-.32a.17.17,0,0,1,.33.08h0l-.08.32h0a.17.17,0,0,1-.34-.08Z"/><path class="cls-98" d="M87.12,45.92l.1-.32a.16.16,0,0,1,.31.1h0l-.09.31h0a.16.16,0,0,1-.31-.09Z"/><path class="cls-98" d="M87.75,44l.12-.31a.15.15,0,0,1,.29.11h0l-.11.31h0a.16.16,0,0,1-.29-.11Z"/><path class="cls-98" d="M88.48,42.19l.13-.3a.14.14,0,0,1,.27.11h0l-.13.3h0a.15.15,0,1,1-.27-.11Z"/><path class="cls-98" d="M89.29,40.37l.14-.3a.14.14,0,0,1,.25.12h0l-.14.3h0a.14.14,0,0,1-.25-.12Z"/><path class="cls-98" d="M90.18,38.59l.15-.29a.13.13,0,0,1,.23.12l-.15.29a.13.13,0,1,1-.23-.12Z"/><path class="cls-98" d="M91.13,36.85l.16-.29a.12.12,0,0,1,.21.12l-.16.29a.12.12,0,0,1-.21-.12Z"/><path class="cls-98" d="M92.13,35.14l.17-.28a.11.11,0,0,1,.19.11l-.17.28a.11.11,0,0,1-.19-.11Z"/><path class="cls-98" d="M93.18,33.45l.18-.28a.1.1,0,0,1,.17.11l-.18.28a.1.1,0,1,1-.17-.11Z"/><path class="cls-98" d="M94.27,31.8l.19-.27a.09.09,0,0,1,.15.1l-.18.27a.09.09,0,0,1-.16-.1Z"/><path class="cls-98" d="M95.4,30.17l.19-.27a.08.08,0,0,1,.14.1l-.19.27a.09.09,0,1,1-.14-.1Z"/><polygon class="cls-12" points="95.61 25.72 96.75 28.53 98.16 26.55 95.61 25.72"/><path class="cls-5" d="M107.59,19l-4.89,9.73a.77.77,0,0,1-1.06.33l-9.59-5.28a.31.31,0,0,1,.07-.57Z"/><polygon class="cls-12" points="95.61 25.72 107.59 18.98 97.16 26.57 97.44 27.37 95.61 25.72"/><polygon class="cls-12" points="98.08 27.07 96.75 28.53 97.16 26.57 98.08 27.07"/></g></g></g></svg>