<svg xmlns="http://www.w3.org/2000/svg" xmlns:xlink="http://www.w3.org/1999/xlink" viewBox="0 0 340 188.47"><defs><style>.cls-1{fill:#f99746;}.cls-2{fill:#ebf3fa;}.cls-3{fill:#dfebfd;}.cls-4{fill:#cde0fb;}.cls-5{fill:#ed7d2b;}.cls-6{fill:#1c468a;}.cls-7{fill:#ffb680;}.cls-8{fill:#233862;}.cls-9{fill:#ffb27d;}.cls-10{fill:#ed975d;}.cls-11{fill:#fff;}.cls-12{fill:#dbe7f8;}.cls-13{fill:#2b478b;}.cls-14{fill:#b64c41;}.cls-15{fill:#ffb93e;}.cls-16{fill:#86d1cd;}.cls-17{fill:#abddda;}.cls-18{fill:#c5efeb;}.cls-19{clip-path:url(#clip-path);}.cls-20{opacity:0.3;}.cls-21{fill:#6dbfb9;}.cls-22{fill:#e2915a;}.cls-23{fill:#1d3970;}.cls-24{fill:#82b378;}.cls-25{fill:#afd295;}.cls-26{fill:#75a869;}.cls-27{fill:#122a5b;}.cls-28{fill:#d87225;}.cls-29{fill:#f77d48;}.cls-30{fill:#ffa412;}.cls-31{fill:#ffc261;}.cls-32{fill:#6bb7bf;}.cls-33{fill:#f1a34f;}.cls-34{fill:#db7714;}.cls-35{fill:#5685d8;}.cls-36{fill:#739af0;}.cls-37{fill:#e0663b;}.cls-38{fill:#ce542e;}.cls-39{fill:#fa9712;}.cls-40{fill:#2e3552;}</style><clipPath id="clip-path"><rect class="cls-1" x="108.22" y="97.71" width="96.86" height="89.91"/></clipPath></defs><title>Ресурс 21</title><g id="Слой_2" data-name="Слой 2"><g id="Дизайн_копия_" data-name="Дизайн (копия)"><path class="cls-2" d="M24.26,188s-39.56-42.48-6.69-88.47c29.17-40.8,63.17-38,88.12-21.46C116.32,85.18,147,79,173,37.47c35.56-56.62,158.82-22.28,136.35,64.83-10.88,42.16,33.1,43.69,10.69,85.83Z"/><path class="cls-3" d="M252.65,127.93c-2-6.95-13.77-4.54-13.77-4.54s-7.77,12.37-10.09,12.71,4.58-11.88,4.58-11.88c-4.52-.35-15.91,5.4-15.91,5.4s1,14.25-1.34,14-.24-12.66-.24-12.66c-4.34,1.39-8.32,6.56-8.32,6.56-4.94,8.39,6.09,14.29,6.09,14.29A23.22,23.22,0,0,1,211,162.49h0a16.84,16.84,0,0,0-1.34,2.85l1.19,0q.14-.48.31-.93h0l.33-.77h0c.35-.72.59-1.25.73-1.63h0c1-2.25,2.56-5.2,3.6-5.83a2.31,2.31,0,0,1-.26-.54l.26.54c2.12,4.33,12.32,4.86,18,3.59s3.15-2.83,0-5.36-9.49-1.73-11.4-2.72.83-2.05,4.62-1.83,5.75,4,11.87,4.43,10.56-11.12,10.56-11.12c-4.19,1.39-11.8-.79-12.12-2.24s10.89-1.52,12.63-2S254.67,134.88,252.65,127.93Z"/><path class="cls-3" d="M115.51,90.14s.22,9.88-1.62,9.81.55-11,.55-11-8.2-5.75-11.75-6c0,0,4,10.27,2.21,9.74s-6.4-11-6.4-11-8.85-3.2-11.21,2-.44,8.26.86,8.82,10,1.88,9.58,3-6.57,1.93-9.67.37c0,0,2.14,9.5,6.95,9.83s6.76-2.36,9.72-2.1,5,1.4,3.38,1.95-6.47-.8-9.17.82-4.82,2.55-.57,4.17,12.23,2.36,14.36-.76l.27-.39a1.81,1.81,0,0,1-.27.39c.73.61,1.58,3.06,2.14,4.93.07.31.19.75.39,1.35h0l.17.64c.91,4.13-1,10.69-1,10.69l.9.41a15.82,15.82,0,0,0,.46-12.55,18.22,18.22,0,0,1-.9-8.6s9.23-3.34,6.35-10.41C121.22,96.18,118.72,91.71,115.51,90.14Z"/><path class="cls-4" d="M34.37,152.09c-1.72-11,16.26-15.34,16.26-15.34S69.57,149,73,147.9s-14.15-13.59-14.15-13.59c6.08-3.44,25.74-2.86,25.74-2.86s7.92,20.54,11,18.67-7.94-17.83-7.94-17.83c7-.89,15.9,3.73,15.9,3.73,12.37,8.49.83,23.94.83,23.94a35.79,35.79,0,0,0,10.76,13.14h0a26,26,0,0,1,3.73,3.11l-1.68.75q-.51-.58-1-1.1h0l-1-.86h0c-1-.77-1.63-1.36-2.09-1.8h0c-2.94-2.46-7-5.58-8.83-5.78a3.56,3.56,0,0,0,0-.93l0,.93c-.13,7.43-14,14.84-22.75,16.76s-6.24-1.89-3.57-7.46,12.12-8.63,14.15-11.25-2.51-2.32-7.65.46-5.44,9.3-13.68,13.95-22-8.62-22-8.62c6.77-.8,16-8.83,15.46-11.06s-16.19,5-18.93,5.48S36.09,163.12,34.37,152.09Z"/><path class="cls-5" d="M266,50.64a6.86,6.86,0,0,1-1.35,1.87C260.79,56.44,251.9,59,251.9,59s-5.05-11.14-2.73-16.13a10,10,0,0,1,9.09-5.93,8.69,8.69,0,0,1,3.51.81C266.41,39.86,268.3,45.65,266,50.64Z"/><path class="cls-5" d="M251.9,59s-.82,1.26-.35,1.59,1.47.19,1.58-.14S251.9,59,251.9,59Z"/><path class="cls-6" d="M252,59.11l-.27-.13a.12.12,0,0,1-.06-.16h0a.12.12,0,0,1,.16-.06l.27.13a.12.12,0,0,1,.06.16h0A.12.12,0,0,1,252,59.11Z"/><path class="cls-6" d="M246.85,74.41a1.29,1.29,0,0,0,.21-.53.35.35,0,0,0-.1-.31c.05,0,5.15-.64,6.51-2.34.74-.92-1.54-2.94-3.36-4.57-1.61-1.43-3.16-2.41-2.84-3.27s2.1-.87,3.5-1c.82-.09,1.75-.2,1.82-.42s-.56-.65-1.07-1-1.2-.72-1.1-1.09c.17-.67,1.38-1,1.43-1V59s-1.11.41-1.25,1c-.06.23.54.59,1,.87.66.4,1.5.84,1.37,1.26s-1,.35-2.19.49-2.86.32-3.13,1c-.2.48,1.22,1.74,2.58,3,2.08,1.86,4.52,3.88,3.67,4.95-.59.74-1.94,1.39-3.93,2.11A24.89,24.89,0,0,1,246.85,74.41Z"/><path class="cls-1" d="M266,50.64a6.86,6.86,0,0,1-1.35,1.87c-3.2,1.83-7.15.73-10.42-4.06-6.78-9.93,4-11.56,4-11.56h0a8.69,8.69,0,0,1,3.51.81C266.41,39.86,268.3,45.65,266,50.64Z"/><path class="cls-7" d="M265,45.38c-.51.21-2.11-.84-2.62-2.06a2.11,2.11,0,0,1,.48-2.55c.92-.53,1.89.7,2.4,1.92S265.55,45.16,265,45.38Z"/><path class="cls-8" d="M66.18,86.18a3.57,3.57,0,0,0-1.11,5S62.54,90.71,62,90a2,2,0,0,0,.16.47s-2.32-.53-3.08-1.5,3-12.58,9-9.57c0,0,5.52,1,3.36,7.15s-.12,6.67-.12,6.67a3,3,0,0,1-.92.06S70,93,70,92.74a1.48,1.48,0,0,0,.06.51s-2.26-.38-3.14-1.5S65.52,87.39,66.18,86.18Z"/><path class="cls-9" d="M62,96h0Z"/><path class="cls-9" d="M69,94c.08.76.19,1.44.23,1.77.1.73-6.8.25-7.24.25.31-.13,1.24-3.1,1.54-4.24.36-1.37.64-2.86.64-2.86l4.88.31.29,0a17,17,0,0,0-.4,1.88l0,.23A12.67,12.67,0,0,0,69,94Z"/><path class="cls-8" d="M63.52,88.46A14.1,14.1,0,0,1,62.89,84C63,82.66,65,78,69.66,80a6.86,6.86,0,0,1,2.48,1.77c.87,1,2,2.95-.84,6.73l-.82,1.31Z"/><path class="cls-10" d="M69,94c-3.41-1-4.86-4.94-4.86-4.94A10.41,10.41,0,0,1,69,91.15l0,.23A12.67,12.67,0,0,0,69,94Z"/><path class="cls-9" d="M69.27,92.64s-6.16-1.52-5.15-5.35S65,80.7,69,81.51s4.35,2.47,4.33,3.83S70.9,92.94,69.27,92.64Z"/><path class="cls-8" d="M73.69,83.17c-1.83-2.9-4-3.2-4-3.2-1.57-1-3.64,1.53-3.64,1.53a7.55,7.55,0,0,1-3.53,3.68s.94,1,3.69,1a4.53,4.53,0,0,0,2.47-.89,14.81,14.81,0,0,1-3.26,2.36c3.3-.58,5.62-4.22,6-4.91a5.54,5.54,0,0,1,.91,2.06c0,1.05-.34,3.09.26,3.18C72.58,88,74.92,85.12,73.69,83.17Z"/><path class="cls-11" d="M68.31,90.19s.08.58.45.72a5.38,5.38,0,0,0,1.46.33,4.94,4.94,0,0,0,.47-.52A7.68,7.68,0,0,0,68.31,90.19Z"/><path class="cls-9" d="M66,148.67l-.23,1c-.46,1.93-.9,3.72-1.17,5.22-.35,1.95-.44,3.4,0,4,1.91,2.51,0,22.42,0,22.42l-2.18,2.24s-3.79-19.66-4.81-22.74c-.47-1.4-1.15-7.38-1.75-13.49l-.09-.92c-.1-1.07-.2-2.13-.3-3.17-.54-5.78-.94-10.72-.94-10.72s4-2.82,7.66-3.14a4.6,4.6,0,0,1,5.17,3.14C68.85,136.34,67.37,143,66,148.67Z"/><path class="cls-10" d="M66,148.67a21.44,21.44,0,0,1-8.71-12.28c-.29-3.13,2.17-6.1,4.92-7a4.6,4.6,0,0,1,5.17,3.14C68.85,136.34,67.37,143,66,148.67Z"/><path class="cls-9" d="M76.89,110.7l14.66,3.79v1.71S77,116,76,114.4,76.89,110.7,76.89,110.7Z"/><path class="cls-9" d="M91.55,167.14,90.87,170S71,159.73,68.46,157.76c-1-.79-2.39-5.08-3.65-9.94-1.88-7.24-3.53-15.73-3.53-15.73s2.78-10.7,10.23-4.15c4.45,3.92,3.76,11.47,3.27,17.34-.32,3.94-.56,7.12.92,7.95,2.88,1.61,11.34,9,14,14.11Z"/><path class="cls-9" d="M57.9,119.6C52.72,118.28,47,110.24,47,110.24L48.48,109c1.51,1.78,7.79,4.85,7.79,4.85,0-1.63,0-3.12.11-4.47.7-9.19,4.16-12.26,5.11-12.93a2.26,2.26,0,0,1,.24-.15s0,.07,0,.19,0,.82.06,1.58C62,103.67,62.23,120.7,57.9,119.6Z"/><path class="cls-11" d="M62,108.57c-.27,6.56-1.25,13.05-4.11,12.64-3.5-.51-4.41-3.78-4.6-6.21a14,14,0,0,1,.05-2.7,6.19,6.19,0,0,0,2-.26c1.32-1.22.93-13.21,1.59-14.45s4.9-2,4.9-2S62.27,102.08,62,108.57Z"/><path class="cls-11" d="M84.08,110.7c.95,1.35.43,4-1.56,6.06-1.24,1.31-2.91,2.08-5.63,1.68-1.19-.17-4.5-2-4.85-4.33l-.1-.66a13,13,0,0,0-1.57,1.8c0,.13-.16,1.27-.18,1.43a5.5,5.5,0,0,0,.11.88s-7.22,3.16-13.18-.44c0,0-1.7-14.57-.48-17,.61-1.2,4-3.55,5.2-4.59a1.89,1.89,0,0,0,.46-1.39c-.06-.38.38-1,.75-.91.71.23,2.73,1.23,4.15.85.71-.19,1.6-1,2.29-.82.84.23,0,2.24.43,2.27.65,0,4.19.74,4.48,1.31.1.2,1.12,2.89,2.39,6.45h0C79.19,110,82.69,108.72,84.08,110.7Z"/><path class="cls-12" d="M71.94,113.45s-.18-5.56-.62-5.49-6.93,6.31-5.39,8.8S71.94,113.45,71.94,113.45Z"/><path class="cls-13" d="M76.89,136.25a43.1,43.1,0,0,1-6.18,1.28c-4.56.63-10.93.86-16.62-1.28,0,0-.47-8.46.88-12.88s2-6.52,2-6.52a28.52,28.52,0,0,0,10.88.3,17.79,17.79,0,0,0,2.3-.59s3.38,7.18,4.31,10.26S76.89,136.25,76.89,136.25Z"/><path class="cls-8" d="M76.89,136.25a43.1,43.1,0,0,1-6.18,1.28C64,133.7,67.25,117.6,67.25,117.6l.58-.45a17.79,17.79,0,0,0,2.3-.59s3.38,7.18,4.31,10.26S76.89,136.25,76.89,136.25Z"/><path class="cls-14" d="M62.69,118.44c-4,0-5.65-1.38-5.77-1.47l-.26-1.88s5.41,3.25,13.71.16l-.18,1.43A21.8,21.8,0,0,1,62.69,118.44Z"/><path class="cls-9" d="M91.55,114.49A19.66,19.66,0,0,1,95.31,113a8.49,8.49,0,0,1,2.87,0,8,8,0,0,1-2.44,1.45c-.51.09-1.5.81-1.2.9s1.88-.28,1.9,0-1,.45-1.13.66a2,2,0,0,1-1.73.34c-1-.13-2-.19-2-.19Z"/><path class="cls-9" d="M48.48,109,47,110.25s-2.6-1.9-2.72-2.68v-.08c0-.81,1.65-2.49,3-2.55a.74.74,0,0,1,.37.09c.73.46.82,2.36.81,3.34C48.49,108.74,48.48,109,48.48,109Z"/><path class="cls-13" d="M91.55,167.14,90.87,170S71,159.73,68.46,157.76c-1-.79-2.39-5.08-3.65-9.94,1.69.35,5.35.53,10-2.54-.32,3.94-.56,7.12.92,7.95,2.88,1.61,11.34,9,14,14.11Z"/><path class="cls-1" d="M95.47,168.24h0a1.24,1.24,0,0,1-.77-.81c-.18-.43-.23-.78-.4-1.2l-.67-1.16c-.7-.92-.95-.71-.95-.71s-.18.23-.45.54a5.65,5.65,0,0,1-1.62,1.41,1.41,1.41,0,0,0-.69.54,1.34,1.34,0,0,0-.21.48s1.44.25,1.31,1c-.24,1.37-.19,1.62-.16,1.67h0s2.45,1.28,3.24,1.54a6.12,6.12,0,0,1,2.58,1.83.81.81,0,0,0,.69.22c.37-.06.85-.18,1-.4Z"/><path class="cls-8" d="M64.63,158.87c1.91,2.51,0,22.42,0,22.42l-2.18,2.24s-3.79-19.66-4.81-22.74c-.47-1.4-1.15-7.38-1.75-13.49,1.81.81,6.24,2.57,9.88,2.33-.46,1.93-.9,3.72-1.17,5.22C64.25,156.81,64.16,158.26,64.63,158.87Z"/><path class="cls-1" d="M66.82,184.53l-1.18.64c-.43.15-.78.19-1.21.36a2.5,2.5,0,0,0-1.14.83c-.33,1.35-.8,1.26-.8,1.26l-4.72,0c-.22-.11.15-1.06.34-1.24.45-.44,1.78-.22,2.27-1.6.27-.78,1.63-3.19,1.63-3.19h0s.3-.07,1.66.21c.7.15,1-1.28,1-1.28a1.34,1.34,0,0,1,.47.22,1.41,1.41,0,0,1,.52.71A5.65,5.65,0,0,0,67,183.14c.3.28.53.47.53.47S67.76,183.86,66.82,184.53Z"/><polygon class="cls-1" points="43.73 111.97 44.32 112.28 50.97 98.61 50.97 98.61 43.73 111.97"/><path class="cls-15" d="M50.7,96.63s1.35.53,1.94-.57c0,0-.7,1.28.22,1.83a1.55,1.55,0,0,0-1.89.72S51.72,97.37,50.7,96.63Z"/><path class="cls-15" d="M51.26,96.16s-.12-.9-.57-.94S51.12,95.76,51.26,96.16Z"/><path class="cls-15" d="M50.6,97.3s-.89-.19-1.08.21S50.16,97.29,50.6,97.3Z"/><path class="cls-15" d="M53,97.08s1.31-.08,1.26.22S53.52,97.09,53,97.08Z"/><path class="cls-15" d="M52.14,98.73s1,.85.76,1S52.51,99.1,52.14,98.73Z"/><path class="cls-15" d="M52.33,95.89s.1-1.42-.26-1.27S52.29,95.55,52.33,95.89Z"/><path class="cls-15" d="M52.92,96.05s.74-1,.89-.75S52.92,96.05,52.92,96.05Z"/><path class="cls-9" d="M47,107.54a3.6,3.6,0,0,1-2.72,0v-.08c0-.81,1.65-2.49,3-2.55a.74.74,0,0,1,.37.09C47.77,105.58,47.88,107,47,107.54Z"/><path class="cls-16" d="M92.9,19.55a9,9,0,0,1,1.24,2.76c1.94,6.94-1,18.67-1,18.67S77.17,39.4,73,33.51a13.08,13.08,0,0,1-.78-14.2,11.38,11.38,0,0,1,3.22-3.46C81,12,88.76,13.65,92.9,19.55Z"/><path class="cls-16" d="M93.11,41s.89,1.75,1.58,1.44,1.18-1.55.87-1.89S93.11,41,93.11,41Z"/><path class="cls-1" d="M93.36,40.93l-.32.23a.15.15,0,0,1-.21,0h0a.15.15,0,0,1,0-.21l.32-.23a.15.15,0,0,1,.21,0h0A.15.15,0,0,1,93.36,40.93Z"/><path class="cls-1" d="M107.34,56.82a1.69,1.69,0,0,0-.47-.58.46.46,0,0,0-.41-.09c0-.06,2.65-6.26,1.61-8.91-.56-1.44-4.34-.19-7.39.82-2.68.89-4.81,2-5.56,1.08s.39-3,1.12-4.64c.43-1,.92-2.12.72-2.34s-1.11.21-1.79.59c-.86.48-1.6.89-2,.54C92.56,42.65,93,41.1,93,41l.08,0s-.26,1.52.28,2c.22.22,1-.22,1.65-.58.88-.49,1.94-1.14,2.33-.72s-.25,1.35-.88,2.81-1.51,3.45-.92,4.2c.42.54,2.77-.24,5-1,3.47-1.15,7.37-2.59,8-.92.45,1.16.31,3.11-.19,5.84A32.63,32.63,0,0,1,107.34,56.82Z"/><path class="cls-17" d="M92.9,19.55a9,9,0,0,1,1.24,2.76c0,4.83-3.85,8.59-11.43,9.17C67,32.66,72.25,19.31,72.25,19.31h0a11.38,11.38,0,0,1,3.22-3.46C81,12,88.76,13.65,92.9,19.55Z"/><path class="cls-18" d="M86.31,17.17c-.09.72-2.34,1.84-4.05,1.62a2.76,2.76,0,0,1-2.58-2.22c0-1.39,2-1.68,3.75-1.46S86.41,16.45,86.31,17.17Z"/><path class="cls-1" d="M71.51,80.71c-5.3,2-9-.12-9-.12l3.15-6.76.42-.89,1.3-2.8.85,2.15,0,.09.59,1.49.18.46,1,2.58L70.82,79Z"/><circle class="cls-11" cx="65.34" cy="79.73" r="0.95"/><path class="cls-11" d="M67,73.59a.7.7,0,0,1-1.36.24l.42-.89a.7.7,0,0,1,.94.66Z"/><path class="cls-11" d="M70.82,79a1.24,1.24,0,1,1-.93-2.06H70Z"/><path class="cls-11" d="M68.82,73.87h-.09a.83.83,0,0,1-.5-1.5Z"/><circle class="cls-11" cx="66.73" cy="76.41" r="0.88"/><rect class="cls-1" x="108.22" y="97.71" width="96.86" height="89.91"/><g class="cls-19"><g class="cls-20"><circle class="cls-11" cx="129.51" cy="171.22" r="0.93"/><circle class="cls-11" cx="134.3" cy="171.22" r="0.93"/><circle class="cls-11" cx="139.09" cy="171.22" r="0.93"/><circle class="cls-11" cx="143.88" cy="171.22" r="0.93"/><circle class="cls-11" cx="110.19" cy="171.22" r="0.93"/><circle class="cls-11" cx="114.98" cy="171.22" r="0.93"/><circle class="cls-11" cx="119.76" cy="171.22" r="0.93"/><circle class="cls-11" cx="124.55" cy="171.22" r="0.93"/><circle class="cls-11" cx="131.99" cy="167.49" r="0.93"/><circle class="cls-11" cx="136.78" cy="167.49" r="0.93"/><circle class="cls-11" cx="141.57" cy="167.49" r="0.93"/><circle class="cls-11" cx="146.36" cy="167.49" r="0.93"/><circle class="cls-11" cx="112.67" cy="167.49" r="0.93"/><circle class="cls-11" cx="117.46" cy="167.49" r="0.93"/><circle class="cls-11" cx="122.24" cy="167.49" r="0.93"/><circle class="cls-11" cx="127.03" cy="167.49" r="0.93"/><circle class="cls-11" cx="129.51" cy="164.04" r="0.93"/><circle class="cls-11" cx="134.3" cy="164.04" r="0.93"/><circle class="cls-11" cx="139.09" cy="164.04" r="0.93"/><circle class="cls-11" cx="143.88" cy="164.04" r="0.93"/><circle class="cls-11" cx="110.19" cy="164.04" r="0.93"/><circle class="cls-11" cx="114.98" cy="164.04" r="0.93"/><circle class="cls-11" cx="119.76" cy="164.04" r="0.93"/><circle class="cls-11" cx="124.55" cy="164.04" r="0.93"/><circle class="cls-11" cx="131.99" cy="160.31" r="0.93"/><circle class="cls-11" cx="136.78" cy="160.31" r="0.93"/><circle class="cls-11" cx="141.57" cy="160.31" r="0.93"/><circle class="cls-11" cx="146.36" cy="160.31" r="0.93"/><circle class="cls-11" cx="112.67" cy="160.31" r="0.93"/><circle class="cls-11" cx="117.46" cy="160.31" r="0.93"/><circle class="cls-11" cx="122.24" cy="160.31" r="0.93"/><circle class="cls-11" cx="127.03" cy="160.31" r="0.93"/><circle class="cls-11" cx="167.55" cy="171.22" r="0.93"/><circle class="cls-11" cx="172.34" cy="171.22" r="0.93"/><circle class="cls-11" cx="177.13" cy="171.22" r="0.93"/><circle class="cls-11" cx="181.92" cy="171.22" r="0.93"/><circle class="cls-11" cx="148.22" cy="171.22" r="0.93"/><circle class="cls-11" cx="153.01" cy="171.22" r="0.93"/><circle class="cls-11" cx="157.8" cy="171.22" r="0.93"/><circle class="cls-11" cx="162.59" cy="171.22" r="0.93"/><circle class="cls-11" cx="170.03" cy="167.49" r="0.93"/><circle class="cls-11" cx="174.82" cy="167.49" r="0.93"/><circle class="cls-11" cx="179.61" cy="167.49" r="0.93"/><circle class="cls-11" cx="184.4" cy="167.49" r="0.93"/><circle class="cls-11" cx="150.7" cy="167.49" r="0.93"/><circle class="cls-11" cx="155.49" cy="167.49" r="0.93"/><circle class="cls-11" cx="160.28" cy="167.49" r="0.93"/><circle class="cls-11" cx="165.07" cy="167.49" r="0.93"/><circle class="cls-11" cx="167.55" cy="164.04" r="0.93"/><circle class="cls-11" cx="172.34" cy="164.04" r="0.93"/><circle class="cls-11" cx="177.13" cy="164.04" r="0.93"/><circle class="cls-11" cx="181.92" cy="164.04" r="0.93"/><circle class="cls-11" cx="148.22" cy="164.04" r="0.93"/><circle class="cls-11" cx="153.01" cy="164.04" r="0.93"/><circle class="cls-11" cx="157.8" cy="164.04" r="0.93"/><circle class="cls-11" cx="162.59" cy="164.04" r="0.93"/><circle class="cls-11" cx="170.03" cy="160.31" r="0.93"/><circle class="cls-11" cx="174.82" cy="160.31" r="0.93"/><circle class="cls-11" cx="179.61" cy="160.31" r="0.93"/><circle class="cls-11" cx="184.4" cy="160.31" r="0.93"/><circle class="cls-11" cx="150.7" cy="160.31" r="0.93"/><circle class="cls-11" cx="155.49" cy="160.31" r="0.93"/><circle class="cls-11" cx="160.28" cy="160.31" r="0.93"/><circle class="cls-11" cx="165.07" cy="160.31" r="0.93"/><circle class="cls-11" cx="206.23" cy="171.22" r="0.93"/><circle class="cls-11" cx="211.01" cy="171.22" r="0.93"/><circle class="cls-11" cx="215.8" cy="171.22" r="0.93"/><circle class="cls-11" cx="220.59" cy="171.22" r="0.93"/><circle class="cls-11" cx="186.9" cy="171.22" r="0.93"/><circle class="cls-11" cx="191.69" cy="171.22" r="0.93"/><circle class="cls-11" cx="196.48" cy="171.22" r="0.93"/><circle class="cls-11" cx="201.27" cy="171.22" r="0.93"/><circle class="cls-11" cx="208.71" cy="167.49" r="0.93"/><circle class="cls-11" cx="213.49" cy="167.49" r="0.93"/><circle class="cls-11" cx="218.28" cy="167.49" r="0.93"/><circle class="cls-11" cx="223.07" cy="167.49" r="0.93"/><circle class="cls-11" cx="189.38" cy="167.49" r="0.93"/><circle class="cls-11" cx="194.17" cy="167.49" r="0.93"/><circle class="cls-11" cx="198.96" cy="167.49" r="0.93"/><circle class="cls-11" cx="203.75" cy="167.49" r="0.93"/><circle class="cls-11" cx="206.23" cy="164.04" r="0.93"/><circle class="cls-11" cx="211.01" cy="164.04" r="0.93"/><circle class="cls-11" cx="215.8" cy="164.04" r="0.93"/><circle class="cls-11" cx="220.59" cy="164.04" r="0.93"/><circle class="cls-11" cx="186.9" cy="164.04" r="0.93"/><circle class="cls-11" cx="191.69" cy="164.04" r="0.93"/><circle class="cls-11" cx="196.48" cy="164.04" r="0.93"/><circle class="cls-11" cx="201.27" cy="164.04" r="0.93"/><circle class="cls-11" cx="208.71" cy="160.31" r="0.93"/><circle class="cls-11" cx="213.49" cy="160.31" r="0.93"/><circle class="cls-11" cx="218.28" cy="160.31" r="0.93"/><circle class="cls-11" cx="223.07" cy="160.31" r="0.93"/><circle class="cls-11" cx="189.38" cy="160.31" r="0.93"/><circle class="cls-11" cx="194.17" cy="160.31" r="0.93"/><circle class="cls-11" cx="198.96" cy="160.31" r="0.93"/><circle class="cls-11" cx="203.75" cy="160.31" r="0.93"/><circle class="cls-11" cx="244.26" cy="171.22" r="0.93"/><circle class="cls-11" cx="249.05" cy="171.22" r="0.93"/><circle class="cls-11" cx="253.84" cy="171.22" r="0.93"/><circle class="cls-11" cx="258.63" cy="171.22" r="0.93"/><circle class="cls-11" cx="224.94" cy="171.22" r="0.93"/><circle class="cls-11" cx="229.72" cy="171.22" r="0.93"/><circle class="cls-11" cx="234.51" cy="171.22" r="0.93"/><circle class="cls-11" cx="239.3" cy="171.22" r="0.93"/><circle class="cls-11" cx="246.74" cy="167.49" r="0.93"/><circle class="cls-11" cx="251.53" cy="167.49" r="0.93"/><circle class="cls-11" cx="256.32" cy="167.49" r="0.93"/><circle class="cls-11" cx="261.11" cy="167.49" r="0.93"/><circle class="cls-11" cx="227.42" cy="167.49" r="0.93"/><circle class="cls-11" cx="232.2" cy="167.49" r="0.93"/><circle class="cls-11" cx="236.99" cy="167.49" r="0.93"/><circle class="cls-11" cx="241.78" cy="167.49" r="0.93"/><circle class="cls-11" cx="244.26" cy="164.04" r="0.93"/><circle class="cls-11" cx="249.05" cy="164.04" r="0.93"/><circle class="cls-11" cx="253.84" cy="164.04" r="0.93"/><circle class="cls-11" cx="258.63" cy="164.04" r="0.93"/><circle class="cls-11" cx="224.94" cy="164.04" r="0.93"/><circle class="cls-11" cx="229.72" cy="164.04" r="0.93"/><circle class="cls-11" cx="234.51" cy="164.04" r="0.93"/><circle class="cls-11" cx="239.3" cy="164.04" r="0.93"/><circle class="cls-11" cx="246.74" cy="160.31" r="0.93"/><circle class="cls-11" cx="251.53" cy="160.31" r="0.93"/><circle class="cls-11" cx="256.32" cy="160.31" r="0.93"/><circle class="cls-11" cx="261.11" cy="160.31" r="0.93"/><circle class="cls-11" cx="227.42" cy="160.31" r="0.93"/><circle class="cls-11" cx="232.2" cy="160.31" r="0.93"/><circle class="cls-11" cx="236.99" cy="160.31" r="0.93"/><circle class="cls-11" cx="241.78" cy="160.31" r="0.93"/><circle class="cls-11" cx="129.51" cy="185.44" r="0.93"/><circle class="cls-11" cx="134.3" cy="185.44" r="0.93"/><circle class="cls-11" cx="139.09" cy="185.44" r="0.93"/><circle class="cls-11" cx="143.88" cy="185.44" r="0.93"/><circle class="cls-11" cx="110.19" cy="185.44" r="0.93"/><circle class="cls-11" cx="114.98" cy="185.44" r="0.93"/><circle class="cls-11" cx="119.76" cy="185.44" r="0.93"/><circle class="cls-11" cx="124.55" cy="185.44" r="0.93"/><circle class="cls-11" cx="131.99" cy="181.71" r="0.93"/><circle class="cls-11" cx="136.78" cy="181.71" r="0.93"/><circle class="cls-11" cx="141.57" cy="181.71" r="0.93"/><circle class="cls-11" cx="146.36" cy="181.71" r="0.93"/><circle class="cls-11" cx="112.67" cy="181.71" r="0.93"/><circle class="cls-11" cx="117.46" cy="181.71" r="0.93"/><circle class="cls-11" cx="122.24" cy="181.71" r="0.93"/><circle class="cls-11" cx="127.03" cy="181.71" r="0.93"/><circle class="cls-11" cx="129.51" cy="178.26" r="0.93"/><circle class="cls-11" cx="134.3" cy="178.26" r="0.93"/><circle class="cls-11" cx="139.09" cy="178.26" r="0.93"/><circle class="cls-11" cx="143.88" cy="178.26" r="0.93"/><circle class="cls-11" cx="110.19" cy="178.26" r="0.93"/><circle class="cls-11" cx="114.98" cy="178.26" r="0.93"/><circle class="cls-11" cx="119.76" cy="178.26" r="0.93"/><circle class="cls-11" cx="124.55" cy="178.26" r="0.93"/><circle class="cls-11" cx="131.99" cy="174.53" r="0.93"/><circle class="cls-11" cx="136.78" cy="174.53" r="0.93"/><circle class="cls-11" cx="141.57" cy="174.53" r="0.93"/><circle class="cls-11" cx="146.36" cy="174.53" r="0.93"/><circle class="cls-11" cx="112.67" cy="174.53" r="0.93"/><circle class="cls-11" cx="117.46" cy="174.53" r="0.93"/><circle class="cls-11" cx="122.24" cy="174.53" r="0.93"/><circle class="cls-11" cx="127.03" cy="174.53" r="0.93"/><circle class="cls-11" cx="167.55" cy="185.44" r="0.93"/><circle class="cls-11" cx="172.34" cy="185.44" r="0.93"/><circle class="cls-11" cx="177.13" cy="185.44" r="0.93"/><circle class="cls-11" cx="181.92" cy="185.44" r="0.93"/><circle class="cls-11" cx="148.22" cy="185.44" r="0.93"/><circle class="cls-11" cx="153.01" cy="185.44" r="0.93"/><circle class="cls-11" cx="157.8" cy="185.44" r="0.93"/><circle class="cls-11" cx="162.59" cy="185.44" r="0.93"/><circle class="cls-11" cx="170.03" cy="181.71" r="0.93"/><circle class="cls-11" cx="174.82" cy="181.71" r="0.93"/><circle class="cls-11" cx="179.61" cy="181.71" r="0.93"/><circle class="cls-11" cx="184.4" cy="181.71" r="0.93"/><circle class="cls-11" cx="150.7" cy="181.71" r="0.93"/><circle class="cls-11" cx="155.49" cy="181.71" r="0.93"/><circle class="cls-11" cx="160.28" cy="181.71" r="0.93"/><circle class="cls-11" cx="165.07" cy="181.71" r="0.93"/><circle class="cls-11" cx="167.55" cy="178.26" r="0.93"/><circle class="cls-11" cx="172.34" cy="178.26" r="0.93"/><circle class="cls-11" cx="177.13" cy="178.26" r="0.93"/><circle class="cls-11" cx="181.92" cy="178.26" r="0.93"/><circle class="cls-11" cx="148.22" cy="178.26" r="0.93"/><circle class="cls-11" cx="153.01" cy="178.26" r="0.93"/><circle class="cls-11" cx="157.8" cy="178.26" r="0.93"/><circle class="cls-11" cx="162.59" cy="178.26" r="0.93"/><circle class="cls-11" cx="170.03" cy="174.53" r="0.93"/><circle class="cls-11" cx="174.82" cy="174.53" r="0.93"/><circle class="cls-11" cx="179.61" cy="174.53" r="0.93"/><circle class="cls-11" cx="184.4" cy="174.53" r="0.93"/><circle class="cls-11" cx="150.7" cy="174.53" r="0.93"/><circle class="cls-11" cx="155.49" cy="174.53" r="0.93"/><circle class="cls-11" cx="160.28" cy="174.53" r="0.93"/><circle class="cls-11" cx="165.07" cy="174.53" r="0.93"/><circle class="cls-11" cx="206.23" cy="185.44" r="0.93"/><circle class="cls-11" cx="211.01" cy="185.44" r="0.93"/><circle class="cls-11" cx="215.8" cy="185.44" r="0.93"/><circle class="cls-11" cx="220.59" cy="185.44" r="0.93"/><circle class="cls-11" cx="186.9" cy="185.44" r="0.93"/><circle class="cls-11" cx="191.69" cy="185.44" r="0.93"/><circle class="cls-11" cx="196.48" cy="185.44" r="0.93"/><circle class="cls-11" cx="201.27" cy="185.44" r="0.93"/><circle class="cls-11" cx="208.71" cy="181.71" r="0.93"/><circle class="cls-11" cx="213.49" cy="181.71" r="0.93"/><circle class="cls-11" cx="218.28" cy="181.71" r="0.93"/><circle class="cls-11" cx="223.07" cy="181.71" r="0.93"/><circle class="cls-11" cx="189.38" cy="181.71" r="0.93"/><circle class="cls-11" cx="194.17" cy="181.71" r="0.93"/><circle class="cls-11" cx="198.96" cy="181.71" r="0.93"/><circle class="cls-11" cx="203.75" cy="181.71" r="0.93"/><circle class="cls-11" cx="206.23" cy="178.26" r="0.93"/><circle class="cls-11" cx="211.01" cy="178.26" r="0.93"/><circle class="cls-11" cx="215.8" cy="178.26" r="0.93"/><circle class="cls-11" cx="220.59" cy="178.26" r="0.93"/><circle class="cls-11" cx="186.9" cy="178.26" r="0.93"/><circle class="cls-11" cx="191.69" cy="178.26" r="0.93"/><circle class="cls-11" cx="196.48" cy="178.26" r="0.93"/><circle class="cls-11" cx="201.27" cy="178.26" r="0.93"/><circle class="cls-11" cx="208.71" cy="174.53" r="0.93"/><circle class="cls-11" cx="213.49" cy="174.53" r="0.93"/><circle class="cls-11" cx="218.28" cy="174.53" r="0.93"/><circle class="cls-11" cx="223.07" cy="174.53" r="0.93"/><circle class="cls-11" cx="189.38" cy="174.53" r="0.93"/><circle class="cls-11" cx="194.17" cy="174.53" r="0.93"/><circle class="cls-11" cx="198.96" cy="174.53" r="0.93"/><circle class="cls-11" cx="203.75" cy="174.53" r="0.93"/><circle class="cls-11" cx="244.26" cy="185.44" r="0.93"/><circle class="cls-11" cx="249.05" cy="185.44" r="0.93"/><circle class="cls-11" cx="253.84" cy="185.44" r="0.93"/><circle class="cls-11" cx="258.63" cy="185.44" r="0.93"/><circle class="cls-11" cx="224.94" cy="185.44" r="0.93"/><circle class="cls-11" cx="229.72" cy="185.44" r="0.93"/><circle class="cls-11" cx="234.51" cy="185.44" r="0.93"/><circle class="cls-11" cx="239.3" cy="185.44" r="0.93"/><circle class="cls-11" cx="246.74" cy="181.71" r="0.93"/><circle class="cls-11" cx="251.53" cy="181.71" r="0.93"/><circle class="cls-11" cx="256.32" cy="181.71" r="0.93"/><circle class="cls-11" cx="261.11" cy="181.71" r="0.93"/><circle class="cls-11" cx="227.42" cy="181.71" r="0.93"/><circle class="cls-11" cx="232.2" cy="181.71" r="0.93"/><circle class="cls-11" cx="236.99" cy="181.71" r="0.93"/><circle class="cls-11" cx="241.78" cy="181.71" r="0.93"/><circle class="cls-11" cx="244.26" cy="178.26" r="0.93"/><circle class="cls-11" cx="249.05" cy="178.26" r="0.93"/><circle class="cls-11" cx="253.84" cy="178.26" r="0.93"/><circle class="cls-11" cx="258.63" cy="178.26" r="0.93"/><circle class="cls-11" cx="224.94" cy="178.26" r="0.93"/><circle class="cls-11" cx="229.72" cy="178.26" r="0.93"/><circle class="cls-11" cx="234.51" cy="178.26" r="0.93"/><circle class="cls-11" cx="239.3" cy="178.26" r="0.93"/><circle class="cls-11" cx="246.74" cy="174.53" r="0.93"/><circle class="cls-11" cx="251.53" cy="174.53" r="0.93"/><circle class="cls-11" cx="256.32" cy="174.53" r="0.93"/><circle class="cls-11" cx="261.11" cy="174.53" r="0.93"/><circle class="cls-11" cx="227.42" cy="174.53" r="0.93"/><circle class="cls-11" cx="232.2" cy="174.53" r="0.93"/><circle class="cls-11" cx="236.99" cy="174.53" r="0.93"/><circle class="cls-11" cx="241.78" cy="174.53" r="0.93"/><circle class="cls-11" cx="129.51" cy="142.34" r="0.93"/><circle class="cls-11" cx="134.3" cy="142.34" r="0.93"/><circle class="cls-11" cx="139.09" cy="142.34" r="0.93"/><circle class="cls-11" cx="143.88" cy="142.34" r="0.93"/><circle class="cls-11" cx="110.19" cy="142.34" r="0.93"/><circle class="cls-11" cx="114.98" cy="142.34" r="0.93"/><circle class="cls-11" cx="119.76" cy="142.34" r="0.93"/><circle class="cls-11" cx="124.55" cy="142.34" r="0.93"/><circle class="cls-11" cx="131.99" cy="138.61" r="0.93"/><circle class="cls-11" cx="136.78" cy="138.61" r="0.93"/><circle class="cls-11" cx="141.57" cy="138.61" r="0.93"/><circle class="cls-11" cx="146.36" cy="138.61" r="0.93"/><circle class="cls-11" cx="112.67" cy="138.61" r="0.93"/><circle class="cls-11" cx="117.46" cy="138.61" r="0.93"/><circle class="cls-11" cx="122.24" cy="138.61" r="0.93"/><circle class="cls-11" cx="127.03" cy="138.61" r="0.93"/><circle class="cls-11" cx="129.51" cy="135.17" r="0.93"/><circle class="cls-11" cx="134.3" cy="135.17" r="0.93"/><circle class="cls-11" cx="139.09" cy="135.17" r="0.93"/><circle class="cls-11" cx="143.88" cy="135.17" r="0.93"/><circle class="cls-11" cx="110.19" cy="135.17" r="0.93"/><circle class="cls-11" cx="114.98" cy="135.17" r="0.93"/><circle class="cls-11" cx="119.76" cy="135.17" r="0.93"/><circle class="cls-11" cx="124.55" cy="135.17" r="0.93"/><circle class="cls-11" cx="131.99" cy="131.43" r="0.93"/><circle class="cls-11" cx="136.78" cy="131.43" r="0.93"/><circle class="cls-11" cx="141.57" cy="131.43" r="0.93"/><circle class="cls-11" cx="146.36" cy="131.43" r="0.93"/><circle class="cls-11" cx="112.67" cy="131.43" r="0.93"/><circle class="cls-11" cx="117.46" cy="131.43" r="0.93"/><circle class="cls-11" cx="122.24" cy="131.43" r="0.93"/><circle class="cls-11" cx="127.03" cy="131.43" r="0.93"/><circle class="cls-11" cx="167.55" cy="142.34" r="0.93"/><circle class="cls-11" cx="172.34" cy="142.34" r="0.93"/><circle class="cls-11" cx="177.13" cy="142.34" r="0.93"/><circle class="cls-11" cx="181.92" cy="142.34" r="0.93"/><circle class="cls-11" cx="148.22" cy="142.34" r="0.93"/><circle class="cls-11" cx="153.01" cy="142.34" r="0.93"/><circle class="cls-11" cx="157.8" cy="142.34" r="0.93"/><circle class="cls-11" cx="162.59" cy="142.34" r="0.93"/><circle class="cls-11" cx="170.03" cy="138.61" r="0.93"/><circle class="cls-11" cx="174.82" cy="138.61" r="0.93"/><circle class="cls-11" cx="179.61" cy="138.61" r="0.93"/><circle class="cls-11" cx="184.4" cy="138.61" r="0.93"/><circle class="cls-11" cx="150.7" cy="138.61" r="0.93"/><circle class="cls-11" cx="155.49" cy="138.61" r="0.93"/><circle class="cls-11" cx="160.28" cy="138.61" r="0.93"/><circle class="cls-11" cx="165.07" cy="138.61" r="0.93"/><circle class="cls-11" cx="167.55" cy="135.17" r="0.93"/><circle class="cls-11" cx="172.34" cy="135.17" r="0.93"/><circle class="cls-11" cx="177.13" cy="135.17" r="0.93"/><circle class="cls-11" cx="181.92" cy="135.17" r="0.93"/><circle class="cls-11" cx="148.22" cy="135.17" r="0.93"/><circle class="cls-11" cx="153.01" cy="135.17" r="0.93"/><circle class="cls-11" cx="157.8" cy="135.17" r="0.93"/><circle class="cls-11" cx="162.59" cy="135.17" r="0.93"/><circle class="cls-11" cx="170.03" cy="131.43" r="0.93"/><circle class="cls-11" cx="174.82" cy="131.43" r="0.93"/><circle class="cls-11" cx="179.61" cy="131.43" r="0.93"/><circle class="cls-11" cx="184.4" cy="131.43" r="0.93"/><circle class="cls-11" cx="150.7" cy="131.43" r="0.93"/><circle class="cls-11" cx="155.49" cy="131.43" r="0.93"/><circle class="cls-11" cx="160.28" cy="131.43" r="0.93"/><circle class="cls-11" cx="165.07" cy="131.43" r="0.93"/><circle class="cls-11" cx="206.23" cy="142.34" r="0.93"/><circle class="cls-11" cx="211.01" cy="142.34" r="0.93"/><circle class="cls-11" cx="215.8" cy="142.34" r="0.93"/><circle class="cls-11" cx="220.59" cy="142.34" r="0.93"/><circle class="cls-11" cx="186.9" cy="142.34" r="0.93"/><circle class="cls-11" cx="191.69" cy="142.34" r="0.93"/><circle class="cls-11" cx="196.48" cy="142.34" r="0.93"/><circle class="cls-11" cx="201.27" cy="142.34" r="0.93"/><circle class="cls-11" cx="208.71" cy="138.61" r="0.93"/><circle class="cls-11" cx="213.49" cy="138.61" r="0.93"/><circle class="cls-11" cx="218.28" cy="138.61" r="0.93"/><circle class="cls-11" cx="223.07" cy="138.61" r="0.93"/><circle class="cls-11" cx="189.38" cy="138.61" r="0.93"/><circle class="cls-11" cx="194.17" cy="138.61" r="0.93"/><circle class="cls-11" cx="198.96" cy="138.61" r="0.93"/><circle class="cls-11" cx="203.75" cy="138.61" r="0.93"/><circle class="cls-11" cx="206.23" cy="135.17" r="0.93"/><circle class="cls-11" cx="211.01" cy="135.17" r="0.93"/><circle class="cls-11" cx="215.8" cy="135.17" r="0.93"/><circle class="cls-11" cx="220.59" cy="135.17" r="0.93"/><circle class="cls-11" cx="186.9" cy="135.17" r="0.93"/><circle class="cls-11" cx="191.69" cy="135.17" r="0.93"/><circle class="cls-11" cx="196.48" cy="135.17" r="0.93"/><circle class="cls-11" cx="201.27" cy="135.17" r="0.93"/><circle class="cls-11" cx="208.71" cy="131.43" r="0.93"/><circle class="cls-11" cx="213.49" cy="131.43" r="0.93"/><circle class="cls-11" cx="218.28" cy="131.43" r="0.93"/><circle class="cls-11" cx="223.07" cy="131.43" r="0.93"/><circle class="cls-11" cx="189.38" cy="131.43" r="0.93"/><circle class="cls-11" cx="194.17" cy="131.43" r="0.93"/><circle class="cls-11" cx="198.96" cy="131.43" r="0.93"/><circle class="cls-11" cx="203.75" cy="131.43" r="0.93"/><circle class="cls-11" cx="244.26" cy="142.34" r="0.93"/><circle class="cls-11" cx="249.05" cy="142.34" r="0.93"/><circle class="cls-11" cx="253.84" cy="142.34" r="0.93"/><circle class="cls-11" cx="258.63" cy="142.34" r="0.93"/><circle class="cls-11" cx="224.94" cy="142.34" r="0.93"/><circle class="cls-11" cx="229.72" cy="142.34" r="0.93"/><circle class="cls-11" cx="234.51" cy="142.34" r="0.93"/><circle class="cls-11" cx="239.3" cy="142.34" r="0.93"/><circle class="cls-11" cx="246.74" cy="138.61" r="0.93"/><circle class="cls-11" cx="251.53" cy="138.61" r="0.93"/><circle class="cls-11" cx="256.32" cy="138.61" r="0.93"/><circle class="cls-11" cx="261.11" cy="138.61" r="0.93"/><circle class="cls-11" cx="227.42" cy="138.61" r="0.93"/><circle class="cls-11" cx="232.2" cy="138.61" r="0.93"/><circle class="cls-11" cx="236.99" cy="138.61" r="0.93"/><circle class="cls-11" cx="241.78" cy="138.61" r="0.93"/><circle class="cls-11" cx="244.26" cy="135.17" r="0.93"/><circle class="cls-11" cx="249.05" cy="135.17" r="0.93"/><circle class="cls-11" cx="253.84" cy="135.17" r="0.93"/><circle class="cls-11" cx="258.63" cy="135.17" r="0.93"/><circle class="cls-11" cx="224.94" cy="135.17" r="0.93"/><circle class="cls-11" cx="229.72" cy="135.17" r="0.93"/><circle class="cls-11" cx="234.51" cy="135.17" r="0.93"/><circle class="cls-11" cx="239.3" cy="135.17" r="0.93"/><circle class="cls-11" cx="246.74" cy="131.43" r="0.93"/><circle class="cls-11" cx="251.53" cy="131.43" r="0.93"/><circle class="cls-11" cx="256.32" cy="131.43" r="0.93"/><circle class="cls-11" cx="261.11" cy="131.43" r="0.93"/><circle class="cls-11" cx="227.42" cy="131.43" r="0.93"/><circle class="cls-11" cx="232.2" cy="131.43" r="0.93"/><circle class="cls-11" cx="236.99" cy="131.43" r="0.93"/><circle class="cls-11" cx="241.78" cy="131.43" r="0.93"/><circle class="cls-11" cx="129.51" cy="156.56" r="0.93"/><circle class="cls-11" cx="134.3" cy="156.56" r="0.93"/><circle class="cls-11" cx="139.09" cy="156.56" r="0.93"/><circle class="cls-11" cx="143.88" cy="156.56" r="0.93"/><circle class="cls-11" cx="110.19" cy="156.56" r="0.93"/><circle class="cls-11" cx="114.98" cy="156.56" r="0.93"/><circle class="cls-11" cx="119.76" cy="156.56" r="0.93"/><circle class="cls-11" cx="124.55" cy="156.56" r="0.93"/><circle class="cls-11" cx="131.99" cy="152.83" r="0.93"/><circle class="cls-11" cx="136.78" cy="152.83" r="0.93"/><circle class="cls-11" cx="141.57" cy="152.83" r="0.93"/><circle class="cls-11" cx="146.36" cy="152.83" r="0.93"/><circle class="cls-11" cx="112.67" cy="152.83" r="0.93"/><circle class="cls-11" cx="117.46" cy="152.83" r="0.93"/><circle class="cls-11" cx="122.24" cy="152.83" r="0.93"/><circle class="cls-11" cx="127.03" cy="152.83" r="0.93"/><circle class="cls-11" cx="129.51" cy="149.38" r="0.93"/><circle class="cls-11" cx="134.3" cy="149.38" r="0.93"/><circle class="cls-11" cx="139.09" cy="149.38" r="0.93"/><circle class="cls-11" cx="143.88" cy="149.38" r="0.93"/><circle class="cls-11" cx="110.19" cy="149.38" r="0.93"/><circle class="cls-11" cx="114.98" cy="149.38" r="0.93"/><circle class="cls-11" cx="119.76" cy="149.38" r="0.93"/><circle class="cls-11" cx="124.55" cy="149.38" r="0.93"/><circle class="cls-11" cx="131.99" cy="145.65" r="0.93"/><circle class="cls-11" cx="136.78" cy="145.65" r="0.93"/><circle class="cls-11" cx="141.57" cy="145.65" r="0.93"/><circle class="cls-11" cx="146.36" cy="145.65" r="0.93"/><circle class="cls-11" cx="112.67" cy="145.65" r="0.93"/><circle class="cls-11" cx="117.46" cy="145.65" r="0.93"/><circle class="cls-11" cx="122.24" cy="145.65" r="0.93"/><circle class="cls-11" cx="127.03" cy="145.65" r="0.93"/><circle class="cls-11" cx="167.55" cy="156.56" r="0.93"/><circle class="cls-11" cx="172.34" cy="156.56" r="0.93"/><circle class="cls-11" cx="177.13" cy="156.56" r="0.93"/><circle class="cls-11" cx="181.92" cy="156.56" r="0.93"/><circle class="cls-11" cx="148.22" cy="156.56" r="0.93"/><circle class="cls-11" cx="153.01" cy="156.56" r="0.93"/><circle class="cls-11" cx="157.8" cy="156.56" r="0.93"/><circle class="cls-11" cx="162.59" cy="156.56" r="0.93"/><circle class="cls-11" cx="170.03" cy="152.83" r="0.93"/><circle class="cls-11" cx="174.82" cy="152.83" r="0.93"/><circle class="cls-11" cx="179.61" cy="152.83" r="0.93"/><circle class="cls-11" cx="184.4" cy="152.83" r="0.93"/><circle class="cls-11" cx="150.7" cy="152.83" r="0.93"/><circle class="cls-11" cx="155.49" cy="152.83" r="0.93"/><circle class="cls-11" cx="160.28" cy="152.83" r="0.93"/><circle class="cls-11" cx="165.07" cy="152.83" r="0.93"/><circle class="cls-11" cx="167.55" cy="149.38" r="0.93"/><circle class="cls-11" cx="172.34" cy="149.38" r="0.93"/><circle class="cls-11" cx="177.13" cy="149.38" r="0.93"/><circle class="cls-11" cx="181.92" cy="149.38" r="0.93"/><circle class="cls-11" cx="148.22" cy="149.38" r="0.93"/><circle class="cls-11" cx="153.01" cy="149.38" r="0.93"/><circle class="cls-11" cx="157.8" cy="149.38" r="0.93"/><circle class="cls-11" cx="162.59" cy="149.38" r="0.93"/><circle class="cls-11" cx="170.03" cy="145.65" r="0.93"/><circle class="cls-11" cx="174.82" cy="145.65" r="0.93"/><circle class="cls-11" cx="179.61" cy="145.65" r="0.93"/><circle class="cls-11" cx="184.4" cy="145.65" r="0.93"/><circle class="cls-11" cx="150.7" cy="145.65" r="0.93"/><circle class="cls-11" cx="155.49" cy="145.65" r="0.93"/><circle class="cls-11" cx="160.28" cy="145.65" r="0.93"/><circle class="cls-11" cx="165.07" cy="145.65" r="0.93"/><circle class="cls-11" cx="206.23" cy="156.56" r="0.93"/><circle class="cls-11" cx="211.01" cy="156.56" r="0.93"/><circle class="cls-11" cx="215.8" cy="156.56" r="0.93"/><circle class="cls-11" cx="220.59" cy="156.56" r="0.93"/><circle class="cls-11" cx="186.9" cy="156.56" r="0.93"/><circle class="cls-11" cx="191.69" cy="156.56" r="0.93"/><circle class="cls-11" cx="196.48" cy="156.56" r="0.93"/><circle class="cls-11" cx="201.27" cy="156.56" r="0.93"/><circle class="cls-11" cx="208.71" cy="152.83" r="0.93"/><circle class="cls-11" cx="213.49" cy="152.83" r="0.93"/><circle class="cls-11" cx="218.28" cy="152.83" r="0.93"/><circle class="cls-11" cx="223.07" cy="152.83" r="0.93"/><circle class="cls-11" cx="189.38" cy="152.83" r="0.93"/><circle class="cls-11" cx="194.17" cy="152.83" r="0.93"/><circle class="cls-11" cx="198.96" cy="152.83" r="0.93"/><circle class="cls-11" cx="203.75" cy="152.83" r="0.93"/><circle class="cls-11" cx="206.23" cy="149.38" r="0.93"/><circle class="cls-11" cx="211.01" cy="149.38" r="0.93"/><circle class="cls-11" cx="215.8" cy="149.38" r="0.93"/><circle class="cls-11" cx="220.59" cy="149.38" r="0.93"/><circle class="cls-11" cx="186.9" cy="149.38" r="0.93"/><circle class="cls-11" cx="191.69" cy="149.38" r="0.93"/><circle class="cls-11" cx="196.48" cy="149.38" r="0.93"/><circle class="cls-11" cx="201.27" cy="149.38" r="0.93"/><circle class="cls-11" cx="208.71" cy="145.65" r="0.93"/><circle class="cls-11" cx="213.49" cy="145.65" r="0.93"/><circle class="cls-11" cx="218.28" cy="145.65" r="0.93"/><circle class="cls-11" cx="223.07" cy="145.65" r="0.93"/><circle class="cls-11" cx="189.38" cy="145.65" r="0.93"/><circle class="cls-11" cx="194.17" cy="145.65" r="0.93"/><circle class="cls-11" cx="198.96" cy="145.65" r="0.93"/><circle class="cls-11" cx="203.75" cy="145.65" r="0.93"/><circle class="cls-11" cx="244.26" cy="156.56" r="0.93"/><circle class="cls-11" cx="249.05" cy="156.56" r="0.93"/><circle class="cls-11" cx="253.84" cy="156.56" r="0.93"/><circle class="cls-11" cx="258.63" cy="156.56" r="0.93"/><circle class="cls-11" cx="224.94" cy="156.56" r="0.93"/><circle class="cls-11" cx="229.72" cy="156.56" r="0.93"/><circle class="cls-11" cx="234.51" cy="156.56" r="0.93"/><circle class="cls-11" cx="239.3" cy="156.56" r="0.93"/><circle class="cls-11" cx="246.74" cy="152.83" r="0.93"/><circle class="cls-11" cx="251.53" cy="152.83" r="0.93"/><circle class="cls-11" cx="256.32" cy="152.83" r="0.93"/><circle class="cls-11" cx="261.11" cy="152.83" r="0.93"/><circle class="cls-11" cx="227.42" cy="152.83" r="0.93"/><circle class="cls-11" cx="232.2" cy="152.83" r="0.93"/><circle class="cls-11" cx="236.99" cy="152.83" r="0.93"/><circle class="cls-11" cx="241.78" cy="152.83" r="0.93"/><circle class="cls-11" cx="244.26" cy="149.38" r="0.93"/><circle class="cls-11" cx="249.05" cy="149.38" r="0.93"/><circle class="cls-11" cx="253.84" cy="149.38" r="0.93"/><circle class="cls-11" cx="258.63" cy="149.38" r="0.93"/><circle class="cls-11" cx="224.94" cy="149.38" r="0.93"/><circle class="cls-11" cx="229.72" cy="149.38" r="0.93"/><circle class="cls-11" cx="234.51" cy="149.38" r="0.93"/><circle class="cls-11" cx="239.3" cy="149.38" r="0.93"/><circle class="cls-11" cx="246.74" cy="145.65" r="0.93"/><circle class="cls-11" cx="251.53" cy="145.65" r="0.93"/><circle class="cls-11" cx="256.32" cy="145.65" r="0.93"/><circle class="cls-11" cx="261.11" cy="145.65" r="0.93"/><circle class="cls-11" cx="227.42" cy="145.65" r="0.93"/><circle class="cls-11" cx="232.2" cy="145.65" r="0.93"/><circle class="cls-11" cx="236.99" cy="145.65" r="0.93"/><circle class="cls-11" cx="241.78" cy="145.65" r="0.93"/></g><g class="cls-20"><circle class="cls-11" cx="129.51" cy="113.34" r="0.93"/><circle class="cls-11" cx="134.3" cy="113.34" r="0.93"/><circle class="cls-11" cx="139.09" cy="113.34" r="0.93"/><circle class="cls-11" cx="143.88" cy="113.34" r="0.93"/><circle class="cls-11" cx="110.19" cy="113.34" r="0.93"/><circle class="cls-11" cx="114.98" cy="113.34" r="0.93"/><circle class="cls-11" cx="119.76" cy="113.34" r="0.93"/><circle class="cls-11" cx="124.55" cy="113.34" r="0.93"/><circle class="cls-11" cx="131.99" cy="109.61" r="0.93"/><circle class="cls-11" cx="136.78" cy="109.61" r="0.93"/><circle class="cls-11" cx="141.57" cy="109.61" r="0.93"/><circle class="cls-11" cx="146.36" cy="109.61" r="0.93"/><circle class="cls-11" cx="112.67" cy="109.61" r="0.93"/><circle class="cls-11" cx="117.46" cy="109.61" r="0.93"/><circle class="cls-11" cx="122.24" cy="109.61" r="0.93"/><circle class="cls-11" cx="127.03" cy="109.61" r="0.93"/><circle class="cls-11" cx="129.51" cy="106.16" r="0.93"/><circle class="cls-11" cx="134.3" cy="106.16" r="0.93"/><circle class="cls-11" cx="139.09" cy="106.16" r="0.93"/><circle class="cls-11" cx="143.88" cy="106.16" r="0.93"/><circle class="cls-11" cx="110.19" cy="106.16" r="0.93"/><circle class="cls-11" cx="114.98" cy="106.16" r="0.93"/><circle class="cls-11" cx="119.76" cy="106.16" r="0.93"/><circle class="cls-11" cx="124.55" cy="106.16" r="0.93"/><circle class="cls-11" cx="131.99" cy="102.43" r="0.93"/><circle class="cls-11" cx="136.78" cy="102.43" r="0.93"/><circle class="cls-11" cx="141.57" cy="102.43" r="0.93"/><circle class="cls-11" cx="146.36" cy="102.43" r="0.93"/><circle class="cls-11" cx="112.67" cy="102.43" r="0.93"/><circle class="cls-11" cx="117.46" cy="102.43" r="0.93"/><circle class="cls-11" cx="122.24" cy="102.43" r="0.93"/><circle class="cls-11" cx="127.03" cy="102.43" r="0.93"/><circle class="cls-11" cx="167.55" cy="113.34" r="0.93"/><circle class="cls-11" cx="172.34" cy="113.34" r="0.93"/><circle class="cls-11" cx="177.13" cy="113.34" r="0.93"/><circle class="cls-11" cx="181.92" cy="113.34" r="0.93"/><circle class="cls-11" cx="148.22" cy="113.34" r="0.93"/><circle class="cls-11" cx="153.01" cy="113.34" r="0.93"/><circle class="cls-11" cx="157.8" cy="113.34" r="0.93"/><circle class="cls-11" cx="162.59" cy="113.34" r="0.93"/><circle class="cls-11" cx="170.03" cy="109.61" r="0.93"/><circle class="cls-11" cx="174.82" cy="109.61" r="0.93"/><circle class="cls-11" cx="179.61" cy="109.61" r="0.93"/><circle class="cls-11" cx="184.4" cy="109.61" r="0.93"/><circle class="cls-11" cx="150.7" cy="109.61" r="0.93"/><circle class="cls-11" cx="155.49" cy="109.61" r="0.93"/><circle class="cls-11" cx="160.28" cy="109.61" r="0.93"/><circle class="cls-11" cx="165.07" cy="109.61" r="0.93"/><circle class="cls-11" cx="167.55" cy="106.16" r="0.93"/><circle class="cls-11" cx="172.34" cy="106.16" r="0.93"/><circle class="cls-11" cx="177.13" cy="106.16" r="0.93"/><circle class="cls-11" cx="181.92" cy="106.16" r="0.93"/><circle class="cls-11" cx="148.22" cy="106.16" r="0.93"/><circle class="cls-11" cx="153.01" cy="106.16" r="0.93"/><circle class="cls-11" cx="157.8" cy="106.16" r="0.93"/><circle class="cls-11" cx="162.59" cy="106.16" r="0.93"/><circle class="cls-11" cx="170.03" cy="102.43" r="0.93"/><circle class="cls-11" cx="174.82" cy="102.43" r="0.93"/><circle class="cls-11" cx="179.61" cy="102.43" r="0.93"/><circle class="cls-11" cx="184.4" cy="102.43" r="0.93"/><circle class="cls-11" cx="150.7" cy="102.43" r="0.93"/><circle class="cls-11" cx="155.49" cy="102.43" r="0.93"/><circle class="cls-11" cx="160.28" cy="102.43" r="0.93"/><circle class="cls-11" cx="165.07" cy="102.43" r="0.93"/><circle class="cls-11" cx="206.23" cy="113.34" r="0.93"/><circle class="cls-11" cx="211.01" cy="113.34" r="0.93"/><circle class="cls-11" cx="215.8" cy="113.34" r="0.93"/><circle class="cls-11" cx="220.59" cy="113.34" r="0.93"/><circle class="cls-11" cx="186.9" cy="113.34" r="0.93"/><circle class="cls-11" cx="191.69" cy="113.34" r="0.93"/><circle class="cls-11" cx="196.48" cy="113.34" r="0.93"/><circle class="cls-11" cx="201.27" cy="113.34" r="0.93"/><circle class="cls-11" cx="208.71" cy="109.61" r="0.93"/><circle class="cls-11" cx="213.49" cy="109.61" r="0.93"/><circle class="cls-11" cx="218.28" cy="109.61" r="0.93"/><circle class="cls-11" cx="223.07" cy="109.61" r="0.93"/><circle class="cls-11" cx="189.38" cy="109.61" r="0.93"/><circle class="cls-11" cx="194.17" cy="109.61" r="0.93"/><circle class="cls-11" cx="198.96" cy="109.61" r="0.93"/><circle class="cls-11" cx="203.75" cy="109.61" r="0.93"/><circle class="cls-11" cx="206.23" cy="106.16" r="0.93"/><circle class="cls-11" cx="211.01" cy="106.16" r="0.93"/><circle class="cls-11" cx="215.8" cy="106.16" r="0.93"/><circle class="cls-11" cx="220.59" cy="106.16" r="0.93"/><circle class="cls-11" cx="186.9" cy="106.16" r="0.93"/><circle class="cls-11" cx="191.69" cy="106.16" r="0.93"/><circle class="cls-11" cx="196.48" cy="106.16" r="0.93"/><circle class="cls-11" cx="201.27" cy="106.16" r="0.93"/><circle class="cls-11" cx="208.71" cy="102.43" r="0.93"/><circle class="cls-11" cx="213.49" cy="102.43" r="0.93"/><circle class="cls-11" cx="218.28" cy="102.43" r="0.93"/><circle class="cls-11" cx="223.07" cy="102.43" r="0.93"/><circle class="cls-11" cx="189.38" cy="102.43" r="0.93"/><circle class="cls-11" cx="194.17" cy="102.43" r="0.93"/><circle class="cls-11" cx="198.96" cy="102.43" r="0.93"/><circle class="cls-11" cx="203.75" cy="102.43" r="0.93"/><circle class="cls-11" cx="244.26" cy="113.34" r="0.93"/><circle class="cls-11" cx="249.05" cy="113.34" r="0.93"/><circle class="cls-11" cx="253.84" cy="113.34" r="0.93"/><circle class="cls-11" cx="258.63" cy="113.34" r="0.93"/><circle class="cls-11" cx="224.94" cy="113.34" r="0.93"/><circle class="cls-11" cx="229.72" cy="113.34" r="0.93"/><circle class="cls-11" cx="234.51" cy="113.34" r="0.93"/><circle class="cls-11" cx="239.3" cy="113.34" r="0.93"/><circle class="cls-11" cx="246.74" cy="109.61" r="0.93"/><circle class="cls-11" cx="251.53" cy="109.61" r="0.93"/><circle class="cls-11" cx="256.32" cy="109.61" r="0.93"/><circle class="cls-11" cx="261.11" cy="109.61" r="0.93"/><circle class="cls-11" cx="227.42" cy="109.61" r="0.93"/><circle class="cls-11" cx="232.2" cy="109.61" r="0.93"/><circle class="cls-11" cx="236.99" cy="109.61" r="0.93"/><circle class="cls-11" cx="241.78" cy="109.61" r="0.93"/><circle class="cls-11" cx="244.26" cy="106.16" r="0.93"/><circle class="cls-11" cx="249.05" cy="106.16" r="0.93"/><circle class="cls-11" cx="253.84" cy="106.16" r="0.93"/><circle class="cls-11" cx="258.63" cy="106.16" r="0.93"/><circle class="cls-11" cx="224.94" cy="106.16" r="0.93"/><circle class="cls-11" cx="229.72" cy="106.16" r="0.93"/><circle class="cls-11" cx="234.51" cy="106.16" r="0.93"/><circle class="cls-11" cx="239.3" cy="106.16" r="0.93"/><circle class="cls-11" cx="246.74" cy="102.43" r="0.93"/><circle class="cls-11" cx="251.53" cy="102.43" r="0.93"/><circle class="cls-11" cx="256.32" cy="102.43" r="0.93"/><circle class="cls-11" cx="261.11" cy="102.43" r="0.93"/><circle class="cls-11" cx="227.42" cy="102.43" r="0.93"/><circle class="cls-11" cx="232.2" cy="102.43" r="0.93"/><circle class="cls-11" cx="236.99" cy="102.43" r="0.93"/><circle class="cls-11" cx="241.78" cy="102.43" r="0.93"/><circle class="cls-11" cx="129.51" cy="127.56" r="0.93"/><circle class="cls-11" cx="134.3" cy="127.56" r="0.93"/><circle class="cls-11" cx="139.09" cy="127.56" r="0.93"/><circle class="cls-11" cx="143.88" cy="127.56" r="0.93"/><circle class="cls-11" cx="110.19" cy="127.56" r="0.93"/><circle class="cls-11" cx="114.98" cy="127.56" r="0.93"/><circle class="cls-11" cx="119.76" cy="127.56" r="0.93"/><circle class="cls-11" cx="124.55" cy="127.56" r="0.93"/><circle class="cls-11" cx="131.99" cy="123.82" r="0.93"/><circle class="cls-11" cx="136.78" cy="123.82" r="0.93"/><circle class="cls-11" cx="141.57" cy="123.82" r="0.93"/><circle class="cls-11" cx="146.36" cy="123.82" r="0.93"/><circle class="cls-11" cx="112.67" cy="123.82" r="0.93"/><circle class="cls-11" cx="117.46" cy="123.82" r="0.93"/><circle class="cls-11" cx="122.24" cy="123.82" r="0.93"/><circle class="cls-11" cx="127.03" cy="123.82" r="0.93"/><circle class="cls-11" cx="129.51" cy="120.38" r="0.93"/><circle class="cls-11" cx="134.3" cy="120.38" r="0.93"/><circle class="cls-11" cx="139.09" cy="120.38" r="0.93"/><circle class="cls-11" cx="143.88" cy="120.38" r="0.93"/><circle class="cls-11" cx="110.19" cy="120.38" r="0.93"/><circle class="cls-11" cx="114.98" cy="120.38" r="0.93"/><circle class="cls-11" cx="119.76" cy="120.38" r="0.93"/><circle class="cls-11" cx="124.55" cy="120.38" r="0.93"/><circle class="cls-11" cx="131.99" cy="116.65" r="0.93"/><circle class="cls-11" cx="136.78" cy="116.65" r="0.93"/><circle class="cls-11" cx="141.57" cy="116.65" r="0.93"/><circle class="cls-11" cx="146.36" cy="116.65" r="0.93"/><circle class="cls-11" cx="112.67" cy="116.65" r="0.93"/><circle class="cls-11" cx="117.46" cy="116.65" r="0.93"/><circle class="cls-11" cx="122.24" cy="116.65" r="0.93"/><circle class="cls-11" cx="127.03" cy="116.65" r="0.93"/><circle class="cls-11" cx="167.55" cy="127.56" r="0.93"/><circle class="cls-11" cx="172.34" cy="127.56" r="0.93"/><circle class="cls-11" cx="177.13" cy="127.56" r="0.93"/><circle class="cls-11" cx="181.92" cy="127.56" r="0.93"/><circle class="cls-11" cx="148.22" cy="127.56" r="0.93"/><circle class="cls-11" cx="153.01" cy="127.56" r="0.93"/><circle class="cls-11" cx="157.8" cy="127.56" r="0.93"/><circle class="cls-11" cx="162.59" cy="127.56" r="0.93"/><circle class="cls-11" cx="170.03" cy="123.82" r="0.93"/><circle class="cls-11" cx="174.82" cy="123.82" r="0.93"/><circle class="cls-11" cx="179.61" cy="123.82" r="0.93"/><circle class="cls-11" cx="184.4" cy="123.82" r="0.93"/><circle class="cls-11" cx="150.7" cy="123.82" r="0.93"/><circle class="cls-11" cx="155.49" cy="123.82" r="0.93"/><circle class="cls-11" cx="160.28" cy="123.82" r="0.93"/><circle class="cls-11" cx="165.07" cy="123.82" r="0.93"/><circle class="cls-11" cx="167.55" cy="120.38" r="0.93"/><circle class="cls-11" cx="172.34" cy="120.38" r="0.93"/><circle class="cls-11" cx="177.13" cy="120.38" r="0.93"/><circle class="cls-11" cx="181.92" cy="120.38" r="0.93"/><circle class="cls-11" cx="148.22" cy="120.38" r="0.93"/><circle class="cls-11" cx="153.01" cy="120.38" r="0.93"/><circle class="cls-11" cx="157.8" cy="120.38" r="0.93"/><circle class="cls-11" cx="162.59" cy="120.38" r="0.93"/><circle class="cls-11" cx="170.03" cy="116.65" r="0.93"/><circle class="cls-11" cx="174.82" cy="116.65" r="0.93"/><circle class="cls-11" cx="179.61" cy="116.65" r="0.93"/><circle class="cls-11" cx="184.4" cy="116.65" r="0.93"/><circle class="cls-11" cx="150.7" cy="116.65" r="0.93"/><circle class="cls-11" cx="155.49" cy="116.65" r="0.93"/><circle class="cls-11" cx="160.28" cy="116.65" r="0.93"/><circle class="cls-11" cx="165.07" cy="116.65" r="0.93"/><circle class="cls-11" cx="206.23" cy="127.56" r="0.93"/><circle class="cls-11" cx="211.01" cy="127.56" r="0.93"/><circle class="cls-11" cx="215.8" cy="127.56" r="0.93"/><circle class="cls-11" cx="220.59" cy="127.56" r="0.93"/><circle class="cls-11" cx="186.9" cy="127.56" r="0.93"/><circle class="cls-11" cx="191.69" cy="127.56" r="0.93"/><circle class="cls-11" cx="196.48" cy="127.56" r="0.93"/><circle class="cls-11" cx="201.27" cy="127.56" r="0.93"/><circle class="cls-11" cx="208.71" cy="123.82" r="0.93"/><circle class="cls-11" cx="213.49" cy="123.82" r="0.93"/><circle class="cls-11" cx="218.28" cy="123.82" r="0.93"/><circle class="cls-11" cx="223.07" cy="123.82" r="0.93"/><circle class="cls-11" cx="189.38" cy="123.82" r="0.93"/><circle class="cls-11" cx="194.17" cy="123.82" r="0.93"/><circle class="cls-11" cx="198.96" cy="123.82" r="0.93"/><circle class="cls-11" cx="203.75" cy="123.82" r="0.93"/><circle class="cls-11" cx="206.23" cy="120.38" r="0.93"/><circle class="cls-11" cx="211.01" cy="120.38" r="0.93"/><circle class="cls-11" cx="215.8" cy="120.38" r="0.93"/><circle class="cls-11" cx="220.59" cy="120.38" r="0.93"/><circle class="cls-11" cx="186.9" cy="120.38" r="0.93"/><circle class="cls-11" cx="191.69" cy="120.38" r="0.93"/><circle class="cls-11" cx="196.48" cy="120.38" r="0.93"/><circle class="cls-11" cx="201.27" cy="120.38" r="0.93"/><circle class="cls-11" cx="208.71" cy="116.65" r="0.93"/><circle class="cls-11" cx="213.49" cy="116.65" r="0.93"/><circle class="cls-11" cx="218.28" cy="116.65" r="0.93"/><circle class="cls-11" cx="223.07" cy="116.65" r="0.93"/><circle class="cls-11" cx="189.38" cy="116.65" r="0.93"/><circle class="cls-11" cx="194.17" cy="116.65" r="0.93"/><circle class="cls-11" cx="198.96" cy="116.65" r="0.93"/><circle class="cls-11" cx="203.75" cy="116.65" r="0.93"/><circle class="cls-11" cx="244.26" cy="127.56" r="0.93"/><circle class="cls-11" cx="249.05" cy="127.56" r="0.93"/><circle class="cls-11" cx="253.84" cy="127.56" r="0.93"/><circle class="cls-11" cx="258.63" cy="127.56" r="0.93"/><circle class="cls-11" cx="224.94" cy="127.56" r="0.93"/><circle class="cls-11" cx="229.72" cy="127.56" r="0.93"/><circle class="cls-11" cx="234.51" cy="127.56" r="0.93"/><circle class="cls-11" cx="239.3" cy="127.56" r="0.93"/><circle class="cls-11" cx="246.74" cy="123.82" r="0.93"/><circle class="cls-11" cx="251.53" cy="123.82" r="0.93"/><circle class="cls-11" cx="256.32" cy="123.82" r="0.93"/><circle class="cls-11" cx="261.11" cy="123.82" r="0.93"/><circle class="cls-11" cx="227.42" cy="123.82" r="0.93"/><circle class="cls-11" cx="232.2" cy="123.82" r="0.93"/><circle class="cls-11" cx="236.99" cy="123.82" r="0.93"/><circle class="cls-11" cx="241.78" cy="123.82" r="0.93"/><circle class="cls-11" cx="244.26" cy="120.38" r="0.93"/><circle class="cls-11" cx="249.05" cy="120.38" r="0.93"/><circle class="cls-11" cx="253.84" cy="120.38" r="0.93"/><circle class="cls-11" cx="258.63" cy="120.38" r="0.93"/><circle class="cls-11" cx="224.94" cy="120.38" r="0.93"/><circle class="cls-11" cx="229.72" cy="120.38" r="0.93"/><circle class="cls-11" cx="234.51" cy="120.38" r="0.93"/><circle class="cls-11" cx="239.3" cy="120.38" r="0.93"/><circle class="cls-11" cx="246.74" cy="116.65" r="0.93"/><circle class="cls-11" cx="251.53" cy="116.65" r="0.93"/><circle class="cls-11" cx="256.32" cy="116.65" r="0.93"/><circle class="cls-11" cx="261.11" cy="116.65" r="0.93"/><circle class="cls-11" cx="227.42" cy="116.65" r="0.93"/><circle class="cls-11" cx="232.2" cy="116.65" r="0.93"/><circle class="cls-11" cx="236.99" cy="116.65" r="0.93"/><circle class="cls-11" cx="241.78" cy="116.65" r="0.93"/><circle class="cls-11" cx="129.51" cy="84.46" r="0.93"/><circle class="cls-11" cx="134.3" cy="84.46" r="0.93"/><circle class="cls-11" cx="139.09" cy="84.46" r="0.93"/><circle class="cls-11" cx="143.88" cy="84.46" r="0.93"/><circle class="cls-11" cx="110.19" cy="84.46" r="0.93"/><circle class="cls-11" cx="114.98" cy="84.46" r="0.93"/><circle class="cls-11" cx="119.76" cy="84.46" r="0.93"/><circle class="cls-11" cx="124.55" cy="84.46" r="0.93"/><circle class="cls-11" cx="131.99" cy="80.73" r="0.93"/><circle class="cls-11" cx="136.78" cy="80.73" r="0.93"/><circle class="cls-11" cx="141.57" cy="80.73" r="0.93"/><circle class="cls-11" cx="146.36" cy="80.73" r="0.93"/><circle class="cls-11" cx="112.67" cy="80.73" r="0.93"/><circle class="cls-11" cx="117.46" cy="80.73" r="0.93"/><circle class="cls-11" cx="122.24" cy="80.73" r="0.93"/><circle class="cls-11" cx="127.03" cy="80.73" r="0.93"/><circle class="cls-11" cx="129.51" cy="77.28" r="0.93"/><circle class="cls-11" cx="134.3" cy="77.28" r="0.93"/><circle class="cls-11" cx="139.09" cy="77.28" r="0.93"/><circle class="cls-11" cx="143.88" cy="77.28" r="0.93"/><circle class="cls-11" cx="110.19" cy="77.28" r="0.93"/><circle class="cls-11" cx="114.98" cy="77.28" r="0.93"/><circle class="cls-11" cx="119.76" cy="77.28" r="0.93"/><circle class="cls-11" cx="124.55" cy="77.28" r="0.93"/><circle class="cls-11" cx="131.99" cy="73.55" r="0.93"/><circle class="cls-11" cx="136.78" cy="73.55" r="0.93"/><circle class="cls-11" cx="141.57" cy="73.55" r="0.93"/><circle class="cls-11" cx="146.36" cy="73.55" r="0.93"/><circle class="cls-11" cx="112.67" cy="73.55" r="0.93"/><circle class="cls-11" cx="117.46" cy="73.55" r="0.93"/><circle class="cls-11" cx="122.24" cy="73.55" r="0.93"/><circle class="cls-11" cx="127.03" cy="73.55" r="0.93"/><circle class="cls-11" cx="167.55" cy="84.46" r="0.93"/><circle class="cls-11" cx="172.34" cy="84.46" r="0.93"/><circle class="cls-11" cx="177.13" cy="84.46" r="0.93"/><circle class="cls-11" cx="181.92" cy="84.46" r="0.93"/><circle class="cls-11" cx="148.22" cy="84.46" r="0.93"/><circle class="cls-11" cx="153.01" cy="84.46" r="0.93"/><circle class="cls-11" cx="157.8" cy="84.46" r="0.93"/><circle class="cls-11" cx="162.59" cy="84.46" r="0.93"/><circle class="cls-11" cx="170.03" cy="80.73" r="0.93"/><circle class="cls-11" cx="174.82" cy="80.73" r="0.93"/><circle class="cls-11" cx="179.61" cy="80.73" r="0.93"/><circle class="cls-11" cx="184.4" cy="80.73" r="0.93"/><circle class="cls-11" cx="150.7" cy="80.73" r="0.93"/><circle class="cls-11" cx="155.49" cy="80.73" r="0.93"/><circle class="cls-11" cx="160.28" cy="80.73" r="0.93"/><circle class="cls-11" cx="165.07" cy="80.73" r="0.93"/><circle class="cls-11" cx="167.55" cy="77.28" r="0.93"/><circle class="cls-11" cx="172.34" cy="77.28" r="0.93"/><circle class="cls-11" cx="177.13" cy="77.28" r="0.93"/><circle class="cls-11" cx="181.92" cy="77.28" r="0.93"/><circle class="cls-11" cx="148.22" cy="77.28" r="0.93"/><circle class="cls-11" cx="153.01" cy="77.28" r="0.93"/><circle class="cls-11" cx="157.8" cy="77.28" r="0.93"/><circle class="cls-11" cx="162.59" cy="77.28" r="0.93"/><circle class="cls-11" cx="170.03" cy="73.55" r="0.93"/><circle class="cls-11" cx="174.82" cy="73.55" r="0.93"/><circle class="cls-11" cx="179.61" cy="73.55" r="0.93"/><circle class="cls-11" cx="184.4" cy="73.55" r="0.93"/><circle class="cls-11" cx="150.7" cy="73.55" r="0.93"/><circle class="cls-11" cx="155.49" cy="73.55" r="0.93"/><circle class="cls-11" cx="160.28" cy="73.55" r="0.93"/><circle class="cls-11" cx="165.07" cy="73.55" r="0.93"/><circle class="cls-11" cx="206.23" cy="84.46" r="0.93"/><circle class="cls-11" cx="211.01" cy="84.46" r="0.93"/><circle class="cls-11" cx="215.8" cy="84.46" r="0.93"/><circle class="cls-11" cx="220.59" cy="84.46" r="0.93"/><circle class="cls-11" cx="186.9" cy="84.46" r="0.93"/><circle class="cls-11" cx="191.69" cy="84.46" r="0.93"/><circle class="cls-11" cx="196.48" cy="84.46" r="0.93"/><circle class="cls-11" cx="201.27" cy="84.46" r="0.93"/><circle class="cls-11" cx="208.71" cy="80.73" r="0.93"/><circle class="cls-11" cx="213.49" cy="80.73" r="0.93"/><circle class="cls-11" cx="218.28" cy="80.73" r="0.93"/><circle class="cls-11" cx="223.07" cy="80.73" r="0.93"/><circle class="cls-11" cx="189.38" cy="80.73" r="0.93"/><circle class="cls-11" cx="194.17" cy="80.73" r="0.93"/><circle class="cls-11" cx="198.96" cy="80.73" r="0.93"/><circle class="cls-11" cx="203.75" cy="80.73" r="0.93"/><circle class="cls-11" cx="206.23" cy="77.28" r="0.93"/><circle class="cls-11" cx="211.01" cy="77.28" r="0.93"/><circle class="cls-11" cx="215.8" cy="77.28" r="0.93"/><circle class="cls-11" cx="220.59" cy="77.28" r="0.93"/><circle class="cls-11" cx="186.9" cy="77.28" r="0.93"/><circle class="cls-11" cx="191.69" cy="77.28" r="0.93"/><circle class="cls-11" cx="196.48" cy="77.28" r="0.93"/><circle class="cls-11" cx="201.27" cy="77.28" r="0.93"/><circle class="cls-11" cx="208.71" cy="73.55" r="0.93"/><circle class="cls-11" cx="213.49" cy="73.55" r="0.93"/><circle class="cls-11" cx="218.28" cy="73.55" r="0.93"/><circle class="cls-11" cx="223.07" cy="73.55" r="0.93"/><circle class="cls-11" cx="189.38" cy="73.55" r="0.93"/><circle class="cls-11" cx="194.17" cy="73.55" r="0.93"/><circle class="cls-11" cx="198.96" cy="73.55" r="0.93"/><circle class="cls-11" cx="203.75" cy="73.55" r="0.93"/><circle class="cls-11" cx="244.26" cy="84.46" r="0.93"/><circle class="cls-11" cx="249.05" cy="84.46" r="0.93"/><circle class="cls-11" cx="253.84" cy="84.46" r="0.93"/><circle class="cls-11" cx="258.63" cy="84.46" r="0.93"/><circle class="cls-11" cx="224.94" cy="84.46" r="0.93"/><circle class="cls-11" cx="229.72" cy="84.46" r="0.93"/><circle class="cls-11" cx="234.51" cy="84.46" r="0.93"/><circle class="cls-11" cx="239.3" cy="84.46" r="0.93"/><circle class="cls-11" cx="246.74" cy="80.73" r="0.93"/><circle class="cls-11" cx="251.53" cy="80.73" r="0.93"/><circle class="cls-11" cx="256.32" cy="80.73" r="0.93"/><circle class="cls-11" cx="261.11" cy="80.73" r="0.93"/><circle class="cls-11" cx="227.42" cy="80.73" r="0.93"/><circle class="cls-11" cx="232.2" cy="80.73" r="0.93"/><circle class="cls-11" cx="236.99" cy="80.73" r="0.93"/><circle class="cls-11" cx="241.78" cy="80.73" r="0.93"/><circle class="cls-11" cx="244.26" cy="77.28" r="0.93"/><circle class="cls-11" cx="249.05" cy="77.28" r="0.93"/><circle class="cls-11" cx="253.84" cy="77.28" r="0.93"/><circle class="cls-11" cx="258.63" cy="77.28" r="0.93"/><circle class="cls-11" cx="224.94" cy="77.28" r="0.93"/><circle class="cls-11" cx="229.72" cy="77.28" r="0.93"/><circle class="cls-11" cx="234.51" cy="77.28" r="0.93"/><circle class="cls-11" cx="239.3" cy="77.28" r="0.93"/><circle class="cls-11" cx="246.74" cy="73.55" r="0.93"/><circle class="cls-11" cx="251.53" cy="73.55" r="0.93"/><circle class="cls-11" cx="256.32" cy="73.55" r="0.93"/><circle class="cls-11" cx="261.11" cy="73.55" r="0.93"/><circle class="cls-11" cx="227.42" cy="73.55" r="0.93"/><circle class="cls-11" cx="232.2" cy="73.55" r="0.93"/><circle class="cls-11" cx="236.99" cy="73.55" r="0.93"/><circle class="cls-11" cx="241.78" cy="73.55" r="0.93"/><circle class="cls-11" cx="129.51" cy="98.68" r="0.93"/><circle class="cls-11" cx="134.3" cy="98.68" r="0.93"/><circle class="cls-11" cx="139.09" cy="98.68" r="0.93"/><circle class="cls-11" cx="143.88" cy="98.68" r="0.93"/><circle class="cls-11" cx="110.19" cy="98.68" r="0.93"/><circle class="cls-11" cx="114.98" cy="98.68" r="0.93"/><circle class="cls-11" cx="119.76" cy="98.68" r="0.93"/><circle class="cls-11" cx="124.55" cy="98.68" r="0.93"/><circle class="cls-11" cx="131.99" cy="94.95" r="0.93"/><circle class="cls-11" cx="136.78" cy="94.95" r="0.93"/><circle class="cls-11" cx="141.57" cy="94.95" r="0.93"/><circle class="cls-11" cx="146.36" cy="94.95" r="0.93"/><circle class="cls-11" cx="112.67" cy="94.95" r="0.93"/><circle class="cls-11" cx="117.46" cy="94.95" r="0.93"/><circle class="cls-11" cx="122.24" cy="94.95" r="0.93"/><circle class="cls-11" cx="127.03" cy="94.95" r="0.93"/><circle class="cls-11" cx="129.51" cy="91.5" r="0.93"/><circle class="cls-11" cx="134.3" cy="91.5" r="0.93"/><circle class="cls-11" cx="139.09" cy="91.5" r="0.93"/><circle class="cls-11" cx="143.88" cy="91.5" r="0.93"/><circle class="cls-11" cx="110.19" cy="91.5" r="0.93"/><circle class="cls-11" cx="114.98" cy="91.5" r="0.93"/><circle class="cls-11" cx="119.76" cy="91.5" r="0.93"/><circle class="cls-11" cx="124.55" cy="91.5" r="0.93"/><circle class="cls-11" cx="131.99" cy="87.77" r="0.93"/><circle class="cls-11" cx="136.78" cy="87.77" r="0.93"/><circle class="cls-11" cx="141.57" cy="87.77" r="0.93"/><circle class="cls-11" cx="146.36" cy="87.77" r="0.93"/><circle class="cls-11" cx="112.67" cy="87.77" r="0.93"/><circle class="cls-11" cx="117.46" cy="87.77" r="0.93"/><circle class="cls-11" cx="122.24" cy="87.77" r="0.93"/><circle class="cls-11" cx="127.03" cy="87.77" r="0.93"/><circle class="cls-11" cx="167.55" cy="98.68" r="0.93"/><circle class="cls-11" cx="172.34" cy="98.68" r="0.93"/><circle class="cls-11" cx="177.13" cy="98.68" r="0.93"/><circle class="cls-11" cx="181.92" cy="98.68" r="0.93"/><circle class="cls-11" cx="148.22" cy="98.68" r="0.93"/><circle class="cls-11" cx="153.01" cy="98.68" r="0.93"/><circle class="cls-11" cx="157.8" cy="98.68" r="0.93"/><circle class="cls-11" cx="162.59" cy="98.68" r="0.93"/><circle class="cls-11" cx="170.03" cy="94.95" r="0.93"/><circle class="cls-11" cx="174.82" cy="94.95" r="0.93"/><circle class="cls-11" cx="179.61" cy="94.95" r="0.93"/><circle class="cls-11" cx="184.4" cy="94.95" r="0.93"/><circle class="cls-11" cx="150.7" cy="94.95" r="0.93"/><circle class="cls-11" cx="155.49" cy="94.95" r="0.93"/><circle class="cls-11" cx="160.28" cy="94.95" r="0.93"/><circle class="cls-11" cx="165.07" cy="94.95" r="0.93"/><circle class="cls-11" cx="167.55" cy="91.5" r="0.93"/><circle class="cls-11" cx="172.34" cy="91.5" r="0.93"/><circle class="cls-11" cx="177.13" cy="91.5" r="0.93"/><circle class="cls-11" cx="181.92" cy="91.5" r="0.93"/><circle class="cls-11" cx="148.22" cy="91.5" r="0.93"/><circle class="cls-11" cx="153.01" cy="91.5" r="0.93"/><circle class="cls-11" cx="157.8" cy="91.5" r="0.93"/><circle class="cls-11" cx="162.59" cy="91.5" r="0.93"/><circle class="cls-11" cx="170.03" cy="87.77" r="0.93"/><circle class="cls-11" cx="174.82" cy="87.77" r="0.93"/><circle class="cls-11" cx="179.61" cy="87.77" r="0.93"/><circle class="cls-11" cx="184.4" cy="87.77" r="0.93"/><circle class="cls-11" cx="150.7" cy="87.77" r="0.93"/><circle class="cls-11" cx="155.49" cy="87.77" r="0.93"/><circle class="cls-11" cx="160.28" cy="87.77" r="0.93"/><circle class="cls-11" cx="165.07" cy="87.77" r="0.93"/><circle class="cls-11" cx="206.23" cy="98.68" r="0.93"/><circle class="cls-11" cx="211.01" cy="98.68" r="0.93"/><circle class="cls-11" cx="215.8" cy="98.68" r="0.93"/><circle class="cls-11" cx="220.59" cy="98.68" r="0.93"/><circle class="cls-11" cx="186.9" cy="98.68" r="0.93"/><circle class="cls-11" cx="191.69" cy="98.68" r="0.93"/><circle class="cls-11" cx="196.48" cy="98.68" r="0.93"/><circle class="cls-11" cx="201.27" cy="98.68" r="0.93"/><circle class="cls-11" cx="208.71" cy="94.95" r="0.93"/><circle class="cls-11" cx="213.49" cy="94.95" r="0.93"/><circle class="cls-11" cx="218.28" cy="94.95" r="0.93"/><circle class="cls-11" cx="223.07" cy="94.95" r="0.93"/><circle class="cls-11" cx="189.38" cy="94.95" r="0.93"/><circle class="cls-11" cx="194.17" cy="94.95" r="0.93"/><circle class="cls-11" cx="198.96" cy="94.95" r="0.93"/><circle class="cls-11" cx="203.75" cy="94.95" r="0.93"/><circle class="cls-11" cx="206.23" cy="91.5" r="0.93"/><circle class="cls-11" cx="211.01" cy="91.5" r="0.93"/><circle class="cls-11" cx="215.8" cy="91.5" r="0.93"/><circle class="cls-11" cx="220.59" cy="91.5" r="0.93"/><circle class="cls-11" cx="186.9" cy="91.5" r="0.93"/><circle class="cls-11" cx="191.69" cy="91.5" r="0.93"/><circle class="cls-11" cx="196.48" cy="91.5" r="0.93"/><circle class="cls-11" cx="201.27" cy="91.5" r="0.93"/><circle class="cls-11" cx="208.71" cy="87.77" r="0.93"/><circle class="cls-11" cx="213.49" cy="87.77" r="0.93"/><circle class="cls-11" cx="218.28" cy="87.77" r="0.93"/><circle class="cls-11" cx="223.07" cy="87.77" r="0.93"/><circle class="cls-11" cx="189.38" cy="87.77" r="0.93"/><circle class="cls-11" cx="194.17" cy="87.77" r="0.93"/><circle class="cls-11" cx="198.96" cy="87.77" r="0.93"/><circle class="cls-11" cx="203.75" cy="87.77" r="0.93"/><circle class="cls-11" cx="244.26" cy="98.68" r="0.93"/><circle class="cls-11" cx="249.05" cy="98.68" r="0.93"/><circle class="cls-11" cx="253.84" cy="98.68" r="0.93"/><circle class="cls-11" cx="258.63" cy="98.68" r="0.93"/><circle class="cls-11" cx="224.94" cy="98.68" r="0.93"/><circle class="cls-11" cx="229.72" cy="98.68" r="0.93"/><circle class="cls-11" cx="234.51" cy="98.68" r="0.93"/><circle class="cls-11" cx="239.3" cy="98.68" r="0.93"/><circle class="cls-11" cx="246.74" cy="94.95" r="0.93"/><circle class="cls-11" cx="251.53" cy="94.95" r="0.93"/><circle class="cls-11" cx="256.32" cy="94.95" r="0.93"/><circle class="cls-11" cx="261.11" cy="94.95" r="0.93"/><circle class="cls-11" cx="227.42" cy="94.95" r="0.93"/><circle class="cls-11" cx="232.2" cy="94.95" r="0.93"/><circle class="cls-11" cx="236.99" cy="94.95" r="0.93"/><circle class="cls-11" cx="241.78" cy="94.95" r="0.93"/><circle class="cls-11" cx="244.26" cy="91.5" r="0.93"/><circle class="cls-11" cx="249.05" cy="91.5" r="0.93"/><circle class="cls-11" cx="253.84" cy="91.5" r="0.93"/><circle class="cls-11" cx="258.63" cy="91.5" r="0.93"/><circle class="cls-11" cx="224.94" cy="91.5" r="0.93"/><circle class="cls-11" cx="229.72" cy="91.5" r="0.93"/><circle class="cls-11" cx="234.51" cy="91.5" r="0.93"/><circle class="cls-11" cx="239.3" cy="91.5" r="0.93"/><circle class="cls-11" cx="246.74" cy="87.77" r="0.93"/><circle class="cls-11" cx="251.53" cy="87.77" r="0.93"/><circle class="cls-11" cx="256.32" cy="87.77" r="0.93"/><circle class="cls-11" cx="261.11" cy="87.77" r="0.93"/><circle class="cls-11" cx="227.42" cy="87.77" r="0.93"/><circle class="cls-11" cx="232.2" cy="87.77" r="0.93"/><circle class="cls-11" cx="236.99" cy="87.77" r="0.93"/><circle class="cls-11" cx="241.78" cy="87.77" r="0.93"/></g></g><rect class="cls-1" x="105.12" y="94.95" width="102.1" height="20.35"/><polygon class="cls-5" points="108.22 115.3 111.8 119.44 205.07 119.44 205.07 115.3 108.22 115.3"/><path class="cls-17" d="M161.33,94.65s-3.16-.38-7.88-1c-12.52-1.72-36-5.32-40.17-8.66-6.61-5.24,9.06-27.47,15.84-30.56S161.33,94.65,161.33,94.65Z"/><path class="cls-17" d="M207.85,67c1.13,5.51-50.07,29.31-50.07,29.31s.93-2.52,2.45-6.46h0c5.54-14.4,18.87-47.83,23.25-47.37A5.31,5.31,0,0,1,185,43C191.75,45.92,206.81,62,207.85,67Z"/><path class="cls-21" d="M184.05,47.57c-3,5.25-23.1,40.07-23.42,40.61C166,74.26,178.77,41.94,183,42.39a2.68,2.68,0,0,1,1.47.44C185.23,43.4,185.71,44.67,184.05,47.57Z"/><path class="cls-21" d="M153.46,93.62h0c-12.52-1.72-36-5.32-40.17-8.66-1.9-5.35,3-5.79,6.62-6.16S153.46,93.62,153.46,93.62Z"/><path class="cls-21" d="M151.25,94.95s.42-3.81,2.39-5.81c3-3.06,7.06-2.07,8.66-1.42,4.27,1.74,3.75,7.23,3.75,7.23Z"/><rect class="cls-17" x="151.25" y="94.95" width="14.81" height="93.15"/><path class="cls-21" d="M153.46,93.62s-22.58.88-30.14,13.94c-8.13,14,4.82,34.78,4.82,34.78l5.13-4.72,6.44.37s-13.12-20.35-5.54-31.48c6.14-9,20.35-11.77,20.35-11.77Z"/><path class="cls-21" d="M162.94,92.83s17,11,31.28,5.37a11.68,11.68,0,0,1-2.58,3.66s3.2,2.35,4.59,2.08a34.4,34.4,0,0,1-17.65,2.66c-10.42-1-17.24-11.92-17.24-11.92Z"/><path class="cls-8" d="M270.56,187.63a12.84,12.84,0,0,1,.88-3.29c.61-1.23,4.52-.45,4.52-.45s.78.67.95,3.8Z"/><path class="cls-8" d="M257.25,187.6c.92-.56.4-4.74.4-4.74s-4.28-3.42-4.87-.8-4.06,3.8-6,4.12a2.12,2.12,0,0,0-1.92,1.43Z"/><path class="cls-1" d="M266.11,157.2a19.74,19.74,0,0,0-.31,2.31c-.4,7.76-6.53,25.49-7.63,25.9-1.7.64-4.37-.72-5.77-1.17a1.2,1.2,0,0,1-.84-1.36c3-14,4.15-34.06,4.56-46a54,54,0,0,1,1.23-10.13s15-4,15,1.06C272.48,132.31,267.44,149.83,266.11,157.2Z"/><path class="cls-5" d="M266.11,157.2l-10-20.27a54,54,0,0,1,1.23-10.13s15-4,15,1.06C272.48,132.31,267.44,149.83,266.11,157.2Z"/><path class="cls-1" d="M262.78,127.87l7.91,57.29a15.47,15.47,0,0,0,6.17.17s2.31-30.47,2.12-37.84,1.66-19.71-.42-21.07S262.78,127.87,262.78,127.87Z"/><path class="cls-13" d="M279.11,113.16v0l1,13.76a1.1,1.1,0,0,1-.79,1.13c-1.1.32-2.37.54-4.83,1.05a46.81,46.81,0,0,1-9.21.93c-6.06,0-8.35-2-8.35-2-.26,0,.14-1.26.5-7.29.12-2,.24-4.63.32-7.9.08-2.94.13-6.44.13-10.58,0-5,7.73-10.36,7.87-10.36h0c0,.72,1.13,2,2.88,2.16,2.07.14,4.61-.89,4.61-2.09a43.6,43.6,0,0,1,5.07,12.37Z"/><path class="cls-13" d="M265.75,91.85s-6.17,1-8.65,4.26c-1.8,2.37-5.78,13.56-3.8,17.9s5.68-1.79,7.73-4.45S265.75,91.85,265.75,91.85Z"/><path class="cls-9" d="M265.68,90.75v.74s-.2,2.32,2.66,2.66,5-.91,4.95-2.7a21,21,0,0,1-.56-3.49,8.08,8.08,0,0,1,.1-1.39l-5.54-.11-1.63.27Z"/><path class="cls-22" d="M265.65,86.73l0,4a4.68,4.68,0,0,0,2,.44A6.18,6.18,0,0,0,272.72,88a8.08,8.08,0,0,1,.1-1.39l-5.54-.11Z"/><path class="cls-9" d="M273.25,85.69c-.64,3.46-5.11,3.34-7,3.13-.54-.06-.88-.13-.88-.13-.61-.16-1-1.13-1.11-2.39a19.66,19.66,0,0,1,.5-7.1c.64-1.41,1.83-2.94,6.33-1.84S274.07,81.26,273.25,85.69Z"/><path class="cls-13" d="M278.92,107.32c-2.17,2.61-5,4.74-8.12,5.24h0a5.82,5.82,0,0,1-.77-3.48,7,7,0,0,1,1.14-3.2,7.1,7.1,0,0,0,.61-1.24c1.7-4.35,1.45-12.73,1.45-12.73s7.24.76,9.49,4C284.11,97.87,282.34,103.2,278.92,107.32Z"/><path class="cls-23" d="M277.58,101.52s2.08,13.25-8.78,15.74.59,6.35,1.21,7.79,9.84-2.29,10.36-5.62,3.34-7.34,3.4-7.59-.58-10.25-.58-10.25Z"/><path class="cls-13" d="M283,96.44s6.53,14.53,2.39,20.2c0,0-5.76,3.35-6.11-1.18s-3.74-18.33-1.91-19.56S283,96.44,283,96.44Z"/><path class="cls-5" d="M248.3,116.23s9.87,7.25,16.24,6.9,9.71-3,2.76-23Z"/><path class="cls-1" d="M257.7,96.32s-5-.59-7.11,1.82-4.8,3.81-5.75,6.16.35,5,.44,7.35a6,6,0,0,0,4.41,5.12c2.13.44,4.13,2.09,7.19,1.92s5.83-3.56,8.54-4.09,4.54-4.16,3.93-7.51-1.31-7.67-3.93-8.63S259.22,96.88,257.7,96.32Z"/><path class="cls-24" d="M257.48,97s-4.71-.55-6.67,1.71-4.5,3.57-5.4,5.78.33,4.71.41,6.9a5.62,5.62,0,0,0,4.14,4.81c2,.41,3.88,2,6.74,1.8s5.48-3.34,8-3.84,4.26-3.9,3.69-7.05-1.23-7.2-3.69-8.1S258.91,97.55,257.48,97Z"/><path class="cls-24" d="M260.22,100a2.5,2.5,0,0,1-2.91,1.65,2.41,2.41,0,0,1-1.65-2.91,7.47,7.47,0,0,1,3.85-5.11A5.83,5.83,0,0,1,260.22,100Z"/><path class="cls-25" d="M250.69,113.5c1-.74,2.1-1,2.59-.49s.08,1.64-.84,2.5a9.84,9.84,0,0,1-5.18,2.75S247.43,115.9,250.69,113.5Z"/><path class="cls-26" d="M266.72,108.81a2.5,2.5,0,0,1-3.34-.2,2.41,2.41,0,0,1,.2-3.34,7.47,7.47,0,0,1,6-2.17A5.83,5.83,0,0,1,266.72,108.81Z"/><path class="cls-26" d="M253.2,110.78a2.94,2.94,0,0,1,3.7-1.35,2.83,2.83,0,0,1,1.35,3.7,8.8,8.8,0,0,1-5.48,5.17A6.87,6.87,0,0,1,253.2,110.78Z"/><path class="cls-25" d="M249.22,106.67a3.16,3.16,0,0,1,.45,4.2,3,3,0,0,1-4.2.45,9.45,9.45,0,0,1-4-7A7.38,7.38,0,0,1,249.22,106.67Z"/><path class="cls-25" d="M253.09,106.09a2.9,2.9,0,0,1-1.46,3.59,2.79,2.79,0,0,1-3.59-1.46,8.66,8.66,0,0,1-.15-7.41A6.76,6.76,0,0,1,253.09,106.09Z"/><path class="cls-11" d="M248.64,106.74a.82.82,0,0,1,1.63,0c0,.45-.37,2.33-.82,2.33S248.64,107.19,248.64,106.74Z"/><path class="cls-11" d="M247.6,107.42a.82.82,0,1,0-1,1.3c.36.27,2.08,1.11,2.35.75S248,107.69,247.6,107.42Z"/><path class="cls-11" d="M250.32,112.66a.82.82,0,1,1-1.63,0c0-.45.37-2.33.82-2.33S250.32,112.21,250.32,112.66Z"/><path class="cls-11" d="M247.37,111.87a.82.82,0,0,1-.87-1.39c.38-.24,2.17-.92,2.41-.54S247.75,111.63,247.37,111.87Z"/><path class="cls-11" d="M251.45,107.42a.82.82,0,0,1,1,1.3c-.36.27-2.08,1.11-2.35.75S251.09,107.69,251.45,107.42Z"/><path class="cls-11" d="M251.68,111.87a.82.82,0,1,0,.87-1.39c-.38-.24-2.17-.92-2.41-.54S251.29,111.63,251.68,111.87Z"/><circle class="cls-11" cx="249.5" cy="109.7" r="0.63"/><path class="cls-25" d="M256.51,99a2.5,2.5,0,0,1-2.23,2.49,2.41,2.41,0,0,1-2.49-2.23,7.47,7.47,0,0,1,2-6.07A5.83,5.83,0,0,1,256.51,99Z"/><path class="cls-24" d="M259,115.18a1.84,1.84,0,0,1,.78-2.33,1.77,1.77,0,0,1,2.33.78,5.48,5.48,0,0,1,.4,4.68A4.28,4.28,0,0,1,259,115.18Z"/><path class="cls-25" d="M260.88,114.35a2.5,2.5,0,0,1,0-3.34,2.41,2.41,0,0,1,3.34,0,7.47,7.47,0,0,1,2.55,5.87A5.83,5.83,0,0,1,260.88,114.35Z"/><path class="cls-25" d="M256.28,116.59a1.41,1.41,0,0,1,1.8-.55,1.35,1.35,0,0,1,.55,1.8,4.2,4.2,0,0,1-2.75,2.32A3.28,3.28,0,0,1,256.28,116.59Z"/><path class="cls-11" d="M257,110.65a.82.82,0,1,1,1.63,0c0,.45-.37,2.33-.82,2.33S257,111.1,257,110.65Z"/><path class="cls-11" d="M255.91,111.34a.82.82,0,1,0-1,1.3c.36.27,2.08,1.11,2.35.75S256.27,111.61,255.91,111.34Z"/><path class="cls-11" d="M258.63,116.57a.82.82,0,1,1-1.63,0c0-.45.37-2.33.82-2.33S258.63,116.12,258.63,116.57Z"/><path class="cls-11" d="M255.68,115.79a.82.82,0,0,1-.87-1.39c.38-.24,2.17-.92,2.41-.54S256.06,115.55,255.68,115.79Z"/><path class="cls-11" d="M259.76,111.34a.82.82,0,0,1,1,1.3c-.36.27-2.08,1.11-2.35.75S259.4,111.61,259.76,111.34Z"/><path class="cls-11" d="M260,115.79a.82.82,0,0,0,.87-1.39c-.38-.24-2.17-.92-2.41-.54S259.6,115.55,260,115.79Z"/><circle class="cls-11" cx="257.81" cy="113.61" r="0.63"/><path class="cls-11" d="M263.76,105.54a.82.82,0,1,1,1.62.22c-.06.45-.68,2.26-1.13,2.2S263.7,106,263.76,105.54Z"/><path class="cls-11" d="M262.63,106.07a.82.82,0,1,0-1.15,1.16c.32.32,1.91,1.38,2.23,1.06S263,106.39,262.63,106.07Z"/><path class="cls-11" d="M264.62,111.63a.82.82,0,0,1-1.62-.22c.06-.45.68-2.26,1.13-2.2S264.68,111.18,264.62,111.63Z"/><path class="cls-11" d="M261.8,110.45a.82.82,0,0,1-.67-1.49c.41-.18,2.28-.62,2.46-.21S262.21,110.26,261.8,110.45Z"/><path class="cls-11" d="M266.45,106.59a.82.82,0,0,1,.8,1.43c-.39.22-2.21.82-2.43.42S266.05,106.81,266.45,106.59Z"/><path class="cls-11" d="M266.07,111a.82.82,0,1,0,1-1.25c-.35-.29-2-1.21-2.31-.87S265.72,110.75,266.07,111Z"/><circle class="cls-11" cx="264.21" cy="108.59" r="0.63" transform="translate(120.59 355.51) rotate(-82.16)"/><path class="cls-11" d="M257.32,102.9a.82.82,0,0,1,1.48.69c-.19.41-1.32,2-1.72,1.77S257.13,103.31,257.32,102.9Z"/><path class="cls-11" d="M256.08,103.08a.82.82,0,0,0-1.44.77c.21.4,1.42,1.89,1.82,1.67S256.3,103.48,256.08,103.08Z"/><path class="cls-11" d="M256.34,109a.82.82,0,1,1-1.48-.69c.19-.41,1.32-2,1.72-1.77S256.53,108.57,256.34,109Z"/><path class="cls-11" d="M254,107a.82.82,0,0,1-.2-1.62c.45-.06,2.36.08,2.41.53S254.45,107,254,107Z"/><path class="cls-11" d="M259.57,104.7a.82.82,0,1,1,.34,1.6c-.44.09-2.35.13-2.45-.31S259.13,104.8,259.57,104.7Z"/><path class="cls-11" d="M257.9,108.84a.82.82,0,1,0,1.37-.89c-.25-.38-1.58-1.75-2-1.51S257.66,108.46,257.9,108.84Z"/><circle class="cls-11" cx="256.85" cy="105.95" r="0.63" transform="translate(52.37 294.06) rotate(-65.03)"/><path class="cls-11" d="M262.88,99.36a.62.62,0,1,1,1.13.53c-.15.31-1,1.5-1.32,1.35S262.74,99.68,262.88,99.36Z"/><path class="cls-11" d="M261.94,99.5a.62.62,0,0,0-1.1.59c.16.3,1.08,1.44,1.39,1.28S262.1,99.8,261.94,99.5Z"/><path class="cls-11" d="M262.13,104a.62.62,0,1,1-1.13-.53c.15-.31,1-1.5,1.32-1.35S262.28,103.69,262.13,104Z"/><path class="cls-11" d="M260.34,102.51a.62.62,0,0,1-.15-1.24c.34,0,1.8.06,1.85.4S260.68,102.47,260.34,102.51Z"/><path class="cls-11" d="M264.61,100.74a.62.62,0,0,1,.26,1.22c-.34.07-1.8.1-1.87-.24S264.27,100.81,264.61,100.74Z"/><path class="cls-11" d="M263.33,103.9a.62.62,0,0,0,1-.68c-.19-.29-1.21-1.34-1.49-1.15S263.14,103.61,263.33,103.9Z"/><circle class="cls-11" cx="262.52" cy="101.69" r="0.48" transform="translate(59.49 296.73) rotate(-65.02)"/><path class="cls-11" d="M251.87,100.77a.62.62,0,0,1,.88.89c-.24.24-1.46,1.06-1.7.81S251.63,101,251.87,100.77Z"/><path class="cls-11" d="M250.94,100.57a.62.62,0,0,0-1.24.17c0,.34.52,1.73.86,1.68S251,100.91,250.94,100.57Z"/><path class="cls-11" d="M249.57,104.87a.62.62,0,1,1-.88-.89c.24-.24,1.46-1.06,1.7-.81S249.81,104.63,249.57,104.87Z"/><path class="cls-11" d="M248.4,102.84a.62.62,0,1,1,.29-1.22c.34.08,1.67.68,1.59,1S248.74,102.92,248.4,102.84Z"/><path class="cls-11" d="M253,102.66a.62.62,0,1,1-.18,1.24c-.34,0-1.72-.53-1.68-.87S252.67,102.61,253,102.66Z"/><path class="cls-11" d="M250.72,105.18a.62.62,0,0,0,1.22-.28c-.08-.34-.67-1.68-1-1.6S250.65,104.85,250.72,105.18Z"/><circle class="cls-11" cx="250.73" cy="102.83" r="0.48" transform="translate(0.35 206.52) rotate(-44.8)"/><path class="cls-11" d="M257.35,97.09a.62.62,0,0,1,.88.89c-.24.24-1.46,1.06-1.7.81S257.11,97.33,257.35,97.09Z"/><path class="cls-11" d="M256.42,96.89a.62.62,0,0,0-1.24.17c0,.34.52,1.73.86,1.68S256.46,97.23,256.42,96.89Z"/><path class="cls-11" d="M255,101.19a.62.62,0,1,1-.88-.89c.24-.24,1.46-1.06,1.7-.81S255.29,100.94,255,101.19Z"/><path class="cls-11" d="M253.88,99.16a.62.62,0,1,1,.29-1.22c.34.08,1.67.68,1.59,1S254.21,99.24,253.88,99.16Z"/><path class="cls-11" d="M258.49,99a.62.62,0,1,1-.18,1.24c-.34,0-1.72-.53-1.67-.87S258.15,98.93,258.49,99Z"/><path class="cls-11" d="M256.2,101.5a.62.62,0,0,0,1.22-.28c-.08-.34-.67-1.68-1-1.6S256.12,101.16,256.2,101.5Z"/><circle class="cls-11" cx="256.21" cy="99.15" r="0.48" transform="translate(4.54 209.31) rotate(-44.8)"/><path class="cls-5" d="M267.17,122.77s-.38,3.7.39,5.42A4,4,0,0,0,270,128c1.37-.56,2.29-.29,3.14-.85a2.21,2.21,0,0,0,.92-1.58s-2.88-4.53-4.81-4.47A2,2,0,0,0,267.17,122.77Z"/><path class="cls-9" d="M272.92,119.85a8.4,8.4,0,0,0-3.2.42c-1.34.56-2.75.55-2.35.95s2.45,0,2.35.26a6.07,6.07,0,0,1-2.42,1.66c-.85.21-1,1.09-.22,1.32s3.34.59,4.44-.16,2.84-2.29,2.84-2.29Z"/><path class="cls-13" d="M280.1,113.31s-7.33,6-7.51,6.53,1.08,2.73,1.76,3,8.85-3.26,11-6.22S284,111,280.1,113.31Z"/><path class="cls-11" d="M264.75,86.08s.13.71.7.8c1.35.22,1.68-.5,1.68-.5A5.26,5.26,0,0,0,264.75,86.08Z"/><path class="cls-8" d="M273.35,75.56l0,0c.06-.11.24-.09.24-.09a1.33,1.33,0,0,0-.65,0s0,0,0-.05a1,1,0,0,0-.4-.59,1.16,1.16,0,0,1,.19.47,4.58,4.58,0,0,0-5.06-.49,25,25,0,0,1-4.51,1.7,3.46,3.46,0,0,0,1.32,3.7c1.67.52,3.93-.4,5,.48s.05,2.34,1.3,2.86h0a.7.7,0,0,0,.87-.29c.3-.5.74-1,1.16-.68a2,2,0,0,1,.21,1.86,2.12,2.12,0,0,0-.25,2.56s2.36-1.35,3-2.94C277.5,80.06,276.3,77,273.35,75.56Z"/><path class="cls-27" d="M186.14,46.67s-.71,2.92-2.48,3.65-4.71,2.56-3.2,4.52,1,2.88-.41,3.53-1.16,2.81.61,3.6-.72,2.48-.07,4.12A5.9,5.9,0,0,0,188,69.42c4.1-1.43,9.56-3.4,10.77-6s2.88-4.9,1.31-6.08-.75-5.49-3.64-6.08S189.08,44.13,186.14,46.67Z"/><path class="cls-9" d="M198.39,57.86a5.09,5.09,0,0,1,3.5,3.53c.72,2.84,4.43,7.48,5.49,7.63s6.69-4.29,6.69-4.29l1.24,1s-6,7.89-7.32,7.87c-1.89,0-8.15-5.52-8.15-5.84C199.84,65.65,198.39,57.86,198.39,57.86Z"/><path class="cls-28" d="M210.37,90.62A12.5,12.5,0,0,1,206,95.27H195.95S211.84,88.06,210.37,90.62Z"/><path class="cls-9" d="M202.63,116.56a.93.93,0,0,0-.17,1h0a6.19,6.19,0,0,0,2,2.15l.31.26.07.06.05,0c.86.79.54,1,2.08,2.58,1.76,1.83,3,1.87,3.32,1.7s-.3-1.11-1-2.21l-.1-.16-.26-.44c-.77-1.32-.57-1.93-.39-3.89.15-1.59,2.47-8.89,2.47-8.89l-3.38-.58s-1,5.81-2.14,6.7c-.6.48-1.27.48-1.85.84l-.12.08A4.43,4.43,0,0,0,202.63,116.56Z"/><path class="cls-8" d="M202.63,116.56a.93.93,0,0,0-.17,1h0a7.17,7.17,0,0,0,2,2.14l.31.27.07.06.05,0c.86.79.54,1,2.08,2.58,1.76,1.83,3,1.87,3.32,1.7s-.3-1.11-1-2.21a7.51,7.51,0,0,1-3.14-2.31c-1.06-1.35-1.77-3.09-2.49-4.1l-.12.08A4.43,4.43,0,0,0,202.63,116.56Z"/><path class="cls-9" d="M229.86,114.45c.21,1,1.69.87,3.35.46s1.27.08,3.63-.18,3.08-1.14,3.15-1.49-1.1-.42-2.35-.57l-.47-.06c-1.41-.18-2.45-1.09-3.73-1.84s-3-3.6-3-3.6l-3.24.26s1.7,2.58,2.36,3.71a3.91,3.91,0,0,1,.32,2.21A4.15,4.15,0,0,0,229.86,114.45Z"/><path class="cls-8" d="M233.21,114.91c1.66-.41,1.27.08,3.63-.18s3.08-1.14,3.15-1.49-1.1-.42-2.35-.57v0a6.66,6.66,0,0,1-3.38,1.05c-1.6,0-3.3-.42-4.41-.4a4.15,4.15,0,0,0,0,1.11C230.07,115.49,231.55,115.32,233.21,114.91Z"/><path class="cls-8" d="M217.44,93.73l-3,8.15-4,10.64a6.41,6.41,0,0,1-2.1-.19,9.1,9.1,0,0,1-2-1s1.1-11.43,3.15-18a11.68,11.68,0,0,1,1.76-3.81C214.41,85.79,217.44,93.73,217.44,93.73Z"/><path class="cls-13" d="M186.08,84.63a11.17,11.17,0,0,0,7.48.3c6-1.88,17.55-5.19,20.81-4.14,4.47,1.44,17.91,28.17,17.91,28.17a2.59,2.59,0,0,1-1.13.71,10.67,10.67,0,0,1-2.63.27s-12.12-10.39-13.57-13.42-2-5.92-3.46-5.63c-.88.18-7.7,4.37-13.81,4.37h-8.84c-3.82-4.11-2.75-10.64-2.75-10.64Z"/><path class="cls-13" d="M214.42,101.88l-4,10.64a6.41,6.41,0,0,1-2.1-.19,9.1,9.1,0,0,1-2-1s1.1-11.43,3.15-18Z"/><path class="cls-29" d="M198.39,57.86c-.18-.3-6.76-1.3-10.85,1.57-2.73,1.91.36,13.43.35,15.51,0,4.69-2.39,8.09-1.81,9.69s7.63.87,13.15-.52c8-2-.13-2.84.9-8C201.28,70.33,203.62,66.49,198.39,57.86Z"/><path class="cls-9" d="M196.41,59.68c-.52,1-1.92,1.22-3.48.93s-3-1.7-3-2.23,1.14-.85.84-4.44l.28,0,4.69.54s0,1.46.12,2.83C196,58.49,196.55,59.42,196.41,59.68Z"/><path class="cls-10" d="M195.77,54.51s0,1.46.12,2.83c-2.59.14-4.15-2.11-4.81-3.38Z"/><path class="cls-27" d="M190.5,53.57s-2.77-1.55-3.75-3.14c-.7-1.13-1.87-5.9,2.93-7a6.64,6.64,0,0,1,2.94,0c1.25.28,3.24,1.15,3.21,5.72l.11,1.5Z"/><path class="cls-9" d="M197.06,55.08s-6,1.48-6.82-2.24-2.22-6,1.55-7.14,4.84.15,5.43,1.32S198.59,54.6,197.06,55.08Z"/><path class="cls-27" d="M194.49,45s-.63,4.75-3,6-3.61.81-3.61.81A7.3,7.3,0,0,0,189.24,47S192.77,43.18,194.49,45Z"/><path class="cls-27" d="M193.49,45.08A8.36,8.36,0,0,1,196.13,47c.52.88,1.1,2.8,1.66,2.6,0,0,.55-3.26-1.23-4.62A2.08,2.08,0,0,0,193.49,45.08Z"/><path class="cls-9" d="M188.13,59.08s-3.26,1.49-4,4.29-5.23,12.87-4.3,14.18,6.8,4.24,11.47,4.55l.05-1.92s-7.18-4.29-6.72-5,4-6.16,4.78-9S188.13,59.08,188.13,59.08Z"/><path class="cls-29" d="M194.87,44.38c-4.56,3.39-8.73,2.3-8.73,2.3l1.23-7.36.16-1,.51-3,1.39,1.85.06.08,1,1.28.29.39,1.67,2.22,1.33,1.76Z"/><circle class="cls-11" cx="188.66" cy="45.08" r="0.95" transform="matrix(0.96, -0.27, 0.27, 0.96, -5.18, 52.11)"/><path class="cls-11" d="M188.61,38.73a.7.7,0,0,1-1.24.59l.16-1a.7.7,0,0,1,1.08.38Z"/><path class="cls-11" d="M193.74,42.88a1.24,1.24,0,1,1-1.45-1.74l.12,0Z"/><path class="cls-11" d="M190.45,38.51l-.08,0a.83.83,0,0,1-.88-1.31Z"/><circle class="cls-11" cx="189.11" cy="41.52" r="0.88" transform="translate(-4.21 52.11) rotate(-15.52)"/><path class="cls-11" d="M210.18,76.24v3.36H193.61V76.7a1.38,1.38,0,0,1,.27-.83A1.4,1.4,0,0,1,195,75.3h14.22A1,1,0,0,1,210.18,76.24Z"/><rect class="cls-13" x="192.16" y="79.61" width="19.46" height="0.71"/><path class="cls-30" d="M210.18,76.24v.2c-.21-.15-.37-.59-.59-.74s-.37.39-.81.78-.57-.87-1.11-.87-.09,1.46-.46,1.58-.35-.93-.37-1.37-1.35-.39-1.63-.11.39,1.44-.09,1.59-.24-.68-.46-1.07-.94.17-1.18.52.15,2-.17,2.11,0-2.44-.85-2.94a1.35,1.35,0,0,0-1.74.17c-.32.28.3,2.14-.12,2.38s-.28-1.88-.44-2.38-1.07-.26-1.28,0-.07,1-.33.87.28-1.19-.07-1.4a1.37,1.37,0,0,0-1.44.45c-.17.37.18,2.44-.35,2.42s-.2-2.09-.15-2.52-1-.43-1.35-.19.09,1.49-.35,1.53-.13-1-.15-1.34-.81-.11-.81-.11h0A1.4,1.4,0,0,1,195,75.3h14.22A1,1,0,0,1,210.18,76.24Z"/><path class="cls-29" d="M190,58.21s-5,.87-7.9,6.74c0,0,2.06,5.38,7.39,5.64Z"/><path class="cls-9" d="M191.34,80.17a5.79,5.79,0,0,0,1.91.56c.56-.07,1.31-.6,2.22-.78s1.5-.92,1.86-.63-1.34,1.26-.92,1.25,1.83-.27,1.83-.27h2.45s-2.45,1.11-3.5,1.5-5.92.27-5.92.27Z"/><path class="cls-29" d="M197.95,57.7s3.28.34,5.7,5.25c0,0-.89,4-2.85,5.62S197.95,57.7,197.95,57.7Z"/><path class="cls-11" d="M195.08,53.13s1.86-.33,2.31-.43a3.9,3.9,0,0,0-.1.71c0,.16-1,.26-1.47.25S195.08,53.13,195.08,53.13Z"/><path class="cls-9" d="M214.07,64.72s.67-1.59.87-2a2.7,2.7,0,0,1,2.29-.82c.95.1.95,1.6.62,2.09a14.42,14.42,0,0,1-2.54,1.76Z"/><path class="cls-30" d="M223.22,53.6c-.16,1.55-1.48,3.13-3.6,5.88-1.51,1.95-2.93,2.57-3.34,3.81-.24.87,1.22,2.15,1.88,3.42s-1.5,2.72-1.5,2.72l-.26-.17a5.28,5.28,0,0,0,1.46-1.48c.7-1.09-1.81-3.21-1.86-4.19,0,0,0-.06,0-.08a1.94,1.94,0,0,1,.69-1.45c1.25-1.19,5.82-5.61,6.14-8.62.2-1.91-5.13-2.45-9.08-3.08-3.49-.55-6.49-.53-6.79-2s2.13-3.06,3.91-4.51c1-.85,2.24-1.82,2.13-2.19s-1.35-.41-2.33-.37c-1.23,0-2.29.07-2.49-.53-.3-.9.63-2.07,1-2.46a.19.19,0,0,1-.06-.36c-2.26-1.51-16.6-11.39-17.72-19.6a16.34,16.34,0,0,1,7.28-16.21,14.22,14.22,0,0,1,5.42-2l.14,0c8.3-1.13,16,5.18,17.24,14.09a11.24,11.24,0,0,1-.2,3.76h0c-1.66,8-10.05,18-11.6,19.84h0a.19.19,0,0,1,.22.17.19.19,0,0,1-.07.18c.78.12,2.47.43,2.58.85s-1.11,1.63-2.05,1.59-.91-1.84-.92-2.36h-.09c-.21.29-1.09,1.58-.83,2.37.12.37,1.25.33,2.16.3,1.26,0,2.81-.16,3,.53s-1.05,1.36-2.59,2.61S207,47,207.27,48.17s3.57,1.37,6.52,1.84C218.3,50.74,223.45,51.37,223.22,53.6Z"/><path class="cls-9" d="M217.85,64c.09-.2,1.12-3.65.65-3.45a3.33,3.33,0,0,0-1.33,1.87c-.11.63-.57,1.22-.22,1.41A2.2,2.2,0,0,0,217.85,64Z"/><path class="cls-9" d="M215.32,62.33l2-1.27c.24-.15.1.1,0,.46s-.94.84-.94.84Z"/><path class="cls-15" d="M221.24,18l-.15.34c-3.52,4.13-9.53,4.57-16.44-.43-12.79-9.26-2.85-16.34-.58-17.74l.14,0c8.3-1.13,16,5.18,17.24,14.09A11.24,11.24,0,0,1,221.24,18Z"/><path class="cls-31" d="M216.11,8.77c-.52.55-3.11.09-4.41-1.16a2.88,2.88,0,0,1-.78-3.46C211.78,3,213.67,4,215,5.25S216.64,8.23,216.11,8.77Z"/><path class="cls-32" d="M244.37,171.31a5.43,5.43,0,0,1-2.44,2.23,4.92,4.92,0,0,1-2.87,0l-.09,2a7.12,7.12,0,0,0,4.21-1.05,5,5,0,0,0,1.25-1.95A1.69,1.69,0,0,0,244.37,171.31Z"/><path class="cls-16" d="M242.67,168.12l1.74-2.07s2.09,4.77-1,8.16C243.42,174.21,244.19,169.81,242.67,168.12Z"/><path class="cls-32" d="M21.29,132a5.9,5.9,0,0,1-2-3,5.34,5.34,0,0,1,.52-3.07l-2.13-.42s-.63,2.82.44,4.7A5.38,5.38,0,0,0,20,131.86,1.84,1.84,0,0,0,21.29,132Z"/><path class="cls-16" d="M25,130.69l1.93,2.21s-5.47,1.45-8.59-2.42C18.33,130.48,22.93,132,25,130.69Z"/><path class="cls-33" d="M298.72,156s-.14-2.08,3.76-3.08c1.75-.45,5.64.35,3.18,4.18-2.57,4-4.86,2.55-4.86,2.55s5.36-4.19,3.21-6.11c-2.37-2.12-3.27,2.08-3.27,2.08A5.16,5.16,0,0,0,298.72,156Z"/><path class="cls-34" d="M300.11,159.89a2.08,2.08,0,0,1-.88-2.54l2.1.36s-.81,1.9,1.17,2.13C302.49,159.84,300.59,160.29,300.11,159.89Z"/><path class="cls-35" d="M139,40a3.9,3.9,0,0,1-3.51-4.37l-2.7-.82s-.33,2.37,4.08,4.92C139.78,41.43,139,40,139,40Z"/><path class="cls-36" d="M142.75,40.39s-2.93,2.14-7.85-2c0,0,2,1.38,5.45.21Z"/><path class="cls-1" d="M234.8,77.77s-1.9-1.2-2.1-2.65c0,0-1.85.1-2.25.7,0,0,.85,2.4,1.85,2.85C232.3,78.68,234.55,78.83,234.8,77.77Z"/><path class="cls-16" d="M294.35,77.29s1.91-1.21,2.11-2.67c0,0,1.86.1,2.26.7,0,0-.85,2.41-1.86,2.87C296.86,78.19,294.6,78.35,294.35,77.29Z"/><rect class="cls-37" x="148.59" y="160.84" width="9.27" height="26.72"/><rect class="cls-29" x="124.09" y="160.84" width="24.5" height="26.72"/><rect class="cls-11" x="135.41" y="162.59" width="1.87" height="24.5" transform="translate(311.18 38.5) rotate(90)"/><rect class="cls-12" x="152.3" y="170.2" width="1.87" height="9.27" transform="translate(328.07 21.61) rotate(90)"/><path class="cls-12" d="M142,160.43s7.51-3.41,12.75-2.11l-1,.7.53,1.24a25.75,25.75,0,0,0-12.38.38Z"/><path class="cls-11" d="M140.68,160.29l-2.43-.32c-3.86-.53-11.1-1.64-12.4-2.67-2-1.62,2.8-8.48,4.89-9.44S140.68,160.29,140.68,160.29Z"/><path class="cls-11" d="M156,151.74c.35,1.7-15.46,9-15.46,9s.29-.78.76-2h0c1.71-4.45,5.83-14.77,7.18-14.63a1.64,1.64,0,0,1,.47.14C151,145.23,155.67,150.18,156,151.74Z"/><path class="cls-12" d="M148.81,145.82c-1,1.68-7.42,12.8-7.52,13,1.71-4.45,5.83-14.77,7.18-14.63a.86.86,0,0,1,.47.14C149.19,144.49,149.34,144.9,148.81,145.82Z"/><path class="cls-12" d="M138.25,160h0c-3.86-.53-11.1-1.64-12.4-2.67-.59-1.65.94-1.79,2-1.9S138.25,160,138.25,160Z"/><path class="cls-12" d="M137.73,160.82s.89-2,2.63-2.13,2.86,2.13,2.86,2.13Z"/><rect class="cls-37" x="123.35" y="160.84" width="25.64" height="3.67"/><rect class="cls-38" x="148.99" y="160.84" width="9.66" height="3.67"/><path class="cls-12" d="M138.62,160.53s-5-1.59-8.41-.54c-3.91,1.21-3.67,6-3.67,6l.92-.38,1.24.58s.21-5.1,3.39-5.82A19.32,19.32,0,0,1,138.62,160.53Z"/><rect class="cls-11" x="134.18" y="160.84" width="1.87" height="26.95"/><rect class="cls-30" x="214.69" y="148.6" width="13.49" height="38.85"/><rect class="cls-15" x="179.05" y="148.6" width="35.63" height="38.85"/><rect class="cls-30" x="195.51" y="151.15" width="2.72" height="35.63" transform="translate(365.83 -27.91) rotate(90)"/><rect class="cls-39" x="220.07" y="162.22" width="2.72" height="13.49" transform="translate(390.39 -52.47) rotate(90)"/><path class="cls-37" d="M205,148s10.92-5,18.54-3.07l-1.52,1,.77,1.8a37.44,37.44,0,0,0-18,.55Z"/><path class="cls-29" d="M203.18,147.81s-1.42-.17-3.54-.46c-5.62-.77-16.15-2.39-18-3.89-3-2.35,4.07-12.34,7.11-13.72S203.18,147.81,203.18,147.81Z"/><path class="cls-29" d="M225.45,135.38C226,137.85,203,148.54,203,148.54s.42-1.13,1.1-2.9h0c2.49-6.47,8.47-21.48,10.44-21.27a2.39,2.39,0,0,1,.69.2C218.22,125.9,225,133.1,225.45,135.38Z"/><path class="cls-37" d="M215,126.77c-1.4,2.44-10.79,18.61-10.93,18.86,2.49-6.47,8.47-21.48,10.44-21.27a1.25,1.25,0,0,1,.69.2C215.55,124.83,215.78,125.42,215,126.77Z"/><path class="cls-37" d="M199.64,147.35h0c-5.62-.77-16.15-2.39-18-3.89-.85-2.4,1.36-2.6,3-2.77S199.64,147.35,199.64,147.35Z"/><path class="cls-37" d="M198.89,148.58s1.29-2.93,3.83-3.09,4.15,3.09,4.15,3.09Z"/><rect class="cls-30" x="177.97" y="148.6" width="37.28" height="5.34"/><rect class="cls-39" x="215.26" y="148.6" width="14.05" height="5.34"/><path class="cls-37" d="M200.19,148.15s-7.3-2.31-12.23-.78c-5.68,1.76-5.34,8.77-5.34,8.77l1.34-.55,1.8.85s.3-7.42,4.94-8.46C194.7,147.08,200.19,148.15,200.19,148.15Z"/><rect class="cls-30" x="193.73" y="148.6" width="2.72" height="39.18"/><rect class="cls-40" y="187.57" width="340" height="0.9" rx="0.43" ry="0.43"/></g></g></svg>