<svg xmlns="http://www.w3.org/2000/svg" xmlns:xlink="http://www.w3.org/1999/xlink" viewBox="0 0 333.49 222"><defs><style>.cls-1{isolation:isolate;}.cls-2{fill:#ebebeb;}.cls-3{fill:#bbd070;}.cls-4{fill:#97a43c;}.cls-5{fill:#48753a;}.cls-6{fill:url(#linear-gradient);}.cls-7{fill:url(#linear-gradient-2);}.cls-8{fill:url(#linear-gradient-3);}.cls-9{fill:#ff9f55;}.cls-10{fill:#eff7fe;}.cls-11{fill:url(#linear-gradient-4);}.cls-12{fill:#5284fc;}.cls-13{fill:url(#linear-gradient-5);}.cls-14{fill:url(#linear-gradient-6);}.cls-15{fill:url(#linear-gradient-7);}.cls-16{fill:#fff;opacity:0.92;mix-blend-mode:hard-light;}.cls-17{fill:#e8e8e8;}.cls-18{fill:#c1dbd1;}.cls-19{fill:url(#linear-gradient-8);}.cls-20{fill:#fae6de;}.cls-21{fill:url(#linear-gradient-9);}.cls-22{fill:url(#linear-gradient-10);}.cls-23{fill:url(#linear-gradient-11);}.cls-24{fill:#deccc5;}.cls-25{fill:#666fb3;}.cls-26{fill:#2d314f;}.cls-27{fill:#b8b8b8;}.cls-28{fill:#eea886;}.cls-29{fill:#ffb755;}.cls-30{fill:#323657;}.cls-31{fill:#cf8c6c;}.cls-32{fill:#db9c7c;}.cls-33{fill:#a77860;}.cls-34{fill:#474747;}.cls-35{fill:#292929;}.cls-36{fill:#e55353;}.cls-37{fill:#525252;}.cls-38{fill:#dbcac2;}.cls-39{fill:#baaca5;}.cls-40{fill:#e8734d;}.cls-41{fill:#c4b5ae;}.cls-42{fill:#ead8cf;}.cls-43{fill:url(#linear-gradient-12);}.cls-44{fill:url(#linear-gradient-13);}.cls-45{fill:#f08533;}.cls-46{fill:url(#linear-gradient-14);}.cls-47{fill:#495da1;}.cls-48{fill:#ffc955;}.cls-49{fill:#1d3b54;}.cls-50{fill:#cfa345;}.cls-51{fill:#5c544d;}.cls-52{fill:#3c4145;}.cls-53{fill:#33373b;}.cls-54{fill:#fccca2;}.cls-55{fill:#e2d2ca;}.cls-56{fill:#495054;}.cls-57{fill:#d6d6d6;}.cls-58{fill:#c98462;}.cls-59{fill:#de9d7d;}</style><linearGradient id="linear-gradient" x1="12658.54" y1="63" x2="12610.03" y2="176.1" gradientTransform="matrix(-1, 0, 0, 1, 12818.98, 0)" gradientUnits="userSpaceOnUse"><stop offset="0" stop-color="#6b9e34"/><stop offset="0.14" stop-color="#61933c"/><stop offset="1" stop-color="#1f4a6e"/></linearGradient><linearGradient id="linear-gradient-2" x1="12532.41" y1="4.14" x2="12518.21" y2="37.23" xlink:href="#linear-gradient"/><linearGradient id="linear-gradient-3" x1="12536.31" y1="208.01" x2="12536.31" y2="190.44" gradientTransform="matrix(1, 0, 0, -1, -12253.64, 402.55)" gradientUnits="userSpaceOnUse"><stop offset="0" stop-color="#ff9f55"/><stop offset="1" stop-color="#ffd255"/></linearGradient><linearGradient id="linear-gradient-4" x1="12535.69" y1="168.4" x2="12535.69" y2="192.72" gradientTransform="matrix(1, 0, 0, -1, -12252.4, 367.12)" gradientUnits="userSpaceOnUse"><stop offset="0" stop-color="#40d5e6"/><stop offset="1" stop-color="#57f"/></linearGradient><linearGradient id="linear-gradient-5" x1="12552.42" y1="169.57" x2="12552.42" y2="151.39" gradientTransform="matrix(-1, 0, 0, 1, 12818.98, 0)" xlink:href="#linear-gradient-3"/><linearGradient id="linear-gradient-6" x1="12531.62" y1="120.69" x2="12531.62" y2="141.11" gradientTransform="matrix(1, 0, 0, -1, -12244.25, 277.99)" xlink:href="#linear-gradient-4"/><linearGradient id="linear-gradient-7" x1="12547.03" y1="110.62" x2="12547.03" y2="126.95" gradientTransform="matrix(1, 0, 0, -1, -12275.09, 236.96)" xlink:href="#linear-gradient-4"/><linearGradient id="linear-gradient-8" x1="12589.81" y1="210.97" x2="12589.81" y2="192.02" gradientTransform="matrix(1, 0, 0, -1, -12360.64, 412.64)" xlink:href="#linear-gradient-3"/><linearGradient id="linear-gradient-9" x1="12589.35" y1="180.04" x2="12589.35" y2="198.7" gradientTransform="matrix(1, 0, 0, -1, -12359.72, 386.44)" xlink:href="#linear-gradient-4"/><linearGradient id="linear-gradient-10" x1="12601.73" y1="184.32" x2="12601.73" y2="171.98" gradientTransform="matrix(-1, 0, 0, 1, 12818.98, 0)" xlink:href="#linear-gradient-3"/><linearGradient id="linear-gradient-11" x1="12586.34" y1="146.96" x2="12586.34" y2="173.69" gradientTransform="matrix(1, 0, 0, -1, -12353.7, 320.54)" xlink:href="#linear-gradient-4"/><linearGradient id="linear-gradient-12" x1="-5759.12" y1="174.48" x2="-5794.63" y2="174.48" gradientTransform="translate(5811.39)" xlink:href="#linear-gradient-3"/><linearGradient id="linear-gradient-13" x1="-5742.44" y1="204.06" x2="-5777.61" y2="204.06" gradientTransform="translate(5811.39)" xlink:href="#linear-gradient-3"/><linearGradient id="linear-gradient-14" x1="-5820.47" y1="190.68" x2="-5753.4" y2="190.68" gradientTransform="translate(5811.39)" gradientUnits="userSpaceOnUse"><stop offset="0" stop-color="#609ff0"/><stop offset="1" stop-color="#5a3f9e"/></linearGradient></defs><title>Ресурс 18</title><g class="cls-1"><g id="Слой_2" ><g id="Дизайн_копия_"><ellipse class="cls-2" cx="254.83" cy="219.91" rx="24.59" ry="2.09"/><path class="cls-3" d="M169.17,102.1s32.08-13.79,44.47,4.9-5,17.52-5,17.52-1,8.64-17.35-11.81C183.6,103.08,169.17,102.1,169.17,102.1Z"/><path class="cls-4" d="M163.58,48.84S192.06,40,210.81,76.13s35.61,39,35.61,39S182,126.66,163.58,48.84Z"/><path class="cls-5" d="M234.57,117.19c-2.49,12-30-11.15-32.69-31.92s2.68-36-2.78-49.33C199.1,35.95,246.85,58.05,234.57,117.19Z"/><path class="cls-2" d="M242,57a11,11,0,0,0-3.22.47,9.19,9.19,0,0,0-17.2,1.1,6.71,6.71,0,0,0-2.38-.43,6.26,6.26,0,0,0-6.41,6.1H251C251,60.27,247,57,242,57Z"/><path class="cls-2" d="M185.35,81.11a8.39,8.39,0,0,0-2.45.36,7,7,0,0,0-13.11.84A5.11,5.11,0,0,0,168,82a4.77,4.77,0,0,0-4.89,4.65h29.16C192.24,83.59,189.16,81.11,185.35,81.11Z"/><path class="cls-6" d="M49.36,185.75a84.34,84.34,0,0,0,1.59,16.4H333.49V72.05A127.19,127.19,0,0,0,174.06,110.6,85,85,0,0,0,49.36,185.75Z"/><path class="cls-7" d="M255.6,41.14a27.25,27.25,0,0,0,.52,5.31h77.37V.23A40.56,40.56,0,0,0,329.15,0,41.08,41.08,0,0,0,296,16.82,27.52,27.52,0,0,0,255.6,41.14Z"/><path class="cls-8" d="M256.67,193.08h59.23a0,0,0,0,1,0,0v16.38a0,0,0,0,1,0,0H256.67a7.24,7.24,0,0,1-7.24-7.24v-1.91a7.24,7.24,0,0,1,7.24-7.24Z" transform="translate(565.34 402.55) rotate(-180)"/><path class="cls-9" d="M238.79,194.77v13h-1.09v1.69h44.9a4.52,4.52,0,0,0,4.52-4.52v-7.34a4.52,4.52,0,0,0-4.52-4.52h-44.9v1.69Z"/><path class="cls-10" d="M244.54,194.77h39.28a0,0,0,0,1,0,0v13a0,0,0,0,1,0,0H244.54A5.75,5.75,0,0,1,238.8,202v-1.51A5.75,5.75,0,0,1,244.54,194.77Z" transform="translate(522.61 402.55) rotate(-180)"/><path class="cls-11" d="M255,174H320a0,0,0,0,1,0,0v19a0,0,0,0,1,0,0H255a8.42,8.42,0,0,1-8.42-8.42v-2.22A8.42,8.42,0,0,1,255,174Z" transform="translate(566.58 367.12) rotate(-180)"/><path class="cls-12" d="M234.51,176v15.13h-.94v2h36.89a5.68,5.68,0,0,0,5.68-5.68v-7.69a5.68,5.68,0,0,0-5.68-5.68H233.57v2Z"/><path class="cls-10" d="M241.19,176h32.09a0,0,0,0,1,0,0v15.13a0,0,0,0,1,0,0H241.19a6.68,6.68,0,0,1-6.68-6.68v-1.76A6.68,6.68,0,0,1,241.19,176Z" transform="translate(507.8 367.12) rotate(-180)"/><path class="cls-13" d="M248,150.68H295.4a0,0,0,0,1,0,0V174a0,0,0,0,1,0,0H248a10.32,10.32,0,0,1-10.32-10.32V161A10.32,10.32,0,0,1,248,150.68Z"/><path class="cls-9" d="M304.64,153.08v18.55h.94V174H268.83a6.15,6.15,0,0,1-6.15-6.15V156.83a6.15,6.15,0,0,1,6.15-6.15h36.75v2.4Z"/><path class="cls-10" d="M274.22,153.08h30.41a0,0,0,0,1,0,0v18.55a0,0,0,0,1,0,0H274.22a8.19,8.19,0,0,1-8.19-8.19v-2.16A8.19,8.19,0,0,1,274.22,153.08Z"/><path class="cls-14" d="M267.12,127.32h50.8a0,0,0,0,1,0,0v23.35a0,0,0,0,1,0,0h-50.8a10.32,10.32,0,0,1-10.32-10.32v-2.72a10.32,10.32,0,0,1,10.32-10.32Z" transform="translate(574.72 277.99) rotate(-180)"/><path class="cls-12" d="M247,129.73v18.55h-1v2.4h39a6.46,6.46,0,0,0,6.46-6.46V133.78a6.46,6.46,0,0,0-6.46-6.46H246v2.4Z"/><path class="cls-10" d="M255.21,129.72h32.86a0,0,0,0,1,0,0v18.55a0,0,0,0,1,0,0H255.21a8.19,8.19,0,0,1-8.19-8.19v-2.16A8.19,8.19,0,0,1,255.21,129.72Z" transform="translate(535.09 277.99) rotate(-180)"/><path class="cls-15" d="M249.19,109.64H302.5a0,0,0,0,1,0,0v17.67a0,0,0,0,1,0,0H249.19a7.81,7.81,0,0,1-7.81-7.81v-2.06A7.81,7.81,0,0,1,249.19,109.64Z" transform="translate(543.89 236.96) rotate(-180)"/><path class="cls-12" d="M231.6,111.46v14h-1v1.82H272a4,4,0,0,0,4-4v-9.65a4,4,0,0,0-4-4H230.6v1.82Z"/><path class="cls-10" d="M237.8,111.46H273a0,0,0,0,1,0,0v14a0,0,0,0,1,0,0H237.8a6.2,6.2,0,0,1-6.2-6.2v-1.63A6.2,6.2,0,0,1,237.8,111.46Z" transform="translate(504.6 236.96) rotate(-180)"/><rect class="cls-16" x="52.59" y="107.19" width="130.33" height="90.22" rx="39.86" ry="39.86" transform="translate(235.52 304.59) rotate(-180)"/><rect class="cls-17" x="117.23" y="102.91" width="1.06" height="95.54" transform="translate(235.52 301.36) rotate(180)"/><rect class="cls-18" x="126.24" y="116.69" width="47.89" height="1.81"/><rect class="cls-18" x="126.24" y="123.33" width="47.89" height="1.81"/><rect class="cls-18" x="126.24" y="129.96" width="47.89" height="1.81"/><rect class="cls-18" x="126.24" y="136.6" width="47.89" height="1.81"/><rect class="cls-18" x="126.24" y="143.23" width="47.89" height="1.81"/><rect class="cls-18" x="126.24" y="149.87" width="47.89" height="1.81"/><rect class="cls-18" x="126.24" y="156.5" width="47.89" height="1.81"/><rect class="cls-18" x="126.24" y="163.14" width="47.89" height="1.81"/><rect class="cls-18" x="126.24" y="169.77" width="47.89" height="1.81"/><rect class="cls-18" x="126.24" y="176.41" width="47.89" height="1.81"/><rect class="cls-18" x="126.24" y="183.04" width="47.89" height="1.81"/><rect class="cls-18" x="61.66" y="116.69" width="47.89" height="1.81"/><rect class="cls-18" x="61.66" y="123.33" width="47.89" height="1.81"/><rect class="cls-18" x="61.66" y="129.96" width="47.89" height="1.81"/><rect class="cls-18" x="61.66" y="136.6" width="47.89" height="1.81"/><rect class="cls-18" x="61.66" y="143.23" width="47.89" height="1.81"/><rect class="cls-18" x="61.66" y="149.87" width="47.89" height="1.81"/><rect class="cls-18" x="61.66" y="156.5" width="47.89" height="1.81"/><rect class="cls-18" x="61.66" y="163.14" width="47.89" height="1.81"/><rect class="cls-18" x="61.66" y="169.77" width="47.89" height="1.81"/><rect class="cls-18" x="61.66" y="176.41" width="47.89" height="1.81"/><rect class="cls-18" x="61.66" y="183.04" width="47.89" height="1.81"/><path class="cls-19" d="M209.94,200.27h43.8a0,0,0,0,1,0,0v12.11a0,0,0,0,1,0,0h-43.8a5.35,5.35,0,0,1-5.35-5.35v-1.41A5.35,5.35,0,0,1,209.94,200.27Z" transform="translate(458.34 412.64) rotate(180)"/><path class="cls-9" d="M196.72,201.51v9.62h-.8v1.25h33.2a3.34,3.34,0,0,0,3.34-3.34v-5.43a3.34,3.34,0,0,0-3.34-3.34h-33.2v1.25Z"/><path class="cls-20" d="M201,201.51h29a0,0,0,0,1,0,0v9.62a0,0,0,0,1,0,0H201a4.25,4.25,0,0,1-4.25-4.25v-1.12a4.25,4.25,0,0,1,4.25-4.25Z" transform="translate(426.74 412.64) rotate(-180)"/><path class="cls-21" d="M208.67,186.18H256.8a0,0,0,0,1,0,0v14.09a0,0,0,0,1,0,0H208.67a6.22,6.22,0,0,1-6.22-6.22V192.4A6.22,6.22,0,0,1,208.67,186.18Z" transform="translate(459.25 386.44) rotate(180)"/><path class="cls-12" d="M193.56,187.63v11.19h-.69v1.45h27.28a4.2,4.2,0,0,0,4.2-4.2v-5.69a4.2,4.2,0,0,0-4.2-4.2H192.86v1.45Z"/><path class="cls-20" d="M198.5,187.63h23.73a0,0,0,0,1,0,0v11.19a0,0,0,0,1,0,0H198.5a4.94,4.94,0,0,1-4.94-4.94v-1.3a4.94,4.94,0,0,1,4.94-4.94Z" transform="translate(415.78 386.44) rotate(180)"/><path class="cls-22" d="M203.55,168.91h35a0,0,0,0,1,0,0v17.27a0,0,0,0,1,0,0h-35a7.63,7.63,0,0,1-7.63-7.63v-2A7.63,7.63,0,0,1,203.55,168.91Z"/><path class="cls-9" d="M245.41,170.69V184.4h.7v1.78H218.93a4.55,4.55,0,0,1-4.55-4.55v-8.18a4.55,4.55,0,0,1,4.55-4.55h27.18v1.78Z"/><path class="cls-20" d="M222.92,170.69h22.49a0,0,0,0,1,0,0V184.4a0,0,0,0,1,0,0H222.92a6.06,6.06,0,0,1-6.06-6.06v-1.6A6.06,6.06,0,0,1,222.92,170.69Z"/><path class="cls-23" d="M217.67,151.64h37.57a0,0,0,0,1,0,0V168.9a0,0,0,0,1,0,0H217.67a7.63,7.63,0,0,1-7.63-7.63v-2a7.63,7.63,0,0,1,7.63-7.63Z" transform="translate(465.27 320.54) rotate(180)"/><path class="cls-12" d="M202.81,153.41v13.71h-.74v1.78h28.83a4.78,4.78,0,0,0,4.78-4.78v-7.71a4.78,4.78,0,0,0-4.78-4.78H202.07v1.78Z"/><path class="cls-20" d="M208.87,153.41h24.3a0,0,0,0,1,0,0v13.71a0,0,0,0,1,0,0h-24.3a6.06,6.06,0,0,1-6.06-6.06v-1.6A6.06,6.06,0,0,1,208.87,153.41Z" transform="translate(435.97 320.54) rotate(-180)"/><rect class="cls-24" x="202.07" y="203.56" width="12.97" height="0.34" transform="translate(417.11 407.47) rotate(180)"/><rect class="cls-24" x="207.27" y="204.61" width="13.85" height="0.34" transform="translate(428.39 409.56) rotate(180)"/><rect class="cls-24" x="199.07" y="195.3" width="12.97" height="0.34" transform="translate(411.12 390.95) rotate(180)"/><rect class="cls-24" x="203.79" y="194.26" width="7.81" height="0.34" transform="translate(415.4 388.86) rotate(180)"/><rect class="cls-24" x="202.04" y="196.35" width="14.78" height="0.34" transform="translate(418.85 393.04) rotate(180)"/><rect class="cls-24" x="224.98" y="180.45" width="12.97" height="0.34" transform="translate(462.93 361.24) rotate(180)"/><rect class="cls-24" x="229.7" y="179.4" width="7.81" height="0.34" transform="translate(467.21 359.15) rotate(180)"/><rect class="cls-24" x="212.38" y="164.29" width="12.97" height="0.34" transform="translate(437.74 328.93) rotate(180)"/><rect class="cls-24" x="207.9" y="162.2" width="12.97" height="0.34" transform="translate(428.77 324.75) rotate(180)"/><rect class="cls-24" x="214.96" y="163.25" width="7.81" height="0.34" transform="translate(437.74 326.84) rotate(180)"/><rect class="cls-24" x="226.22" y="173.05" width="14.78" height="0.34" transform="translate(467.21 346.45) rotate(180)"/><path class="cls-25" d="M150,188.61s.43,1.67.48,1.92,2.68-.44,2.68-.44v-2A15.72,15.72,0,0,0,150,188.61Z"/><path class="cls-26" d="M150.46,190.32A7.26,7.26,0,0,1,149,192c-.77.53-3.73,1.22-4.17,1.74s-.75,1.77,4,1.13c3.38-.46,5-.34,5.35-.93s-1-4-1-4A6.49,6.49,0,0,1,150.46,190.32Z"/><rect class="cls-27" x="143.85" y="139.17" width="1.2" height="80.45" transform="translate(-16.61 14.75) rotate(-5.53)"/><rect class="cls-27" x="163.21" y="137.3" width="1.2" height="80.45" transform="translate(-16.34 16.6) rotate(-5.53)"/><rect class="cls-27" x="140.75" y="140.05" width="19.45" height="1.2" transform="translate(-12.87 15.18) rotate(-5.54)"/><rect class="cls-27" x="141.63" y="149.05" width="19.45" height="1.2" transform="translate(-13.75 15.32) rotate(-5.54)"/><rect class="cls-27" x="142.5" y="158.05" width="19.45" height="1.2" transform="translate(-14.6 15.43) rotate(-5.54)"/><rect class="cls-27" x="143.37" y="167.06" width="19.45" height="1.2" transform="translate(-15.48 15.58) rotate(-5.54)"/><rect class="cls-27" x="144.25" y="176.06" width="19.45" height="1.2" transform="translate(-16.34 15.7) rotate(-5.54)"/><rect class="cls-27" x="145.12" y="185.06" width="19.45" height="1.2" transform="translate(-17.21 15.83) rotate(-5.54)"/><rect class="cls-27" x="145.99" y="194.06" width="19.45" height="1.2" transform="translate(-18.07 15.95) rotate(-5.54)"/><rect class="cls-27" x="146.87" y="203.07" width="19.45" height="1.2" transform="translate(-18.94 16.07) rotate(-5.54)"/><rect class="cls-27" x="147.74" y="212.07" width="19.45" height="1.2" transform="translate(-19.81 16.21) rotate(-5.54)"/><path class="cls-28" d="M124.41,123.52a1.79,1.79,0,0,0,.42.39l.55.23.17.09a3.28,3.28,0,0,0,.93.49c.45.13,2.47.59,2.47.59l.47-1.2.34-1a20.56,20.56,0,0,0-2.28-2.6l-.12,0a4.17,4.17,0,0,0-.86-.08c-.07,0-.78-.09-.94.06a.7.7,0,0,0-.24.64,1.68,1.68,0,0,0-.43.82,1,1,0,0,0-.28.88S124.27,123.22,124.41,123.52Z"/><path class="cls-29" d="M146.11,139.27a27.77,27.77,0,0,0-3.17-1.76c-3.9-2-8.71-5.49-9.63-6-1.41-.79-5.85-6.22-5.85-6.22.23-.82,2.34-2.46,2.34-2.46s6.74,6.38,8.21,7.17c1.27.68,7.52,1.36,9.25,1.54l.44,0C149.5,134,147.12,139.91,146.11,139.27Z"/><path class="cls-26" d="M146.8,153.42s-1.91,7.08-2.41,9.61c-.44,2.21-1.32,8.08-1.44,9.48s5.63,14.91,6.23,17.36l5.24-.84s-5.53-14.07-4.09-17.2c2.15-4.65,2.43-4.51,4.12-8.34s5.56-3.92,6.6-11C161,152.46,148.21,151.16,146.8,153.42Z"/><path class="cls-28" d="M156.12,119s-3.48-1.3-5.09,1.35-1.45,8,.3,8.61,4.39.31,5.29-1.35A13.28,13.28,0,0,0,158.3,122,3.49,3.49,0,0,0,156.12,119Z"/><path class="cls-28" d="M151.92,128.8a2.92,2.92,0,0,1-.09,1.36c-.23.45,4.38.46,4.38.46a30.38,30.38,0,0,1,1.08-4.51C158,124.05,151.92,128.8,151.92,128.8Z"/><path class="cls-30" d="M157.29,126.12s-.32.53-1.62.32-2.88-1.93-3.43-2.12-.55-.51-.55-.51l-.34.5-.58,0s.53-1.55-.27-2.18.82-5,5-3.55c0,0,3.2.88,3.08,2.7A10.12,10.12,0,0,1,157.29,126.12Z"/><path class="cls-28" d="M151.79,123.15c.07-.31.85-1.18,1.15-.24s-.45,2.19-.87,2.08S151.6,123.92,151.79,123.15Z"/><path class="cls-29" d="M165.07,142.12a2.05,2.05,0,0,1-.92,1.19,1.49,1.49,0,0,1-.79.26h-.21l-3.62.12s-2.69-8.69,2.36-12C162,131.71,165.42,137.93,165.07,142.12Z"/><path class="cls-26" d="M154.16,193.91c-.3.59-2,.47-5.35.93a15.48,15.48,0,0,1-2.22.16l-.2-2a15.33,15.33,0,0,0,2.58-1,7.26,7.26,0,0,0,1.5-1.65,6.49,6.49,0,0,0,2.73-.41S154.46,193.32,154.16,193.91Z"/><path class="cls-29" d="M151.92,129.9s2.84-.66,4.44-.12l.24.22s.49.93-1.34,1S150.55,131.23,151.92,129.9Z"/><path class="cls-25" d="M163,196.42s.43,1.67.48,1.92,2.68-.44,2.68-.44v-2A15.73,15.73,0,0,0,163,196.42Z"/><path class="cls-26" d="M161,152.46a55.21,55.21,0,0,1,1.24,7.89c.26,3.65.74,7.65,1.12,11.46.42,4.25,1.62,11.13,1.69,13.4s2,12.21,2,12.21l-4.9.56s-3.18-17.57-3.93-19.36-4.48-14.6-4.6-16S161,152.46,161,152.46Z"/><path class="cls-26" d="M163.45,198.13a7.26,7.26,0,0,1-1.5,1.65c-.77.53-3.73,1.22-4.17,1.74s-.75,1.77,4,1.13c3.38-.46,5-.34,5.35-.93s-1-4-1-4A6.49,6.49,0,0,1,163.45,198.13Z"/><path class="cls-29" d="M145.81,162.26c-.42-.06,1-12.49.92-13.27-.07-.52-.06-4.56,0-7.08l-.45-2.55a11.64,11.64,0,0,0-1-.63c-.63-.36-1.42-.78-2.3-1.22.1-.6.17-1.08.2-1.35a5.09,5.09,0,0,1,2.58-3.93,4.23,4.23,0,0,1,.59-.29l1-.4c2.05-.85,4.66-1.64,4.66-1.64h4.19a35.52,35.52,0,0,1,5.09,1.42,3.55,3.55,0,0,1,.69.38l-.57,11.95h0v0c-.26,1.68-.53,3.66-.62,5.05,0,.57.61,3.62,1,6.41l1.19,6.69S162.15,164.6,145.81,162.26Z"/><path class="cls-28" d="M243.69,171.05s.73-1.27.83-1.47a3.53,3.53,0,0,0-.09-1.52,4.09,4.09,0,0,0-.75-1.65.63.63,0,0,0-.52-.08,1.21,1.21,0,0,0-.54.29.74.74,0,0,0-.68.2.64.64,0,0,0-.64.32.54.54,0,0,0-.54.24,4.86,4.86,0,0,1,0,.86,14.53,14.53,0,0,0,.72,3S242.12,172,243.69,171.05Z"/><path class="cls-31" d="M243.07,169.07a3.6,3.6,0,0,0-.69.65c-.1.21-1.45-.76-1.45-.76S242.51,168.37,243.07,169.07Z"/><path class="cls-32" d="M243.72,166.6s.3,1.8,0,1.88a.46.46,0,0,1-.44-.06l-.21.8s-.44.45-.8-.16c0,0-.37.46-.64-.17,0,0-.38.2-.56-.07a6.08,6.08,0,0,1-.32-1.43s.05-.3.52-.28a.63.63,0,0,1,.64-.3.75.75,0,0,1,.7-.19s.53-.58,1.06-.2C243.68,166.42,243.71,166.52,243.72,166.6Z"/><path class="cls-28" d="M244.52,169.53a6.19,6.19,0,0,0-1.39-1.38c-.15-.08-.3-.14-.44,0s-.15.43.15.88a4.58,4.58,0,0,1,.48,1.17S243.77,170.55,244.52,169.53Z"/><path class="cls-28" d="M271.12,171.91s-.42-1.4-.47-1.62a3.52,3.52,0,0,1,.44-1.46,4.09,4.09,0,0,1,1.11-1.43.63.63,0,0,1,.52,0,1.21,1.21,0,0,1,.46.41.74.74,0,0,1,.62.35.64.64,0,0,1,.55.45s.4,0,.47.35a4.85,4.85,0,0,0-.22.83,14.54,14.54,0,0,1-1.39,2.79S272.44,173.17,271.12,171.91Z"/><path class="cls-31" d="M272.18,170.12a3.6,3.6,0,0,1,.52.79c.05.23,1.58-.4,1.58-.4S272.88,169.57,272.18,170.12Z"/><path class="cls-32" d="M272.11,167.57s-.7,1.68-.45,1.83a.46.46,0,0,0,.44,0l0,.82a.47.47,0,0,0,.81,0s.25.53.66,0c0,0,.32.28.56.06a6.08,6.08,0,0,0,.64-1.32s0-.29-.46-.37a.65.65,0,0,0-.56-.46.67.67,0,0,0-.61-.37s-.39-.67-1-.42C272.19,167.4,272.14,167.5,272.11,167.57Z"/><path class="cls-28" d="M270.66,170.24a6.19,6.19,0,0,1,1.67-1c.16,0,.33-.06.43.07s0,.45-.35.82a4.58,4.58,0,0,0-.74,1S271.16,171.41,270.66,170.24Z"/><path class="cls-28" d="M253.81,185.92s4.07,2.79,3.87,1.08a11.14,11.14,0,0,1,.24-3.47s-4-1.76-3.86-.49a5.18,5.18,0,0,1,0,.91,8.81,8.81,0,0,1-.1,1C253.92,185.52,253.81,185.92,253.81,185.92Z"/><path class="cls-30" d="M274.28,173l-3.37-1.11s-2.22,4.56-2.59,5.67a45.48,45.48,0,0,1-2.14,4.39c-.38.68-4,5.91-4.69,5.91a11.66,11.66,0,0,1-2.6-.83c-.59-.24-1.09-.45-1.29-.55a15.44,15.44,0,0,0-4.39-.91l-.6.07a9.53,9.53,0,0,1-3-.07,5.55,5.55,0,0,1-2.29-1.92,28.19,28.19,0,0,1-2.94-3.68c-.16-.51-.28-5.07-.34-6.35a28,28,0,0,1,0-2.88c0-.16-3.72-.17-3.67.29s0,4.19.19,6a18.42,18.42,0,0,0,.71,4c.3.73,3.45,5.48,3.83,6.34s1.92,3.08,2.05,3.4.57,3.93,1,5,0,8.23-.14,9.39a10,10,0,0,1-.63,2.25,108.22,108.22,0,0,0,12.75,1.88,33,33,0,0,1-.33-4.2c.08-1.16,1.49-8.42,2.08-9.56s6-9.12,6.26-9.44a35.84,35.84,0,0,0,2.37-3.33S274.16,173.6,274.28,173Z"/><path class="cls-33" d="M254,185c2.45.45,3.36-1,3.36-1a3.05,3.05,0,0,1-3.26,0A8.81,8.81,0,0,1,254,185Z"/><path class="cls-34" d="M233.17,208.83c.1.68,4.19,3.54,5,4.12a8.67,8.67,0,0,0,2.19,1h0c2.22.58,16.15,4.74,16.15,4.74a1.76,1.76,0,0,1,.14-.42c.52.21,1.06.34,1.4.45.52.16,4.64.29,5.48.45s2.53.42,3.21-.23-.42-2-1.36-2.4a32.68,32.68,0,0,0-5-.52,6.35,6.35,0,0,0-1.82-.16,4.65,4.65,0,0,1-1.35-.36c0-.25,0-.41,0-.41l-3.66-1.05.68-6.48s-1.59-6-8-1.42l-1.9.55h-.16c-1-.07-5.14-1.33-6.65-1.33s-2.14-.1-2.72.19A5.83,5.83,0,0,0,233.17,208.83Z"/><path class="cls-34" d="M239.68,219c.68.65,2.37.39,3.21.23s5-.29,5.48-.45a8.46,8.46,0,0,0,2.17-.84,2.2,2.2,0,0,1,.36-.16h0l1,.74,14.31-4.56a5.13,5.13,0,0,0,2-1c.75-.65,4.9-3.44,5-4.12a5.83,5.83,0,0,0-1.69-3.24c-.58-.29-1.1-.19-2.72-.19s-6.32,1.46-6.81,1.33a7.1,7.1,0,0,1-1.11-.53c-.52-.28-1-.57-1-.57-7-3.11-7.74,2-7.74,2l.41,6.28-1.33.65-3.45,1,.45.33a.89.89,0,0,1-.39.07,6.35,6.35,0,0,0-1.82.16,32.68,32.68,0,0,0-5,.52C240.1,216.93,239,218.33,239.68,219Z"/><path class="cls-34" d="M260.91,206.19a36.75,36.75,0,0,0-4.49,2.36,52,52,0,0,1,5.61-1.83A7.1,7.1,0,0,1,260.91,206.19Z"/><path class="cls-34" d="M244.22,206.73a60,60,0,0,1,6.61,1.92s-2.95-2.24-4.47-2.53c0,0-1.5.47-2,.6h-.16Z"/><path class="cls-35" d="M239.68,219c.68.65,2.37.39,3.21.23s5-.29,5.48-.45l.54-.16h0a6.2,6.2,0,0,0,1.63-.68,2.2,2.2,0,0,1,.36-.16l-2.59-1.87-.07-.05a.89.89,0,0,1-.39.07,6.35,6.35,0,0,0-1.82.16,32.68,32.68,0,0,0-5,.52C240.1,216.93,239,218.33,239.68,219Z"/><path class="cls-35" d="M239.68,219c.68.65,2.37.39,3.21.23s5-.29,5.48-.45l.54-.16h0a2.74,2.74,0,0,1-.6-2.71l-.07-.05a.89.89,0,0,1-.39.07,6.35,6.35,0,0,0-1.82.16,32.68,32.68,0,0,0-5,.52C240.1,216.93,239,218.33,239.68,219Z"/><path class="cls-36" d="M259.49,207.62s0,0,0,0S259.54,207.69,259.49,207.62Z"/><path class="cls-35" d="M257.78,212.24s4.53-2.71,6.51-3.14a5.27,5.27,0,0,0,2.55-1.1,9.85,9.85,0,0,0-4.95,1.4C260.55,210.35,257.78,212.24,257.78,212.24Z"/><path class="cls-35" d="M253.76,214.13s-7.88-4.14-11.09-5a7.42,7.42,0,0,1-2.55-1.1s4.87.48,7.83,2.26C249.36,211.1,253.76,214.13,253.76,214.13Z"/><path class="cls-35" d="M256.64,218.3c.52.21,1.06.34,1.4.45.52.16,4.64.29,5.48.45s2.53.42,3.21-.23-.42-2-1.36-2.4a32.68,32.68,0,0,0-5-.52,6.35,6.35,0,0,0-1.82-.16,4.65,4.65,0,0,1-1.35-.36C257.18,216,256.64,218.3,256.64,218.3Z"/><path class="cls-34" d="M253.76,217.91,246,215.62l1.53-.47S253.74,217.39,253.76,217.91Z"/><polygon class="cls-35" points="253.76 217.91 250.14 216.8 252.65 218.26 253.76 217.91"/><path class="cls-37" d="M256.25,208.65l.16-.1Z"/><path class="cls-35" d="M258,218.75c.52.16,4.64.29,5.48.45s2.53.42,3.21-.23-.42-2-1.36-2.4a32.68,32.68,0,0,0-5-.52,6.35,6.35,0,0,0-1.82-.16A2.13,2.13,0,0,1,258,218.75Z"/><path class="cls-38" d="M260.59,208l1.19-6.79-15.42-.36,1,6.68a54.84,54.84,0,0,1,6.59,2.85S258.17,208.65,260.59,208Z"/><ellipse class="cls-39" cx="253.9" cy="205.3" rx="0.86" ry="1.02"/><path class="cls-28" d="M257.16,175.3s-3.92-1.39-4.11,3.47.67,5.6,1.95,5.84c1.6.3,3.35-.18,4.74-3.85C261.07,177.26,259.63,175.58,257.16,175.3Z"/><path class="cls-40" d="M259.32,181.74s.39-.69,0-.94a.41.41,0,0,0-.6.1l-.39-.06s.77-1.25-.44-1.51-3.81-.5-4.46-1c0,0-.23.94-.25,1.15s-.18-.05-.18-.05-.23-3.51,2-4.69,4.73.23,5.13,1.57S260.69,179,259.32,181.74Z"/><path class="cls-28" d="M259.27,179.92s.43-.34.5,0a3.75,3.75,0,0,1-.94,1.88C258.62,181.83,258.75,180.33,259.27,179.92Z"/><path class="cls-41" d="M258.37,186.77a4.06,4.06,0,0,1-3.79,1c-2.1-.66-1.56-2.25-1.56-2.25S254.53,185.06,258.37,186.77Z"/><polygon class="cls-28" points="257.63 185.85 255.27 186.91 255.18 186.67 254.97 186.84 253.98 185.12 257.63 185.85"/><path class="cls-42" d="M257.63,185.85s-1.75.54-2.45.82l.5,1.46,2.13-1.61Z"/><path class="cls-42" d="M255.18,186.67a7.84,7.84,0,0,1-1.2-1.56l-.42.39.4,2.19Z"/><path class="cls-43" d="M18.77,165.56H64.56a0,0,0,0,1,0,0v17.86a0,0,0,0,1,0,0H18.77a7.89,7.89,0,0,1-7.89-7.89v-2.08A7.89,7.89,0,0,1,18.77,165.56Z"/><path class="cls-44" d="M22.09,197.94H80.46a0,0,0,0,1,0,0v12.22a0,0,0,0,1,0,0H22.09a5.4,5.4,0,0,1-5.4-5.4v-1.42A5.4,5.4,0,0,1,22.09,197.94Z"/><path class="cls-45" d="M87,199.28v9.55h1.62v1.34H59.81a1.64,1.64,0,0,1-1.63-1.63v-8.95a1.64,1.64,0,0,1,1.63-1.63H88.62v1.34Z"/><path class="cls-20" d="M63.86,199.28H87a0,0,0,0,1,0,0v9.55a0,0,0,0,1,0,0H63.86a4.22,4.22,0,0,1-4.22-4.22V203.5A4.22,4.22,0,0,1,63.86,199.28Z"/><path class="cls-45" d="M73.16,167.39v14.18H74v1.84H37.52a3.4,3.4,0,0,1-3.4-3.4V169a3.4,3.4,0,0,1,3.4-3.4H74v1.84Z"/><path class="cls-20" d="M42.25,167.39h30.9a0,0,0,0,1,0,0v14.18a0,0,0,0,1,0,0H42.25A6.27,6.27,0,0,1,36,175.31v-1.65A6.27,6.27,0,0,1,42.25,167.39Z"/><path class="cls-46" d="M6.42,183.41H53.68a0,0,0,0,1,0,0v14.53a0,0,0,0,1,0,0H6.42A6.42,6.42,0,0,1,0,191.52v-1.69a6.42,6.42,0,0,1,6.42-6.42Z"/><path class="cls-47" d="M62.27,184.91v11.54h.88v1.5H27.44a4.21,4.21,0,0,1-4.21-4.21v-6.12a4.21,4.21,0,0,1,4.21-4.21H63.15v1.5Z"/><path class="cls-20" d="M30.09,184.91H62.27a0,0,0,0,1,0,0v11.54a0,0,0,0,1,0,0H30.09a5.1,5.1,0,0,1-5.1-5.1V190A5.1,5.1,0,0,1,30.09,184.91Z"/><rect class="cls-24" x="42.27" y="188.59" width="14.17" height="0.36"/><rect class="cls-24" x="35.63" y="189.7" width="15.13" height="0.36"/><rect class="cls-24" x="70.27" y="201.75" width="14.17" height="0.36"/><rect class="cls-24" x="63.63" y="202.86" width="15.13" height="0.36"/><rect class="cls-24" x="62.12" y="203.87" width="6.26" height="0.36"/><rect class="cls-24" x="41.46" y="176.98" width="15.13" height="0.36"/><rect class="cls-24" x="54.43" y="169.06" width="15.13" height="0.36"/><path class="cls-35" d="M47.35,187.72a4.3,4.3,0,0,1-.29,1.31c-.22.37-.93,2.54-1.24,3.09s-1.53.94-1.47,1.92,2.31,1.12,2.93.66a26.43,26.43,0,0,0,2.88-3.8,2.75,2.75,0,0,0-.1-2.27,3.6,3.6,0,0,1-.87-1.45C49.2,187,47.59,187.32,47.35,187.72Z"/><path class="cls-28" d="M50,158.82a72,72,0,0,0-4.75,6.91c-.7,1.58-1.9,3.83-1.9,4.56a18.94,18.94,0,0,0,.93,4.28c.31.56,2.44,10.18,2.56,10.8s.55,2.33.55,2.33l1.85-.55s.19-8.52-.14-10.21-1.33-4.14-1.17-4.91,2.64-2.91,4.34-4.06S56,165,56.07,163.18a10,10,0,0,0-.82-4S53.31,157.85,50,158.82Z"/><path class="cls-28" d="M45.41,158.34a13.37,13.37,0,0,1-1.74,2.14,40.68,40.68,0,0,0-5.79,6.17c-1.16,1.89-1.56,2.17-1.32,3s.59,3,.85,3.58,3.65,14,3.65,14,1.39.35,1.8-.27a56.57,56.57,0,0,1-.59-7.94,13.48,13.48,0,0,0-1.1-6.74,2.23,2.23,0,0,1,.75-3.29c1-.7,6.64-3.89,6.64-3.89S55.39,155.67,45.41,158.34Z"/><path class="cls-35" d="M41.11,187.17s0,.34-.13.38-1.7,2.41-2,2.75-2.22.89-2.25,1.11a1.69,1.69,0,0,0,1.83,1.52c1.57,0,2.88-1.32,3.52-1.83s2.49-1.06,1.76-2.31a16.42,16.42,0,0,1-1-1.82Z"/><path class="cls-28" d="M49.82,188.34a8.19,8.19,0,0,0-.82,1.89c-.32,1.1-1.57,2.52-2.43,2.48s-.72-.67-.72-.67.91-2.5,1.29-3.3a8.3,8.3,0,0,0,.19-1,3.21,3.21,0,0,1,1.85-.55S49.69,188.17,49.82,188.34Z"/><path class="cls-28" d="M38.9,190.36a1,1,0,0,0,1,.63,4.5,4.5,0,0,0,2-1.42,14.36,14.36,0,0,1,1.64-1.32L42.86,187l-1.75.11Z"/><path class="cls-48" d="M45.45,158.21a20.46,20.46,0,0,1-1.66,2A28.9,28.9,0,0,0,37.65,167s7-.24,10.88,4.06c0,0,3.77-3.13,4.19-3.44s3.13-1.91,3.34-4.46a6.15,6.15,0,0,0-.82-4S47.6,157.46,45.45,158.21Z"/><path class="cls-48" d="M44.57,150.82c.92,1.56,1.08,7,.84,7.58a26.73,26.73,0,0,0,9.89,1s-.23-.5-.46-1.15l-.3-.85c-.33-.93-.69-1.94-.88-2.39a4.57,4.57,0,0,1,.06-3.14c.32-.56,2.21-4.75,2.21-4.75s1-3-.73-3.91a13.45,13.45,0,0,0-3.37-1.25l-3.07-.21s-.67.12-1.57.2-1.83.23-2,1.72a9.79,9.79,0,0,1-.57,2.67C44.42,146.71,43.52,149,44.57,150.82Z"/><path class="cls-48" d="M54.08,142.64a3.86,3.86,0,0,1,2.6,1.64c.79,1.39.74,3.26.92,4s1.24,7.7,1,8.3a2.13,2.13,0,0,1-2.09,1.49c-1.14-.12-5.76-2.53-5.76-2.53a16.44,16.44,0,0,0,.62-2.17l4.44,1.55s-1.07-7.27-1.2-8.07S53.64,143.36,54.08,142.64Z"/><path class="cls-48" d="M46.37,142.05a3.77,3.77,0,0,0-2.15,1.42,8.33,8.33,0,0,0-.66,2.88c-.08.33-1.1,4.08-1.1,4.08l2.87,1.92Z"/><polygon class="cls-49" points="45.05 149.29 55.12 146.31 55.52 146.64 56.36 154.55 45.05 158.8 45.05 149.29"/><path class="cls-49" d="M46.16,136.56s1,4.61.28,5.88c0,0,2.08-.76,2.49-1.61S46.16,136.56,46.16,136.56Z"/><path class="cls-28" d="M48.45,140.07s0,.46.1,1.07c0,.21,0,.43.05.66a18.13,18.13,0,0,1,.07,2s1.48,1.59,3.17-1.85a5,5,0,0,1-.18-3.35C52.2,136.65,48.45,140.07,48.45,140.07Z"/><path class="cls-28" d="M48.48,131s-2.62.25-2.74,3.61a10.52,10.52,0,0,0,1.8,6.53c.49.41,3.06-.27,3.48-2.06s1.19-3.15.89-4.61S51.68,130.49,48.48,131Z"/><path class="cls-49" d="M45.77,135.83s-1.15-4,2.23-5.2,4.88,1.21,5.37,2.67a30.88,30.88,0,0,1,.57,5.76,18.58,18.58,0,0,1-3.39,3.18,25.4,25.4,0,0,0-.13-7.84,14,14,0,0,1-4.69.57S45.75,135.65,45.77,135.83Z"/><path class="cls-33" d="M48.55,141.15c0,.21,0,.43.05.66a3.82,3.82,0,0,0,1.87-1.75A3.51,3.51,0,0,1,48.55,141.15Z"/><path class="cls-50" d="M44.58,146.38s-1.61,2.73-1.25,4.52,1.57.74,1.57.74A5.33,5.33,0,0,1,44.58,146.38Z"/><polygon class="cls-49" points="44.41 158.8 37.88 153.12 36.06 143.83 43.98 149.3 44.41 158.8"/><polygon class="cls-49" points="45.05 158.8 44.41 158.8 43.98 149.3 45.05 149.29 45.05 158.8"/><path class="cls-28" d="M51.36,153.68s-.85-.3-.94-.36-.21-1-.63-1.29a10.57,10.57,0,0,1-1.07-.87c-.11-.16-.34.31,0,.72s.38.73-.54.52c-.51-.11-2.17-1.11-2.15-.73,0,.22,1.64,1.12,1.64,1.12a11.58,11.58,0,0,0-1.92-.74c-.21.18,1.57,1.08,1.65,1.11s-1.6-.61-1.67-.47,1.52.82,1.49.84S46,153,46,153.16s1,.67,1.26.74,2.54.9,2.94.94a1.3,1.3,0,0,1,.72.46Z"/><path class="cls-48" d="M51,153.34a8.8,8.8,0,0,0-.6,2s2.89,1.51,4.77,2.26l1.45-3.15-.31.06-.49.18Z"/><path class="cls-28" d="M40.93,186.72s-.13,1.18-.32,1.28S42.54,187.6,40.93,186.72Z"/><path class="cls-50" d="M52.51,156.42s1.57,1.24,2.34,1.8l-.3-.85Z"/><polygon class="cls-49" points="37.88 153.12 35.41 144.12 36.06 143.83 37.88 153.12"/><path class="cls-28" d="M37.8,152.84a6.88,6.88,0,0,1-.42-.91,11.46,11.46,0,0,1-.64-2.5,3.42,3.42,0,0,1,1.78.55c.2.3-.34.27-.34.27s.77.28.66.49-.57,0-.57,0,.61.28.46.45-.45.09-.45.09.55.21.43.41-1.07.18-1,.39A3.63,3.63,0,0,1,37.8,152.84Z"/><path class="cls-51" d="M103.16,216s-.24,1.67-.27,1.92-2.65-.15-2.65-.15l-.21-2A15.37,15.37,0,0,1,103.16,216Z"/><path class="cls-52" d="M102.92,217.73a7.09,7.09,0,0,0,1.63,1.44c.8.44,2.06.61,2.54,1.07s1.25,1.74-2.09,1.71-4.94.2-5.3-.34.52-4,.52-4A7,7,0,0,0,102.92,217.73Z"/><path class="cls-51" d="M121.92,216s-.24,1.67-.27,1.92-2.65-.15-2.65-.15l-.21-2A15.37,15.37,0,0,1,121.92,216Z"/><path class="cls-52" d="M121.68,217.73a7.09,7.09,0,0,0,1.63,1.44c.8.44,3.76.8,4.23,1.25s.91,1.65-3.78,1.52c-3.33-.09-4.94.2-5.3-.34s.52-4,.52-4A6.35,6.35,0,0,0,121.68,217.73Z"/><path class="cls-53" d="M104.09,173a24.67,24.67,0,0,0-1.21,7.71c.18,3.57-.72,7.47-1.09,11.2-.41,4.15-2.1,14-2.16,16.21s.26,9.32.26,9.32l3.38.08s2.83-17.19,3.57-18.95,4.38-14.26,4.5-15.66S104.09,173,104.09,173Z"/><path class="cls-52" d="M118.28,173.7s1.85,9.78,2.1,12,.41,10.57.53,11.93.82,17.86,1.47,19.88h-4.32s-3.31-12-3.31-17.66-2.56-12.33-4.21-16.07-5.43-3.83-6.45-10.78C104.09,173,116.9,171.49,118.28,173.7Z"/><path class="cls-28" d="M109.51,140.28s3.4-1.27,5,1.32,1.42,7.77-.3,8.41-4.29.3-5.17-1.32a13,13,0,0,1-1.63-5.53A3.41,3.41,0,0,1,109.51,140.28Z"/><path class="cls-28" d="M113.61,149.85a2.85,2.85,0,0,0,.09,1.33c.23.44-4.28.45-4.28.45a29.7,29.7,0,0,0-1.06-4.41C107.67,145.21,113.61,149.85,113.61,149.85Z"/><path class="cls-54" d="M108.36,147.23s.31.51,1.58.31,2.82-1.89,3.35-2.07.54-.5.54-.5l.33.48.56,0s-.51-1.51.26-2.13-.8-4.89-4.87-3.47c0,0-3.13.86-3,2.64A9.88,9.88,0,0,0,108.36,147.23Z"/><path class="cls-55" d="M114,151.13s0-.84-.39-.92a27.15,27.15,0,0,0-4.67-.26v1S109.81,151.48,114,151.13Z"/><path class="cls-28" d="M113.74,144.32c-.07-.3-.83-1.15-1.12-.24s.44,2.14.85,2S113.92,145.08,113.74,144.32Z"/><path class="cls-56" d="M114,151.13s2.09.75,4.52,1.78a5.09,5.09,0,0,1,3.09,4.12c.16,1.63,1.9,10.31,2.23,11s4.19,12.53,4.32,12.77-3.15,1.61-3.37,1.5-3.74-10.76-4.09-11.55c0,0-2-6.38-2.08-7.34,0,0-.06,2.71-.17,3.47s1.8,15.55,1.75,16-8.68.93-12.14.55a42.28,42.28,0,0,1-6.24-1.18s2.72-11.67,2.63-13c-.18-2.82-1.12-8.13-1.12-8.13l-2.82,5.31,3.6,9.27-.83,2.82s-6.7-10.12-6.92-11a5,5,0,0,1,.68-2.86c.35-.76,2.68-6.56,3.22-7.37s1.46-4.08,3.68-5a34.71,34.71,0,0,1,5-1.38Z"/><rect class="cls-57" x="116.91" y="172.99" width="16.29" height="11.36" transform="translate(290.56 320.68) rotate(165.62)"/><path class="cls-58" d="M129.5,183.26s.45.73.62.94-.4.34-.65.13S129.5,183.26,129.5,183.26Z"/><path class="cls-59" d="M126.21,185.75a1.75,1.75,0,0,1-.32-.46s-.08-.33-.15-.57a1.63,1.63,0,0,0-.06-.18,3.21,3.21,0,0,1-.36-1c-.07-.45-.27-2.47-.27-2.47l1.22-.31,1-.21a20.1,20.1,0,0,1,2.23,2.53,1.06,1.06,0,0,1,0,.12,4.08,4.08,0,0,1,0,.84c0,.07,0,.77-.17.9a.69.69,0,0,1-.65.16,1.64,1.64,0,0,1-.84.32,1,1,0,0,1-.88.16S126.48,185.92,126.21,185.75Z"/><path class="cls-56" d="M121.44,173s2.8,8.48,3.31,9.37a9.24,9.24,0,0,0,3.37-1.5l-3.07-9.15Z"/></g></g></g></svg>