<svg xmlns="http://www.w3.org/2000/svg" viewBox="0 0 351.33 229.95"><defs><style>.cls-1{isolation:isolate;}.cls-2{fill:#a4e0ea;}.cls-3,.cls-5{fill:#fff;}.cls-3{opacity:0.6;}.cls-4{fill:#5499de;}.cls-6{fill:#edeeef;}.cls-7{fill:#6ab4e5;}.cls-8{fill:#307ab7;opacity:0.5;mix-blend-mode:multiply;}.cls-9{fill:#94ccf2;}.cls-10{fill:#4a94d1;}.cls-11{fill:#75b8ef;}.cls-12{fill:#f9cb44;}.cls-13{fill:#4b85c4;}.cls-14{fill:#dfe5ea;}.cls-15{fill:#efefef;}.cls-16{fill:#3f76a8;}.cls-17{fill:#88d5ff;}.cls-18,.cls-32,.cls-36,.cls-37,.cls-38{fill:none;stroke-miterlimit:10;}.cls-18{stroke:#eb5d62;stroke-width:1.26px;}.cls-18,.cls-38{stroke-linecap:round;}.cls-19{fill:#fe9393;}.cls-20{fill:#2034aa;}.cls-21{fill:#102772;}.cls-22{fill:#e15f60;}.cls-23{fill:#2437b0;}.cls-24{fill:#112977;}.cls-25{fill:#ff9393;}.cls-26{fill:#0b288a;}.cls-27{fill:#1d27a5;}.cls-28{fill:#04207a;}.cls-29{fill:#f2e9e9;}.cls-30{fill:#ff5f60;}.cls-31{fill:#e4f9f9;}.cls-32{stroke:#fff;}.cls-32,.cls-36,.cls-38{stroke-width:1.15px;}.cls-33{fill:#252ba2;}.cls-34{fill:#21227f;}.cls-35{fill:#3f49a5;}.cls-36{stroke:#2a5b87;}.cls-37,.cls-38{stroke:#a4e0ea;}.cls-37{stroke-width:0.62px;}</style></defs><title>Ресурс 19</title><g class="cls-1"><g id="Слой_2" data-name="Слой 2"><g id="Дизайн_копия_" data-name="Дизайн (копия)"><circle class="cls-2" cx="155.81" cy="56.59" r="2.13"/><circle class="cls-3" cx="110.21" cy="51.11" r="2.13"/><circle class="cls-3" cx="204.67" cy="128.32" r="2.13"/><circle class="cls-3" cx="298.79" cy="93.52" r="1.17"/><circle class="cls-3" cx="340.31" cy="157.7" r="1.17"/><circle class="cls-3" cx="80.91" cy="157.7" r="1.17"/><circle class="cls-3" cx="33.09" cy="203.82" r="1.17"/><circle class="cls-3" cx="22.61" cy="132.99" r="1.17"/><circle class="cls-3" cx="83.63" cy="90.01" r="1.17"/><circle class="cls-3" cx="56.27" cy="33.17" r="1.17"/><circle class="cls-3" cx="103.5" cy="18.51" r="1.17"/><circle class="cls-3" cx="131.78" cy="71.46" r="1.17"/><circle class="cls-3" cx="245.6" cy="40.58" r="1.17"/><circle class="cls-3" cx="173.07" cy="64.34" r="1.17"/><circle class="cls-3" cx="332.67" cy="103.91" r="1.17"/><circle class="cls-2" cx="215.96" cy="128.32" r="2.13"/><circle class="cls-2" cx="134.9" cy="95.46" r="0.98"/><circle class="cls-2" cx="208.53" cy="106.55" r="0.98"/><circle class="cls-2" cx="84.79" cy="159.28" r="0.98"/><circle class="cls-2" cx="132.76" cy="52.43" r="0.98"/><circle class="cls-2" cx="303.86" cy="119.91" r="2.13"/><circle class="cls-2" cx="52.03" cy="2.13" r="2.13"/><circle class="cls-2" cx="2.13" cy="54.46" r="2.13"/><circle class="cls-2" cx="37.35" cy="186.13" r="2.13"/><circle class="cls-2" cx="337.36" cy="212.52" r="2.13"/><path class="cls-2" d="M122.93,144.82V91.54a3.13,3.13,0,0,1,3.13-3.13h0a3.13,3.13,0,0,0,3.13-3.13V83.92a3.13,3.13,0,0,0-3.13-3.13H96.22a3.13,3.13,0,0,0-3.13,3.13v1.37a3.13,3.13,0,0,0,3.13,3.13h0a3.13,3.13,0,0,1,3.13,3.13v53.28a3.13,3.13,0,0,1-.49,1.67L49.27,224.67a3.13,3.13,0,0,0,2.64,4.8H170.36a3.13,3.13,0,0,0,2.64-4.8l-49.59-78.18A3.13,3.13,0,0,1,122.93,144.82Z"/><path class="cls-2" d="M184.61,104.85V106A2.67,2.67,0,0,1,182,108.7a2.7,2.7,0,0,0-2.69,2.68v99.92a18.18,18.18,0,0,1-18.18,18.18h0a18.18,18.18,0,0,1-18.18-18.18V111.37a2.68,2.68,0,0,0-2.63-2.68,2.71,2.71,0,0,1-2.73-2.67v-1.18a2.68,2.68,0,0,1,2.68-2.68h41.71A2.68,2.68,0,0,1,184.61,104.85Z"/><path class="cls-2" d="M332,182a57.42,57.42,0,0,1-25.29,47.63H242.52a57.41,57.41,0,0,1,9.08-100.33A13.43,13.43,0,0,0,259.65,117V65.18a3.95,3.95,0,0,0-4-4,4,4,0,0,1-4-3.95V55.53a4,4,0,0,1,4-3.95h37.75a4,4,0,0,1,3.95,3.95v1.75a4,4,0,0,1-3.88,3.95,4,4,0,0,0-4,4V117a13.44,13.44,0,0,0,8.05,12.32A57.47,57.47,0,0,1,332,182Z"/><path class="cls-4" d="M123.54,163.39a1.65,1.65,0,0,1-1.29.63,1.62,1.62,0,0,1-1-.34L102.9,149.35a1.63,1.63,0,0,1,1-2.91,1.61,1.61,0,0,1,1,.34l18.35,14.33A1.63,1.63,0,0,1,123.54,163.39Z"/><path class="cls-5" d="M107.87,151.32a2.33,2.33,0,0,1-1.82.89,2.3,2.3,0,0,1-1.41-.49l-26-20.29a2.3,2.3,0,0,1,1.42-4.12,2.28,2.28,0,0,1,1.42.49l26,20.29A2.3,2.3,0,0,1,107.87,151.32Z"/><path class="cls-6" d="M107.87,151.32,78.25,128.2a2.3,2.3,0,0,1,3.23-.4l26,20.29A2.3,2.3,0,0,1,107.87,151.32Z"/><path class="cls-4" d="M254.44,120.24A70.39,70.39,0,0,1,125.93,160c-.29-.4-.56-.81-.83-1.21l3.61-2.37,11.94-7.84.4.59a51.83,51.83,0,0,0,94.8-29A52.07,52.07,0,0,0,214.59,78.4a50.73,50.73,0,0,0-7.67-4.66c-.23-.13-.47-.24-.71-.36l8-16.79A68.81,68.81,0,0,1,226,63.74,70.8,70.8,0,0,1,254.44,120.24Z"/><path class="cls-7" d="M246.78,120.64a62.08,62.08,0,0,1-114,34l8.28-5.44,5.42-3.55a45.69,45.69,0,1,0,64.4-62.48,44.64,44.64,0,0,0-6.6-3.86l2.65-5.59,4.37-9.21A61.38,61.38,0,0,1,221,70.25,62.46,62.46,0,0,1,246.78,120.64Z"/><path class="cls-8" d="M153.43,154l-.78,1-3.11,4-6.22,8-5.23,6.71A69.86,69.86,0,0,1,125.93,160l2.79-3.58,11.94-7.84.4.59,5.42-3.55A45.71,45.71,0,0,0,153.43,154Z"/><path class="cls-8" d="M226,63.74,221,70.25l-6.37,8.15-3.72,4.78a44.64,44.64,0,0,0-6.6-3.86l2.65-5.59c-.23-.13-.47-.24-.71-.36l8-16.79A68.81,68.81,0,0,1,226,63.74Z"/><polygon class="cls-9" points="156.27 145.6 154.72 147.61 150.79 152.62 131.78 177 117.62 165.95 136.64 141.57 140.56 136.56 142.12 134.55 156.27 145.6"/><polygon class="cls-10" points="250.47 18.45 249.85 19.27 229.88 44.89 225 51.11 213.69 42.26 214.83 40.82 218.54 36.07 238.55 10.42 239.16 9.62 242.75 12.41 250.47 18.45"/><polygon class="cls-8" points="229.88 44.89 225 51.11 213.69 42.26 214.83 40.82 218.54 36.07 220.99 37.97 229.14 44.31 229.88 44.89"/><path class="cls-5" d="M253.6,18.6a1.8,1.8,0,0,1-2.52.32l-12.5-9.76a1.79,1.79,0,0,1,2.2-2.83l12.51,9.75A1.8,1.8,0,0,1,253.6,18.6Z"/><polygon class="cls-8" points="250.48 18.45 249.84 19.26 238.54 10.43 239.17 9.61 242.73 12.4 250.48 18.45"/><path class="cls-4" d="M229.86,54.89l-36.56,46.84-21-16.42.55-.7,36-46.14a5.93,5.93,0,0,1,8.31-1l5.44,4.25,6.27,4.89A5.9,5.9,0,0,1,229.86,54.89Z"/><path class="cls-5" d="M197.79,110.49a3.32,3.32,0,0,1-2.64,1.3,3.4,3.4,0,0,1-2.08-.73L155.17,81.5a3.37,3.37,0,0,1,2.08-6,3.33,3.33,0,0,1,2.06.71l37.88,29.58A3.35,3.35,0,0,1,197.79,110.49Z"/><polygon class="cls-11" points="142.12 134.55 140.56 136.56 136.64 141.57 145.78 148.71 142.71 152.62 126.76 173.07 131.78 177 150.79 152.62 154.72 147.61 156.27 145.6 142.12 134.55"/><path class="cls-5" d="M161,147.65a5.09,5.09,0,0,1-4,1.93,5,5,0,0,1-3.08-1.06L97.19,104.21a5,5,0,0,1,3.1-9,5,5,0,0,1,3.09,1.06l56.77,44.31A5,5,0,0,1,161,147.65Z"/><circle class="cls-5" cx="224.72" cy="64.84" r="13.19"/><circle class="cls-12" cx="224.72" cy="64.84" r="8.76"/><path class="cls-13" d="M178.43,79.05h16.79a7.85,7.85,0,0,1,7.85,7.85v8.56a0,0,0,0,1,0,0H170.58a0,0,0,0,1,0,0V86.9A7.85,7.85,0,0,1,178.43,79.05Z" transform="translate(93.23 -96.47) rotate(37.97)"/><path class="cls-6" d="M161,147.65l-64.7-50.5a5,5,0,0,1,7.06-.87l56.77,44.31A5,5,0,0,1,161,147.65Z"/><path class="cls-14" d="M197.79,110.49l-43.19-33.7a3.36,3.36,0,0,1,4.72-.59l37.88,29.58A3.35,3.35,0,0,1,197.79,110.49Z"/><path class="cls-15" d="M253.6,18.6l-15-11.71-.33-.26a1.81,1.81,0,0,1,2.52-.31l12.51,9.75A1.8,1.8,0,0,1,253.6,18.6Z"/><path class="cls-13" d="M129,206.77h98a14,14,0,0,1,14,14v7a1.58,1.58,0,0,1-1.58,1.58h-123a1.58,1.58,0,0,1-1.58-1.58v-7a14,14,0,0,1,14-14Z"/><rect class="cls-16" x="114.92" y="224.15" width="126.12" height="5.22"/><path class="cls-4" d="M149.39,206.77s20.73-2.07,31.81-13.51c6.13-6.32,10.9-20.87,13.57-29.07a12.07,12.07,0,0,1,5.73-6.87h0a12.09,12.09,0,0,1,16.86,5.86l18.72,43.59"/><rect class="cls-5" x="151.78" y="87.33" width="8.07" height="14.43" transform="translate(91.15 -75.85) rotate(37.97)"/><rect class="cls-11" x="156.61" y="88.99" width="2.66" height="14.43" transform="translate(92.62 -76.81) rotate(37.97)"/><rect class="cls-4" x="155.72" y="86.46" width="10.71" height="2.68" transform="translate(88.11 -80.52) rotate(37.97)"/><rect class="cls-5" x="163.77" y="96.69" width="8.07" height="14.43" transform="translate(99.45 -81.25) rotate(37.97)"/><rect class="cls-11" x="168.61" y="98.35" width="2.66" height="14.43" transform="translate(100.92 -82.21) rotate(37.97)"/><rect class="cls-4" x="167.72" y="95.82" width="10.71" height="2.68" transform="translate(96.41 -85.92) rotate(37.97)"/><rect class="cls-5" x="175.77" y="106.05" width="8.07" height="14.43" transform="translate(107.74 -86.65) rotate(37.97)"/><rect class="cls-11" x="180.61" y="107.71" width="2.66" height="14.43" transform="matrix(0.79, 0.62, -0.62, 0.79, 109.22, -87.61)"/><rect class="cls-4" x="179.71" y="105.18" width="10.71" height="2.68" transform="translate(104.71 -91.32) rotate(37.97)"/><circle class="cls-4" cx="206.71" cy="173.64" r="11.38"/><circle class="cls-12" cx="206.71" cy="173.64" r="8.44"/><circle class="cls-5" cx="123.88" cy="163.36" r="2.87"/><circle class="cls-12" cx="123.88" cy="163.36" r="1.58"/><rect class="cls-17" x="50.41" y="120.66" width="42.73" height="14.02" rx="3.29" ry="3.29" transform="translate(-11.17 6.96) rotate(-5.15)"/><path class="cls-18" d="M67.05,128.32"/><path class="cls-18" d="M53.06,129.59"/><path class="cls-19" d="M81.1,137.18s0-.6.08-1.22a2.45,2.45,0,0,0-.24-1.08,4.87,4.87,0,0,1,0-1l.8-.07a11.69,11.69,0,0,0,.67-1.12,1.19,1.19,0,0,0,.15-.55,6.44,6.44,0,0,1,0-.85c0-.4.36-.55.49-.07a5.56,5.56,0,0,1,.11,1.29,7.49,7.49,0,0,1-.42,1.24s1.22.7,1.26.94-.53,1.17-1,2.87"/><path class="cls-19" d="M83,131.38s-.12-.56.13-.63.34.39.4.63.18,1,.22,1.28a9.42,9.42,0,0,1-.56,1.77l-.69-.61.34-1.76"/><path class="cls-19" d="M83.5,131.72s0-.41.16-.5.31.26.37.5.18,1,.22,1.28a9.42,9.42,0,0,1-.56,1.77l-.69-.61.34-1.76"/><path class="cls-19" d="M84.26,131.94a3,3,0,0,0,.08.74,1.5,1.5,0,0,1-.2.58l-.45,1.3.22.56.71-1.64.12-.34a1.1,1.1,0,0,0,0-.6C84.66,132.11,84.46,131.45,84.26,131.94Z"/><path class="cls-19" d="M60,139.16a16.73,16.73,0,0,0,.67-1.91c0-.22-.43-1.35-.49-1.57a4.93,4.93,0,0,1,.21-1.84c.18-.25.36-.07.43.18a4.19,4.19,0,0,1,.12.93,2.62,2.62,0,0,0,.39.72l2-.18.7-.06a8.11,8.11,0,0,1-.27,1,2.19,2.19,0,0,1-.63.8,11.23,11.23,0,0,0-.89,2.17"/><path class="cls-19" d="M67.52,221.41v2.9a3.71,3.71,0,0,0,2,0l.38-2.9"/><path class="cls-19" d="M49.17,219.24,48.41,222a3.71,3.71,0,0,0,1.94.53l1.12-2.7"/><path class="cls-5" d="M59.93,138.76a11.63,11.63,0,0,1,2.55.53s-1.14,7-2.26,9.7c-.9,2.17.82,8,.82,8l-3.28,2.23s-1.53-7.89-1.73-9.85S59.93,138.76,59.93,138.76Z"/><path class="cls-20" d="M64.24,179a48.13,48.13,0,0,1-1.07,8.71c-.52,2.61-1.17,5.32-1.86,7.87s-1.39,5-2,6.92c-2,6.38-7.74,18.67-7.74,18.67a6.82,6.82,0,0,1-3.24-1s3-14.3,5.08-18.65c.15-1.09.22-7.18.77-11.66a28.35,28.35,0,0,0-.1-6.88,14.59,14.59,0,0,1,.64-5.94Z"/><path class="cls-21" d="M63.17,187.75c-.52,2.61-1.17,5.32-1.86,7.87a53.74,53.74,0,0,1-2.45-12.5S61.91,186.53,63.17,187.75Z"/><path class="cls-20" d="M70.28,177.8s1.52,17.84,1.62,24.74-1.81,20.38-1.81,20.38a5.69,5.69,0,0,1-3.13-.1s-1.71-14.56-.92-20.15c0,0-3.72-8.57-5.59-14.38-.36-1.11-1-3.24-1.23-4.17a9.47,9.47,0,0,1,2.59-9.4"/><path class="cls-5" d="M80.59,136.94a107.31,107.31,0,0,1-3.84,12.18c-4.5,3-9,6.45-9,6.45l-4.61-1.23c-2.3,1.35-4,4.46-5,9.71s-11.11,33.37-11.11,33.37c9.5,5,26.74,1.08,26.74,1.08s-2.31-26.06-2.29-31.7a13,13,0,0,1,4.21-9.53,31,31,0,0,0,4.89-5.44c1.87-4.73,2.81-14.39,2.81-14.39A4,4,0,0,0,80.59,136.94Z"/><path class="cls-19" d="M68,153.89a4.79,4.79,0,0,0-.22,1.69,3.09,3.09,0,0,1-2.69-.36c-1.3-.9,0-2.58,0-2.58h3.41A6.21,6.21,0,0,0,68,153.89Z"/><path class="cls-22" d="M68.53,152.63a6.21,6.21,0,0,0-.53,1.25,2.56,2.56,0,0,1-1.67-.39l.6-.86Z"/><path class="cls-19" d="M68.41,146a15.81,15.81,0,0,1,1.31,3.92,2.87,2.87,0,0,1-1.15,2.81,6.67,6.67,0,0,1-1,.6,2.55,2.55,0,0,1-2.92-.5,7.86,7.86,0,0,1-1.35-1.88C61.35,147.22,65.61,143.1,68.41,146Z"/><path class="cls-23" d="M66.53,142.1a3.07,3.07,0,0,1,1.61,1.19,3.86,3.86,0,0,1-2.35,5.8,33.12,33.12,0,0,0-.16,4.56c-.1,2,1.72,10.64-1.8,12.25-1,.44-2.19-.27-4.1.89s-6.4.15-5.5-4,5.26-5.87,6.52-9.9c.42-1.34-.53-2.37-.8-3.32a5.45,5.45,0,0,1,.77-4.8C61.8,143.08,64.21,141.52,66.53,142.1Z"/><path class="cls-19" d="M65.91,149.28s-.29-.6-.71-.27,0,2.23.53,1.92"/><path class="cls-20" d="M66.82,225.17a1.67,1.67,0,0,1,.7-1.19s.3-.26,1.16,0c.26.08.63.39.86.32,0,0,.53.83,1,1.82a6.85,6.85,0,0,0,.89,1.5c.44.49,1.11.6,1.14.94s.07.55-1.14.55a6.52,6.52,0,0,1-2.11-.87C68.89,227.77,66.82,225.17,66.82,225.17Z"/><path class="cls-24" d="M69.49,229.1a1.53,1.53,0,0,1-1.32-.75,22.74,22.74,0,0,1-1.32-2.56c-.44-1.31,1.28-1.23,1.7-.77a14.9,14.9,0,0,1,1.36,2.39c.47.94.82,1.49,1.54,1.68Z"/><path class="cls-20" d="M50.36,222.56a2,2,0,0,1,.15.91c0,.48-.4,5.19-1,5.57a1.53,1.53,0,0,1-.87.16c-.55,0-.78-.85-1.31-2.16s0-3.51.23-4.68a3.51,3.51,0,0,1,.69-.83,1,1,0,0,1,.74-.24c.4,0,.94.2.89.87C49.89,222.32,49.85,222.43,50.36,222.56Z"/><path class="cls-24" d="M47.36,222.79a1,1,0,0,1,.94-.83c.52-.07,1.28.45,1.23,1.67s-.11,4.52-.21,4.94c-.24,1-1.32.71-1.66-.08A10.31,10.31,0,0,1,47.36,222.79Z"/><path class="cls-23" d="M61.67,143.62a16.38,16.38,0,0,1-1.33,1.14,6.74,6.74,0,0,0-2,2.51c-1.17,2.62.72,4.84.24,5.65s-2.41,1-2.55,2.63.61,2.08,0,3.67,2.42,1.21,3.23.26,1.68-2,2.7-3.4a12.54,12.54,0,0,0,1.84-4.55,12.65,12.65,0,0,0-.91-3.64A29.58,29.58,0,0,1,61.67,143.62Z"/><path class="cls-25" d="M193.23,198.66l.31,3.07a2.73,2.73,0,0,1-2.59.38l-.78-3.85"/><path class="cls-26" d="M193.54,201.74a6.16,6.16,0,0,1-2.59.38s-1.23,1.15-1.76,1.76-1,1.21-1.56,1.28-1.55.46-1.73.91.35.7,2.47.7a4.78,4.78,0,0,0,2.09-.31c.94-.42,1.25-1,1.71-1.22s1.88-.52,2.23-.76S194.61,202.36,193.54,201.74Z"/><path class="cls-25" d="M203.87,200.73l-.14,3.08a2.73,2.73,0,0,1-2.61,0l-.22-3.92"/><path class="cls-27" d="M203.73,203.82a2.46,2.46,0,0,1,.61,1.25,5.61,5.61,0,0,1-.1,1.62c0,.17-.67.25-1.59.26s-1.42-.08-1.8-.08c-.61,0-1.95.06-2.74.08a7.39,7.39,0,0,1-2.24-.22c-.33-.15-.64-.94,1.28-1.4a15.25,15.25,0,0,0,2.87-1.07,7.36,7.36,0,0,1,1.09-.43A10.91,10.91,0,0,0,203.73,203.82Z"/><path class="cls-25" d="M181.85,161.8a6.07,6.07,0,0,1-1.43,2.22,11.69,11.69,0,0,1-1.5.9c-.2.11-1.72.26-2.1.37s-.16.36.64.47,2.58.4,3.31.4a1.89,1.89,0,0,0,1.44-.71c.39-.52.47-1.21.75-1.51"/><path class="cls-27" d="M205.94,159.44s1.25,1.42,1.33,4.66-1.59,11.42-2.08,12.93a7.67,7.67,0,0,1-2.07,3.77c-1.19,1.06-4.06.08-4.51-1.76-.86-3.49-2.72-18.47-2.72-18.47S203,158.74,205.94,159.44Z"/><path class="cls-27" d="M201.6,166.54a35.32,35.32,0,0,1-2.28,5c-.93,1.78-2,3.57-2.74,4.86-.48.8-.86,1.4-1.08,1.69a7.69,7.69,0,0,1-3.17,2.92c-1.46.63-3.87-1.22-3.72-3.11.3-3.58,3.32-18.37,3.32-18.37s7.37.54,9.89,2.13C201.82,161.7,202.56,163.44,201.6,166.54Z"/><path class="cls-28" d="M199.32,171.58c-.93,1.78-2,3.57-2.74,4.86-.24-4.83-.32-12.91-.32-12.91Z"/><path class="cls-27" d="M204,201.41a18.61,18.61,0,0,1-3.3.1s-.73-4.82-1.09-7.75c-.33-2.67-3.36-29.53-3.34-30.91s5.65,8.16,10.08,8.94l-1.63,11.43s-.2,3.91-.05,6.83S204,200.12,204,201.41Z"/><path class="cls-25" d="M189,143.92s-1.22,3.61-1.87,6.1c-.22.86-.92,3.41-.92,3.41a35,35,0,0,0-1.91,3.06c-1,1.9-3.56,7.74-3.56,7.74l1.53.42s5.82-6.36,7.05-8,3-6.29,3-6.29"/><path class="cls-29" d="M187.3,147.9s-1.17,4.72-1.46,5.39-4.67,9.42-4.67,9.42a9.63,9.63,0,0,0,2.35,1.6s5.75-6.06,6.75-7.71,2-6.35,2-6.35"/><path class="cls-25" d="M172,152.18a5.43,5.43,0,0,1-2.12-.18c-.92-.24-1.43.23-2.42.6a7.43,7.43,0,0,0-1.93.79c0,.16-.09.33.37.34a20.31,20.31,0,0,0,2.18-.49c.19,0,.3.37.55.56s.13.36.35.53.16.41.44.54.35.36,1,.22,1-.77,2-.93"/><path class="cls-25" d="M185.11,133.61h0a3.1,3.1,0,0,1,1.69.84,5.36,5.36,0,0,1,1.25,1.81,1.73,1.73,0,0,0,.46,1.08c.46.5,3.54-.08,4.51-.83s1.34-1.67.78-2.07a10.64,10.64,0,0,0-1.41-.68,6.11,6.11,0,0,1-1.75-1.24A3.73,3.73,0,0,1,190,131a10,10,0,0,1-.1-2l-1.71,0S183.07,133.31,185.11,133.61Z"/><path class="cls-30" d="M185.11,133.61a3.1,3.1,0,0,1,1.69.84,5.43,5.43,0,0,0,1.9-3.85l-3.33,2.34S185.25,133.23,185.11,133.61Z"/><path class="cls-25" d="M181.09,126.58s.81,6.66,2,8.26c0,0,2.76.29,5.68-3.12s-.32-6.76-1.41-7.47S181.74,123.11,181.09,126.58Z"/><path class="cls-5" d="M206.12,161.67c-5.83,3.28-14.2-1.55-14.2-1.55s-.35,0-.5-.66c-.48-2.11-1.29-7.17-1.77-8.87-.06-.22-.13-.44-.2-.68-.3-1-.66-2.17-1-3.38a22.89,22.89,0,0,1-.78-4.46,21.48,21.48,0,0,1,.43-5.37,5.72,5.72,0,0,0,4.25-2.94c3.33.8,6.29,5.25,7.52,8.6,1,2.78,4.61,12.42,6.53,16.2C206.88,159.37,206.12,161.67,206.12,161.67Z"/><path class="cls-27" d="M191,128.67a5.56,5.56,0,0,0-.72,1.86c-.07.35-.19.63-.39.59-.51-.08-.46-.86-.7-1.44s-.5-.4-.85-.85-.19-1.11-.62-1.49-1.06-.17-1,.42.25,1.4,0,1.3-.63-1.28-.85-1.55-.57.12-1.16.32-.6-.32-1.43-.87-1.23.35-2,.54-2.52-1.6-2-2.57,1.93-.2,2.41-.74-.24-2.41,1.91-3.15c2-.68,3.14,1.53,3.87,1.86s1.64-.65,2.79.12.09,2.75.34,3.74a8.24,8.24,0,0,1,.5,1.56A.78.78,0,0,1,191,128.67Z"/><path class="cls-31" d="M194.89,142.65s-.63,2.7-5.44,7.27c-.3-1-.66-2.17-1-3.38a38.49,38.49,0,0,1,4-3.59Z"/><path class="cls-25" d="M194.72,141.55s-6.73,8.91-8.66,9.85-3.44-1.38-2.83-3,6.81-9.63,6.81-9.63"/><path class="cls-25" d="M183.79,147.53s-2.55,1-5,2.18a64,64,0,0,1-6.86,2.47s-.15,1.39.43,2l3.7-.61c2.71-.46,8.81-1,10.29-2.35"/><path class="cls-5" d="M194,137s1.84.2,2.41,2.9c.46,2.18-6.16,8.55-9.36,11.47a91.31,91.31,0,0,1-14.08,3.14,4.59,4.59,0,0,1-1.1-2.62s11.3-4.79,11.5-5C185,144.76,190.4,136.3,194,137Z"/><path class="cls-27" d="M191.48,162.22s-4,16.57-4.12,17.45c-.32,2.14,2.85,20.6,2.85,20.6a11.72,11.72,0,0,0,3.41-.46s.24-7.89.24-10.51c0-3.45.25-7.51.07-10.71"/><path class="cls-5" d="M191.09,157.14s.47,10.73.71,15.81a52.78,52.78,0,0,1,.05,5.8,44.62,44.62,0,0,0,16.58-.13s.28-5.78-.09-11.43a28.74,28.74,0,0,0-2.37-9.73c-.68-1.54-1.32-2.81-1.77-3.93"/><polyline class="cls-32" points="247.38 229.47 228.78 91.22 264.7 91.22 283.3 229.47"/><line class="cls-32" x1="228.78" y1="91.22" x2="264.7" y2="91.22"/><line class="cls-32" x1="231.12" y1="105.57" x2="267.04" y2="105.57"/><line class="cls-32" x1="232.8" y1="119.91" x2="268.72" y2="119.91"/><line class="cls-32" x1="234.81" y1="134.26" x2="270.73" y2="134.26"/><line class="cls-32" x1="236.48" y1="148.6" x2="272.39" y2="148.6"/><line class="cls-32" x1="238.65" y1="162.95" x2="274.56" y2="162.95"/><line class="cls-32" x1="240.37" y1="177.29" x2="276.29" y2="177.29"/><line class="cls-32" x1="242.38" y1="191.63" x2="278.3" y2="191.63"/><line class="cls-32" x1="244.49" y1="205.98" x2="280.41" y2="205.98"/><path class="cls-19" d="M250.34,128.06l1.28,2.89a3,3,0,0,1-2.71.32l-1.75-2.45"/><path class="cls-33" d="M251.36,130.35a6.28,6.28,0,0,1,.93,1.74,4.78,4.78,0,0,1,0,1.48c0,.16-.61.35-1.48.43a6.5,6.5,0,0,1-1.7-.13c-.36,0-1.87.37-2.63.45a7,7,0,0,1-2.15-.05c-.33-.12-.47-1.18,1.12-1.43a8.55,8.55,0,0,0,2.66-1.22,2.71,2.71,0,0,1,.78-.36S251,131.1,251.36,130.35Z"/><path class="cls-19" d="M264.81,141.23l.85,2.82a2.6,2.6,0,0,1-2.35.83l-1.44-3.46"/><path class="cls-33" d="M266.61,145a2.34,2.34,0,0,0-.95-.93,10.41,10.41,0,0,1-2.35.83,7,7,0,0,0-.84.73c-.34.34-.74.77-1.17,1.14a3.56,3.56,0,0,1-.67.14c-1.6.14-1.53,1.2-1.21,1.35a7,7,0,0,0,2.14.2,2.69,2.69,0,0,0,.63-.05,17.07,17.07,0,0,1,1.83-.85,6.5,6.5,0,0,0,1.67-.32c.82-.3,1.37-.65,1.32-.8A4.77,4.77,0,0,0,266.61,145Z"/><path class="cls-33" d="M254.51,124.54c3.38,8.44,8,18.67,8,18.67s1.9.2,2.71-.83c0,0-1.44-10-2.3-12.48s-3-7-3-7Z"/><path class="cls-33" d="M260.11,113.06c-.08,1.6-.27,9.74-.27,9.74l-5.57.79-1.17-5c-.38-1.66-.7-3.06-.92-4.06,0-.11,0-.22-.07-.32C250.8,108,250,102.41,250,102.41l8.93-2.16a12.81,12.81,0,0,1,1.39,5.54A47.48,47.48,0,0,1,260.11,113.06Z"/><path class="cls-19" d="M247.23,69.15s0,7.24,1.11,7.6a6.7,6.7,0,0,0,6.5-4.39c1.68-4.66-1.65-6.28-3.37-6.2S247.39,66.08,247.23,69.15Z"/><path class="cls-33" d="M255.52,104.12a13,13,0,0,1-3.5,4.52,56.52,56.52,0,0,1-5.7,4.54l-3.58,2.48-4.44,3.07-2.17-2.07a4.49,4.49,0,0,1-.53-2.61,6,6,0,0,1,1.3-3.09l0,0v0c1.28-1.37,2.32-2.31,3.13-3.28,4.17-5,8.23-9.19,8.23-9.19Z"/><path class="cls-33" d="M250.55,128.1c-.33,1.18-2.79,2.13-2.79,2.13s-5.38-6.36-10.79-12.41a5.78,5.78,0,0,1-.82-1.18,4.49,4.49,0,0,1-.53-2.61l3.24-2.35s2.16,2.1,3.9,4c.51.55,1,1.07,1.35,1.52C245.75,119.16,250.55,128.1,250.55,128.1Z"/><path class="cls-19" d="M250.21,75.92a6.53,6.53,0,0,1,.35,3.1,6.87,6.87,0,0,0,3.76,0,26.22,26.22,0,0,1,0-6.32"/><path class="cls-34" d="M245.6,66.88a3.86,3.86,0,0,0,3.74,3.66s.35.15.38,1.1c0,0,0-.9.6-.75s.53,1.55.27,1.87.31,2.82.5,2.93a12.52,12.52,0,0,0,3,0c.47-.14,1.69-2.59,2.07-4.74s.21-2.68-.9-3.17c0,0,.47-1.52-1.93-2.5S246.48,66.5,245.6,66.88Z"/><path class="cls-5" d="M261.38,92.13a3.56,3.56,0,0,1-1.51,1.51,5,5,0,0,1-.45.25,9.48,9.48,0,0,1-1,.44l-.38.13-.47.14-.37.09-2.71-6.55,5-8.85.1.14a4.78,4.78,0,0,1,.7,1.57h0c0,.11.05.22.07.34h0C261,84.22,261.93,90.93,261.38,92.13Z"/><path class="cls-14" d="M259.88,93.63a5,5,0,0,1-.45.25,9.48,9.48,0,0,1-1,.44l-.38.13.55-10.12Z"/><path class="cls-5" d="M259.95,100c.08.8.14,1.35-.39,1.65s-10.23,1.39-14.36.24c0,0-.44-.19-.2-.87a5.12,5.12,0,0,0,.24-1.63c.05-3.84-.3-14.78.43-20.66a30.59,30.59,0,0,1,8.52-1,15.24,15.24,0,0,1,3.48.44l.34.09h0a3.19,3.19,0,0,1,1.56,1.22h0a39.27,39.27,0,0,0-1,4.63C258.3,86.11,259.79,98.42,259.95,100Z"/><path class="cls-33" d="M254.27,123.59a5.51,5.51,0,0,0,.24.95c.15.36,3.13.43,3.13.43l1.21-.48,1.05-1.54a2.31,2.31,0,0,1-.05-.62c0-.41-4.16.33-4.16.33"/><path class="cls-19" d="M236.75,83.14l-.2-2.31a2.2,2.2,0,0,1-.57-.72,7.33,7.33,0,0,1-.28-1.48,2.92,2.92,0,0,1,.52-.54,5,5,0,0,1,1-.36,2.09,2.09,0,0,0-.13-.86,3.05,3.05,0,0,1-.35-1.34s.07-.19.18-.19a6.8,6.8,0,0,1,.75,1.21c.07.11.24,1.14.3,1.23a3.72,3.72,0,0,1,.75,1.07c.17.5-.19,1.45-.24,2a8.17,8.17,0,0,0,.36,1.9"/><path class="cls-19" d="M236.1,79.18s.06.54.07.78-.2.38-.28.28a2.58,2.58,0,0,1-.36-.85,7,7,0,0,1,.17-.76,3.47,3.47,0,0,1,.17-.48.21.21,0,0,1,.35,0"/><path class="cls-19" d="M236.81,78a.43.43,0,0,0-.41-.15c-.13,0-.31.29-.31.29l.14.16"/><path class="cls-19" d="M237.31,77.81a.43.43,0,0,0-.41-.15c-.13,0-.31.29-.31.29l.14.16"/><path class="cls-5" d="M240.41,89.67c-.12.88-2.95,5.71-3.2,4.73-.79-3.08-.79-12.29-.79-12.29a5,5,0,0,1,2.44-.32s.62,2.34,1.08,4.5c.16.75.3,1.49.39,2.09A5.27,5.27,0,0,1,240.41,89.67Z"/><path class="cls-14" d="M240.33,88.39c-.94,1.67-2.57,4.44-2.24,2.87a26.91,26.91,0,0,1,1.85-5C240.1,87,240.24,87.78,240.33,88.39Z"/><path class="cls-5" d="M245.67,78.7s2.76.81,3.24,3.08-7.74,13.69-10.09,13.68c-1.47,0-2.2-1.42-1.31-3C239.06,89.57,243.17,79.27,245.67,78.7Z"/><path class="cls-5" d="M245.23,96.27a37.71,37.71,0,0,1-.6,6.12c-.9,5-1.93,12.89-2.32,16.33a17.58,17.58,0,0,0,12,3.48,41.33,41.33,0,0,0,8.4-1.51l-2.88-22.27Z"/><rect class="cls-4" x="259.42" y="63.08" width="10.59" height="6.41" rx="2.46" ry="2.46"/><path class="cls-4" d="M261.75,68.87s.24,2.2-1.11,2.43c0,0,2.68.61,2.62-2.43"/><circle class="cls-5" cx="261.61" cy="66.35" r="0.6"/><circle class="cls-5" cx="264.72" cy="66.35" r="0.6"/><circle class="cls-5" cx="267.83" cy="66.35" r="0.6"/><rect class="cls-4" x="322.98" y="130.18" width="15.65" height="9.46" rx="3.63" ry="3.63"/><path class="cls-4" d="M326.41,138.73s.35,3.25-1.64,3.59c0,0,4,.9,3.87-3.59"/><circle class="cls-5" cx="326.22" cy="135" r="0.89"/><circle class="cls-5" cx="330.8" cy="135" r="0.89"/><circle class="cls-5" cx="335.39" cy="135" r="0.89"/><rect class="cls-4" x="40.67" y="138.76" width="12.83" height="7.76" rx="2.98" ry="2.98"/><path class="cls-4" d="M50.69,145.77s-.29,2.67,1.34,2.94c0,0-3.25.74-3.18-2.94"/><circle class="cls-5" cx="50.85" cy="142.72" r="0.73"/><circle class="cls-5" cx="47.09" cy="142.72" r="0.73"/><circle class="cls-5" cx="43.33" cy="142.72" r="0.73"/><path class="cls-19" d="M306.37,223.5V227a4.88,4.88,0,0,0,2.22,0l.16-3.88"/><path class="cls-20" d="M308.61,226.5s-.3.31-1.39.27a1.47,1.47,0,0,0-1.34-.23,5.68,5.68,0,0,1-1.86,1.11c-.77.16-1.68.25-1.89.59a.7.7,0,0,0-.13.56s-.05.14.89.18,4-.09,4.5-.07a5.81,5.81,0,0,0,1.56-.07C309.27,228.75,309.24,227.1,308.61,226.5Z"/><path class="cls-19" d="M325.58,222.59l1,3.32a4.88,4.88,0,0,0,2.12-.65l-1-3.76"/><path class="cls-20" d="M330,226.63a5.7,5.7,0,0,1-1.34.8c-.26.12-1.18.66-2.09,1.18a2.42,2.42,0,0,1-1.18.31h-1.49c-.28,0-.38-.19-.37-.31a.78.78,0,0,1,.72-.65,1.86,1.86,0,0,0,.33-.1,2.42,2.42,0,0,0,1.16-1c.28-.44.47-.82.47-.82a1.47,1.47,0,0,1,1.29-.43c1-.49,1.09-.9,1.09-.9C329.42,224.94,330.22,226.38,330,226.63Z"/><path class="cls-20" d="M314.41,186.75a16.85,16.85,0,0,1-.19,1.76c-.17,1-.6,2.64-1.12,4.45-.89,3.11-2.07,6.77-2.72,8.88,2.53,5.19-1.08,22.36-1.53,23.78a5.47,5.47,0,0,1-2.68-.14c-.54-7.91-1.47-24-1.46-24.39.21-8.14,1.21-15.64,1.29-16.84s.21-7.89.78-8.12c1.27-.47,4.55-1.56,6,.59S314.6,183.71,314.41,186.75Z"/><path class="cls-21" d="M314.41,186.75a16.85,16.85,0,0,1-.19,1.76c-.17,1-.6,2.64-1.12,4.45-.16-2.56-.45-9.68-.45-9.68Z"/><path class="cls-19" d="M287.27,162.21l-1.81-.43a4.47,4.47,0,0,1-1-.91,2,2,0,0,0-1.7-.62c-.19,0-.2.25.13.47s.61.08.74.6c.06.23-.6.24-.93.13s-1.48-.66-1.78-.78-.54.06.23.63a10,10,0,0,0,1.22.78,3.49,3.49,0,0,0,.27.48.35.35,0,0,0,.14.09,3.1,3.1,0,0,0,.25.44l.06,0,.2.41c.24.48,1.15.34,1.56.29a13.42,13.42,0,0,1,2.13.34Z"/><path class="cls-19" d="M282.86,162.06a4.52,4.52,0,0,1-1.16-.24c-.68-.23-1.55-.71-1.72-.73s-.2.21,0,.38a6.66,6.66,0,0,0,1.07.66,20.54,20.54,0,0,0,2,.61"/><path class="cls-19" d="M283.1,162.54a4.52,4.52,0,0,1-1.18-.11c-.7-.15-1.62-.53-1.79-.53s-.17.23,0,.38a6.66,6.66,0,0,0,1.14.53c.4.14,2.07.56,2.07.56"/><path class="cls-19" d="M283.67,163.24a4.52,4.52,0,0,1-1.18-.11c-.7-.15-1.62-.53-1.79-.53s-.17.23,0,.38a6.66,6.66,0,0,0,1.14.53,20.54,20.54,0,0,0,2.07.38"/><path class="cls-5" d="M306.24,154.39s-7,6.14-9,8.76a6.72,6.72,0,0,0,2.44,2.72,65.17,65.17,0,0,0,7.12-3.91"/><path class="cls-5" d="M297.39,162.9,286.67,162l-.39,2.22s8.11,3.11,11.14,3.11c2.48,0,8.55-4.82,8.55-4.82Z"/><path class="cls-20" d="M328.55,223.71a3.77,3.77,0,0,1-2.68.82c.23.31-7.33-16.63-8.55-20.07-.08-.22-.39-1.14-.49-1.45-.58-1.8-2.47-11-3.36-14.58l-2.55-11.53s-3.48.47-1,.33a27.88,27.88,0,0,0,7.11-1.76c5.27,4.5,5.75,9.67,5.54,12.25a23.81,23.81,0,0,0-.07,3.14c.19,3.86-.46,9-.31,11.61C327.92,210.34,328.23,220.86,328.55,223.71Z"/><path class="cls-5" d="M306.24,154.39c.95-.79,2.52-1.47,5.86-1.57,1.07-.18,1-.58,2.89-.08,2.22.58,4.8,1.06,5.18,1.9s.75,9,.22,11.82c-.4,2.12-.16,9.73,1.25,14.75.34,1.22-7.9-2.74-10.19-2.74-2,0-5-.08-5-.75-.14-1.41-.15-2.53-.16-3.55C306.23,172.54,305.44,155.3,306.24,154.39Z"/><path class="cls-5" d="M319,174.73a8.51,8.51,0,0,0,1.2,3.45A22.1,22.1,0,0,1,323,187c.36,3.64.32,14.39.32,14.39a63.06,63.06,0,0,1-13.79,0l-.22-25.24Z"/><path class="cls-5" d="M324.84,169.85c0-2.84-.33-10.41-3.31-14.31-1.15-1.51-3.8-2.11-3.8-2.11l.06,7c.07,2.63,1.84,9.74,1.84,9.74h5.19A3,3,0,0,0,324.84,169.85Z"/><path class="cls-7" d="M315.33,175.52,305,171.15a.42.42,0,0,1-.24-.52l4.67-13.81a.42.42,0,0,1,.56-.25l10.35,4.37a.42.42,0,0,1,.24.52l-4.67,13.81A.42.42,0,0,1,315.33,175.52Z"/><path class="cls-19" d="M311.5,167.07a10.12,10.12,0,0,1-1.35-.65c-.16-.16-.71-1.71-1.35-2a1.34,1.34,0,0,0-.81.36,3.84,3.84,0,0,0-.78,2c0,.63,1,1.17,1.17,1.25a19.06,19.06,0,0,1,2.09.91"/><path class="cls-19" d="M309.57,165.31a3.63,3.63,0,0,0-.84-1.07c-.35-.24-.44-.33-.55-.15a1,1,0,0,0,.21.9"/><path class="cls-5" d="M310.44,167.69a4.47,4.47,0,0,0-.37,1.47s9.14,5.29,12.29,6l.44-5.17-11.68-3.17A2.74,2.74,0,0,0,310.44,167.69Z"/><path class="cls-19" d="M316.9,153.2h0a4,4,0,0,1-4.8-.4l.39-.75a5.76,5.76,0,0,0,.62-1.59c0-.05,0-.11,0-.17a6.16,6.16,0,0,0,.11-.76,6.45,6.45,0,0,0,0-1.56l.26-.21,4.22-3.32.48-.37s-.14.81-.33,2c-.11.67-.23,1.45-.36,2.28C317.24,150,317,151.87,316.9,153.2Z"/><path class="cls-22" d="M316.24,148.45h0a12.09,12.09,0,0,1-3.75,3.61,5.76,5.76,0,0,0,.62-1.59,3.88,3.88,0,0,1-.78.15c0-.19,0-.39,0-.6l.28-.17.63-.31,3.33-1.62S316.47,148.12,316.24,148.45Z"/><path class="cls-35" d="M309.93,142.05s-.7,1.92.55,3l.6-2.92Z"/><path class="cls-19" d="M316.93,147.81a8.91,8.91,0,0,1-.66.81h0a7.54,7.54,0,0,1-1.31,1.13,5.53,5.53,0,0,1-1.68.8,3.7,3.7,0,0,1-.74.14,2.82,2.82,0,0,1-1.69-.32c-1-1.49-1-3.9-.74-5.73.09-.74.21-1.38.31-1.84s.16-.65.16-.65v0c.44-2.36,3.59-2.45,5.76-1.11a3.83,3.83,0,0,1,.37.25,4.22,4.22,0,0,1,1.4,1.64,4.11,4.11,0,0,1-.32,3.46l-.09.17A10.08,10.08,0,0,1,316.93,147.81Z"/><path class="cls-35" d="M317.13,141.57a5.68,5.68,0,0,1-7,1.12c-1.54-.75-1.82-4.27-.44-4,2,.32,4.06-1.59,6.24-.46A3.53,3.53,0,0,1,317.13,141.57Z"/><path class="cls-35" d="M316.2,141.31s-1.5,7.79.09,4.21c0,0,.4-1,1.13-.91s.14,2.77,0,3.91c0,0,1.66-1.19,2.27-4.72s-1.76-5-3.08-3.46Z"/><path class="cls-22" d="M317.27,145.18s-.41.06-.49.8.39.9.49.5-.27-.63-.35-.47A.92.92,0,0,1,317.27,145.18Z"/><path class="cls-5" d="M324.84,168.74s.59,7-2.49,6.37c-2.29-1.32-1.7-5.58-1.7-5.58a9.78,9.78,0,0,1,2.29-1A11.42,11.42,0,0,0,324.84,168.74Z"/><path class="cls-19" d="M308.66,165.1a7.13,7.13,0,0,1-.83-1c-.13-.28-.48-1.37-.67-1.44s-.29,0-.19.6.21,1.07.26,1.26a9.81,9.81,0,0,0,.86,1.15"/><path class="cls-19" d="M308.33,165.67a7.13,7.13,0,0,1-.83-1c-.13-.28-.48-1.37-.67-1.44s-.29,0-.19.6.21,1.07.26,1.26a9.81,9.81,0,0,0,.86,1.15"/><path class="cls-19" d="M308.13,166.28a7.13,7.13,0,0,1-.83-1c-.13-.28-.48-1.37-.67-1.44s-.29,0-.19.6.21,1.07.26,1.26a9.82,9.82,0,0,0,.86,1.15"/><path class="cls-19" d="M307.92,166.86a6.28,6.28,0,0,1-.73-.87c-.12-.25-.43-1.2-.59-1.27s-.26,0-.17.53.18.95.23,1.11a8.63,8.63,0,0,0,.76,1"/><path class="cls-5" d="M306.27,175.11l-2.41,25.48a12.68,12.68,0,0,0,3.31.48l2.42-24.43Z"/><path class="cls-5" d="M311.5,152.84l.76-.9a5.2,5.2,0,0,0,1.31.9v1.08A9,9,0,0,1,311.5,152.84Z"/><path class="cls-5" d="M313.57,153.61l.34-.71a10.71,10.71,0,0,0,3.26-.48l.31.94A4.77,4.77,0,0,1,313.57,153.61Z"/><path class="cls-14" d="M316.35,168.2a32.28,32.28,0,0,1,3.67.86l-.17.16c-.21-.83-.39-1.67-.52-2.52.3.81.56,1.63.78,2.45l.06.22-.22-.06A32.32,32.32,0,0,1,316.35,168.2Z"/><line class="cls-36" x1="13.16" y1="229.38" x2="351.33" y2="229.38"/><polygon class="cls-37" points="31.45 101.44 25.55 91.22 31.45 81.01 43.24 81.01 49.14 91.22 43.24 101.44 31.45 101.44"/><polyline class="cls-37" points="60.97 111.65 66.87 101.44 78.66 101.44 84.56 111.65"/><polygon class="cls-37" points="49.18 91.22 43.28 81.01 49.18 70.8 60.97 70.8 66.87 81.01 60.97 91.22 49.18 91.22"/><polyline class="cls-37" points="13.76 70.8 25.55 70.8 31.45 81.01 25.55 91.22 13.76 91.22"/><polygon class="cls-37" points="49.18 111.65 43.28 101.44 49.18 91.22 60.97 91.22 66.87 101.44 60.97 111.65 49.18 111.65"/><circle class="cls-2" cx="31.45" cy="81.01" r="1.64"/><circle class="cls-2" cx="43.28" cy="81.01" r="1.64"/><circle class="cls-2" cx="49.21" cy="70.8" r="1.64"/><circle class="cls-2" cx="61.01" cy="70.8" r="1.64"/><circle class="cls-2" cx="49.14" cy="91.22" r="1.64"/><circle class="cls-2" cx="66.87" cy="81.01" r="1.64"/><circle class="cls-2" cx="60.97" cy="91.22" r="1.64"/><circle class="cls-2" cx="43.28" cy="101.44" r="1.64"/><circle class="cls-2" cx="66.9" cy="101.44" r="1.64"/><circle class="cls-2" cx="60.97" cy="111.65" r="1.64"/><circle class="cls-2" cx="84.56" cy="111.65" r="1.64"/><circle class="cls-2" cx="49.21" cy="111.65" r="1.64"/><circle class="cls-2" cx="31.45" cy="101.44" r="1.64"/><circle class="cls-2" cx="25.55" cy="91.22" r="1.64"/><polygon class="cls-37" points="280.36 40.58 274.46 30.37 280.36 20.15 292.15 20.15 298.05 30.37 292.15 40.58 280.36 40.58"/><polyline class="cls-37" points="309.88 50.8 315.78 40.58 327.57 40.58 333.47 50.8"/><polygon class="cls-37" points="298.08 30.37 292.19 20.15 298.08 9.94 309.88 9.94 315.78 20.15 309.88 30.37 298.08 30.37"/><polyline class="cls-37" points="274.46 9.94 280.36 20.15 274.46 30.37 262.67 30.37"/><polyline class="cls-37" points="292.19 40.58 298.08 30.37 309.88 30.37 315.78 40.58 309.88 50.8"/><circle class="cls-2" cx="280.36" cy="20.15" r="1.64"/><circle class="cls-2" cx="274.46" cy="10.25" r="1.64"/><circle class="cls-2" cx="292.19" cy="20.15" r="1.64"/><circle class="cls-2" cx="298.12" cy="9.94" r="1.64"/><circle class="cls-2" cx="309.91" cy="9.94" r="1.64"/><circle class="cls-2" cx="298.05" cy="30.37" r="1.64"/><circle class="cls-2" cx="315.78" cy="20.15" r="1.64"/><circle class="cls-2" cx="309.88" cy="30.37" r="1.64"/><circle class="cls-2" cx="292.19" cy="40.58" r="1.64"/><circle class="cls-2" cx="315.81" cy="40.58" r="1.64"/><circle class="cls-2" cx="309.88" cy="50.79" r="1.64"/><circle class="cls-2" cx="333.47" cy="50.79" r="1.64"/><path class="cls-2" d="M299.76,50.79"/><circle class="cls-2" cx="280.36" cy="40.58" r="1.64"/><circle class="cls-2" cx="274.46" cy="30.37" r="1.64"/><path class="cls-38" d="M149.34,21.8c4.51,4.51-3.61,12.64.9,17.16s12.64-3.61,17.16.9-3.61,12.64.9,17.16"/><path class="cls-38" d="M141.21,29.93c4.51,4.51,12.64-3.61,17.16.9s-3.61,12.64.9,17.16,12.64-3.61,17.16.9"/><line class="cls-38" x1="150.24" y1="38.96" x2="158.37" y2="30.83"/><line class="cls-38" x1="148.91" y1="36.37" x2="155.78" y2="29.5"/><line class="cls-38" x1="152.83" y1="40.29" x2="159.7" y2="33.42"/><line class="cls-38" x1="143.8" y1="31.26" x2="150.67" y2="24.39"/><line class="cls-38" x1="159.27" y1="47.99" x2="167.4" y2="39.86"/><line class="cls-38" x1="157.95" y1="45.41" x2="164.82" y2="38.54"/><line class="cls-38" x1="161.86" y1="49.32" x2="168.73" y2="42.45"/><line class="cls-38" x1="167.06" y1="54.53" x2="173.94" y2="47.65"/><path class="cls-38" d="M10.26,135.57c4.51,4.51-3.61,12.64.9,17.16s12.64-3.61,17.16.9-3.61,12.64.9,17.16"/><path class="cls-38" d="M2.13,143.7c4.51,4.51,12.64-3.61,17.16.9s-3.61,12.64.9,17.16,12.64-3.61,17.16.9"/><line class="cls-38" x1="11.16" y1="152.73" x2="19.29" y2="144.6"/><line class="cls-38" x1="9.83" y1="150.14" x2="16.7" y2="143.27"/><line class="cls-38" x1="13.75" y1="154.06" x2="20.62" y2="147.19"/><line class="cls-38" x1="4.72" y1="145.03" x2="11.59" y2="138.16"/><line class="cls-38" x1="20.19" y1="161.76" x2="28.32" y2="153.63"/><line class="cls-38" x1="18.87" y1="159.18" x2="25.74" y2="152.31"/><line class="cls-38" x1="22.78" y1="163.09" x2="29.65" y2="156.22"/><line class="cls-38" x1="27.98" y1="168.3" x2="34.86" y2="161.42"/></g></g></g></svg>