<svg xmlns="http://www.w3.org/2000/svg" viewBox="0 0 24 24"><defs><style>.cls-1{fill:#999;}</style></defs><title>Ресурс 2</title><g id="Слой_2" data-name="Слой 2"><g id="Дизайн_копия_" data-name="Дизайн (копия)"><path class="cls-1" d="M12,0A12,12,0,1,0,24,12,12,12,0,0,0,12,0Zm0,22.91A10.91,10.91,0,1,1,22.91,12,10.91,10.91,0,0,1,12,22.91Z"/><path class="cls-1" d="M11.7,17.4c2.38,0,1.53-1.51,1.71-1.94,0-.32,0-.63,0-.82a3.65,3.65,0,0,1,1.24.94c1.13,1.14,1.42,1.83,2.34,1.83h1.69a1.11,1.11,0,0,0,1-.41,1.06,1.06,0,0,0,.12-1c-.38-1.18-2.57-3.22-2.71-3.44l.07-.12h0a19.43,19.43,0,0,0,2.33-4h0a1,1,0,0,0-.11-.91,1,1,0,0,0-.89-.37H16.76a1.24,1.24,0,0,0-1.21.8,11.9,11.9,0,0,1-2.14,3.49c0-1,0-1.68,0-2.22,0-1.05.1-2.08-1-2.08H9.77a.93.93,0,0,0-.63,1.63c.62.78.22,1.21.36,3.37a12.61,12.61,0,0,1-2.1-4,1.23,1.23,0,0,0-1.24-1H4.47a1,1,0,0,0-1.09,1c0,1.4,3.1,9.28,8.32,9.28ZM6.15,8.15c.15,0,.16,0,.27.31.67,2,2.18,4.9,3.27,4.9.83,0,.83-.85.83-1.16V9.66A2.42,2.42,0,0,0,10,8.15h2.4s0,2.81,0,3.48c0,1,.76,1.51,2,.31A14.65,14.65,0,0,0,16.5,8.31c.05-.12.1-.17.26-.17h1.69a20.09,20.09,0,0,1-2.19,3.72l0,0a1,1,0,0,0,0,1.34h0l.29.32c.47.48,2.08,2.14,2.22,2.8-.09,0-.2,0-1.79,0-.34,0-.6-.51-1.62-1.53s-1.5-1.25-2-1.25c-1,0-1,.85-1,1.87s0,.76,0,.83a2.07,2.07,0,0,1-.69.07c-4.35,0-7.18-6.9-7.29-8.22H6.15Z"/></g></g></svg>